<svg width="102" height="79" viewBox="0 0 102 79" fill="none" xmlns="http://www.w3.org/2000/svg">
<path d="M28.5194 37.4334L27.9793 35.6443L27.5539 37.4641C27.4077 38.0891 27.2626 39.6934 27.7463 41.4465C28.0423 42.5195 28.7714 44.5347 29.7324 46.6687C30.692 48.7993 31.902 51.0916 33.1702 52.6963C34.3604 54.2023 35.7701 56.7535 36.959 59.6479C38.1467 62.5393 39.0957 65.7291 39.3903 68.5024C39.8591 72.9172 38.4066 76.276 37.668 77.3531L37.1312 78.1358H38.0803C38.4284 78.1358 39.3441 78.059 40.4647 77.7684C41.206 77.5762 42.1776 77.1344 43.0143 76.5368C43.8353 75.9503 44.6258 75.1428 44.8428 74.1819C45.2145 72.5356 45.6636 69.3674 43.4618 64.0419C41.2754 58.754 37.4423 53.5216 34.3334 49.4098C33.1205 47.8058 31.8655 45.4754 30.8087 43.1971C29.7534 40.9218 28.9122 38.7345 28.5194 37.4334Z" fill="url(#paint0_linear_852_195)"/>
<path d="M28.5194 37.4334L27.9793 35.6443L27.5539 37.4641C27.4077 38.0891 27.2626 39.6934 27.7463 41.4465C28.0423 42.5195 28.7714 44.5347 29.7324 46.6687C30.692 48.7993 31.902 51.0916 33.1702 52.6963C34.3604 54.2023 35.7701 56.7535 36.959 59.6479C38.1467 62.5393 39.0957 65.7291 39.3903 68.5024C39.8591 72.9172 38.4066 76.276 37.668 77.3531L37.1312 78.1358H38.0803C38.4284 78.1358 39.3441 78.059 40.4647 77.7684C41.206 77.5762 42.1776 77.1344 43.0143 76.5368C43.8353 75.9503 44.6258 75.1428 44.8428 74.1819C45.2145 72.5356 45.6636 69.3674 43.4618 64.0419C41.2754 58.754 37.4423 53.5216 34.3334 49.4098C33.1205 47.8058 31.8655 45.4754 30.8087 43.1971C29.7534 40.9218 28.9122 38.7345 28.5194 37.4334Z" fill="url(#paint1_radial_852_195)"/>
<path d="M28.5194 37.4334L27.9793 35.6443L27.5539 37.4641C27.4077 38.0891 27.2626 39.6934 27.7463 41.4465C28.0423 42.5195 28.7714 44.5347 29.7324 46.6687C30.692 48.7993 31.902 51.0916 33.1702 52.6963C34.3604 54.2023 35.7701 56.7535 36.959 59.6479C38.1467 62.5393 39.0957 65.7291 39.3903 68.5024C39.8591 72.9172 38.4066 76.276 37.668 77.3531L37.1312 78.1358H38.0803C38.4284 78.1358 39.3441 78.059 40.4647 77.7684C41.206 77.5762 42.1776 77.1344 43.0143 76.5368C43.8353 75.9503 44.6258 75.1428 44.8428 74.1819C45.2145 72.5356 45.6636 69.3674 43.4618 64.0419C41.2754 58.754 37.4423 53.5216 34.3334 49.4098C33.1205 47.8058 31.8655 45.4754 30.8087 43.1971C29.7534 40.9218 28.9122 38.7345 28.5194 37.4334Z" stroke="#172031"/>
<path d="M31.3973 50.4301L30.5483 49.6025V50.7881C30.5483 51.096 30.633 51.4657 30.7508 51.8457C30.8717 52.2356 31.0409 52.6776 31.2373 53.1443C31.63 54.0777 32.1453 55.1426 32.6367 56.141C33.3157 57.5207 34.1286 59.5764 34.7621 61.6654C35.3993 63.7665 35.8369 65.8433 35.803 67.285C35.7474 69.6483 34.9629 72.3295 34.5779 73.3676L34.2916 74.1397L35.1088 74.0375C35.2273 74.0227 35.3887 73.9696 35.5693 73.8943C35.7643 73.813 36.0192 73.6898 36.3356 73.509C36.7822 73.2538 37.3841 72.721 37.8818 72.1001C38.3724 71.488 38.8386 70.6956 38.8836 69.9093C38.9578 68.6106 38.8117 65.5806 38.2235 63.2278C37.9261 62.0383 37.3025 60.4196 36.6812 58.979C36.0604 57.5395 35.4217 56.2311 35.0807 55.6629C34.8173 55.2238 34.1555 54.1711 33.4367 53.108C32.7288 52.0611 31.9288 50.9482 31.3973 50.4301Z" fill="url(#paint2_linear_852_195)"/>
<path d="M31.3973 50.4301L30.5483 49.6025V50.7881C30.5483 51.096 30.633 51.4657 30.7508 51.8457C30.8717 52.2356 31.0409 52.6776 31.2373 53.1443C31.63 54.0777 32.1453 55.1426 32.6367 56.141C33.3157 57.5207 34.1286 59.5764 34.7621 61.6654C35.3993 63.7665 35.8369 65.8433 35.803 67.285C35.7474 69.6483 34.9629 72.3295 34.5779 73.3676L34.2916 74.1397L35.1088 74.0375C35.2273 74.0227 35.3887 73.9696 35.5693 73.8943C35.7643 73.813 36.0192 73.6898 36.3356 73.509C36.7822 73.2538 37.3841 72.721 37.8818 72.1001C38.3724 71.488 38.8386 70.6956 38.8836 69.9093C38.9578 68.6106 38.8117 65.5806 38.2235 63.2278C37.9261 62.0383 37.3025 60.4196 36.6812 58.979C36.0604 57.5395 35.4217 56.2311 35.0807 55.6629C34.8173 55.2238 34.1555 54.1711 33.4367 53.108C32.7288 52.0611 31.9288 50.9482 31.3973 50.4301Z" fill="url(#paint3_radial_852_195)"/>
<path d="M31.3973 50.4301L30.5483 49.6025V50.7881C30.5483 51.096 30.633 51.4657 30.7508 51.8457C30.8717 52.2356 31.0409 52.6776 31.2373 53.1443C31.63 54.0777 32.1453 55.1426 32.6367 56.141C33.3157 57.5207 34.1286 59.5764 34.7621 61.6654C35.3993 63.7665 35.8369 65.8433 35.803 67.285C35.7474 69.6483 34.9629 72.3295 34.5779 73.3676L34.2916 74.1397L35.1088 74.0375C35.2273 74.0227 35.3887 73.9696 35.5693 73.8943C35.7643 73.813 36.0192 73.6898 36.3356 73.509C36.7822 73.2538 37.3841 72.721 37.8818 72.1001C38.3724 71.488 38.8386 70.6956 38.8836 69.9093C38.9578 68.6106 38.8117 65.5806 38.2235 63.2278C37.9261 62.0383 37.3025 60.4196 36.6812 58.979C36.0604 57.5395 35.4217 56.2311 35.0807 55.6629C34.8173 55.2238 34.1555 54.1711 33.4367 53.108C32.7288 52.0611 31.9288 50.9482 31.3973 50.4301Z" stroke="#172031"/>
<path d="M33.8441 34.8895L32.8611 34.9952C32.8352 35.5866 32.9497 36.3452 33.1356 37.1527C33.3235 37.969 33.5929 38.87 33.8971 39.7598C34.5036 41.5338 35.2624 43.3024 35.8226 44.3047C37.7184 47.6966 42.1585 53.5784 44.232 56.2953C44.9691 57.2611 45.8189 58.2909 46.642 59.2883C46.988 59.7076 47.3294 60.1212 47.6556 60.5219C48.7762 61.8984 49.7004 63.1016 50.1155 63.9317C50.321 64.3427 50.5055 65.0081 50.6545 65.6693C50.7541 66.1113 50.8248 66.4845 50.8794 66.7731C50.9093 66.931 50.9344 67.0636 50.9568 67.1683L51.1645 68.1375L51.8205 67.3944C52.1098 67.0668 52.3099 66.564 52.4558 66.0408C52.6066 65.4999 52.7178 64.8669 52.7928 64.2207C52.9422 62.9344 52.9556 61.533 52.8244 60.6149C52.7731 60.2556 52.601 59.8514 52.3757 59.4396C52.1453 59.0186 51.8365 58.5496 51.4748 58.0524C50.7509 57.0574 49.7919 55.9179 48.7626 54.7737C46.7032 52.4842 44.3327 50.1429 42.923 48.8417C40.1782 46.308 37.3413 41.9963 36.4648 40.5703C36.1282 40.0227 35.5551 38.9192 35.0194 37.7785C34.4798 36.6297 34.0052 35.5002 33.8441 34.8895Z" fill="url(#paint4_linear_852_195)"/>
<path d="M33.8441 34.8895L32.8611 34.9952C32.8352 35.5866 32.9497 36.3452 33.1356 37.1527C33.3235 37.969 33.5929 38.87 33.8971 39.7598C34.5036 41.5338 35.2624 43.3024 35.8226 44.3047C37.7184 47.6966 42.1585 53.5784 44.232 56.2953C44.9691 57.2611 45.8189 58.2909 46.642 59.2883C46.988 59.7076 47.3294 60.1212 47.6556 60.5219C48.7762 61.8984 49.7004 63.1016 50.1155 63.9317C50.321 64.3427 50.5055 65.0081 50.6545 65.6693C50.7541 66.1113 50.8248 66.4845 50.8794 66.7731C50.9093 66.931 50.9344 67.0636 50.9568 67.1683L51.1645 68.1375L51.8205 67.3944C52.1098 67.0668 52.3099 66.564 52.4558 66.0408C52.6066 65.4999 52.7178 64.8669 52.7928 64.2207C52.9422 62.9344 52.9556 61.533 52.8244 60.6149C52.7731 60.2556 52.601 59.8514 52.3757 59.4396C52.1453 59.0186 51.8365 58.5496 51.4748 58.0524C50.7509 57.0574 49.7919 55.9179 48.7626 54.7737C46.7032 52.4842 44.3327 50.1429 42.923 48.8417C40.1782 46.308 37.3413 41.9963 36.4648 40.5703C36.1282 40.0227 35.5551 38.9192 35.0194 37.7785C34.4798 36.6297 34.0052 35.5002 33.8441 34.8895Z" fill="url(#paint5_radial_852_195)"/>
<path d="M33.8441 34.8895L32.8611 34.9952C32.8352 35.5866 32.9497 36.3452 33.1356 37.1527C33.3235 37.969 33.5929 38.87 33.8971 39.7598C34.5036 41.5338 35.2624 43.3024 35.8226 44.3047C37.7184 47.6966 42.1585 53.5784 44.232 56.2953C44.9691 57.2611 45.8189 58.2909 46.642 59.2883C46.988 59.7076 47.3294 60.1212 47.6556 60.5219C48.7762 61.8984 49.7004 63.1016 50.1155 63.9317C50.321 64.3427 50.5055 65.0081 50.6545 65.6693C50.7541 66.1113 50.8248 66.4845 50.8794 66.7731C50.9093 66.931 50.9344 67.0636 50.9568 67.1683L51.1645 68.1375L51.8205 67.3944C52.1098 67.0668 52.3099 66.564 52.4558 66.0408C52.6066 65.4999 52.7178 64.8669 52.7928 64.2207C52.9422 62.9344 52.9556 61.533 52.8244 60.6149C52.7731 60.2556 52.601 59.8514 52.3757 59.4396C52.1453 59.0186 51.8365 58.5496 51.4748 58.0524C50.7509 57.0574 49.7919 55.9179 48.7626 54.7737C46.7032 52.4842 44.3327 50.1429 42.923 48.8417C40.1782 46.308 37.3413 41.9963 36.4648 40.5703C36.1282 40.0227 35.5551 38.9192 35.0194 37.7785C34.4798 36.6297 34.0052 35.5002 33.8441 34.8895Z" stroke="#172031"/>
<path d="M34.1471 26.4447L33.1791 26.2457C32.7329 27.4465 32.1493 30.681 33.1651 34.4395C33.8011 36.793 35.153 39.3754 36.5003 41.5395C37.8488 43.7056 39.2203 45.4963 39.9268 46.2695C41.3028 47.7753 49.5287 55.6662 50.6038 56.6645C51.1322 57.1551 51.5312 57.5739 51.8163 57.925C52.106 58.2818 52.2574 58.5438 52.3195 58.7212C52.3898 58.9221 52.5452 59.3819 52.683 59.8061C52.7519 60.0183 52.8154 60.2186 52.8613 60.3717C52.8844 60.4488 52.9019 60.5099 52.9131 60.5531C52.915 60.5605 52.9166 60.5668 52.918 60.5722V62.0735L53.8231 60.8223C54.0094 60.5648 54.1411 60.1767 54.2355 59.7679C54.3339 59.3417 54.4052 58.8305 54.4397 58.2808C54.5085 57.1863 54.4342 55.8922 54.1038 54.7666C53.6225 53.1274 52.9673 52.1595 51.9789 51.2958C51.4981 50.8757 50.9434 50.4843 50.3142 50.0561C50.1669 49.9559 50.0153 49.8535 49.8589 49.7478C49.3412 49.3981 48.771 49.0129 48.1309 48.5536C44.7662 46.1392 41.1905 43.4895 38.5772 39.7203C35.905 35.8661 34.4398 33.0916 34.2547 30.6977C34.0989 28.6826 34.1188 27.0136 34.1471 26.4447Z" fill="url(#paint6_linear_852_195)"/>
<path d="M34.1471 26.4447L33.1791 26.2457C32.7329 27.4465 32.1493 30.681 33.1651 34.4395C33.8011 36.793 35.153 39.3754 36.5003 41.5395C37.8488 43.7056 39.2203 45.4963 39.9268 46.2695C41.3028 47.7753 49.5287 55.6662 50.6038 56.6645C51.1322 57.1551 51.5312 57.5739 51.8163 57.925C52.106 58.2818 52.2574 58.5438 52.3195 58.7212C52.3898 58.9221 52.5452 59.3819 52.683 59.8061C52.7519 60.0183 52.8154 60.2186 52.8613 60.3717C52.8844 60.4488 52.9019 60.5099 52.9131 60.5531C52.915 60.5605 52.9166 60.5668 52.918 60.5722V62.0735L53.8231 60.8223C54.0094 60.5648 54.1411 60.1767 54.2355 59.7679C54.3339 59.3417 54.4052 58.8305 54.4397 58.2808C54.5085 57.1863 54.4342 55.8922 54.1038 54.7666C53.6225 53.1274 52.9673 52.1595 51.9789 51.2958C51.4981 50.8757 50.9434 50.4843 50.3142 50.0561C50.1669 49.9559 50.0153 49.8535 49.8589 49.7478C49.3412 49.3981 48.771 49.0129 48.1309 48.5536C44.7662 46.1392 41.1905 43.4895 38.5772 39.7203C35.905 35.8661 34.4398 33.0916 34.2547 30.6977C34.0989 28.6826 34.1188 27.0136 34.1471 26.4447Z" fill="url(#paint7_radial_852_195)"/>
<path d="M34.1471 26.4447L33.1791 26.2457C32.7329 27.4465 32.1493 30.681 33.1651 34.4395C33.8011 36.793 35.153 39.3754 36.5003 41.5395C37.8488 43.7056 39.2203 45.4963 39.9268 46.2695C41.3028 47.7753 49.5287 55.6662 50.6038 56.6645C51.1322 57.1551 51.5312 57.5739 51.8163 57.925C52.106 58.2818 52.2574 58.5438 52.3195 58.7212C52.3898 58.9221 52.5452 59.3819 52.683 59.8061C52.7519 60.0183 52.8154 60.2186 52.8613 60.3717C52.8844 60.4488 52.9019 60.5099 52.9131 60.5531C52.915 60.5605 52.9166 60.5668 52.918 60.5722V62.0735L53.8231 60.8223C54.0094 60.5648 54.1411 60.1767 54.2355 59.7679C54.3339 59.3417 54.4052 58.8305 54.4397 58.2808C54.5085 57.1863 54.4342 55.8922 54.1038 54.7666C53.6225 53.1274 52.9673 52.1595 51.9789 51.2958C51.4981 50.8757 50.9434 50.4843 50.3142 50.0561C50.1669 49.9559 50.0153 49.8535 49.8589 49.7478C49.3412 49.3981 48.771 49.0129 48.1309 48.5536C44.7662 46.1392 41.1905 43.4895 38.5772 39.7203C35.905 35.8661 34.4398 33.0916 34.2547 30.6977C34.0989 28.6826 34.1188 27.0136 34.1471 26.4447Z" stroke="#172031"/>
<path d="M38.3321 17.8802L37.4986 17.3418C36.6551 18.3478 35.4841 20.1672 34.6642 22.4012C33.844 24.636 33.3617 27.3228 33.9477 30.0422C35.3755 36.6687 38.8237 40.8935 42.2412 43.5393C43.4154 44.4483 45.0851 45.6961 46.788 46.9688C47.5109 47.5091 48.2399 48.0538 48.9394 48.579C50.1153 49.4619 51.2087 50.2899 52.0565 50.9524C52.4806 51.2838 52.8405 51.5716 53.1174 51.8031C53.4035 52.0422 53.5758 52.2005 53.6455 52.2797C54.3494 53.0796 54.7286 54.1518 54.864 55.2344C54.9169 55.6579 54.9295 56.2705 54.9212 56.8335C54.9128 57.4017 54.8841 57.8682 54.8651 58.0009L54.5989 59.8647L55.7548 58.3785C55.9704 58.1013 56.2056 57.6716 56.4327 57.1902C56.664 56.6998 56.9012 56.1248 57.1162 55.5365C57.5386 54.3806 57.9028 53.0995 57.9349 52.2968C57.9584 51.7096 57.7123 51.0154 57.3101 50.3078C56.8998 49.5857 56.294 48.7922 55.5186 47.9908C53.9671 46.3871 51.7063 44.7205 48.8812 43.5098C46.1086 42.3215 43.9371 41.3471 42.1731 39.9704C40.4284 38.6088 39.0642 36.8372 37.964 34.0243C35.7586 28.3856 36.6089 23.8566 36.9889 21.8555C37.2855 20.2935 38.0089 18.5506 38.3321 17.8802Z" fill="url(#paint8_linear_852_195)"/>
<path d="M38.3321 17.8802L37.4986 17.3418C36.6551 18.3478 35.4841 20.1672 34.6642 22.4012C33.844 24.636 33.3617 27.3228 33.9477 30.0422C35.3755 36.6687 38.8237 40.8935 42.2412 43.5393C43.4154 44.4483 45.0851 45.6961 46.788 46.9688C47.5109 47.5091 48.2399 48.0538 48.9394 48.579C50.1153 49.4619 51.2087 50.2899 52.0565 50.9524C52.4806 51.2838 52.8405 51.5716 53.1174 51.8031C53.4035 52.0422 53.5758 52.2005 53.6455 52.2797C54.3494 53.0796 54.7286 54.1518 54.864 55.2344C54.9169 55.6579 54.9295 56.2705 54.9212 56.8335C54.9128 57.4017 54.8841 57.8682 54.8651 58.0009L54.5989 59.8647L55.7548 58.3785C55.9704 58.1013 56.2056 57.6716 56.4327 57.1902C56.664 56.6998 56.9012 56.1248 57.1162 55.5365C57.5386 54.3806 57.9028 53.0995 57.9349 52.2968C57.9584 51.7096 57.7123 51.0154 57.3101 50.3078C56.8998 49.5857 56.294 48.7922 55.5186 47.9908C53.9671 46.3871 51.7063 44.7205 48.8812 43.5098C46.1086 42.3215 43.9371 41.3471 42.1731 39.9704C40.4284 38.6088 39.0642 36.8372 37.964 34.0243C35.7586 28.3856 36.6089 23.8566 36.9889 21.8555C37.2855 20.2935 38.0089 18.5506 38.3321 17.8802Z" fill="url(#paint9_radial_852_195)"/>
<path d="M38.3321 17.8802L37.4986 17.3418C36.6551 18.3478 35.4841 20.1672 34.6642 22.4012C33.844 24.636 33.3617 27.3228 33.9477 30.0422C35.3755 36.6687 38.8237 40.8935 42.2412 43.5393C43.4154 44.4483 45.0851 45.6961 46.788 46.9688C47.5109 47.5091 48.2399 48.0538 48.9394 48.579C50.1153 49.4619 51.2087 50.2899 52.0565 50.9524C52.4806 51.2838 52.8405 51.5716 53.1174 51.8031C53.4035 52.0422 53.5758 52.2005 53.6455 52.2797C54.3494 53.0796 54.7286 54.1518 54.864 55.2344C54.9169 55.6579 54.9295 56.2705 54.9212 56.8335C54.9128 57.4017 54.8841 57.8682 54.8651 58.0009L54.5989 59.8647L55.7548 58.3785C55.9704 58.1013 56.2056 57.6716 56.4327 57.1902C56.664 56.6998 56.9012 56.1248 57.1162 55.5365C57.5386 54.3806 57.9028 53.0995 57.9349 52.2968C57.9584 51.7096 57.7123 51.0154 57.3101 50.3078C56.8998 49.5857 56.294 48.7922 55.5186 47.9908C53.9671 46.3871 51.7063 44.7205 48.8812 43.5098C46.1086 42.3215 43.9371 41.3471 42.1731 39.9704C40.4284 38.6088 39.0642 36.8372 37.964 34.0243C35.7586 28.3856 36.6089 23.8566 36.9889 21.8555C37.2855 20.2935 38.0089 18.5506 38.3321 17.8802Z" stroke="#172031"/>
<path d="M39.5734 19.7109L40.5459 19.7786C40.8731 18.6994 41.5989 16.3841 41.9283 15.5936C42.1173 15.1398 42.4334 14.3208 42.7336 13.543C42.7773 13.4298 42.8206 13.3174 42.8632 13.2072C43.0319 12.7706 43.1887 12.3663 43.3086 12.0661C43.3687 11.9155 43.4181 11.7947 43.4543 11.7104C43.471 11.6717 43.4831 11.6447 43.4912 11.6277C43.5333 11.5631 43.5727 11.4712 43.5729 11.3534C43.5731 11.1641 43.4722 11.039 43.4101 10.9816C43.3123 10.8914 43.2028 10.8639 43.1828 10.8589C43.182 10.8587 43.1813 10.8585 43.1808 10.8584C43.1121 10.8405 43.0431 10.8361 42.9992 10.8343C42.8966 10.8302 42.7624 10.8361 42.6059 10.8533C42.2887 10.8882 41.8422 10.9737 41.3074 11.1508C40.2352 11.506 38.8025 12.2312 37.3449 13.6621C35.9316 15.0496 33.251 17.8637 31.1027 21.6138C28.9548 25.3632 27.3181 30.0854 28.0536 35.2702C28.7182 39.9542 30.9409 44.2503 33.4172 48.0901C34.6014 49.9262 35.8505 51.6681 37.0212 53.3009C37.0757 53.3768 37.1299 53.4525 37.184 53.5279C38.4052 55.2314 39.5287 56.8083 40.4132 58.2676C42.5183 61.7412 44.3537 65.4798 45.3064 68.3052C46.0527 70.5183 46.1137 73.2027 46.0491 74.2581L45.9884 75.2489L46.8206 74.7079C47.1851 74.471 47.7524 74.0323 48.3103 73.4648C48.866 72.8996 49.4382 72.1804 49.7793 71.3796L49.7866 71.3626L49.7866 71.3625L49.7928 71.348C50.1781 70.4434 50.742 69.1197 50.7205 67.4103C50.6989 65.6805 50.0813 63.6131 48.2124 61.1955C48.0861 61.0321 47.9567 60.8648 47.8246 60.694C44.1352 55.9243 38.2992 48.3794 35.7485 42.9911C34.4324 40.2108 33.3365 36.8179 32.8303 33.4471C32.3232 30.0693 32.4152 26.7603 33.4264 24.1193C35.1459 19.6288 37.9681 16.9407 39.6978 15.6753C39.6143 16.1351 39.5356 16.6537 39.4928 17.1435C39.4005 18.1998 39.5069 19.2864 39.5734 19.7109ZM42.9716 11.8343C42.9716 11.8343 42.9706 11.8342 42.9686 11.834L42.9716 11.8343Z" fill="url(#paint10_linear_852_195)"/>
<path d="M39.5734 19.7109L40.5459 19.7786C40.8731 18.6994 41.5989 16.3841 41.9283 15.5936C42.1173 15.1398 42.4334 14.3208 42.7336 13.543C42.7773 13.4298 42.8206 13.3174 42.8632 13.2072C43.0319 12.7706 43.1887 12.3663 43.3086 12.0661C43.3687 11.9155 43.4181 11.7947 43.4543 11.7104C43.471 11.6717 43.4831 11.6447 43.4912 11.6277C43.5333 11.5631 43.5727 11.4712 43.5729 11.3534C43.5731 11.1641 43.4722 11.039 43.4101 10.9816C43.3123 10.8914 43.2028 10.8639 43.1828 10.8589C43.182 10.8587 43.1813 10.8585 43.1808 10.8584C43.1121 10.8405 43.0431 10.8361 42.9992 10.8343C42.8966 10.8302 42.7624 10.8361 42.6059 10.8533C42.2887 10.8882 41.8422 10.9737 41.3074 11.1508C40.2352 11.506 38.8025 12.2312 37.3449 13.6621C35.9316 15.0496 33.251 17.8637 31.1027 21.6138C28.9548 25.3632 27.3181 30.0854 28.0536 35.2702C28.7182 39.9542 30.9409 44.2503 33.4172 48.0901C34.6014 49.9262 35.8505 51.6681 37.0212 53.3009C37.0757 53.3768 37.1299 53.4525 37.184 53.5279C38.4052 55.2314 39.5287 56.8083 40.4132 58.2676C42.5183 61.7412 44.3537 65.4798 45.3064 68.3052C46.0527 70.5183 46.1137 73.2027 46.0491 74.2581L45.9884 75.2489L46.8206 74.7079C47.1851 74.471 47.7524 74.0323 48.3103 73.4648C48.866 72.8996 49.4382 72.1804 49.7793 71.3796L49.7866 71.3626L49.7866 71.3625L49.7928 71.348C50.1781 70.4434 50.742 69.1197 50.7205 67.4103C50.6989 65.6805 50.0813 63.6131 48.2124 61.1955C48.0861 61.0321 47.9567 60.8648 47.8246 60.694C44.1352 55.9243 38.2992 48.3794 35.7485 42.9911C34.4324 40.2108 33.3365 36.8179 32.8303 33.4471C32.3232 30.0693 32.4152 26.7603 33.4264 24.1193C35.1459 19.6288 37.9681 16.9407 39.6978 15.6753C39.6143 16.1351 39.5356 16.6537 39.4928 17.1435C39.4005 18.1998 39.5069 19.2864 39.5734 19.7109ZM42.9716 11.8343C42.9716 11.8343 42.9706 11.8342 42.9686 11.834L42.9716 11.8343Z" fill="url(#paint11_radial_852_195)"/>
<path d="M39.5734 19.7109L40.5459 19.7786C40.8731 18.6994 41.5989 16.3841 41.9283 15.5936C42.1173 15.1398 42.4334 14.3208 42.7336 13.543C42.7773 13.4298 42.8206 13.3174 42.8632 13.2072C43.0319 12.7706 43.1887 12.3663 43.3086 12.0661C43.3687 11.9155 43.4181 11.7947 43.4543 11.7104C43.471 11.6717 43.4831 11.6447 43.4912 11.6277C43.5333 11.5631 43.5727 11.4712 43.5729 11.3534C43.5731 11.1641 43.4722 11.039 43.4101 10.9816C43.3123 10.8914 43.2028 10.8639 43.1828 10.8589C43.182 10.8587 43.1813 10.8585 43.1808 10.8584C43.1121 10.8405 43.0431 10.8361 42.9992 10.8343C42.8966 10.8302 42.7624 10.8361 42.6059 10.8533C42.2887 10.8882 41.8422 10.9737 41.3074 11.1508C40.2352 11.506 38.8025 12.2312 37.3449 13.6621C35.9316 15.0496 33.251 17.8637 31.1027 21.6138C28.9548 25.3632 27.3181 30.0854 28.0536 35.2702C28.7182 39.9542 30.9409 44.2503 33.4172 48.0901C34.6014 49.9262 35.8505 51.6681 37.0212 53.3009C37.0757 53.3768 37.1299 53.4525 37.184 53.5279C38.4052 55.2314 39.5287 56.8083 40.4132 58.2676C42.5183 61.7412 44.3537 65.4798 45.3064 68.3052C46.0527 70.5183 46.1137 73.2027 46.0491 74.2581L45.9884 75.2489L46.8206 74.7079C47.1851 74.471 47.7524 74.0323 48.3103 73.4648C48.866 72.8996 49.4382 72.1804 49.7793 71.3796L49.7866 71.3626L49.7866 71.3625L49.7928 71.348C50.1781 70.4434 50.742 69.1197 50.7205 67.4103C50.6989 65.6805 50.0813 63.6131 48.2124 61.1955C48.0861 61.0321 47.9567 60.8648 47.8246 60.694C44.1352 55.9243 38.2992 48.3794 35.7485 42.9911C34.4324 40.2108 33.3365 36.8179 32.8303 33.4471C32.3232 30.0693 32.4152 26.7603 33.4264 24.1193C35.1459 19.6288 37.9681 16.9407 39.6978 15.6753C39.6143 16.1351 39.5356 16.6537 39.4928 17.1435C39.4005 18.1998 39.5069 19.2864 39.5734 19.7109ZM42.9716 11.8343C42.9716 11.8343 42.9706 11.8342 42.9686 11.834L42.9716 11.8343Z" stroke="#172031"/>
<path d="M39.9521 19.6586L40.4551 19.9273C40.4291 19.937 40.4044 19.946 40.3808 19.9545C40.3359 19.9707 40.2975 19.984 40.2652 19.9947C40.2531 19.9881 40.2401 19.9811 40.2261 19.9735C40.2191 19.9696 40.2117 19.9656 40.2041 19.9615C40.1275 19.9196 40.027 19.8647 39.9239 19.8173C39.8128 19.7661 39.6675 19.7083 39.5102 19.6846C39.351 19.6605 39.129 19.6644 38.9218 19.801C38.833 19.8595 38.7549 19.9392 38.6949 20.0063C38.6288 20.0803 38.5582 20.1695 38.4851 20.2698C38.3386 20.4709 38.1698 20.734 37.9927 21.0466C37.6382 21.6723 37.24 22.515 36.9147 23.4909C36.5677 24.5317 36.5363 25.8646 36.6788 27.0993C36.8214 28.3356 37.1474 29.5497 37.5755 30.3608C38.2664 31.6699 39.6173 32.5816 40.2103 32.883L40.8391 32.1403C40.6345 31.8632 40.2171 31.1761 40.1074 30.6187C39.897 29.5493 39.697 28.094 39.697 27.1668C39.697 26.7055 39.747 25.8638 39.9915 24.9741C40.2371 24.0808 40.6663 23.1835 41.3926 22.5555C42.9864 21.1774 45.9403 19.7852 47.3123 19.1634C48.5179 18.617 49.5315 17.5863 50.1792 16.9275C50.316 16.7885 50.4364 16.666 50.539 16.5681C50.5806 16.5284 50.6284 16.4864 50.6816 16.4427C50.6931 16.4518 50.7052 16.4606 50.7181 16.4692C50.7936 16.5104 50.9329 16.5488 50.9918 16.5527C51.0306 16.5514 51.0951 16.5425 51.1208 16.5366C51.1692 16.524 51.2046 16.5068 51.2168 16.5008C51.2456 16.4866 51.2666 16.4726 51.2721 16.4689C51.281 16.4631 51.288 16.458 51.292 16.4551C51.3001 16.4491 51.3069 16.4439 51.3106 16.4409C51.3246 16.4299 51.3418 16.4155 51.3576 16.4021C51.482 16.2965 51.8884 16.0378 52.3881 15.7303C52.5215 15.6482 52.6592 15.564 52.7947 15.4811C53.139 15.2706 53.4696 15.0684 53.6817 14.9301C53.8869 14.7962 54.2173 14.6826 54.6954 14.5928C55.1654 14.5045 55.7314 14.4471 56.3778 14.3981C56.9094 14.3578 57.107 14.5125 57.1914 14.6183C57.2995 14.7538 57.343 14.9614 57.3354 15.172C57.3232 15.5063 57.3805 15.8372 57.4618 16.1123C57.5403 16.3782 57.6552 16.6391 57.7912 16.8151C57.9089 16.9674 58.0605 17.0481 58.1811 17.093C58.3001 17.1374 58.4193 17.158 58.5062 17.1704C58.5226 17.1728 58.537 17.1748 58.5498 17.1765C58.5492 17.1819 58.5486 17.1873 58.548 17.1929C58.5392 17.2752 58.5282 17.3777 58.5189 17.4963C58.5077 17.639 58.4912 17.6954 58.4851 17.7112C58.4841 17.7126 58.4822 17.7153 58.4787 17.7196C58.4724 17.7277 58.4691 17.7317 58.4642 17.7377C58.4595 17.7434 58.4533 17.7509 58.4414 17.7655C58.4036 17.8124 58.3539 17.8777 58.3048 17.9702C58.3051 17.9696 58.3052 17.9693 58.3052 17.9693C58.3048 17.969 58.2914 17.9891 58.2516 18.0397C58.2066 18.0969 58.1457 18.1709 58.0712 18.2601C58.0315 18.3077 57.9883 18.3592 57.9425 18.4138C57.8201 18.5596 57.6796 18.7269 57.5414 18.8967C57.3514 19.13 57.1549 19.3807 56.9996 19.6079C56.922 19.7213 56.8493 19.8367 56.7916 19.9466C56.7388 20.0471 56.6773 20.1822 56.6563 20.3263C56.6302 20.5054 56.6382 20.7364 56.6614 20.9841C56.6857 21.2419 56.7303 21.5544 56.7938 21.913C56.9208 22.631 57.1269 23.5544 57.41 24.6329C57.6766 25.6484 57.822 27.0952 57.8551 28.4721C57.8883 29.8586 57.8057 31.0975 57.6498 31.7091C57.5343 32.1624 57.1762 32.8017 56.7307 33.4537C56.2955 34.0906 55.8158 34.6844 55.5104 35.0324L54.8715 35.7606L55.8351 35.8596L59.2189 36.2072L59.3679 36.2225L59.5008 36.1534C59.648 36.0767 59.7916 35.9341 59.9149 35.7649C60.047 35.5836 60.1805 35.3381 60.2914 35.0177C60.3327 34.8984 60.3602 34.743 60.3813 34.592C60.4038 34.431 60.4238 34.2376 60.4418 34.0234C60.4779 33.5945 60.5073 33.0634 60.531 32.5042C60.5786 31.3849 60.6041 30.1347 60.613 29.3246L60.613 29.3246V29.3191V18.3559C60.613 16.2843 60.0306 14.7189 59.7039 14.1482L59.4926 13.7791L59.2519 13.8694C59.2339 13.8305 59.2148 13.7911 59.1948 13.7515C59.0759 13.516 58.9052 13.2381 58.6785 13.0217C58.6363 12.9815 58.5928 12.9382 58.5464 12.8921C58.3897 12.7363 58.1997 12.5474 57.916 12.3296C57.5453 12.0451 57.0112 11.7049 56.1175 11.2387C54.2624 10.2708 51.8528 10.0127 50.3127 10.4768C48.7467 10.9487 47.4266 12.3725 46.8281 13.6932C46.5955 14.2064 46.0399 14.8375 45.3979 15.4159C44.7634 15.9877 44.1147 16.4461 43.7634 16.6301C43.445 16.7968 42.9228 16.9551 42.3609 17.1253C42.3082 17.1413 42.2551 17.1574 42.2018 17.1736C41.9069 17.2633 41.6089 17.3563 41.3625 17.4517C41.2391 17.4995 41.1179 17.5519 41.0109 17.6098C40.9111 17.6638 40.788 17.7411 40.6911 17.8507C40.5813 17.9748 40.4932 18.1349 40.4249 18.2779C40.3527 18.4289 40.2855 18.5977 40.2259 18.7631C40.1066 19.0939 40.0077 19.4387 39.9521 19.6586ZM41.8261 19.3592C41.7946 19.373 41.7633 19.3866 41.7322 19.4002C41.7642 19.3849 41.7955 19.3712 41.8261 19.3592ZM58.5658 16.9705C58.5659 16.9705 58.5659 16.9713 58.566 16.973L58.5658 16.9705ZM58.4828 17.7162C58.4828 17.7161 58.4834 17.7144 58.485 17.7117C58.4837 17.715 58.4829 17.7164 58.4828 17.7162Z" fill="url(#paint12_linear_852_195)"/>
<path d="M39.9521 19.6586L40.4551 19.9273C40.4291 19.937 40.4044 19.946 40.3808 19.9545C40.3359 19.9707 40.2975 19.984 40.2652 19.9947C40.2531 19.9881 40.2401 19.9811 40.2261 19.9735C40.2191 19.9696 40.2117 19.9656 40.2041 19.9615C40.1275 19.9196 40.027 19.8647 39.9239 19.8173C39.8128 19.7661 39.6675 19.7083 39.5102 19.6846C39.351 19.6605 39.129 19.6644 38.9218 19.801C38.833 19.8595 38.7549 19.9392 38.6949 20.0063C38.6288 20.0803 38.5582 20.1695 38.4851 20.2698C38.3386 20.4709 38.1698 20.734 37.9927 21.0466C37.6382 21.6723 37.24 22.515 36.9147 23.4909C36.5677 24.5317 36.5363 25.8646 36.6788 27.0993C36.8214 28.3356 37.1474 29.5497 37.5755 30.3608C38.2664 31.6699 39.6173 32.5816 40.2103 32.883L40.8391 32.1403C40.6345 31.8632 40.2171 31.1761 40.1074 30.6187C39.897 29.5493 39.697 28.094 39.697 27.1668C39.697 26.7055 39.747 25.8638 39.9915 24.9741C40.2371 24.0808 40.6663 23.1835 41.3926 22.5555C42.9864 21.1774 45.9403 19.7852 47.3123 19.1634C48.5179 18.617 49.5315 17.5863 50.1792 16.9275C50.316 16.7885 50.4364 16.666 50.539 16.5681C50.5806 16.5284 50.6284 16.4864 50.6816 16.4427C50.6931 16.4518 50.7052 16.4606 50.7181 16.4692C50.7936 16.5104 50.9329 16.5488 50.9918 16.5527C51.0306 16.5514 51.0951 16.5425 51.1208 16.5366C51.1692 16.524 51.2046 16.5068 51.2168 16.5008C51.2456 16.4866 51.2666 16.4726 51.2721 16.4689C51.281 16.4631 51.288 16.458 51.292 16.4551C51.3001 16.4491 51.3069 16.4439 51.3106 16.4409C51.3246 16.4299 51.3418 16.4155 51.3576 16.4021C51.482 16.2965 51.8884 16.0378 52.3881 15.7303C52.5215 15.6482 52.6592 15.564 52.7947 15.4811C53.139 15.2706 53.4696 15.0684 53.6817 14.9301C53.8869 14.7962 54.2173 14.6826 54.6954 14.5928C55.1654 14.5045 55.7314 14.4471 56.3778 14.3981C56.9094 14.3578 57.107 14.5125 57.1914 14.6183C57.2995 14.7538 57.343 14.9614 57.3354 15.172C57.3232 15.5063 57.3805 15.8372 57.4618 16.1123C57.5403 16.3782 57.6552 16.6391 57.7912 16.8151C57.9089 16.9674 58.0605 17.0481 58.1811 17.093C58.3001 17.1374 58.4193 17.158 58.5062 17.1704C58.5226 17.1728 58.537 17.1748 58.5498 17.1765C58.5492 17.1819 58.5486 17.1873 58.548 17.1929C58.5392 17.2752 58.5282 17.3777 58.5189 17.4963C58.5077 17.639 58.4912 17.6954 58.4851 17.7112C58.4841 17.7126 58.4822 17.7153 58.4787 17.7196C58.4724 17.7277 58.4691 17.7317 58.4642 17.7377C58.4595 17.7434 58.4533 17.7509 58.4414 17.7655C58.4036 17.8124 58.3539 17.8777 58.3048 17.9702C58.3051 17.9696 58.3052 17.9693 58.3052 17.9693C58.3048 17.969 58.2914 17.9891 58.2516 18.0397C58.2066 18.0969 58.1457 18.1709 58.0712 18.2601C58.0315 18.3077 57.9883 18.3592 57.9425 18.4138C57.8201 18.5596 57.6796 18.7269 57.5414 18.8967C57.3514 19.13 57.1549 19.3807 56.9996 19.6079C56.922 19.7213 56.8493 19.8367 56.7916 19.9466C56.7388 20.0471 56.6773 20.1822 56.6563 20.3263C56.6302 20.5054 56.6382 20.7364 56.6614 20.9841C56.6857 21.2419 56.7303 21.5544 56.7938 21.913C56.9208 22.631 57.1269 23.5544 57.41 24.6329C57.6766 25.6484 57.822 27.0952 57.8551 28.4721C57.8883 29.8586 57.8057 31.0975 57.6498 31.7091C57.5343 32.1624 57.1762 32.8017 56.7307 33.4537C56.2955 34.0906 55.8158 34.6844 55.5104 35.0324L54.8715 35.7606L55.8351 35.8596L59.2189 36.2072L59.3679 36.2225L59.5008 36.1534C59.648 36.0767 59.7916 35.9341 59.9149 35.7649C60.047 35.5836 60.1805 35.3381 60.2914 35.0177C60.3327 34.8984 60.3602 34.743 60.3813 34.592C60.4038 34.431 60.4238 34.2376 60.4418 34.0234C60.4779 33.5945 60.5073 33.0634 60.531 32.5042C60.5786 31.3849 60.6041 30.1347 60.613 29.3246L60.613 29.3246V29.3191V18.3559C60.613 16.2843 60.0306 14.7189 59.7039 14.1482L59.4926 13.7791L59.2519 13.8694C59.2339 13.8305 59.2148 13.7911 59.1948 13.7515C59.0759 13.516 58.9052 13.2381 58.6785 13.0217C58.6363 12.9815 58.5928 12.9382 58.5464 12.8921C58.3897 12.7363 58.1997 12.5474 57.916 12.3296C57.5453 12.0451 57.0112 11.7049 56.1175 11.2387C54.2624 10.2708 51.8528 10.0127 50.3127 10.4768C48.7467 10.9487 47.4266 12.3725 46.8281 13.6932C46.5955 14.2064 46.0399 14.8375 45.3979 15.4159C44.7634 15.9877 44.1147 16.4461 43.7634 16.6301C43.445 16.7968 42.9228 16.9551 42.3609 17.1253C42.3082 17.1413 42.2551 17.1574 42.2018 17.1736C41.9069 17.2633 41.6089 17.3563 41.3625 17.4517C41.2391 17.4995 41.1179 17.5519 41.0109 17.6098C40.9111 17.6638 40.788 17.7411 40.6911 17.8507C40.5813 17.9748 40.4932 18.1349 40.4249 18.2779C40.3527 18.4289 40.2855 18.5977 40.2259 18.7631C40.1066 19.0939 40.0077 19.4387 39.9521 19.6586ZM41.8261 19.3592C41.7946 19.373 41.7633 19.3866 41.7322 19.4002C41.7642 19.3849 41.7955 19.3712 41.8261 19.3592ZM58.5658 16.9705C58.5659 16.9705 58.5659 16.9713 58.566 16.973L58.5658 16.9705ZM58.4828 17.7162C58.4828 17.7161 58.4834 17.7144 58.485 17.7117C58.4837 17.715 58.4829 17.7164 58.4828 17.7162Z" fill="url(#paint13_radial_852_195)"/>
<path d="M39.9521 19.6586L40.4551 19.9273C40.4291 19.937 40.4044 19.946 40.3808 19.9545C40.3359 19.9707 40.2975 19.984 40.2652 19.9947C40.2531 19.9881 40.2401 19.9811 40.2261 19.9735C40.2191 19.9696 40.2117 19.9656 40.2041 19.9615C40.1275 19.9196 40.027 19.8647 39.9239 19.8173C39.8128 19.7661 39.6675 19.7083 39.5102 19.6846C39.351 19.6605 39.129 19.6644 38.9218 19.801C38.833 19.8595 38.7549 19.9392 38.6949 20.0063C38.6288 20.0803 38.5582 20.1695 38.4851 20.2698C38.3386 20.4709 38.1698 20.734 37.9927 21.0466C37.6382 21.6723 37.24 22.515 36.9147 23.4909C36.5677 24.5317 36.5363 25.8646 36.6788 27.0993C36.8214 28.3356 37.1474 29.5497 37.5755 30.3608C38.2664 31.6699 39.6173 32.5816 40.2103 32.883L40.8391 32.1403C40.6345 31.8632 40.2171 31.1761 40.1074 30.6187C39.897 29.5493 39.697 28.094 39.697 27.1668C39.697 26.7055 39.747 25.8638 39.9915 24.9741C40.2371 24.0808 40.6663 23.1835 41.3926 22.5555C42.9864 21.1774 45.9403 19.7852 47.3123 19.1634C48.5179 18.617 49.5315 17.5863 50.1792 16.9275C50.316 16.7885 50.4364 16.666 50.539 16.5681C50.5806 16.5284 50.6284 16.4864 50.6816 16.4427C50.6931 16.4518 50.7052 16.4606 50.7181 16.4692C50.7936 16.5104 50.9329 16.5488 50.9918 16.5527C51.0306 16.5514 51.0951 16.5425 51.1208 16.5366C51.1692 16.524 51.2046 16.5068 51.2168 16.5008C51.2456 16.4866 51.2666 16.4726 51.2721 16.4689C51.281 16.4631 51.288 16.458 51.292 16.4551C51.3001 16.4491 51.3069 16.4439 51.3106 16.4409C51.3246 16.4299 51.3418 16.4155 51.3576 16.4021C51.482 16.2965 51.8884 16.0378 52.3881 15.7303C52.5215 15.6482 52.6592 15.564 52.7947 15.4811C53.139 15.2706 53.4696 15.0684 53.6817 14.9301C53.8869 14.7962 54.2173 14.6826 54.6954 14.5928C55.1654 14.5045 55.7314 14.4471 56.3778 14.3981C56.9094 14.3578 57.107 14.5125 57.1914 14.6183C57.2995 14.7538 57.343 14.9614 57.3354 15.172C57.3232 15.5063 57.3805 15.8372 57.4618 16.1123C57.5403 16.3782 57.6552 16.6391 57.7912 16.8151C57.9089 16.9674 58.0605 17.0481 58.1811 17.093C58.3001 17.1374 58.4193 17.158 58.5062 17.1704C58.5226 17.1728 58.537 17.1748 58.5498 17.1765C58.5492 17.1819 58.5486 17.1873 58.548 17.1929C58.5392 17.2752 58.5282 17.3777 58.5189 17.4963C58.5077 17.639 58.4912 17.6954 58.4851 17.7112C58.4841 17.7126 58.4822 17.7153 58.4787 17.7196C58.4724 17.7277 58.4691 17.7317 58.4642 17.7377C58.4595 17.7434 58.4533 17.7509 58.4414 17.7655C58.4036 17.8124 58.3539 17.8777 58.3048 17.9702C58.3051 17.9696 58.3052 17.9693 58.3052 17.9693C58.3048 17.969 58.2914 17.9891 58.2516 18.0397C58.2066 18.0969 58.1457 18.1709 58.0712 18.2601C58.0315 18.3077 57.9883 18.3592 57.9425 18.4138C57.8201 18.5596 57.6796 18.7269 57.5414 18.8967C57.3514 19.13 57.1549 19.3807 56.9996 19.6079C56.922 19.7213 56.8493 19.8367 56.7916 19.9466C56.7388 20.0471 56.6773 20.1822 56.6563 20.3263C56.6302 20.5054 56.6382 20.7364 56.6614 20.9841C56.6857 21.2419 56.7303 21.5544 56.7938 21.913C56.9208 22.631 57.1269 23.5544 57.41 24.6329C57.6766 25.6484 57.822 27.0952 57.8551 28.4721C57.8883 29.8586 57.8057 31.0975 57.6498 31.7091C57.5343 32.1624 57.1762 32.8017 56.7307 33.4537C56.2955 34.0906 55.8158 34.6844 55.5104 35.0324L54.8715 35.7606L55.8351 35.8596L59.2189 36.2072L59.3679 36.2225L59.5008 36.1534C59.648 36.0767 59.7916 35.9341 59.9149 35.7649C60.047 35.5836 60.1805 35.3381 60.2914 35.0177C60.3327 34.8984 60.3602 34.743 60.3813 34.592C60.4038 34.431 60.4238 34.2376 60.4418 34.0234C60.4779 33.5945 60.5073 33.0634 60.531 32.5042C60.5786 31.3849 60.6041 30.1347 60.613 29.3246L60.613 29.3246V29.3191V18.3559C60.613 16.2843 60.0306 14.7189 59.7039 14.1482L59.4926 13.7791L59.2519 13.8694C59.2339 13.8305 59.2148 13.7911 59.1948 13.7515C59.0759 13.516 58.9052 13.2381 58.6785 13.0217C58.6363 12.9815 58.5928 12.9382 58.5464 12.8921C58.3897 12.7363 58.1997 12.5474 57.916 12.3296C57.5453 12.0451 57.0112 11.7049 56.1175 11.2387C54.2624 10.2708 51.8528 10.0127 50.3127 10.4768C48.7467 10.9487 47.4266 12.3725 46.8281 13.6932C46.5955 14.2064 46.0399 14.8375 45.3979 15.4159C44.7634 15.9877 44.1147 16.4461 43.7634 16.6301C43.445 16.7968 42.9228 16.9551 42.3609 17.1253C42.3082 17.1413 42.2551 17.1574 42.2018 17.1736C41.9069 17.2633 41.6089 17.3563 41.3625 17.4517C41.2391 17.4995 41.1179 17.5519 41.0109 17.6098C40.9111 17.6638 40.788 17.7411 40.6911 17.8507C40.5813 17.9748 40.4932 18.1349 40.4249 18.2779C40.3527 18.4289 40.2855 18.5977 40.2259 18.7631C40.1066 19.0939 40.0077 19.4387 39.9521 19.6586ZM41.8261 19.3592C41.7946 19.373 41.7633 19.3866 41.7322 19.4002C41.7642 19.3849 41.7955 19.3712 41.8261 19.3592ZM58.5658 16.9705C58.5659 16.9705 58.5659 16.9713 58.566 16.973L58.5658 16.9705ZM58.4828 17.7162C58.4828 17.7161 58.4834 17.7144 58.485 17.7117C58.4837 17.715 58.4829 17.7164 58.4828 17.7162Z" stroke="#172031"/>
<path d="M44.9827 20.8881V19.6809L44.1291 20.5346C44.0241 20.6396 43.5477 21.0114 42.7504 21.3078C42.1617 21.5267 41.5918 21.8656 41.1355 22.2703C40.686 22.6691 40.3061 23.1685 40.1702 23.7209C40.0352 24.2699 40.1484 24.7957 40.2673 25.1767C40.3172 25.3366 40.3731 25.4851 40.4166 25.6008C40.4252 25.6238 40.4333 25.6454 40.4408 25.6656C40.465 25.7305 40.4814 25.7768 40.492 25.8118C40.4955 25.8233 40.4976 25.8312 40.4988 25.836C40.5076 26.0353 40.5021 26.3677 40.4977 26.5181L41.442 26.7616C41.6131 26.4292 42.0027 25.564 42.2331 24.6767C42.4848 23.7076 43.0624 22.8198 43.5411 22.4228C43.8038 22.205 44.0341 22.0539 44.2237 21.9326C44.2384 21.9231 44.2533 21.9137 44.2682 21.9042C44.3453 21.855 44.4237 21.805 44.4892 21.7592C44.5623 21.7082 44.6639 21.6329 44.7436 21.5336C44.929 21.3026 44.9827 21.0403 44.9827 20.8881Z" fill="url(#paint14_linear_852_195)"/>
<path d="M44.9827 20.8881V19.6809L44.1291 20.5346C44.0241 20.6396 43.5477 21.0114 42.7504 21.3078C42.1617 21.5267 41.5918 21.8656 41.1355 22.2703C40.686 22.6691 40.3061 23.1685 40.1702 23.7209C40.0352 24.2699 40.1484 24.7957 40.2673 25.1767C40.3172 25.3366 40.3731 25.4851 40.4166 25.6008C40.4252 25.6238 40.4333 25.6454 40.4408 25.6656C40.465 25.7305 40.4814 25.7768 40.492 25.8118C40.4955 25.8233 40.4976 25.8312 40.4988 25.836C40.5076 26.0353 40.5021 26.3677 40.4977 26.5181L41.442 26.7616C41.6131 26.4292 42.0027 25.564 42.2331 24.6767C42.4848 23.7076 43.0624 22.8198 43.5411 22.4228C43.8038 22.205 44.0341 22.0539 44.2237 21.9326C44.2384 21.9231 44.2533 21.9137 44.2682 21.9042C44.3453 21.855 44.4237 21.805 44.4892 21.7592C44.5623 21.7082 44.6639 21.6329 44.7436 21.5336C44.929 21.3026 44.9827 21.0403 44.9827 20.8881Z" fill="url(#paint15_radial_852_195)"/>
<path d="M44.9827 20.8881V19.6809L44.1291 20.5346C44.0241 20.6396 43.5477 21.0114 42.7504 21.3078C42.1617 21.5267 41.5918 21.8656 41.1355 22.2703C40.686 22.6691 40.3061 23.1685 40.1702 23.7209C40.0352 24.2699 40.1484 24.7957 40.2673 25.1767C40.3172 25.3366 40.3731 25.4851 40.4166 25.6008C40.4252 25.6238 40.4333 25.6454 40.4408 25.6656C40.465 25.7305 40.4814 25.7768 40.492 25.8118C40.4955 25.8233 40.4976 25.8312 40.4988 25.836C40.5076 26.0353 40.5021 26.3677 40.4977 26.5181L41.442 26.7616C41.6131 26.4292 42.0027 25.564 42.2331 24.6767C42.4848 23.7076 43.0624 22.8198 43.5411 22.4228C43.8038 22.205 44.0341 22.0539 44.2237 21.9326C44.2384 21.9231 44.2533 21.9137 44.2682 21.9042C44.3453 21.855 44.4237 21.805 44.4892 21.7592C44.5623 21.7082 44.6639 21.6329 44.7436 21.5336C44.929 21.3026 44.9827 21.0403 44.9827 20.8881Z" stroke="#172031"/>
<path d="M48.6522 18.5284L48.6188 18.6151V18.7079C48.6188 18.7658 48.6041 18.9827 48.5404 19.2057C48.4858 19.3968 48.5027 19.6359 48.5216 19.8097C48.5436 20.0108 48.5836 20.2385 48.6294 20.4578C48.7193 20.8884 48.8431 21.3426 48.9264 21.5568C48.9741 21.6794 49.0609 21.7941 49.124 21.8724C49.1981 21.9641 49.2901 22.0659 49.3911 22.1712C49.5938 22.3827 49.8528 22.6293 50.1236 22.874C50.6576 23.3565 51.2793 23.8687 51.6434 24.1024C52.0658 24.3735 52.4819 24.4462 52.851 24.3587C53.2044 24.2748 53.4632 24.0553 53.6049 23.8339C53.7061 23.6758 53.7788 23.5011 53.8248 23.3906C53.8269 23.3854 53.829 23.3804 53.831 23.3756C53.836 23.3636 53.8406 23.3526 53.8448 23.3426C53.8722 23.3331 53.8974 23.3251 53.9138 23.3202L54.197 23.2352L54.259 22.9461C54.266 22.9134 54.2753 22.8686 54.2847 22.8215C54.2992 22.8151 54.3129 22.8091 54.325 22.804L54.5781 22.6979L54.6244 22.4278C54.6244 22.4278 54.6244 22.4277 54.6244 22.4275C54.6246 22.4267 54.625 22.4248 54.6258 22.422C54.627 22.4173 54.6288 22.4112 54.6313 22.4042C54.634 22.3966 54.6369 22.3895 54.6398 22.3831C54.7461 22.3526 54.9133 22.3121 55.088 22.2778C55.3099 22.2342 55.473 22.2149 55.5285 22.2172C55.7199 22.2248 55.8985 22.1593 56.0364 22.0336C56.1628 21.9183 56.2299 21.7761 56.2665 21.6585C56.3384 21.4277 56.3322 21.1664 56.2961 20.9437C56.2749 20.8128 56.2682 20.5495 56.2732 20.2579C56.2779 19.9775 56.2922 19.7185 56.3007 19.6209C56.3068 19.5508 56.3267 19.4474 56.3652 19.3461C56.4047 19.2421 56.4516 19.1724 56.4922 19.1351C56.6175 19.0203 56.8581 18.787 57.0708 18.5731C57.1775 18.4658 57.2808 18.3596 57.3614 18.273C57.4013 18.2301 57.4392 18.1882 57.4702 18.1514C57.4855 18.1332 57.5027 18.1121 57.5189 18.0902L57.5193 18.0896C57.5297 18.0756 57.5626 18.031 57.5884 17.9729C57.6177 17.907 57.6326 17.8342 57.6379 17.8082L57.6384 17.8054C57.647 17.7636 57.6555 17.7149 57.6636 17.6643C57.6799 17.5622 57.6974 17.4348 57.7142 17.3029C57.7477 17.0396 57.7804 16.7417 57.7958 16.5618C57.8163 16.3222 57.769 15.8667 57.7053 15.4851C57.6718 15.2851 57.6297 15.0806 57.5807 14.908C57.5563 14.8222 57.5274 14.7343 57.4929 14.6548C57.4645 14.5892 57.409 14.4722 57.3092 14.3777C57.1084 14.1874 56.8028 14.075 56.4449 14.0328C56.0753 13.9892 55.6022 14.0141 55.0105 14.145C53.8631 14.3989 52.7298 14.862 51.9813 15.7467C51.6975 16.082 51.5301 16.1794 51.3829 16.2397C51.3058 16.2714 51.2293 16.2949 51.1191 16.3287C51.097 16.3355 51.0735 16.3427 51.0484 16.3505C50.9051 16.3949 50.7338 16.4508 50.5304 16.54C49.7028 16.9028 49.0451 17.5068 48.6522 18.5284Z" fill="url(#paint16_linear_852_195)"/>
<path d="M48.6522 18.5284L48.6188 18.6151V18.7079C48.6188 18.7658 48.6041 18.9827 48.5404 19.2057C48.4858 19.3968 48.5027 19.6359 48.5216 19.8097C48.5436 20.0108 48.5836 20.2385 48.6294 20.4578C48.7193 20.8884 48.8431 21.3426 48.9264 21.5568C48.9741 21.6794 49.0609 21.7941 49.124 21.8724C49.1981 21.9641 49.2901 22.0659 49.3911 22.1712C49.5938 22.3827 49.8528 22.6293 50.1236 22.874C50.6576 23.3565 51.2793 23.8687 51.6434 24.1024C52.0658 24.3735 52.4819 24.4462 52.851 24.3587C53.2044 24.2748 53.4632 24.0553 53.6049 23.8339C53.7061 23.6758 53.7788 23.5011 53.8248 23.3906C53.8269 23.3854 53.829 23.3804 53.831 23.3756C53.836 23.3636 53.8406 23.3526 53.8448 23.3426C53.8722 23.3331 53.8974 23.3251 53.9138 23.3202L54.197 23.2352L54.259 22.9461C54.266 22.9134 54.2753 22.8686 54.2847 22.8215C54.2992 22.8151 54.3129 22.8091 54.325 22.804L54.5781 22.6979L54.6244 22.4278C54.6244 22.4278 54.6244 22.4277 54.6244 22.4275C54.6246 22.4267 54.625 22.4248 54.6258 22.422C54.627 22.4173 54.6288 22.4112 54.6313 22.4042C54.634 22.3966 54.6369 22.3895 54.6398 22.3831C54.7461 22.3526 54.9133 22.3121 55.088 22.2778C55.3099 22.2342 55.473 22.2149 55.5285 22.2172C55.7199 22.2248 55.8985 22.1593 56.0364 22.0336C56.1628 21.9183 56.2299 21.7761 56.2665 21.6585C56.3384 21.4277 56.3322 21.1664 56.2961 20.9437C56.2749 20.8128 56.2682 20.5495 56.2732 20.2579C56.2779 19.9775 56.2922 19.7185 56.3007 19.6209C56.3068 19.5508 56.3267 19.4474 56.3652 19.3461C56.4047 19.2421 56.4516 19.1724 56.4922 19.1351C56.6175 19.0203 56.8581 18.787 57.0708 18.5731C57.1775 18.4658 57.2808 18.3596 57.3614 18.273C57.4013 18.2301 57.4392 18.1882 57.4702 18.1514C57.4855 18.1332 57.5027 18.1121 57.5189 18.0902L57.5193 18.0896C57.5297 18.0756 57.5626 18.031 57.5884 17.9729C57.6177 17.907 57.6326 17.8342 57.6379 17.8082L57.6384 17.8054C57.647 17.7636 57.6555 17.7149 57.6636 17.6643C57.6799 17.5622 57.6974 17.4348 57.7142 17.3029C57.7477 17.0396 57.7804 16.7417 57.7958 16.5618C57.8163 16.3222 57.769 15.8667 57.7053 15.4851C57.6718 15.2851 57.6297 15.0806 57.5807 14.908C57.5563 14.8222 57.5274 14.7343 57.4929 14.6548C57.4645 14.5892 57.409 14.4722 57.3092 14.3777C57.1084 14.1874 56.8028 14.075 56.4449 14.0328C56.0753 13.9892 55.6022 14.0141 55.0105 14.145C53.8631 14.3989 52.7298 14.862 51.9813 15.7467C51.6975 16.082 51.5301 16.1794 51.3829 16.2397C51.3058 16.2714 51.2293 16.2949 51.1191 16.3287C51.097 16.3355 51.0735 16.3427 51.0484 16.3505C50.9051 16.3949 50.7338 16.4508 50.5304 16.54C49.7028 16.9028 49.0451 17.5068 48.6522 18.5284Z" fill="url(#paint17_radial_852_195)"/>
<path d="M48.6522 18.5284L48.6188 18.6151V18.7079C48.6188 18.7658 48.6041 18.9827 48.5404 19.2057C48.4858 19.3968 48.5027 19.6359 48.5216 19.8097C48.5436 20.0108 48.5836 20.2385 48.6294 20.4578C48.7193 20.8884 48.8431 21.3426 48.9264 21.5568C48.9741 21.6794 49.0609 21.7941 49.124 21.8724C49.1981 21.9641 49.2901 22.0659 49.3911 22.1712C49.5938 22.3827 49.8528 22.6293 50.1236 22.874C50.6576 23.3565 51.2793 23.8687 51.6434 24.1024C52.0658 24.3735 52.4819 24.4462 52.851 24.3587C53.2044 24.2748 53.4632 24.0553 53.6049 23.8339C53.7061 23.6758 53.7788 23.5011 53.8248 23.3906C53.8269 23.3854 53.829 23.3804 53.831 23.3756C53.836 23.3636 53.8406 23.3526 53.8448 23.3426C53.8722 23.3331 53.8974 23.3251 53.9138 23.3202L54.197 23.2352L54.259 22.9461C54.266 22.9134 54.2753 22.8686 54.2847 22.8215C54.2992 22.8151 54.3129 22.8091 54.325 22.804L54.5781 22.6979L54.6244 22.4278C54.6244 22.4278 54.6244 22.4277 54.6244 22.4275C54.6246 22.4267 54.625 22.4248 54.6258 22.422C54.627 22.4173 54.6288 22.4112 54.6313 22.4042C54.634 22.3966 54.6369 22.3895 54.6398 22.3831C54.7461 22.3526 54.9133 22.3121 55.088 22.2778C55.3099 22.2342 55.473 22.2149 55.5285 22.2172C55.7199 22.2248 55.8985 22.1593 56.0364 22.0336C56.1628 21.9183 56.2299 21.7761 56.2665 21.6585C56.3384 21.4277 56.3322 21.1664 56.2961 20.9437C56.2749 20.8128 56.2682 20.5495 56.2732 20.2579C56.2779 19.9775 56.2922 19.7185 56.3007 19.6209C56.3068 19.5508 56.3267 19.4474 56.3652 19.3461C56.4047 19.2421 56.4516 19.1724 56.4922 19.1351C56.6175 19.0203 56.8581 18.787 57.0708 18.5731C57.1775 18.4658 57.2808 18.3596 57.3614 18.273C57.4013 18.2301 57.4392 18.1882 57.4702 18.1514C57.4855 18.1332 57.5027 18.1121 57.5189 18.0902L57.5193 18.0896C57.5297 18.0756 57.5626 18.031 57.5884 17.9729C57.6177 17.907 57.6326 17.8342 57.6379 17.8082L57.6384 17.8054C57.647 17.7636 57.6555 17.7149 57.6636 17.6643C57.6799 17.5622 57.6974 17.4348 57.7142 17.3029C57.7477 17.0396 57.7804 16.7417 57.7958 16.5618C57.8163 16.3222 57.769 15.8667 57.7053 15.4851C57.6718 15.2851 57.6297 15.0806 57.5807 14.908C57.5563 14.8222 57.5274 14.7343 57.4929 14.6548C57.4645 14.5892 57.409 14.4722 57.3092 14.3777C57.1084 14.1874 56.8028 14.075 56.4449 14.0328C56.0753 13.9892 55.6022 14.0141 55.0105 14.145C53.8631 14.3989 52.7298 14.862 51.9813 15.7467C51.6975 16.082 51.5301 16.1794 51.3829 16.2397C51.3058 16.2714 51.2293 16.2949 51.1191 16.3287C51.097 16.3355 51.0735 16.3427 51.0484 16.3505C50.9051 16.3949 50.7338 16.4508 50.5304 16.54C49.7028 16.9028 49.0451 17.5068 48.6522 18.5284Z" stroke="#172031"/>
<path d="M58.0473 30.2586L58.0294 30.0521L57.8705 29.9188C57.7398 29.8092 57.5264 29.6638 57.2799 29.5583C57.0455 29.4581 56.6979 29.3581 56.3439 29.4572C56.2227 29.4912 56.0928 29.5383 55.9797 29.5794C55.9601 29.5865 55.9411 29.5934 55.9227 29.6C55.7873 29.6488 55.6668 29.6899 55.5506 29.7175C55.3189 29.7726 55.175 29.7573 55.06 29.686C54.8544 29.5583 54.577 29.461 54.2776 29.579C54.0296 29.6767 53.8778 29.8878 53.7919 30.0147C53.729 30.1077 53.6727 30.2 53.6156 30.2935C53.4788 30.5177 53.3378 30.7486 53.0921 31.0128C52.9961 31.1159 52.882 31.2431 52.7514 31.3885C52.3343 31.8528 51.7496 32.5039 51.0557 33.1566C50.1396 34.0184 49.1012 34.8149 48.1193 35.1422C45.9759 35.8567 43.9467 36.1871 42.7143 36.1871C42.266 36.1871 41.6623 36.0631 41.0624 35.8914C40.4715 35.7223 39.9255 35.5191 39.6092 35.3862L38.3787 34.8691L38.9667 36.0674L39.3788 36.9073L39.4564 37.0654L39.5742 37.1205L40.011 37.9243C40.2297 38.3266 40.6337 38.81 40.9823 39.1948C41.339 39.5885 41.6784 39.9229 41.8017 40.0367L42.1408 39.6693L41.8017 40.0367C41.9388 40.1633 42.1209 40.245 42.276 40.3016C42.4441 40.3629 42.6413 40.4157 42.8525 40.4615C43.276 40.5533 43.7953 40.625 44.3348 40.6739C45.4041 40.7709 46.6231 40.7845 47.4006 40.6601C47.8516 40.5879 48.4692 40.3096 49.1078 39.9655C49.766 39.6109 50.5092 39.1512 51.2328 38.6648C51.9569 38.1781 52.6681 37.6599 53.2626 37.1862C53.8477 36.7199 54.3485 36.2741 54.6281 35.9341C55.1187 35.3378 55.8544 34.4194 56.4952 33.5713C56.8154 33.1477 57.1151 32.7374 57.3495 32.3915C57.57 32.0663 57.7721 31.7427 57.85 31.5159C58.0397 30.9641 58.0665 30.4786 58.0473 30.2586Z" fill="url(#paint18_linear_852_195)"/>
<path d="M58.0473 30.2586L58.0294 30.0521L57.8705 29.9188C57.7398 29.8092 57.5264 29.6638 57.2799 29.5583C57.0455 29.4581 56.6979 29.3581 56.3439 29.4572C56.2227 29.4912 56.0928 29.5383 55.9797 29.5794C55.9601 29.5865 55.9411 29.5934 55.9227 29.6C55.7873 29.6488 55.6668 29.6899 55.5506 29.7175C55.3189 29.7726 55.175 29.7573 55.06 29.686C54.8544 29.5583 54.577 29.461 54.2776 29.579C54.0296 29.6767 53.8778 29.8878 53.7919 30.0147C53.729 30.1077 53.6727 30.2 53.6156 30.2935C53.4788 30.5177 53.3378 30.7486 53.0921 31.0128C52.9961 31.1159 52.882 31.2431 52.7514 31.3885C52.3343 31.8528 51.7496 32.5039 51.0557 33.1566C50.1396 34.0184 49.1012 34.8149 48.1193 35.1422C45.9759 35.8567 43.9467 36.1871 42.7143 36.1871C42.266 36.1871 41.6623 36.0631 41.0624 35.8914C40.4715 35.7223 39.9255 35.5191 39.6092 35.3862L38.3787 34.8691L38.9667 36.0674L39.3788 36.9073L39.4564 37.0654L39.5742 37.1205L40.011 37.9243C40.2297 38.3266 40.6337 38.81 40.9823 39.1948C41.339 39.5885 41.6784 39.9229 41.8017 40.0367L42.1408 39.6693L41.8017 40.0367C41.9388 40.1633 42.1209 40.245 42.276 40.3016C42.4441 40.3629 42.6413 40.4157 42.8525 40.4615C43.276 40.5533 43.7953 40.625 44.3348 40.6739C45.4041 40.7709 46.6231 40.7845 47.4006 40.6601C47.8516 40.5879 48.4692 40.3096 49.1078 39.9655C49.766 39.6109 50.5092 39.1512 51.2328 38.6648C51.9569 38.1781 52.6681 37.6599 53.2626 37.1862C53.8477 36.7199 54.3485 36.2741 54.6281 35.9341C55.1187 35.3378 55.8544 34.4194 56.4952 33.5713C56.8154 33.1477 57.1151 32.7374 57.3495 32.3915C57.57 32.0663 57.7721 31.7427 57.85 31.5159C58.0397 30.9641 58.0665 30.4786 58.0473 30.2586Z" fill="url(#paint19_radial_852_195)"/>
<path d="M58.0473 30.2586L58.0294 30.0521L57.8705 29.9188C57.7398 29.8092 57.5264 29.6638 57.2799 29.5583C57.0455 29.4581 56.6979 29.3581 56.3439 29.4572C56.2227 29.4912 56.0928 29.5383 55.9797 29.5794C55.9601 29.5865 55.9411 29.5934 55.9227 29.6C55.7873 29.6488 55.6668 29.6899 55.5506 29.7175C55.3189 29.7726 55.175 29.7573 55.06 29.686C54.8544 29.5583 54.577 29.461 54.2776 29.579C54.0296 29.6767 53.8778 29.8878 53.7919 30.0147C53.729 30.1077 53.6727 30.2 53.6156 30.2935C53.4788 30.5177 53.3378 30.7486 53.0921 31.0128C52.9961 31.1159 52.882 31.2431 52.7514 31.3885C52.3343 31.8528 51.7496 32.5039 51.0557 33.1566C50.1396 34.0184 49.1012 34.8149 48.1193 35.1422C45.9759 35.8567 43.9467 36.1871 42.7143 36.1871C42.266 36.1871 41.6623 36.0631 41.0624 35.8914C40.4715 35.7223 39.9255 35.5191 39.6092 35.3862L38.3787 34.8691L38.9667 36.0674L39.3788 36.9073L39.4564 37.0654L39.5742 37.1205L40.011 37.9243C40.2297 38.3266 40.6337 38.81 40.9823 39.1948C41.339 39.5885 41.6784 39.9229 41.8017 40.0367L42.1408 39.6693L41.8017 40.0367C41.9388 40.1633 42.1209 40.245 42.276 40.3016C42.4441 40.3629 42.6413 40.4157 42.8525 40.4615C43.276 40.5533 43.7953 40.625 44.3348 40.6739C45.4041 40.7709 46.6231 40.7845 47.4006 40.6601C47.8516 40.5879 48.4692 40.3096 49.1078 39.9655C49.766 39.6109 50.5092 39.1512 51.2328 38.6648C51.9569 38.1781 52.6681 37.6599 53.2626 37.1862C53.8477 36.7199 54.3485 36.2741 54.6281 35.9341C55.1187 35.3378 55.8544 34.4194 56.4952 33.5713C56.8154 33.1477 57.1151 32.7374 57.3495 32.3915C57.57 32.0663 57.7721 31.7427 57.85 31.5159C58.0397 30.9641 58.0665 30.4786 58.0473 30.2586Z" stroke="#172031"/>
<path d="M50.3445 44.8789L50.6435 45.0147L51.849 45.6174L51.8099 45.6707L52.2887 45.9507C52.4559 46.0485 52.7132 46.2009 52.9412 46.3396C53.0554 46.4091 53.1601 46.4739 53.2416 46.5261C53.308 46.5686 53.3433 46.5929 53.3568 46.6022C53.3623 46.6061 53.3641 46.6073 53.3629 46.6062C53.5498 46.7663 53.7602 46.7338 53.8479 46.7078C53.9349 46.682 53.9977 46.6392 54.0262 46.6186C54.0895 46.5729 54.1446 46.5166 54.184 46.4738C54.2693 46.3812 54.3706 46.2526 54.4779 46.1071C54.6959 45.8116 54.9737 45.3985 55.2608 44.9417C55.8291 44.0377 56.4697 42.9065 56.7565 42.1382C57.2008 40.9481 57.8632 37.9947 58.1348 36.6936L58.1643 36.5524L58.114 36.4172C58.0862 36.3423 58.0358 36.2343 57.9628 36.1335C57.9115 36.0627 57.748 35.8498 57.4622 35.8212C57.3749 35.8125 57.1897 35.8122 57.0342 35.8129C56.8626 35.8137 56.6755 35.8165 56.5554 35.8188L56.3562 35.8227L56.3555 35.8233L56.3532 35.82L56.1877 35.771L55.8187 35.6617L55.3488 35.5224L55.2002 35.9894C54.9457 36.7892 54.2935 38.6108 53.7011 39.619C53.3251 40.2588 52.7533 41.0791 52.2211 41.7926C51.6803 42.5178 51.2153 43.0855 51.0514 43.2439C50.7339 43.5504 50.3537 43.9187 50.2032 44.0647L49.6764 44.5754L50.3445 44.8789Z" fill="url(#paint20_linear_852_195)"/>
<path d="M50.3445 44.8789L50.6435 45.0147L51.849 45.6174L51.8099 45.6707L52.2887 45.9507C52.4559 46.0485 52.7132 46.2009 52.9412 46.3396C53.0554 46.4091 53.1601 46.4739 53.2416 46.5261C53.308 46.5686 53.3433 46.5929 53.3568 46.6022C53.3623 46.6061 53.3641 46.6073 53.3629 46.6062C53.5498 46.7663 53.7602 46.7338 53.8479 46.7078C53.9349 46.682 53.9977 46.6392 54.0262 46.6186C54.0895 46.5729 54.1446 46.5166 54.184 46.4738C54.2693 46.3812 54.3706 46.2526 54.4779 46.1071C54.6959 45.8116 54.9737 45.3985 55.2608 44.9417C55.8291 44.0377 56.4697 42.9065 56.7565 42.1382C57.2008 40.9481 57.8632 37.9947 58.1348 36.6936L58.1643 36.5524L58.114 36.4172C58.0862 36.3423 58.0358 36.2343 57.9628 36.1335C57.9115 36.0627 57.748 35.8498 57.4622 35.8212C57.3749 35.8125 57.1897 35.8122 57.0342 35.8129C56.8626 35.8137 56.6755 35.8165 56.5554 35.8188L56.3562 35.8227L56.3555 35.8233L56.3532 35.82L56.1877 35.771L55.8187 35.6617L55.3488 35.5224L55.2002 35.9894C54.9457 36.7892 54.2935 38.6108 53.7011 39.619C53.3251 40.2588 52.7533 41.0791 52.2211 41.7926C51.6803 42.5178 51.2153 43.0855 51.0514 43.2439C50.7339 43.5504 50.3537 43.9187 50.2032 44.0647L49.6764 44.5754L50.3445 44.8789Z" fill="url(#paint21_radial_852_195)"/>
<path d="M50.3445 44.8789L50.6435 45.0147L51.849 45.6174L51.8099 45.6707L52.2887 45.9507C52.4559 46.0485 52.7132 46.2009 52.9412 46.3396C53.0554 46.4091 53.1601 46.4739 53.2416 46.5261C53.308 46.5686 53.3433 46.5929 53.3568 46.6022C53.3623 46.6061 53.3641 46.6073 53.3629 46.6062C53.5498 46.7663 53.7602 46.7338 53.8479 46.7078C53.9349 46.682 53.9977 46.6392 54.0262 46.6186C54.0895 46.5729 54.1446 46.5166 54.184 46.4738C54.2693 46.3812 54.3706 46.2526 54.4779 46.1071C54.6959 45.8116 54.9737 45.3985 55.2608 44.9417C55.8291 44.0377 56.4697 42.9065 56.7565 42.1382C57.2008 40.9481 57.8632 37.9947 58.1348 36.6936L58.1643 36.5524L58.114 36.4172C58.0862 36.3423 58.0358 36.2343 57.9628 36.1335C57.9115 36.0627 57.748 35.8498 57.4622 35.8212C57.3749 35.8125 57.1897 35.8122 57.0342 35.8129C56.8626 35.8137 56.6755 35.8165 56.5554 35.8188L56.3562 35.8227L56.3555 35.8233L56.3532 35.82L56.1877 35.771L55.8187 35.6617L55.3488 35.5224L55.2002 35.9894C54.9457 36.7892 54.2935 38.6108 53.7011 39.619C53.3251 40.2588 52.7533 41.0791 52.2211 41.7926C51.6803 42.5178 51.2153 43.0855 51.0514 43.2439C50.7339 43.5504 50.3537 43.9187 50.2032 44.0647L49.6764 44.5754L50.3445 44.8789Z" stroke="#172031"/>
<path d="M45.1057 21.6485L45.2984 21.8983C45.2875 21.9064 45.2766 21.9147 45.2655 21.9231C44.9426 22.1675 44.5488 22.4795 44.2247 22.859C43.6507 23.5309 41.9793 25.5548 40.9859 27.1771C40.008 28.774 40.1759 30.3924 40.2528 31.1344C40.2602 31.2056 40.2667 31.2687 40.2714 31.3229C40.2968 31.6224 40.3455 31.9669 40.3938 32.2649C40.3531 32.2528 40.335 32.2457 40.3349 32.2459C40.3349 32.2459 40.3352 32.2461 40.3358 32.2463L39.9313 32.064L39.703 32.4471C39.6322 32.5658 39.5641 32.7783 39.5211 33.0535C39.477 33.335 39.5377 33.62 39.6651 33.9267C39.7915 34.2312 40.0006 34.5965 40.3032 35.0557C40.9899 36.0979 41.9436 36.509 42.7915 36.5514C43.201 36.5719 44.1683 36.4698 45.1231 36.3103C46.0718 36.1517 47.1383 35.9157 47.715 35.6253C48.2933 35.3342 48.6737 34.9475 48.8543 34.5049C49.0352 34.0615 48.9936 33.613 48.8202 33.2559C48.7485 33.108 48.6592 32.9843 48.5576 32.8805C49.3161 33.0264 50.0239 33.3617 50.3428 33.5571L50.6687 33.7567L50.9468 33.4947C51.4989 32.9747 52.7073 31.8271 53.0039 31.5058C53.3416 31.1399 53.6867 30.4805 53.8112 30.2184L54.0332 29.751L53.5586 29.5451C53.3472 29.4534 53.0019 29.2928 52.6632 29.1136C52.3122 28.9279 52.0137 28.7455 51.8631 28.6127C51.4091 28.212 50.6009 27.1922 50.1014 26.5428L50.0943 26.5336L50.0943 26.5336C50.0819 26.5174 50.0696 26.5015 50.0575 26.4857C49.8515 26.2177 49.6884 26.0055 49.5332 25.8704C49.4534 25.801 49.3674 25.7432 49.2688 25.6996C49.2724 25.6947 49.2759 25.6899 49.2793 25.6852C49.6461 25.1792 49.7749 24.5347 49.6459 23.9543C49.6069 23.7786 49.541 23.2074 49.4628 22.53C49.458 22.488 49.4531 22.4456 49.4481 22.4028C49.3677 21.7063 49.277 20.9357 49.1981 20.5518C49.1265 20.203 48.9629 19.8178 48.805 19.4978C48.649 19.1817 48.4817 18.8961 48.3677 18.7181C48.2807 18.5641 48.0994 18.3924 47.8228 18.3509C47.5919 18.3163 47.3897 18.3912 47.2072 18.506C47.0358 18.6139 46.8355 18.7861 46.5828 19.0317L46.9233 19.3821L46.5828 19.0317C46.3106 19.2963 46.1542 19.507 46.0908 19.7872C46.0725 19.868 46.0619 19.9631 46.0548 20.0265C46.053 20.0426 46.0514 20.0567 46.05 20.0679C46.0409 20.1412 46.0275 20.2248 45.9957 20.3381C45.9568 20.4769 45.8232 20.715 45.6261 20.9937C45.4399 21.2569 45.2346 21.5046 45.1057 21.6485Z" fill="url(#paint22_linear_852_195)"/>
<path d="M45.1057 21.6485L45.2984 21.8983C45.2875 21.9064 45.2766 21.9147 45.2655 21.9231C44.9426 22.1675 44.5488 22.4795 44.2247 22.859C43.6507 23.5309 41.9793 25.5548 40.9859 27.1771C40.008 28.774 40.1759 30.3924 40.2528 31.1344C40.2602 31.2056 40.2667 31.2687 40.2714 31.3229C40.2968 31.6224 40.3455 31.9669 40.3938 32.2649C40.3531 32.2528 40.335 32.2457 40.3349 32.2459C40.3349 32.2459 40.3352 32.2461 40.3358 32.2463L39.9313 32.064L39.703 32.4471C39.6322 32.5658 39.5641 32.7783 39.5211 33.0535C39.477 33.335 39.5377 33.62 39.6651 33.9267C39.7915 34.2312 40.0006 34.5965 40.3032 35.0557C40.9899 36.0979 41.9436 36.509 42.7915 36.5514C43.201 36.5719 44.1683 36.4698 45.1231 36.3103C46.0718 36.1517 47.1383 35.9157 47.715 35.6253C48.2933 35.3342 48.6737 34.9475 48.8543 34.5049C49.0352 34.0615 48.9936 33.613 48.8202 33.2559C48.7485 33.108 48.6592 32.9843 48.5576 32.8805C49.3161 33.0264 50.0239 33.3617 50.3428 33.5571L50.6687 33.7567L50.9468 33.4947C51.4989 32.9747 52.7073 31.8271 53.0039 31.5058C53.3416 31.1399 53.6867 30.4805 53.8112 30.2184L54.0332 29.751L53.5586 29.5451C53.3472 29.4534 53.0019 29.2928 52.6632 29.1136C52.3122 28.9279 52.0137 28.7455 51.8631 28.6127C51.4091 28.212 50.6009 27.1922 50.1014 26.5428L50.0943 26.5336L50.0943 26.5336C50.0819 26.5174 50.0696 26.5015 50.0575 26.4857C49.8515 26.2177 49.6884 26.0055 49.5332 25.8704C49.4534 25.801 49.3674 25.7432 49.2688 25.6996C49.2724 25.6947 49.2759 25.6899 49.2793 25.6852C49.6461 25.1792 49.7749 24.5347 49.6459 23.9543C49.6069 23.7786 49.541 23.2074 49.4628 22.53C49.458 22.488 49.4531 22.4456 49.4481 22.4028C49.3677 21.7063 49.277 20.9357 49.1981 20.5518C49.1265 20.203 48.9629 19.8178 48.805 19.4978C48.649 19.1817 48.4817 18.8961 48.3677 18.7181C48.2807 18.5641 48.0994 18.3924 47.8228 18.3509C47.5919 18.3163 47.3897 18.3912 47.2072 18.506C47.0358 18.6139 46.8355 18.7861 46.5828 19.0317L46.9233 19.3821L46.5828 19.0317C46.3106 19.2963 46.1542 19.507 46.0908 19.7872C46.0725 19.868 46.0619 19.9631 46.0548 20.0265C46.053 20.0426 46.0514 20.0567 46.05 20.0679C46.0409 20.1412 46.0275 20.2248 45.9957 20.3381C45.9568 20.4769 45.8232 20.715 45.6261 20.9937C45.4399 21.2569 45.2346 21.5046 45.1057 21.6485Z" fill="url(#paint23_radial_852_195)"/>
<path d="M45.1057 21.6485L45.2984 21.8983C45.2875 21.9064 45.2766 21.9147 45.2655 21.9231C44.9426 22.1675 44.5488 22.4795 44.2247 22.859C43.6507 23.5309 41.9793 25.5548 40.9859 27.1771C40.008 28.774 40.1759 30.3924 40.2528 31.1344C40.2602 31.2056 40.2667 31.2687 40.2714 31.3229C40.2968 31.6224 40.3455 31.9669 40.3938 32.2649C40.3531 32.2528 40.335 32.2457 40.3349 32.2459C40.3349 32.2459 40.3352 32.2461 40.3358 32.2463L39.9313 32.064L39.703 32.4471C39.6322 32.5658 39.5641 32.7783 39.5211 33.0535C39.477 33.335 39.5377 33.62 39.6651 33.9267C39.7915 34.2312 40.0006 34.5965 40.3032 35.0557C40.9899 36.0979 41.9436 36.509 42.7915 36.5514C43.201 36.5719 44.1683 36.4698 45.1231 36.3103C46.0718 36.1517 47.1383 35.9157 47.715 35.6253C48.2933 35.3342 48.6737 34.9475 48.8543 34.5049C49.0352 34.0615 48.9936 33.613 48.8202 33.2559C48.7485 33.108 48.6592 32.9843 48.5576 32.8805C49.3161 33.0264 50.0239 33.3617 50.3428 33.5571L50.6687 33.7567L50.9468 33.4947C51.4989 32.9747 52.7073 31.8271 53.0039 31.5058C53.3416 31.1399 53.6867 30.4805 53.8112 30.2184L54.0332 29.751L53.5586 29.5451C53.3472 29.4534 53.0019 29.2928 52.6632 29.1136C52.3122 28.9279 52.0137 28.7455 51.8631 28.6127C51.4091 28.212 50.6009 27.1922 50.1014 26.5428L50.0943 26.5336L50.0943 26.5336C50.0819 26.5174 50.0696 26.5015 50.0575 26.4857C49.8515 26.2177 49.6884 26.0055 49.5332 25.8704C49.4534 25.801 49.3674 25.7432 49.2688 25.6996C49.2724 25.6947 49.2759 25.6899 49.2793 25.6852C49.6461 25.1792 49.7749 24.5347 49.6459 23.9543C49.6069 23.7786 49.541 23.2074 49.4628 22.53C49.458 22.488 49.4531 22.4456 49.4481 22.4028C49.3677 21.7063 49.277 20.9357 49.1981 20.5518C49.1265 20.203 48.9629 19.8178 48.805 19.4978C48.649 19.1817 48.4817 18.8961 48.3677 18.7181C48.2807 18.5641 48.0994 18.3924 47.8228 18.3509C47.5919 18.3163 47.3897 18.3912 47.2072 18.506C47.0358 18.6139 46.8355 18.7861 46.5828 19.0317L46.9233 19.3821L46.5828 19.0317C46.3106 19.2963 46.1542 19.507 46.0908 19.7872C46.0725 19.868 46.0619 19.9631 46.0548 20.0265C46.053 20.0426 46.0514 20.0567 46.05 20.0679C46.0409 20.1412 46.0275 20.2248 45.9957 20.3381C45.9568 20.4769 45.8232 20.715 45.6261 20.9937C45.4399 21.2569 45.2346 21.5046 45.1057 21.6485Z" stroke="#172031"/>
<path d="M59.308 39.7322L52.6748 33.0991C52.3369 32.7611 51.789 32.7611 51.451 33.0991L44.8179 39.7322C44.4799 40.0702 44.4799 40.6181 44.8179 40.956L51.451 47.5892C51.789 47.9271 52.3369 47.9271 52.6748 47.5892L59.308 40.956C59.6459 40.6181 59.6459 40.0702 59.308 39.7322Z" fill="url(#paint24_linear_852_195)"/>
<path d="M59.308 39.7322L52.6748 33.0991C52.3369 32.7611 51.789 32.7611 51.451 33.0991L44.8179 39.7322C44.4799 40.0702 44.4799 40.6181 44.8179 40.956L51.451 47.5892C51.789 47.9271 52.3369 47.9271 52.6748 47.5892L59.308 40.956C59.6459 40.6181 59.6459 40.0702 59.308 39.7322Z" fill="url(#paint25_radial_852_195)"/>
<path d="M59.308 39.7322L52.6748 33.0991C52.3369 32.7611 51.789 32.7611 51.451 33.0991L44.8179 39.7322C44.4799 40.0702 44.4799 40.6181 44.8179 40.956L51.451 47.5892C51.789 47.9271 52.3369 47.9271 52.6748 47.5892L59.308 40.956C59.6459 40.6181 59.6459 40.0702 59.308 39.7322Z" stroke="#172031"/>
<g filter="url(#filter0_i_852_195)">
<path d="M51.8046 35.397C51.9472 35.2543 52.1786 35.2543 52.3213 35.397L57.01 40.0858C57.1527 40.2284 57.1527 40.4598 57.01 40.6025L52.3213 45.2912C52.1786 45.4339 51.9472 45.4339 51.8046 45.2912L47.1158 40.6025C46.9731 40.4598 46.9731 40.2284 47.1158 40.0858L51.8046 35.397Z" fill="url(#paint26_linear_852_195)"/>
<path d="M51.8046 35.397C51.9472 35.2543 52.1786 35.2543 52.3213 35.397L57.01 40.0858C57.1527 40.2284 57.1527 40.4598 57.01 40.6025L52.3213 45.2912C52.1786 45.4339 51.9472 45.4339 51.8046 45.2912L47.1158 40.6025C46.9731 40.4598 46.9731 40.2284 47.1158 40.0858L51.8046 35.397Z" fill="url(#paint27_radial_852_195)"/>
<path d="M51.8046 35.397C51.9472 35.2543 52.1786 35.2543 52.3213 35.397L57.01 40.0858C57.1527 40.2284 57.1527 40.4598 57.01 40.6025L52.3213 45.2912C52.1786 45.4339 51.9472 45.4339 51.8046 45.2912L47.1158 40.6025C46.9731 40.4598 46.9731 40.2284 47.1158 40.0858L51.8046 35.397Z" fill="black" fill-opacity="0.5"/>
</g>
<path d="M51.8045 36.7452C51.9472 36.6025 52.1785 36.6025 52.3212 36.7452L55.6618 40.0858C55.8045 40.2285 55.8045 40.4598 55.6618 40.6025L52.3212 43.9431C52.1785 44.0858 51.9472 44.0858 51.8045 43.9431L48.4639 40.6025C48.3212 40.4598 48.3212 40.2285 48.4639 40.0858L51.8045 36.7452Z" fill="url(#paint28_linear_852_195)"/>
<path d="M51.8045 36.7452C51.9472 36.6025 52.1785 36.6025 52.3212 36.7452L55.6618 40.0858C55.8045 40.2285 55.8045 40.4598 55.6618 40.6025L52.3212 43.9431C52.1785 44.0858 51.9472 44.0858 51.8045 43.9431L48.4639 40.6025C48.3212 40.4598 48.3212 40.2285 48.4639 40.0858L51.8045 36.7452Z" fill="url(#paint29_linear_852_195)" fill-opacity="0.5"/>
<path d="M51.8045 36.7452C51.9472 36.6025 52.1785 36.6025 52.3212 36.7452L55.6618 40.0858C55.8045 40.2285 55.8045 40.4598 55.6618 40.6025L52.3212 43.9431C52.1785 44.0858 51.9472 44.0858 51.8045 43.9431L48.4639 40.6025C48.3212 40.4598 48.3212 40.2285 48.4639 40.0858L51.8045 36.7452Z" fill="url(#paint30_radial_852_195)"/>
<g opacity="0.2">
<path style="mix-blend-mode:screen" d="M54.2017 60.2832C65.8262 58.4919 73.7976 47.6163 72.0064 35.9918C70.2151 24.3673 59.3395 16.3959 47.715 18.1872C36.0905 19.9784 28.1191 30.854 29.9103 42.4785C31.7016 54.103 42.5772 62.0744 54.2017 60.2832Z" fill="url(#paint31_radial_852_195)"/>
<path style="mix-blend-mode:screen" d="M59.7918 55.2832C83.0567 42.4774 97.9618 24.9112 93.0832 16.0481C88.2046 7.18496 65.3898 10.3812 42.1249 23.1871C18.8599 35.9929 3.95487 53.5591 8.83345 62.4222C13.712 71.2853 36.5269 68.0891 59.7918 55.2832Z" fill="url(#paint32_radial_852_195)"/>
</g>
<defs>
<filter id="filter0_i_852_195" x="47.0088" y="35.29" width="10.1084" height="10.839" filterUnits="userSpaceOnUse" color-interpolation-filters="sRGB">
<feFlood flood-opacity="0" result="BackgroundImageFix"/>
<feBlend mode="normal" in="SourceGraphic" in2="BackgroundImageFix" result="shape"/>
<feColorMatrix in="SourceAlpha" type="matrix" values="0 0 0 0 0 0 0 0 0 0 0 0 0 0 0 0 0 0 127 0" result="hardAlpha"/>
<feOffset dy="0.730716"/>
<feGaussianBlur stdDeviation="0.675912"/>
<feComposite in2="hardAlpha" operator="arithmetic" k2="-1" k3="1"/>
<feColorMatrix type="matrix" values="0 0 0 0 0 0 0 0 0 0 0 0 0 0 0 0 0 0 0.8 0"/>
<feBlend mode="normal" in2="shape" result="effect1_innerShadow_852_195"/>
</filter>
<linearGradient id="paint0_linear_852_195" x1="38.3812" y1="60.2852" x2="46.5795" y2="68.5844" gradientUnits="userSpaceOnUse">
<stop stop-color="#A67F31"/>
<stop offset="0.48902" stop-color="#E6D375"/>
<stop offset="0.514515" stop-color="#261600"/>
<stop offset="1" stop-color="#5B4905"/>
</linearGradient>
<radialGradient id="paint1_radial_852_195" cx="0" cy="0" r="1" gradientUnits="userSpaceOnUse" gradientTransform="translate(42.8139 47.9553) rotate(119.785) scale(23.2083 21.0101)">
<stop stop-color="#916619"/>
<stop offset="1" stop-color="#FFC55D" stop-opacity="0"/>
</radialGradient>
<linearGradient id="paint2_linear_852_195" x1="36.6142" y1="62.1109" x2="40.4606" y2="67.0338" gradientUnits="userSpaceOnUse">
<stop stop-color="#A67F31"/>
<stop offset="0.48902" stop-color="#E6D375"/>
<stop offset="0.514515" stop-color="#261600"/>
<stop offset="1" stop-color="#5B4905"/>
</linearGradient>
<radialGradient id="paint3_radial_852_195" cx="0" cy="0" r="1" gradientUnits="userSpaceOnUse" gradientTransform="translate(37.6301 56.6028) rotate(112.832) scale(12.4724 9.36615)">
<stop stop-color="#916619"/>
<stop offset="1" stop-color="#FFC55D" stop-opacity="0"/>
</radialGradient>
<linearGradient id="paint4_linear_852_195" x1="41.267" y1="60.6386" x2="53.5808" y2="65.3656" gradientUnits="userSpaceOnUse">
<stop stop-color="#A67F31"/>
<stop offset="0.48902" stop-color="#E6D375"/>
<stop offset="0.514515" stop-color="#261600"/>
<stop offset="1" stop-color="#5B4905"/>
</linearGradient>
<radialGradient id="paint5_radial_852_195" cx="0" cy="0" r="1" gradientUnits="userSpaceOnUse" gradientTransform="translate(50.3039 43.1623) rotate(129.67) scale(20.5394 21.1925)">
<stop stop-color="#916619"/>
<stop offset="1" stop-color="#FFC55D" stop-opacity="0"/>
</radialGradient>
<linearGradient id="paint6_linear_852_195" x1="44.2708" y1="55.986" x2="56.307" y2="57.8641" gradientUnits="userSpaceOnUse">
<stop stop-color="#A67F31"/>
<stop offset="0.48902" stop-color="#E6D375"/>
<stop offset="0.514515" stop-color="#261600"/>
<stop offset="1" stop-color="#5B4905"/>
</linearGradient>
<radialGradient id="paint7_radial_852_195" cx="0" cy="0" r="1" gradientUnits="userSpaceOnUse" gradientTransform="translate(51.0282 34.971) rotate(129.883) scale(21.6297 22.348)">
<stop stop-color="#916619"/>
<stop offset="1" stop-color="#FFC55D" stop-opacity="0"/>
</radialGradient>
<linearGradient id="paint8_linear_852_195" x1="44.2883" y1="31.4862" x2="58.0193" y2="32.1854" gradientUnits="userSpaceOnUse">
<stop stop-color="#A67F31"/>
<stop offset="0.48902" stop-color="#E6D375"/>
<stop offset="0.514515" stop-color="#261600"/>
<stop offset="1" stop-color="#5B4905"/>
</linearGradient>
<radialGradient id="paint9_radial_852_195" cx="0" cy="0" r="1" gradientUnits="userSpaceOnUse" gradientTransform="translate(54.57 27.8993) rotate(128.438) scale(25.3657 25.9363)">
<stop stop-color="#916619"/>
<stop offset="1" stop-color="#FFC55D" stop-opacity="0"/>
</radialGradient>
<linearGradient id="paint10_linear_852_195" x1="46.4493" y1="52.4523" x2="54.7613" y2="57.6561" gradientUnits="userSpaceOnUse">
<stop stop-color="#A67F31"/>
<stop offset="0.48902" stop-color="#E6D375"/>
<stop offset="0.514515" stop-color="#261600"/>
<stop offset="1" stop-color="#5B4905"/>
</linearGradient>
<radialGradient id="paint11_radial_852_195" cx="0" cy="0" r="1" gradientUnits="userSpaceOnUse" gradientTransform="translate(47.8228 27.6423) rotate(115.423) scale(35.0503 28.5365)">
<stop stop-color="#916619"/>
<stop offset="1" stop-color="#FFC55D" stop-opacity="0"/>
</radialGradient>
<linearGradient id="paint12_linear_852_195" x1="37.0991" y1="24.9177" x2="47.0991" y2="40.5216" gradientUnits="userSpaceOnUse">
<stop stop-color="#A67F31"/>
<stop offset="0.48902" stop-color="#E6D375"/>
<stop offset="0.514515" stop-color="#261600"/>
<stop offset="1" stop-color="#5B4905"/>
</linearGradient>
<radialGradient id="paint13_radial_852_195" cx="0" cy="0" r="1" gradientUnits="userSpaceOnUse" gradientTransform="translate(57.5865 17.2181) rotate(141.632) scale(20.2176 20.6604)">
<stop stop-color="#916619"/>
<stop offset="1" stop-color="#FFC55D" stop-opacity="0"/>
</radialGradient>
<linearGradient id="paint14_linear_852_195" x1="39.7837" y1="20.2861" x2="47.6154" y2="25.2546" gradientUnits="userSpaceOnUse">
<stop stop-color="#A67F31"/>
<stop offset="0.48902" stop-color="#E6D375"/>
<stop offset="0.514515" stop-color="#261600"/>
<stop offset="1" stop-color="#5B4905"/>
</linearGradient>
<radialGradient id="paint15_radial_852_195" cx="0" cy="0" r="1" gradientUnits="userSpaceOnUse" gradientTransform="translate(44.0574 22.3504) rotate(133.23) scale(3.89556 4.0822)">
<stop stop-color="#916619"/>
<stop offset="1" stop-color="#FFC55D" stop-opacity="0"/>
</radialGradient>
<linearGradient id="paint16_linear_852_195" x1="50.042" y1="14.9958" x2="66.709" y2="19.884" gradientUnits="userSpaceOnUse">
<stop stop-color="#A67F31"/>
<stop offset="0.48902" stop-color="#E6D375"/>
<stop offset="0.514515" stop-color="#261600"/>
<stop offset="1" stop-color="#5B4905"/>
</linearGradient>
<radialGradient id="paint17_radial_852_195" cx="0" cy="0" r="1" gradientUnits="userSpaceOnUse" gradientTransform="translate(56.3899 16.9432) rotate(140.466) scale(7.41016 7.63886)">
<stop stop-color="#916619"/>
<stop offset="1" stop-color="#FFC55D" stop-opacity="0"/>
</radialGradient>
<linearGradient id="paint18_linear_852_195" x1="39.4155" y1="33.1889" x2="60.7939" y2="48.9179" gradientUnits="userSpaceOnUse">
<stop stop-color="#A67F31"/>
<stop offset="0.48902" stop-color="#E6D375"/>
<stop offset="0.514515" stop-color="#261600"/>
<stop offset="1" stop-color="#5B4905"/>
</linearGradient>
<radialGradient id="paint19_radial_852_195" cx="0" cy="0" r="1" gradientUnits="userSpaceOnUse" gradientTransform="translate(55.5615 32.5934) rotate(157.416) scale(13.5299 10.0741)">
<stop stop-color="#916619"/>
<stop offset="1" stop-color="#FFC55D" stop-opacity="0"/>
</radialGradient>
<linearGradient id="paint20_linear_852_195" x1="50.5513" y1="39.3359" x2="45.6637" y2="46.7718" gradientUnits="userSpaceOnUse">
<stop stop-color="#A67F31"/>
<stop offset="0.48902" stop-color="#E6D375"/>
<stop offset="0.514515" stop-color="#261600"/>
<stop offset="1" stop-color="#5B4905"/>
</linearGradient>
<radialGradient id="paint21_radial_852_195" cx="0" cy="0" r="1" gradientUnits="userSpaceOnUse" gradientTransform="translate(56.8666 38.7546) rotate(133.926) scale(7.0434 7.38977)">
<stop stop-color="#916619"/>
<stop offset="1" stop-color="#FFC55D" stop-opacity="0"/>
</radialGradient>
<linearGradient id="paint22_linear_852_195" x1="55.2834" y1="31.2506" x2="27.7211" y2="17.705" gradientUnits="userSpaceOnUse">
<stop stop-color="#A67F31"/>
<stop offset="0.48902" stop-color="#E6D375"/>
<stop offset="0.514515" stop-color="#261600"/>
<stop offset="1" stop-color="#5B4905"/>
</linearGradient>
<radialGradient id="paint23_radial_852_195" cx="0" cy="0" r="1" gradientUnits="userSpaceOnUse" gradientTransform="translate(51.8937 23.3013) rotate(136.741) scale(12.6288 13.2347)">
<stop stop-color="#916619"/>
<stop offset="1" stop-color="#FFC55D" stop-opacity="0"/>
</radialGradient>
<linearGradient id="paint24_linear_852_195" x1="52.0629" y1="33.1943" x2="52.0629" y2="47.4939" gradientUnits="userSpaceOnUse">
<stop stop-color="#FFFFF6"/>
<stop offset="0.489524" stop-color="#E6D375"/>
<stop offset="0.507857" stop-color="#261600"/>
<stop offset="1" stop-color="#5B4905"/>
</linearGradient>
<radialGradient id="paint25_radial_852_195" cx="0" cy="0" r="1" gradientUnits="userSpaceOnUse" gradientTransform="translate(57.6429 36.8988) rotate(143.869) scale(12.1946)">
<stop stop-color="#916619"/>
<stop offset="1" stop-color="#FFC55D" stop-opacity="0"/>
</radialGradient>
<linearGradient id="paint26_linear_852_195" x1="52.0629" y1="35.1386" x2="52.0629" y2="45.5496" gradientUnits="userSpaceOnUse">
<stop stop-color="#FFFFF6"/>
<stop offset="0.489524" stop-color="#E6D375"/>
<stop offset="0.507857" stop-color="#261600"/>
<stop offset="1" stop-color="#5B4905"/>
</linearGradient>
<radialGradient id="paint27_radial_852_195" cx="0" cy="0" r="1" gradientUnits="userSpaceOnUse" gradientTransform="translate(56.1255 37.8357) rotate(143.869) scale(8.87836)">
<stop stop-color="#916619"/>
<stop offset="1" stop-color="#FFC55D" stop-opacity="0"/>
</radialGradient>
<linearGradient id="paint28_linear_852_195" x1="52.0629" y1="36.4868" x2="52.0629" y2="44.2014" gradientUnits="userSpaceOnUse">
<stop stop-color="#C1F0FF"/>
<stop offset="0.489524" stop-color="#00EFFF"/>
<stop offset="0.516666" stop-color="#0085FF"/>
<stop offset="1" stop-color="#00E0FF"/>
</linearGradient>
<linearGradient id="paint29_linear_852_195" x1="48.2056" y1="40.3441" x2="55.9202" y2="40.3441" gradientUnits="userSpaceOnUse">
<stop stop-color="#149DF2"/>
<stop offset="0.48744" stop-color="#C8EBFF"/>
<stop offset="0.508881" stop-color="#0377FF"/>
<stop offset="1" stop-color="#23B9FA"/>
</linearGradient>
<radialGradient id="paint30_radial_852_195" cx="0" cy="0" r="1" gradientUnits="userSpaceOnUse" gradientTransform="translate(54.4471 41.857) rotate(-144.125) scale(4.57259)">
<stop stop-color="#0066FF"/>
<stop offset="1" stop-color="#0066FF" stop-opacity="0"/>
</radialGradient>
<radialGradient id="paint31_radial_852_195" cx="0" cy="0" r="1" gradientUnits="userSpaceOnUse" gradientTransform="translate(50.9599 39.2326) scale(21.2964)">
<stop stop-color="white"/>
<stop offset="0.03" stop-color="#CFDAE5"/>
<stop offset="0.11" stop-color="#6185A9"/>
<stop offset="0.16" stop-color="#1B4F83"/>
<stop offset="0.18" stop-color="#003B75"/>
<stop offset="0.21" stop-color="#00356A"/>
<stop offset="1" stop-opacity="0"/>
</radialGradient>
<radialGradient id="paint32_radial_852_195" cx="0" cy="0" r="1" gradientUnits="userSpaceOnUse" gradientTransform="translate(50.5101 39.2687) rotate(61.17) scale(18.2606 48.0543)">
<stop stop-color="#002655"/>
<stop offset="1" stop-opacity="0"/>
</radialGradient>
</defs>
</svg>
