<svg width="144" height="23" viewBox="0 0 144 23" fill="none" xmlns="http://www.w3.org/2000/svg">
<rect x="14.7549" y="2.21211" width="113.743" height="17.9367" fill="#171717"/>
<rect x="14.7549" y="1.61389" width="109.371" height="0.598211" rx="0.299106" fill="url(#paint0_linear_952_1563)"/>
<rect x="14.7549" y="20.1488" width="109.371" height="0.598211" rx="0.299106" fill="url(#paint1_linear_952_1563)"/>
<path d="M7.82392 3.3565C7.96719 3.21322 8.19949 3.21322 8.34277 3.3565L15.9073 10.921C16.0505 11.0643 16.0505 11.2966 15.9073 11.4398L8.34277 19.0043C8.19949 19.1476 7.96719 19.1476 7.82392 19.0043L0.259423 11.4398C0.116148 11.2966 0.116148 11.0643 0.259423 10.921L7.82392 3.3565Z" fill="url(#paint2_linear_952_1563)"/>
<path d="M7.82392 3.3565C7.96719 3.21322 8.19949 3.21322 8.34277 3.3565L15.9073 10.921C16.0505 11.0643 16.0505 11.2966 15.9073 11.4398L8.34277 19.0043C8.19949 19.1476 7.96719 19.1476 7.82392 19.0043L0.259423 11.4398C0.116148 11.2966 0.116148 11.0643 0.259423 10.921L7.82392 3.3565Z" fill="url(#paint3_radial_952_1563)"/>
<g filter="url(#filter0_i_952_1563)">
<path d="M7.82395 5.55468C7.96723 5.41141 8.19952 5.41141 8.3428 5.55468L13.7091 10.921C13.8524 11.0642 13.8524 11.2965 13.7091 11.4398L8.3428 16.8061C8.19952 16.9494 7.96723 16.9494 7.82395 16.8061L2.45766 11.4398C2.31439 11.2965 2.31439 11.0642 2.45767 10.921L7.82395 5.55468Z" fill="url(#paint4_linear_952_1563)"/>
<path d="M7.82395 5.55468C7.96723 5.41141 8.19952 5.41141 8.3428 5.55468L13.7091 10.921C13.8524 11.0642 13.8524 11.2965 13.7091 11.4398L8.3428 16.8061C8.19952 16.9494 7.96723 16.9494 7.82395 16.8061L2.45766 11.4398C2.31439 11.2965 2.31439 11.0642 2.45767 10.921L7.82395 5.55468Z" fill="url(#paint5_radial_952_1563)"/>
<path d="M7.82395 5.55468C7.96723 5.41141 8.19952 5.41141 8.3428 5.55468L13.7091 10.921C13.8524 11.0642 13.8524 11.2965 13.7091 11.4398L8.3428 16.8061C8.19952 16.9494 7.96723 16.9494 7.82395 16.8061L2.45766 11.4398C2.31439 11.2965 2.31439 11.0642 2.45767 10.921L7.82395 5.55468Z" fill="black" fill-opacity="0.5"/>
</g>
<path d="M7.82416 7.07888C7.96744 6.93561 8.19974 6.93561 8.34301 7.07888L12.1851 10.921C12.3284 11.0642 12.3284 11.2965 12.1851 11.4398L8.34301 15.2819C8.19974 15.4252 7.96744 15.4252 7.82417 15.2819L3.98208 11.4398C3.8388 11.2965 3.8388 11.0642 3.98208 10.921L7.82416 7.07888Z" fill="url(#paint6_linear_952_1563)"/>
<path d="M7.82416 7.07888C7.96744 6.93561 8.19974 6.93561 8.34301 7.07888L12.1851 10.921C12.3284 11.0642 12.3284 11.2965 12.1851 11.4398L8.34301 15.2819C8.19974 15.4252 7.96744 15.4252 7.82417 15.2819L3.98208 11.4398C3.8388 11.2965 3.8388 11.0642 3.98208 10.921L7.82416 7.07888Z" fill="url(#paint7_linear_952_1563)" fill-opacity="0.5"/>
<path d="M7.82416 7.07888C7.96744 6.93561 8.19974 6.93561 8.34301 7.07888L12.1851 10.921C12.3284 11.0642 12.3284 11.2965 12.1851 11.4398L8.34301 15.2819C8.19974 15.4252 7.96744 15.4252 7.82417 15.2819L3.98208 11.4398C3.8388 11.2965 3.8388 11.0642 3.98208 10.921L7.82416 7.07888Z" fill="url(#paint8_radial_952_1563)"/>
<path d="M14.5939 0.259423C14.7372 0.116147 14.9694 0.116148 15.1127 0.259423L25.7743 10.921C25.9176 11.0643 25.9176 11.2966 25.7743 11.4399L15.1127 22.1015C14.9694 22.2447 14.7372 22.2447 14.5939 22.1015L3.93227 11.4399C3.789 11.2966 3.789 11.0643 3.93227 10.921L14.5939 0.259423Z" fill="url(#paint9_linear_952_1563)"/>
<path d="M14.5939 0.259423C14.7372 0.116147 14.9694 0.116148 15.1127 0.259423L25.7743 10.921C25.9176 11.0643 25.9176 11.2966 25.7743 11.4399L15.1127 22.1015C14.9694 22.2447 14.7372 22.2447 14.5939 22.1015L3.93227 11.4399C3.789 11.2966 3.789 11.0643 3.93227 10.921L14.5939 0.259423Z" fill="url(#paint10_radial_952_1563)"/>
<g filter="url(#filter1_i_952_1563)">
<path d="M14.5947 3.59985C14.738 3.45657 14.9703 3.45657 15.1136 3.59985L22.4347 10.921C22.578 11.0643 22.578 11.2966 22.4347 11.4398L15.1136 18.761C14.9703 18.9043 14.738 18.9043 14.5947 18.761L7.27358 11.4398C7.13031 11.2966 7.13031 11.0643 7.27358 10.921L14.5947 3.59985Z" fill="url(#paint11_linear_952_1563)"/>
<path d="M14.5947 3.59985C14.738 3.45657 14.9703 3.45657 15.1136 3.59985L22.4347 10.921C22.578 11.0643 22.578 11.2966 22.4347 11.4398L15.1136 18.761C14.9703 18.9043 14.738 18.9043 14.5947 18.761L7.27358 11.4398C7.13031 11.2966 7.13031 11.0643 7.27358 10.921L14.5947 3.59985Z" fill="url(#paint12_radial_952_1563)"/>
<path d="M14.5947 3.59985C14.738 3.45657 14.9703 3.45657 15.1136 3.59985L22.4347 10.921C22.578 11.0643 22.578 11.2966 22.4347 11.4398L15.1136 18.761C14.9703 18.9043 14.738 18.9043 14.5947 18.761L7.27358 11.4398C7.13031 11.2966 7.13031 11.0643 7.27358 10.921L14.5947 3.59985Z" fill="black" fill-opacity="0.5"/>
</g>
<path d="M14.5948 4.45329C14.7381 4.31001 14.9704 4.31001 15.1137 4.45329L21.5814 10.921C21.7247 11.0643 21.7247 11.2966 21.5814 11.4399L15.1137 17.9076C14.9704 18.0509 14.7381 18.0509 14.5948 17.9076L8.1271 11.4399C7.98382 11.2966 7.98382 11.0643 8.1271 10.921L14.5948 4.45329Z" fill="url(#paint13_linear_952_1563)"/>
<path d="M14.5948 4.45329C14.7381 4.31001 14.9704 4.31001 15.1137 4.45329L21.5814 10.921C21.7247 11.0643 21.7247 11.2966 21.5814 11.4399L15.1137 17.9076C14.9704 18.0509 14.7381 18.0509 14.5948 17.9076L8.1271 11.4399C7.98382 11.2966 7.98382 11.0643 8.1271 10.921L14.5948 4.45329Z" fill="url(#paint14_linear_952_1563)" fill-opacity="0.5"/>
<path d="M14.5948 4.45329C14.7381 4.31001 14.9704 4.31001 15.1137 4.45329L21.5814 10.921C21.7247 11.0643 21.7247 11.2966 21.5814 11.4399L15.1137 17.9076C14.9704 18.0509 14.7381 18.0509 14.5948 17.9076L8.1271 11.4399C7.98382 11.2966 7.98382 11.0643 8.1271 10.921L14.5948 4.45329Z" fill="url(#paint15_radial_952_1563)"/>
<path d="M134.91 3.35653C135.053 3.21325 135.285 3.21325 135.429 3.35653L142.993 10.921C143.136 11.0643 143.136 11.2966 142.993 11.4399L135.429 19.0044C135.285 19.1476 135.053 19.1476 134.91 19.0044L127.345 11.4399C127.202 11.2966 127.202 11.0643 127.345 10.921L134.91 3.35653Z" fill="url(#paint16_linear_952_1563)"/>
<path d="M134.91 3.35653C135.053 3.21325 135.285 3.21325 135.429 3.35653L142.993 10.921C143.136 11.0643 143.136 11.2966 142.993 11.4399L135.429 19.0044C135.285 19.1476 135.053 19.1476 134.91 19.0044L127.345 11.4399C127.202 11.2966 127.202 11.0643 127.345 10.921L134.91 3.35653Z" fill="url(#paint17_radial_952_1563)"/>
<g filter="url(#filter2_i_952_1563)">
<path d="M134.91 5.55471C135.053 5.41144 135.285 5.41144 135.429 5.55471L140.795 10.921C140.938 11.0643 140.938 11.2966 140.795 11.4398L135.429 16.8061C135.285 16.9494 135.053 16.9494 134.91 16.8061L129.544 11.4398C129.4 11.2966 129.4 11.0643 129.544 10.921L134.91 5.55471Z" fill="url(#paint18_linear_952_1563)"/>
<path d="M134.91 5.55471C135.053 5.41144 135.285 5.41144 135.429 5.55471L140.795 10.921C140.938 11.0643 140.938 11.2966 140.795 11.4398L135.429 16.8061C135.285 16.9494 135.053 16.9494 134.91 16.8061L129.544 11.4398C129.4 11.2966 129.4 11.0643 129.544 10.921L134.91 5.55471Z" fill="url(#paint19_radial_952_1563)"/>
<path d="M134.91 5.55471C135.053 5.41144 135.285 5.41144 135.429 5.55471L140.795 10.921C140.938 11.0643 140.938 11.2966 140.795 11.4398L135.429 16.8061C135.285 16.9494 135.053 16.9494 134.91 16.8061L129.544 11.4398C129.4 11.2966 129.4 11.0643 129.544 10.921L134.91 5.55471Z" fill="black" fill-opacity="0.5"/>
</g>
<path d="M134.91 7.07891C135.053 6.93564 135.286 6.93564 135.429 7.07891L139.271 10.921C139.414 11.0643 139.414 11.2966 139.271 11.4398L135.429 15.2819C135.286 15.4252 135.053 15.4252 134.91 15.2819L131.068 11.4398C130.925 11.2966 130.925 11.0643 131.068 10.921L134.91 7.07891Z" fill="url(#paint20_linear_952_1563)"/>
<path d="M134.91 7.07891C135.053 6.93564 135.286 6.93564 135.429 7.07891L139.271 10.921C139.414 11.0643 139.414 11.2966 139.271 11.4398L135.429 15.2819C135.286 15.4252 135.053 15.4252 134.91 15.2819L131.068 11.4398C130.925 11.2966 130.925 11.0643 131.068 10.921L134.91 7.07891Z" fill="url(#paint21_linear_952_1563)" fill-opacity="0.5"/>
<path d="M134.91 7.07891C135.053 6.93564 135.286 6.93564 135.429 7.07891L139.271 10.921C139.414 11.0643 139.414 11.2966 139.271 11.4398L135.429 15.2819C135.286 15.4252 135.053 15.4252 134.91 15.2819L131.068 11.4398C130.925 11.2966 130.925 11.0643 131.068 10.921L134.91 7.07891Z" fill="url(#paint22_radial_952_1563)"/>
<path d="M128.172 0.259423C128.315 0.116147 128.548 0.116148 128.691 0.259423L139.352 10.921C139.496 11.0643 139.496 11.2966 139.352 11.4399L128.691 22.1015C128.548 22.2447 128.315 22.2447 128.172 22.1015L117.51 11.4399C117.367 11.2966 117.367 11.0643 117.51 10.921L128.172 0.259423Z" fill="url(#paint23_linear_952_1563)"/>
<path d="M128.172 0.259423C128.315 0.116147 128.548 0.116148 128.691 0.259423L139.352 10.921C139.496 11.0643 139.496 11.2966 139.352 11.4399L128.691 22.1015C128.548 22.2447 128.315 22.2447 128.172 22.1015L117.51 11.4399C117.367 11.2966 117.367 11.0643 117.51 10.921L128.172 0.259423Z" fill="url(#paint24_radial_952_1563)"/>
<g filter="url(#filter3_i_952_1563)">
<path d="M128.173 3.59985C128.316 3.45657 128.548 3.45657 128.692 3.59985L136.013 10.921C136.156 11.0643 136.156 11.2966 136.013 11.4398L128.692 18.761C128.548 18.9043 128.316 18.9043 128.173 18.761L120.852 11.4398C120.708 11.2966 120.708 11.0643 120.852 10.921L128.173 3.59985Z" fill="url(#paint25_linear_952_1563)"/>
<path d="M128.173 3.59985C128.316 3.45657 128.548 3.45657 128.692 3.59985L136.013 10.921C136.156 11.0643 136.156 11.2966 136.013 11.4398L128.692 18.761C128.548 18.9043 128.316 18.9043 128.173 18.761L120.852 11.4398C120.708 11.2966 120.708 11.0643 120.852 10.921L128.173 3.59985Z" fill="url(#paint26_radial_952_1563)"/>
<path d="M128.173 3.59985C128.316 3.45657 128.548 3.45657 128.692 3.59985L136.013 10.921C136.156 11.0643 136.156 11.2966 136.013 11.4398L128.692 18.761C128.548 18.9043 128.316 18.9043 128.173 18.761L120.852 11.4398C120.708 11.2966 120.708 11.0643 120.852 10.921L128.173 3.59985Z" fill="black" fill-opacity="0.5"/>
</g>
<path d="M128.173 4.45329C128.316 4.31001 128.549 4.31001 128.692 4.45329L135.16 10.921C135.303 11.0643 135.303 11.2966 135.16 11.4399L128.692 17.9076C128.549 18.0509 128.316 18.0509 128.173 17.9076L121.705 11.4399C121.562 11.2966 121.562 11.0643 121.705 10.921L128.173 4.45329Z" fill="url(#paint27_linear_952_1563)"/>
<path d="M128.173 4.45329C128.316 4.31001 128.549 4.31001 128.692 4.45329L135.16 10.921C135.303 11.0643 135.303 11.2966 135.16 11.4399L128.692 17.9076C128.549 18.0509 128.316 18.0509 128.173 17.9076L121.705 11.4399C121.562 11.2966 121.562 11.0643 121.705 10.921L128.173 4.45329Z" fill="url(#paint28_linear_952_1563)" fill-opacity="0.5"/>
<path d="M128.173 4.45329C128.316 4.31001 128.549 4.31001 128.692 4.45329L135.16 10.921C135.303 11.0643 135.303 11.2966 135.16 11.4399L128.692 17.9076C128.549 18.0509 128.316 18.0509 128.173 17.9076L121.705 11.4399C121.562 11.2966 121.562 11.0643 121.705 10.921L128.173 4.45329Z" fill="url(#paint29_radial_952_1563)"/>
<defs>
<filter id="filter0_i_952_1563" x="2.3501" y="5.44722" width="11.4663" height="12.2001" filterUnits="userSpaceOnUse" color-interpolation-filters="sRGB">
<feFlood flood-opacity="0" result="BackgroundImageFix"/>
<feBlend mode="normal" in="SourceGraphic" in2="BackgroundImageFix" result="shape"/>
<feColorMatrix in="SourceAlpha" type="matrix" values="0 0 0 0 0 0 0 0 0 0 0 0 0 0 0 0 0 0 127 0" result="hardAlpha"/>
<feOffset dy="0.733759"/>
<feGaussianBlur stdDeviation="0.678727"/>
<feComposite in2="hardAlpha" operator="arithmetic" k2="-1" k3="1"/>
<feColorMatrix type="matrix" values="0 0 0 0 0 0 0 0 0 0 0 0 0 0 0 0 0 0 0.8 0"/>
<feBlend mode="normal" in2="shape" result="effect1_innerShadow_952_1563"/>
</filter>
<filter id="filter1_i_952_1563" x="7.16602" y="3.49239" width="15.376" height="16.1098" filterUnits="userSpaceOnUse" color-interpolation-filters="sRGB">
<feFlood flood-opacity="0" result="BackgroundImageFix"/>
<feBlend mode="normal" in="SourceGraphic" in2="BackgroundImageFix" result="shape"/>
<feColorMatrix in="SourceAlpha" type="matrix" values="0 0 0 0 0 0 0 0 0 0 0 0 0 0 0 0 0 0 127 0" result="hardAlpha"/>
<feOffset dy="0.733759"/>
<feGaussianBlur stdDeviation="0.678727"/>
<feComposite in2="hardAlpha" operator="arithmetic" k2="-1" k3="1"/>
<feColorMatrix type="matrix" values="0 0 0 0 0 0 0 0 0 0 0 0 0 0 0 0 0 0 0.8 0"/>
<feBlend mode="normal" in2="shape" result="effect1_innerShadow_952_1563"/>
</filter>
<filter id="filter2_i_952_1563" x="129.436" y="5.44725" width="11.4663" height="12.2001" filterUnits="userSpaceOnUse" color-interpolation-filters="sRGB">
<feFlood flood-opacity="0" result="BackgroundImageFix"/>
<feBlend mode="normal" in="SourceGraphic" in2="BackgroundImageFix" result="shape"/>
<feColorMatrix in="SourceAlpha" type="matrix" values="0 0 0 0 0 0 0 0 0 0 0 0 0 0 0 0 0 0 127 0" result="hardAlpha"/>
<feOffset dy="0.733759"/>
<feGaussianBlur stdDeviation="0.678727"/>
<feComposite in2="hardAlpha" operator="arithmetic" k2="-1" k3="1"/>
<feColorMatrix type="matrix" values="0 0 0 0 0 0 0 0 0 0 0 0 0 0 0 0 0 0 0.8 0"/>
<feBlend mode="normal" in2="shape" result="effect1_innerShadow_952_1563"/>
</filter>
<filter id="filter3_i_952_1563" x="120.744" y="3.49239" width="15.376" height="16.1098" filterUnits="userSpaceOnUse" color-interpolation-filters="sRGB">
<feFlood flood-opacity="0" result="BackgroundImageFix"/>
<feBlend mode="normal" in="SourceGraphic" in2="BackgroundImageFix" result="shape"/>
<feColorMatrix in="SourceAlpha" type="matrix" values="0 0 0 0 0 0 0 0 0 0 0 0 0 0 0 0 0 0 127 0" result="hardAlpha"/>
<feOffset dy="0.733759"/>
<feGaussianBlur stdDeviation="0.678727"/>
<feComposite in2="hardAlpha" operator="arithmetic" k2="-1" k3="1"/>
<feColorMatrix type="matrix" values="0 0 0 0 0 0 0 0 0 0 0 0 0 0 0 0 0 0 0.8 0"/>
<feBlend mode="normal" in2="shape" result="effect1_innerShadow_952_1563"/>
</filter>
<linearGradient id="paint0_linear_952_1563" x1="124.126" y1="1.76886" x2="14.7549" y2="1.76886" gradientUnits="userSpaceOnUse">
<stop stop-color="#C59339" stop-opacity="0"/>
<stop offset="0.486666" stop-color="#E1C690"/>
<stop offset="1" stop-color="#FFC55D" stop-opacity="0"/>
</linearGradient>
<linearGradient id="paint1_linear_952_1563" x1="124.126" y1="20.3037" x2="14.7549" y2="20.3037" gradientUnits="userSpaceOnUse">
<stop stop-color="#C59339" stop-opacity="0"/>
<stop offset="0.486666" stop-color="#E1C690"/>
<stop offset="1" stop-color="#FFC55D" stop-opacity="0"/>
</linearGradient>
<linearGradient id="paint2_linear_952_1563" x1="8.08334" y1="3.09708" x2="8.08334" y2="19.2638" gradientUnits="userSpaceOnUse">
<stop stop-color="#FFFFF6"/>
<stop offset="0.489524" stop-color="#E6D375"/>
<stop offset="0.507857" stop-color="#261600"/>
<stop offset="1" stop-color="#5B4905"/>
</linearGradient>
<radialGradient id="paint3_radial_952_1563" cx="0" cy="0" r="1" gradientUnits="userSpaceOnUse" gradientTransform="translate(14.3919 7.28521) rotate(143.869) scale(13.7868)">
<stop stop-color="#916619"/>
<stop offset="1" stop-color="#FFC55D" stop-opacity="0"/>
</radialGradient>
<linearGradient id="paint4_linear_952_1563" x1="8.08338" y1="5.29526" x2="8.08338" y2="17.0655" gradientUnits="userSpaceOnUse">
<stop stop-color="#FFFFF6"/>
<stop offset="0.489524" stop-color="#E6D375"/>
<stop offset="0.507857" stop-color="#261600"/>
<stop offset="1" stop-color="#5B4905"/>
</linearGradient>
<radialGradient id="paint5_radial_952_1563" cx="0" cy="0" r="1" gradientUnits="userSpaceOnUse" gradientTransform="translate(12.6763 8.34446) rotate(143.869) scale(10.0376)">
<stop stop-color="#916619"/>
<stop offset="1" stop-color="#FFC55D" stop-opacity="0"/>
</radialGradient>
<linearGradient id="paint6_linear_952_1563" x1="8.08359" y1="6.81946" x2="8.08359" y2="15.5413" gradientUnits="userSpaceOnUse">
<stop stop-color="#C1F0FF"/>
<stop offset="0.489524" stop-color="#00EFFF"/>
<stop offset="0.516666" stop-color="#0085FF"/>
<stop offset="1" stop-color="#00E0FF"/>
</linearGradient>
<linearGradient id="paint7_linear_952_1563" x1="3.72266" y1="11.1804" x2="12.4445" y2="11.1804" gradientUnits="userSpaceOnUse">
<stop stop-color="#149DF2"/>
<stop offset="0.48744" stop-color="#C8EBFF"/>
<stop offset="0.508881" stop-color="#0377FF"/>
<stop offset="1" stop-color="#23B9FA"/>
</linearGradient>
<radialGradient id="paint8_radial_952_1563" cx="0" cy="0" r="1" gradientUnits="userSpaceOnUse" gradientTransform="translate(10.7791 12.8907) rotate(-144.125) scale(5.1696)">
<stop stop-color="#0066FF"/>
<stop offset="1" stop-color="#0066FF" stop-opacity="0"/>
</radialGradient>
<linearGradient id="paint9_linear_952_1563" x1="14.8533" y1="0" x2="14.8533" y2="22.3609" gradientUnits="userSpaceOnUse">
<stop stop-color="#FFFFF6"/>
<stop offset="0.489524" stop-color="#E6D375"/>
<stop offset="0.507857" stop-color="#261600"/>
<stop offset="1" stop-color="#5B4905"/>
</linearGradient>
<radialGradient id="paint10_radial_952_1563" cx="0" cy="0" r="1" gradientUnits="userSpaceOnUse" gradientTransform="translate(23.5789 5.79281) rotate(143.869) scale(19.0691)">
<stop stop-color="#916619"/>
<stop offset="1" stop-color="#FFC55D" stop-opacity="0"/>
</radialGradient>
<linearGradient id="paint11_linear_952_1563" x1="14.8541" y1="3.34042" x2="14.8541" y2="19.0204" gradientUnits="userSpaceOnUse">
<stop stop-color="#FFFFF6"/>
<stop offset="0.489524" stop-color="#E6D375"/>
<stop offset="0.507857" stop-color="#261600"/>
<stop offset="1" stop-color="#5B4905"/>
</linearGradient>
<radialGradient id="paint12_radial_952_1563" cx="0" cy="0" r="1" gradientUnits="userSpaceOnUse" gradientTransform="translate(20.9728 7.40248) rotate(143.869) scale(13.3717)">
<stop stop-color="#916619"/>
<stop offset="1" stop-color="#FFC55D" stop-opacity="0"/>
</radialGradient>
<linearGradient id="paint13_linear_952_1563" x1="14.8542" y1="4.19386" x2="14.8542" y2="18.167" gradientUnits="userSpaceOnUse">
<stop stop-color="#C1F0FF"/>
<stop offset="0.489524" stop-color="#00EFFF"/>
<stop offset="0.516666" stop-color="#0085FF"/>
<stop offset="1" stop-color="#00E0FF"/>
</linearGradient>
<linearGradient id="paint14_linear_952_1563" x1="7.86768" y1="11.1804" x2="21.8408" y2="11.1804" gradientUnits="userSpaceOnUse">
<stop stop-color="#149DF2"/>
<stop offset="0.48744" stop-color="#C8EBFF"/>
<stop offset="0.508881" stop-color="#0377FF"/>
<stop offset="1" stop-color="#23B9FA"/>
</linearGradient>
<radialGradient id="paint15_radial_952_1563" cx="0" cy="0" r="1" gradientUnits="userSpaceOnUse" gradientTransform="translate(19.1727 13.9206) rotate(-144.125) scale(8.28213)">
<stop stop-color="#0066FF"/>
<stop offset="1" stop-color="#0066FF" stop-opacity="0"/>
</radialGradient>
<linearGradient id="paint16_linear_952_1563" x1="135.169" y1="3.09711" x2="135.169" y2="19.2638" gradientUnits="userSpaceOnUse">
<stop stop-color="#FFFFF6"/>
<stop offset="0.489524" stop-color="#E6D375"/>
<stop offset="0.507857" stop-color="#261600"/>
<stop offset="1" stop-color="#5B4905"/>
</linearGradient>
<radialGradient id="paint17_radial_952_1563" cx="0" cy="0" r="1" gradientUnits="userSpaceOnUse" gradientTransform="translate(141.478 7.28524) rotate(143.869) scale(13.7868)">
<stop stop-color="#916619"/>
<stop offset="1" stop-color="#FFC55D" stop-opacity="0"/>
</radialGradient>
<linearGradient id="paint18_linear_952_1563" x1="135.169" y1="5.29529" x2="135.169" y2="17.0656" gradientUnits="userSpaceOnUse">
<stop stop-color="#FFFFF6"/>
<stop offset="0.489524" stop-color="#E6D375"/>
<stop offset="0.507857" stop-color="#261600"/>
<stop offset="1" stop-color="#5B4905"/>
</linearGradient>
<radialGradient id="paint19_radial_952_1563" cx="0" cy="0" r="1" gradientUnits="userSpaceOnUse" gradientTransform="translate(139.762 8.34449) rotate(143.869) scale(10.0376)">
<stop stop-color="#916619"/>
<stop offset="1" stop-color="#FFC55D" stop-opacity="0"/>
</radialGradient>
<linearGradient id="paint20_linear_952_1563" x1="135.17" y1="6.81949" x2="135.17" y2="15.5414" gradientUnits="userSpaceOnUse">
<stop stop-color="#C1F0FF"/>
<stop offset="0.489524" stop-color="#00EFFF"/>
<stop offset="0.516666" stop-color="#0085FF"/>
<stop offset="1" stop-color="#00E0FF"/>
</linearGradient>
<linearGradient id="paint21_linear_952_1563" x1="130.809" y1="11.1804" x2="139.53" y2="11.1804" gradientUnits="userSpaceOnUse">
<stop stop-color="#149DF2"/>
<stop offset="0.48744" stop-color="#C8EBFF"/>
<stop offset="0.508881" stop-color="#0377FF"/>
<stop offset="1" stop-color="#23B9FA"/>
</linearGradient>
<radialGradient id="paint22_radial_952_1563" cx="0" cy="0" r="1" gradientUnits="userSpaceOnUse" gradientTransform="translate(137.865 12.8908) rotate(-144.125) scale(5.1696)">
<stop stop-color="#0066FF"/>
<stop offset="1" stop-color="#0066FF" stop-opacity="0"/>
</radialGradient>
<linearGradient id="paint23_linear_952_1563" x1="128.431" y1="0" x2="128.431" y2="22.3609" gradientUnits="userSpaceOnUse">
<stop stop-color="#FFFFF6"/>
<stop offset="0.489524" stop-color="#E6D375"/>
<stop offset="0.507857" stop-color="#261600"/>
<stop offset="1" stop-color="#5B4905"/>
</linearGradient>
<radialGradient id="paint24_radial_952_1563" cx="0" cy="0" r="1" gradientUnits="userSpaceOnUse" gradientTransform="translate(137.157 5.79281) rotate(143.869) scale(19.0691)">
<stop stop-color="#916619"/>
<stop offset="1" stop-color="#FFC55D" stop-opacity="0"/>
</radialGradient>
<linearGradient id="paint25_linear_952_1563" x1="128.432" y1="3.34042" x2="128.432" y2="19.0204" gradientUnits="userSpaceOnUse">
<stop stop-color="#FFFFF6"/>
<stop offset="0.489524" stop-color="#E6D375"/>
<stop offset="0.507857" stop-color="#261600"/>
<stop offset="1" stop-color="#5B4905"/>
</linearGradient>
<radialGradient id="paint26_radial_952_1563" cx="0" cy="0" r="1" gradientUnits="userSpaceOnUse" gradientTransform="translate(134.551 7.40248) rotate(143.869) scale(13.3717)">
<stop stop-color="#916619"/>
<stop offset="1" stop-color="#FFC55D" stop-opacity="0"/>
</radialGradient>
<linearGradient id="paint27_linear_952_1563" x1="128.432" y1="4.19386" x2="128.432" y2="18.167" gradientUnits="userSpaceOnUse">
<stop stop-color="#C1F0FF"/>
<stop offset="0.489524" stop-color="#00EFFF"/>
<stop offset="0.516666" stop-color="#0085FF"/>
<stop offset="1" stop-color="#00E0FF"/>
</linearGradient>
<linearGradient id="paint28_linear_952_1563" x1="121.446" y1="11.1804" x2="135.419" y2="11.1804" gradientUnits="userSpaceOnUse">
<stop stop-color="#149DF2"/>
<stop offset="0.48744" stop-color="#C8EBFF"/>
<stop offset="0.508881" stop-color="#0377FF"/>
<stop offset="1" stop-color="#23B9FA"/>
</linearGradient>
<radialGradient id="paint29_radial_952_1563" cx="0" cy="0" r="1" gradientUnits="userSpaceOnUse" gradientTransform="translate(132.751 13.9206) rotate(-144.125) scale(8.28213)">
<stop stop-color="#0066FF"/>
<stop offset="1" stop-color="#0066FF" stop-opacity="0"/>
</radialGradient>
</defs>
</svg>
