<svg width="36" height="36" viewBox="0 0 36 36" fill="none" xmlns="http://www.w3.org/2000/svg">
<path d="M9.00875 9.58515C9.00875 9.52992 9.05353 9.48515 9.10875 9.48515L26.4042 9.48515C26.4594 9.48514 26.5042 9.52992 26.5042 9.58515L26.5042 26.8806C26.5042 26.9358 26.4594 26.9806 26.4042 26.9806L9.10875 26.9806C9.05352 26.9806 9.00875 26.9358 9.00875 26.8806L9.00875 9.58515Z" stroke="url(#paint0_linear_600_2019)" stroke-width="0.2"/>
<path d="M9.00875 9.58515C9.00875 9.52992 9.05353 9.48515 9.10875 9.48515L26.4042 9.48515C26.4594 9.48514 26.5042 9.52992 26.5042 9.58515L26.5042 26.8806C26.5042 26.9358 26.4594 26.9806 26.4042 26.9806L9.10875 26.9806C9.05352 26.9806 9.00875 26.9358 9.00875 26.8806L9.00875 9.58515Z" stroke="url(#paint1_linear_600_2019)" stroke-opacity="0.5" stroke-width="0.2"/>
<path d="M9.00875 9.58515C9.00875 9.52992 9.05353 9.48515 9.10875 9.48515L26.4042 9.48515C26.4594 9.48514 26.5042 9.52992 26.5042 9.58515L26.5042 26.8806C26.5042 26.9358 26.4594 26.9806 26.4042 26.9806L9.10875 26.9806C9.05352 26.9806 9.00875 26.9358 9.00875 26.8806L9.00875 9.58515Z" stroke="url(#paint2_radial_600_2019)" stroke-width="0.2"/>
<path d="M10.0901 10.5668L25.4222 10.5668L25.4222 25.8989L10.0901 25.8989L10.0901 10.5668Z" stroke="url(#paint3_linear_600_2019)" stroke-width="0.2"/>
<path d="M10.0901 10.5668L25.4222 10.5668L25.4222 25.8989L10.0901 25.8989L10.0901 10.5668Z" stroke="url(#paint4_linear_600_2019)" stroke-opacity="0.5" stroke-width="0.2"/>
<path d="M10.0901 10.5668L25.4222 10.5668L25.4222 25.8989L10.0901 25.8989L10.0901 10.5668Z" stroke="url(#paint5_radial_600_2019)" stroke-width="0.2"/>
<g filter="url(#filter0_d_600_2019)">
<path d="M17.4964 5.48195C17.6397 5.33867 17.872 5.33867 18.0152 5.48195L30.5071 17.9738C30.6504 18.1171 30.6504 18.3494 30.5071 18.4926L18.0152 30.9845C17.872 31.1278 17.6397 31.1278 17.4964 30.9845L5.00454 18.4926C4.86126 18.3494 4.86126 18.1171 5.00454 17.9738L17.4964 5.48195Z" fill="url(#paint6_linear_600_2019)"/>
<path d="M17.4964 5.48195C17.6397 5.33867 17.872 5.33867 18.0152 5.48195L30.5071 17.9738C30.6504 18.1171 30.6504 18.3494 30.5071 18.4926L18.0152 30.9845C17.872 31.1278 17.6397 31.1278 17.4964 30.9845L5.00454 18.4926C4.86126 18.3494 4.86126 18.1171 5.00454 17.9738L17.4964 5.48195Z" fill="url(#paint7_radial_600_2019)"/>
</g>
<g filter="url(#filter1_i_600_2019)">
<path d="M17.4962 7.1993C17.6395 7.05602 17.8718 7.05602 18.0151 7.1993L28.7894 17.9737C28.9327 18.117 28.9327 18.3493 28.7894 18.4925L18.0151 29.2669C17.8718 29.4102 17.6395 29.4102 17.4962 29.2669L6.72183 18.4925C6.57855 18.3493 6.57855 18.117 6.72183 17.9737L17.4962 7.1993Z" fill="url(#paint8_linear_600_2019)"/>
<path d="M17.4962 7.1993C17.6395 7.05602 17.8718 7.05602 18.0151 7.1993L28.7894 17.9737C28.9327 18.117 28.9327 18.3493 28.7894 18.4925L18.0151 29.2669C17.8718 29.4102 17.6395 29.4102 17.4962 29.2669L6.72183 18.4925C6.57855 18.3493 6.57855 18.117 6.72183 17.9737L17.4962 7.1993Z" fill="url(#paint9_radial_600_2019)"/>
<path d="M17.4962 7.1993C17.6395 7.05602 17.8718 7.05602 18.0151 7.1993L28.7894 17.9737C28.9327 18.117 28.9327 18.3493 28.7894 18.4925L18.0151 29.2669C17.8718 29.4102 17.6395 29.4102 17.4962 29.2669L6.72183 18.4925C6.57855 18.3493 6.57855 18.117 6.72183 17.9737L17.4962 7.1993Z" fill="black" fill-opacity="0.5"/>
</g>
<path d="M17.4967 8.19175C17.64 8.04847 17.8722 8.04847 18.0155 8.19175L27.7972 17.9734C27.9405 18.1167 27.9405 18.349 27.7972 18.4923L18.0155 28.274C17.8722 28.4172 17.64 28.4172 17.4967 28.274L7.71499 18.4923C7.57171 18.349 7.57171 18.1167 7.71499 17.9734L17.4967 8.19175Z" fill="#088EFF"/>
<defs>
<filter id="filter0_d_600_2019" x="4.39697" y="5.0745" width="26.7178" height="26.7174" filterUnits="userSpaceOnUse" color-interpolation-filters="sRGB">
<feFlood flood-opacity="0" result="BackgroundImageFix"/>
<feColorMatrix in="SourceAlpha" type="matrix" values="0 0 0 0 0 0 0 0 0 0 0 0 0 0 0 0 0 0 127 0" result="hardAlpha"/>
<feOffset dy="0.2"/>
<feGaussianBlur stdDeviation="0.25"/>
<feComposite in2="hardAlpha" operator="out"/>
<feColorMatrix type="matrix" values="0 0 0 0 0 0 0 0 0 0 0 0 0 0 0 0 0 0 0.8 0"/>
<feBlend mode="normal" in2="BackgroundImageFix" result="effect1_dropShadow_600_2019"/>
<feBlend mode="normal" in="SourceGraphic" in2="effect1_dropShadow_600_2019" result="shape"/>
</filter>
<filter id="filter1_i_600_2019" x="6.61426" y="7.09184" width="22.2827" height="23.0163" filterUnits="userSpaceOnUse" color-interpolation-filters="sRGB">
<feFlood flood-opacity="0" result="BackgroundImageFix"/>
<feBlend mode="normal" in="SourceGraphic" in2="BackgroundImageFix" result="shape"/>
<feColorMatrix in="SourceAlpha" type="matrix" values="0 0 0 0 0 0 0 0 0 0 0 0 0 0 0 0 0 0 127 0" result="hardAlpha"/>
<feOffset dy="0.733759"/>
<feGaussianBlur stdDeviation="0.678727"/>
<feComposite in2="hardAlpha" operator="arithmetic" k2="-1" k3="1"/>
<feColorMatrix type="matrix" values="0 0 0 0 0 0 0 0 0 0 0 0 0 0 0 0 0 0 0.8 0"/>
<feBlend mode="normal" in2="shape" result="effect1_innerShadow_600_2019"/>
</filter>
<linearGradient id="paint0_linear_600_2019" x1="8.90875" y1="9.38515" x2="26.6042" y2="27.0806" gradientUnits="userSpaceOnUse">
<stop stop-color="#E7CE97"/>
<stop offset="0.489524" stop-color="#B28A38"/>
<stop offset="0.636666" stop-color="#322003"/>
<stop offset="1" stop-color="#503B0D"/>
</linearGradient>
<linearGradient id="paint1_linear_600_2019" x1="8.90875" y1="27.0806" x2="26.6042" y2="9.38515" gradientUnits="userSpaceOnUse">
<stop stop-color="#E6CD97"/>
<stop offset="0.48744" stop-color="#EAD581"/>
<stop offset="0.601666" stop-color="#BA923D"/>
<stop offset="1" stop-color="#4B350B"/>
</linearGradient>
<radialGradient id="paint2_radial_600_2019" cx="0" cy="0" r="1" gradientUnits="userSpaceOnUse" gradientTransform="translate(26.6954 16.2341) rotate(170.875) scale(14.8328)">
<stop stop-color="#EAD680"/>
<stop offset="1" stop-color="#B1893B" stop-opacity="0"/>
</radialGradient>
<linearGradient id="paint3_linear_600_2019" x1="9.99015" y1="10.4668" x2="25.5222" y2="25.9989" gradientUnits="userSpaceOnUse">
<stop stop-color="#E7CE97"/>
<stop offset="0.489524" stop-color="#B28A38"/>
<stop offset="0.636666" stop-color="#322003"/>
<stop offset="1" stop-color="#503B0D"/>
</linearGradient>
<linearGradient id="paint4_linear_600_2019" x1="9.99015" y1="25.9989" x2="25.5222" y2="10.4668" gradientUnits="userSpaceOnUse">
<stop stop-color="#E6CD97"/>
<stop offset="0.48744" stop-color="#EAD581"/>
<stop offset="0.601666" stop-color="#BA923D"/>
<stop offset="1" stop-color="#4B350B"/>
</linearGradient>
<radialGradient id="paint5_radial_600_2019" cx="0" cy="0" r="1" gradientUnits="userSpaceOnUse" gradientTransform="translate(25.6023 16.4785) rotate(170.875) scale(13.0194)">
<stop stop-color="#EAD680"/>
<stop offset="1" stop-color="#B1893B" stop-opacity="0"/>
</radialGradient>
<linearGradient id="paint6_linear_600_2019" x1="17.7558" y1="5.22253" x2="17.7558" y2="31.2439" gradientUnits="userSpaceOnUse">
<stop stop-color="#FFFFF6"/>
<stop offset="0.489524" stop-color="#E6D375"/>
<stop offset="0.507857" stop-color="#261600"/>
<stop offset="1" stop-color="#5B4905"/>
</linearGradient>
<radialGradient id="paint7_radial_600_2019" cx="0" cy="0" r="1" gradientUnits="userSpaceOnUse" gradientTransform="translate(27.9098 11.9636) rotate(143.869) scale(22.1907)">
<stop stop-color="#916619"/>
<stop offset="1" stop-color="#FFC55D" stop-opacity="0"/>
</radialGradient>
<linearGradient id="paint8_linear_600_2019" x1="17.7556" y1="6.93987" x2="17.7556" y2="29.5263" gradientUnits="userSpaceOnUse">
<stop stop-color="#FFFFF6"/>
<stop offset="0.489524" stop-color="#E6D375"/>
<stop offset="0.507857" stop-color="#261600"/>
<stop offset="1" stop-color="#5B4905"/>
</linearGradient>
<radialGradient id="paint9_radial_600_2019" cx="0" cy="0" r="1" gradientUnits="userSpaceOnUse" gradientTransform="translate(26.5693 12.7911) rotate(143.869) scale(19.2615)">
<stop stop-color="#916619"/>
<stop offset="1" stop-color="#FFC55D" stop-opacity="0"/>
</radialGradient>
</defs>
</svg>
