<svg width="50" height="49" viewBox="0 0 50 49" fill="none" xmlns="http://www.w3.org/2000/svg">
<path d="M4.31451 24.0981C5.44712 24.0152 5.77634 25.0995 5.79938 25.652C5.79938 25.6987 5.86059 25.8138 6.10543 25.9004C6.41147 26.0087 6.70988 25.7741 6.83618 25.5486C6.93723 25.3681 6.87828 25.0885 6.83618 24.9712C6.761 24.9591 6.58177 24.8882 6.46629 24.7005C6.32195 24.466 6.14152 24.0981 5.57315 23.636C5.00479 23.1739 3.93121 23.1398 2.79517 23.8525C1.65913 24.5652 1.6343 26.2061 2.27618 27.1368C2.91805 28.0674 3.93476 29.0205 5.13993 29.0205C6.34509 29.0205 8.18205 28.1727 9.04532 27.1368C9.9086 26.1008 10.0122 24.5815 9.94313 23.5456C9.88788 22.7168 8.97626 21.5428 8.52736 21.0593V20.2651H11.9459C12.2222 20.8061 12.7816 21.9502 12.8092 22.1989C12.8437 22.5096 12.9128 24.4088 12.5675 25.652C12.2222 26.8951 10.7719 28.6906 9.04532 29.5539C7.31878 30.4172 4.90162 30.5898 3.93476 30.1755C2.9679 29.7611 1.24132 28.3453 0.895992 27.4821C0.550658 26.6189 0.481621 25.2721 0.895992 24.0981C1.31036 22.924 3.17503 21.6118 4.31451 21.6118C5.454 21.6118 6.48999 22.0608 7.35326 22.855C8.21653 23.6492 8.21653 25.0995 7.62951 26.4462C7.04248 27.7929 5.31594 27.6202 4.31451 27.4821C3.31309 27.344 2.79517 26.4462 2.79517 25.652C2.79517 24.8577 2.89876 24.2017 4.31451 24.0981Z" fill="#D6CCB4"/>
<path d="M2.17913 30.5276C1.98145 30.3581 0.990689 29.5392 0.52002 29.1509V31.6572L1.68493 31.8337C1.88201 31.7631 2.32031 31.5442 2.49684 31.2336C2.7175 30.8453 2.42623 30.7394 2.17913 30.5276Z" fill="#D6CCB4"/>
<path d="M1.68493 21.0593C1.50137 21.0593 0.83184 20.7115 0.52002 20.5376V13.6717C0.70829 14.1895 1.1166 15.3097 1.24368 15.6485C1.40253 16.0721 1.24368 16.5663 1.24368 16.7605C1.24368 16.9158 0.92598 17.0017 0.767129 17.0252C0.731829 17.2782 0.664758 17.8195 0.678878 17.9607C0.696528 18.1372 1.03188 18.3313 1.24368 18.3666C1.45548 18.4019 2.39094 18.5432 2.49684 18.6138C2.60274 18.6844 2.97339 19.1962 3.52054 19.6375C4.0677 20.0787 3.74999 20.2651 3.16754 20.5376C2.58509 20.8101 1.91438 21.0593 1.68493 21.0593Z" fill="#D6CCB4"/>
<path d="M0.52002 12.648V10.4418C0.649456 10.4418 0.94363 10.5053 1.08483 10.7595C1.26133 11.0772 1.68493 11.3949 1.89673 11.8361C2.06618 12.1891 3.89708 13.9953 4.79135 14.8543C4.83842 15.2426 4.88313 16.0616 4.68545 16.231C4.43835 16.4428 3.64409 16.4252 3.16754 16.3369C2.69099 16.2487 2.49684 16.0369 2.17914 15.525C1.86143 15.0131 1.36723 14.3601 1.08483 13.8306C0.858909 13.407 0.614156 12.8657 0.52002 12.648Z" fill="#D6CCB4"/>
<path d="M4.68545 13.9718C4.37481 13.5764 2.69687 11.5478 1.89673 10.583L4.31451 9.02977L6.36221 11.995C6.62696 12.4245 7.16352 13.3258 7.19176 13.4952C7.22706 13.707 7.01526 14.4483 6.36221 14.5013C5.70915 14.5542 5.07375 14.466 4.68545 13.9718Z" fill="#D6CCB4"/>
<path d="M0.52002 6.17044V8.53555C0.67299 8.62968 1.09895 8.82148 1.57903 8.8356C2.17914 8.85325 2.53214 8.765 2.69099 8.53555C2.84984 8.30611 2.51449 8.16489 2.26739 7.84719C2.02029 7.52949 1.42018 6.62934 1.08483 6.34694C0.816549 6.12102 0.596506 6.13514 0.52002 6.17044Z" fill="#D6CCB4"/>
<path d="M1.40253 5.62328V4.52898C1.46137 4.40543 1.60021 4.10893 1.68493 3.91125C1.79083 3.66415 2.69099 3.41704 2.99104 3.46999C3.29109 3.52294 3.90884 4.19364 4.50895 4.88199C5.10905 5.57035 4.93255 6.34694 4.68545 6.66465C4.43835 6.98236 3.78529 7.74131 3.52054 7.70601C3.25579 7.67071 2.84984 7.33536 2.69099 6.9647C2.56391 6.66818 1.77907 5.94687 1.40253 5.62328Z" fill="#D6CCB4"/>
<path d="M1.08483 3.20524C0.830669 3.20524 0.602389 3.04051 0.52002 2.95814V0.734222H4.08535L4.50895 0.840139C4.17948 1.01075 3.35463 1.50377 2.69099 2.11093C1.86143 2.86988 1.40253 3.20524 1.08483 3.20524Z" fill="#D6CCB4"/>
<path d="M4.79135 1.77556C5.17282 1.42256 5.59746 0.934252 5.7621 0.734222C6.07981 0.734222 6.74698 0.79423 6.87406 1.03426C7.03291 1.3343 7.58006 1.98737 7.82717 2.41097C8.07427 2.83457 7.80951 4.22893 7.58006 4.31718C7.35061 4.40543 5.92096 4.52898 5.53265 4.07008C5.14435 3.61117 4.50895 3.38172 4.50895 3.20524C4.50895 3.02877 4.31451 2.21682 4.79135 1.77556Z" fill="#D6CCB4"/>
<path d="M8.81557 1.63436C8.42021 1.25311 8.33313 0.946025 8.33902 0.840139H13.3869C13.2987 0.94603 12.9528 1.25312 12.275 1.63436C11.4278 2.11092 10.6159 2.41097 9.98048 2.41097C9.34507 2.41097 9.30977 2.11093 8.81557 1.63436Z" fill="#D6CCB4"/>
<path d="M32.0431 0.840139L19.8292 0.734222L19.6527 0.840139C20.1528 0.94603 21.2836 1.22135 21.806 1.47551C22.4591 1.79321 24.2418 1.88146 25.6891 1.88146C26.8469 1.88146 28.619 1.81086 29.3603 1.77556V2.02267C28.1836 2.1521 25.622 2.41097 24.7889 2.41097C23.9558 2.41097 22.2649 2.05797 21.5236 1.88146C20.7764 1.7991 19.0385 1.63436 18.0642 1.63436C17.0899 1.63436 15.1637 1.7991 14.3224 1.88146C15.505 2.611 18.1525 4.16186 19.2821 4.52898C20.6941 4.98788 23.5004 5.39383 24.6477 5.32323C25.795 5.25263 26.7834 5.12908 27.6306 4.31718C28.3083 3.66765 30.8547 1.72852 32.0431 0.840139Z" fill="#D6CCB4"/>
<path d="M49.8167 0.840139H34.0728C33.8375 1.10488 33.2327 1.73673 32.6961 2.14622C32.1596 2.5557 30.8723 3.55234 30.2957 3.99948H45.4572C45.6513 3.88181 46.2373 3.53351 47.028 3.08167C47.8187 2.62983 49.2166 1.39905 49.8167 0.840139Z" fill="#D6CCB4"/>
<path d="M44.3099 5.32323H28.9367C28.7837 5.4056 28.3083 5.68682 27.6306 6.15279C26.9528 6.61875 25.1949 7.70011 24.4006 8.18255L37.6029 8.3414C37.95 8.27668 39.0431 8.00605 40.6387 7.44124C42.2343 6.87644 43.751 5.7939 44.3099 5.32323Z" fill="#D6CCB4"/>
<path d="M27.6306 9.5063C24.2841 9.30862 22.5062 9.23567 22.0355 9.2239C21.9061 9.4004 21.4142 9.91579 20.4823 10.5653C19.5504 11.2148 18.729 11.3184 18.4349 11.289L18.329 11.8538C18.4937 11.9302 18.915 12.1538 19.2821 12.4362C19.741 12.7892 21.2236 13.1952 22.5297 13.2305C23.8358 13.2658 26.448 13.2128 29.0426 12.4362C31.1182 11.8149 34.3906 10.5653 35.7673 10.0182L35.6614 9.6475C34.3788 9.6828 30.977 9.70398 27.6306 9.5063Z" fill="#D6CCB4"/>
<path d="M14.9755 12.8069L14.1282 13.4952C14.2636 13.6541 14.6436 14.0777 15.0814 14.5013C15.5191 14.9249 16.9934 15.8309 17.6759 16.231H20.9765L21.806 15.525C21.6707 15.1838 21.2942 14.4378 20.8706 14.1836C20.447 13.9294 19.0703 13.1599 18.4349 12.8069H14.9755Z" fill="#D6CCB4"/>
<path d="M13.5634 14.1836H10.8983C10.5159 14.3248 9.75103 14.6319 9.75103 14.7307C9.75103 14.8543 9.94313 15.0308 10.5629 15.6485C11.0588 16.1427 12.267 17.3959 12.8092 17.9607C13.5666 17.9254 15.3002 17.7913 16.1757 17.5371C17.0511 17.2829 17.1994 16.9135 17.1641 16.7605C17.0993 16.7605 16.8111 16.6299 16.1757 16.1074C15.5403 15.585 14.1694 14.6072 13.5634 14.1836Z" fill="#D6CCB4"/>
<path d="M8.52736 14.8543L7.82717 14.7307C7.76128 14.8484 7.54196 15.1967 7.19176 15.6485C6.84157 16.1004 6.32162 16.4369 6.10543 16.5487L8.02132 19.2139C8.5214 19.2786 9.7122 19.3974 10.4747 19.3551C11.2372 19.3127 11.7732 19.1256 11.9459 19.0374V18.3666L8.52736 14.8543Z" fill="#D6CCB4"/>
<path d="M4.8796 17.237C4.68192 17.4065 3.8912 17.7901 3.52054 17.9607C3.44994 18.1784 3.39699 18.7338 3.74999 19.2139C4.19125 19.814 5.1267 20.0964 5.63855 20.2651C6.15041 20.4339 7.54476 20.2651 7.62951 20.0964C7.71425 19.9276 7.82717 19.6375 7.62951 19.5316C7.43185 19.4256 6.46629 17.7312 5.88566 17.0252C5.30502 16.3192 5.1267 17.0252 4.8796 17.237Z" fill="#D6CCB4"/>
<path d="M5.4091 7.70601L6.36221 6.66465L11.4984 11.6949L12.3632 12.648L12.275 12.9304C11.9691 13.1187 11.103 13.4952 10.0864 13.4952C9.06973 13.4952 8.40374 13.3187 8.19782 13.2305C7.23295 11.8949 5.28908 9.14624 5.2326 8.8356C5.17612 8.52495 5.32674 7.9531 5.4091 7.70601Z" fill="#D6CCB4"/>
<path d="M7.45651 6.66465C7.31812 6.42461 7.39885 5.67035 7.45651 5.32323H8.02132L8.52736 5.72918L14.9755 10.583C14.9402 11.0007 14.7213 11.9138 14.1282 12.2244C13.5352 12.535 13.0018 12.3538 12.8092 12.2244L8.81557 8.3414C8.42022 7.8825 7.59491 6.90469 7.45651 6.66465Z" fill="#D6CCB4"/>
<path d="M9.52157 5.87039C9.33801 5.64446 9.44509 4.74078 9.52157 4.31718L9.98048 4.52898C10.3511 4.71725 11.3995 5.27028 12.628 5.97629C14.1635 6.85879 18.6996 8.3414 19.5645 8.53555C20.2564 8.69087 20.7941 8.92975 20.9765 9.02977C20.0646 9.34746 17.9336 9.96874 16.7052 9.91226C15.4767 9.85578 14.7813 9.61809 14.5871 9.5063L10.2805 6.66465C10.104 6.49403 9.70514 6.09631 9.52157 5.87039Z" fill="#D6CCB4"/>
<path d="M12.8092 3.06402C12.2764 3.58646 11.3132 3.78767 10.8983 3.82297V4.40543C11.0571 4.50544 11.509 4.76902 12.0455 5.02318C12.5821 5.27734 15.4932 6.49402 16.8817 7.07059C17.6818 7.35299 19.5751 7.90368 20.747 7.84719C22.212 7.77659 24.4006 7.12354 24.9125 6.66465C25.3219 6.29754 25.2949 6.05278 25.2302 5.97629C25.0007 6.03512 24.2488 6.09631 23.0768 5.87039C21.6119 5.58798 19.2821 5.32323 17.8877 4.52898C16.7722 3.89357 14.9166 2.67572 14.1282 2.14622C13.9106 2.23447 13.342 2.54158 12.8092 3.06402Z" fill="#D6CCB4"/>
<path d="M7.15646 31.6572H4.7737V32.4161L7.40356 35.8755C7.533 36.0932 7.77775 36.6239 7.72126 37.0051C7.65066 37.4817 6.83876 38.3112 5.99156 39.3526C5.31379 40.1857 2.5439 43.265 1.24368 44.7006L0.52002 44.5241V48.9013C3.36179 45.842 9.21824 39.4938 9.90988 38.576C10.6015 37.6582 10.351 36.4992 10.1393 36.0344L7.15646 31.6572Z" fill="#D6CCB4"/>
<path d="M3.00869 33.0515H0.52002V35.346L2.49684 37.1816L4.31451 38.8231C4.56171 38.7407 5.11611 38.4136 5.35615 37.7641C5.6562 36.9522 5.2679 36.0344 4.9149 35.346C4.6325 34.7954 3.52643 33.5869 3.00869 33.0515Z" fill="#D6CCB4"/>
<path d="M2.79689 39.5115C2.62745 39.2291 1.20838 37.5346 0.52002 36.7227V43.4651C1.1054 42.9709 2.34149 41.8942 2.60274 41.5412C2.9293 41.1 3.00869 39.8645 2.79689 39.5115Z" fill="#D6CCB4"/>
</svg>
