<svg width="51" height="49" viewBox="0 0 51 49" fill="none" xmlns="http://www.w3.org/2000/svg">
<path d="M46.3998 23.8868C45.2672 23.8039 44.938 24.8882 44.915 25.4407C44.915 25.4874 44.8538 25.6025 44.6089 25.6891C44.3029 25.7974 44.0045 25.5628 43.8782 25.3373C43.7771 25.1569 43.8361 24.8772 43.8782 24.7599C43.9534 24.7479 44.1326 24.6769 44.2481 24.4893C44.3924 24.2547 44.5728 23.8868 45.1412 23.4247C45.7096 22.9626 46.7831 22.9285 47.9192 23.6412C49.0552 24.3539 49.0801 25.9949 48.4382 26.9255C47.7963 27.8561 46.7796 28.8092 45.5744 28.8092C44.3693 28.8092 42.5323 27.9614 41.669 26.9255C40.8058 25.8896 40.7022 24.3702 40.7712 23.3343C40.8265 22.5055 41.7381 21.3315 42.187 20.8481V20.0539H38.7684C38.4922 20.5948 37.9328 21.739 37.9052 21.9876C37.8706 22.2984 37.8016 24.1976 38.1469 25.4407C38.4922 26.6838 39.9425 28.4794 41.669 29.3426C43.3956 30.2059 45.8127 30.3786 46.7796 29.9642C47.7465 29.5498 49.473 28.1341 49.8184 27.2708C50.1637 26.4076 50.2327 25.0608 49.8184 23.8868C49.404 22.7128 47.5393 21.4006 46.3998 21.4006C45.2604 21.4006 44.2244 21.8495 43.3611 22.6437C42.4978 23.4379 42.4978 24.8882 43.0848 26.2349C43.6719 27.5816 45.3984 27.4089 46.3998 27.2708C47.4013 27.1327 47.9192 26.2349 47.9192 25.4407C47.9192 24.6465 47.8156 23.9904 46.3998 23.8868Z" fill="#D6CCB4"/>
<path d="M48.5352 30.3163C48.7329 30.1469 49.7237 29.3279 50.1943 28.9396V31.4459L49.0294 31.6224C48.8323 31.5518 48.394 31.3329 48.2175 31.0223C47.9969 30.634 48.2881 30.5281 48.5352 30.3163Z" fill="#D6CCB4"/>
<path d="M49.0294 20.8481C49.213 20.8481 49.8825 20.5003 50.1943 20.3263V13.4605C50.0061 13.9782 49.5978 15.0984 49.4707 15.4373C49.3118 15.8609 49.4707 16.3551 49.4707 16.5492C49.4707 16.7045 49.7884 16.7904 49.9472 16.814C49.9825 17.0669 50.0496 17.6082 50.0355 17.7494C50.0178 17.9259 49.6825 18.1201 49.4707 18.1554C49.2589 18.1907 48.3234 18.3319 48.2175 18.4025C48.1116 18.4731 47.741 18.9849 47.1938 19.4262C46.6467 19.8674 46.9644 20.0539 47.5468 20.3263C48.1293 20.5988 48.8 20.8481 49.0294 20.8481Z" fill="#D6CCB4"/>
<path d="M50.1943 12.4367V10.2305C50.0649 10.2305 49.7707 10.294 49.6295 10.5482C49.453 10.8659 49.0294 11.1836 48.8176 11.6249C48.6482 11.9779 46.8173 13.7841 45.923 14.643C45.8759 15.0313 45.8312 15.8503 46.0289 16.0197C46.276 16.2315 47.0703 16.2139 47.5468 16.1256C48.0234 16.0374 48.2175 15.8256 48.5352 15.3137C48.8529 14.8019 49.3471 14.1488 49.6295 13.6193C49.8554 13.1957 50.1002 12.6544 50.1943 12.4367Z" fill="#D6CCB4"/>
<path d="M46.0289 13.7605C46.3395 13.3652 48.0175 11.3366 48.8176 10.3717L46.3998 8.81849L44.3521 11.7837C44.0874 12.2132 43.5508 13.1145 43.5226 13.284C43.4873 13.4958 43.6991 14.2371 44.3521 14.29C45.0052 14.343 45.6406 14.2547 46.0289 13.7605Z" fill="#D6CCB4"/>
<path d="M50.1943 5.95917V8.32428C50.0414 8.41841 49.6154 8.6102 49.1353 8.62432C48.5352 8.64197 48.1822 8.55373 48.0234 8.32428C47.8645 8.09483 48.1999 7.95362 48.447 7.63592C48.6941 7.31822 49.2942 6.41807 49.6295 6.13567C49.8978 5.90975 50.1178 5.92387 50.1943 5.95917Z" fill="#D6CCB4"/>
<path d="M49.3118 5.41201V4.3177C49.253 4.19416 49.1141 3.89766 49.0294 3.69998C48.9235 3.45287 48.0234 3.20576 47.7233 3.25871C47.4233 3.31166 46.8055 3.98237 46.2054 4.67072C45.6053 5.35907 45.7818 6.13567 46.0289 6.45338C46.276 6.77109 46.9291 7.53003 47.1938 7.49473C47.4586 7.45943 47.8645 7.12408 48.0234 6.75343C48.1504 6.45691 48.9353 5.7356 49.3118 5.41201Z" fill="#D6CCB4"/>
<path d="M49.6295 2.99397C49.8837 2.99397 50.112 2.82924 50.1943 2.74687V0.522949H46.629L46.2054 0.628866C46.5349 0.799479 47.3597 1.29249 48.0234 1.89966C48.8529 2.65861 49.3118 2.99397 49.6295 2.99397Z" fill="#D6CCB4"/>
<path d="M45.923 1.56429C45.5415 1.21129 45.1169 0.722979 44.9523 0.522949C44.6345 0.522949 43.9674 0.582957 43.8403 0.822987C43.6814 1.12303 43.1343 1.77609 42.8872 2.19969C42.6401 2.6233 42.9048 4.01765 43.1343 4.1059C43.3637 4.19415 44.7934 4.3177 45.1817 3.8588C45.57 3.3999 46.2054 3.17045 46.2054 2.99397C46.2054 2.81749 46.3998 2.00554 45.923 1.56429Z" fill="#D6CCB4"/>
<path d="M41.8988 1.42309C42.2941 1.04184 42.3812 0.734752 42.3753 0.628866H37.3274C37.4157 0.734757 37.7616 1.04185 38.4394 1.42309C39.2866 1.89964 40.0985 2.19969 40.7339 2.19969C41.3693 2.19969 41.4046 1.89966 41.8988 1.42309Z" fill="#D6CCB4"/>
<path d="M18.6713 0.628866L30.8851 0.522949L31.0616 0.628866C30.5615 0.734757 29.4308 1.01008 28.9083 1.26424C28.2553 1.58194 26.4726 1.67019 25.0253 1.67019C23.8675 1.67019 22.0954 1.59959 21.3541 1.56429V1.81139C22.5308 1.94083 25.0924 2.19969 25.9255 2.19969C26.7585 2.19969 28.4494 1.84669 29.1907 1.67019C29.9379 1.58782 31.6759 1.42309 32.6501 1.42309C33.6244 1.42309 35.5506 1.58782 36.392 1.67019C35.2094 2.39973 32.5619 3.95058 31.4323 4.3177C30.0203 4.77661 27.2139 5.18256 26.0667 5.11196C24.9194 5.04136 23.931 4.91781 23.0838 4.1059C22.406 3.45638 19.8597 1.51724 18.6713 0.628866Z" fill="#D6CCB4"/>
<path d="M0.897625 0.628866H16.6415C16.8768 0.893608 17.4816 1.52546 18.0182 1.93494C18.5548 2.34443 19.8421 3.34107 20.4186 3.7882H5.2572C5.06305 3.67054 4.47706 3.32224 3.68634 2.8704C2.89561 2.41856 1.49773 1.18778 0.897625 0.628866Z" fill="#D6CCB4"/>
<path d="M6.40445 5.11196H21.7777C21.9306 5.19433 22.406 5.47555 23.0838 5.94151C23.7616 6.40748 25.5195 7.48884 26.3138 7.97127L13.1115 8.13012C12.7644 8.06541 11.6712 7.79477 10.0757 7.22997C8.4801 6.66517 6.96337 5.58263 6.40445 5.11196Z" fill="#D6CCB4"/>
<path d="M23.0838 9.29503C26.4302 9.09735 28.2082 9.02439 28.6789 9.01263C28.8083 9.18913 29.3001 9.70451 30.2321 10.354C31.164 11.0036 31.9853 11.1071 32.2795 11.0777L32.3854 11.6425C32.2207 11.719 31.7994 11.9425 31.4323 12.2249C30.9734 12.5779 29.4908 12.9839 28.1847 13.0192C26.8786 13.0545 24.2663 13.0015 21.6718 12.2249C19.5961 11.6037 16.3238 10.354 14.9471 9.80688L15.053 9.43623C16.3356 9.47153 19.7373 9.49271 23.0838 9.29503Z" fill="#D6CCB4"/>
<path d="M35.7389 12.5956L36.5861 13.284C36.4508 13.4428 36.0707 13.8664 35.633 14.29C35.1953 14.7136 33.7209 15.6197 33.0384 16.0197H29.7379L28.9083 15.3137C29.0436 14.9725 29.4202 14.2265 29.8438 13.9723C30.2674 13.7181 31.6441 12.9486 32.2795 12.5956H35.7389Z" fill="#D6CCB4"/>
<path d="M37.1509 13.9723H39.8161C40.1985 14.1135 40.9633 14.4206 40.9633 14.5195C40.9633 14.643 40.7712 14.8195 40.1514 15.4373C39.6556 15.9315 38.4473 17.1846 37.9052 17.7494C37.1478 17.7141 35.4141 17.58 34.5387 17.3258C33.6633 17.0717 33.515 16.7022 33.5503 16.5492C33.615 16.5492 33.9033 16.4186 34.5387 15.8962C35.1741 15.3737 36.5449 14.3959 37.1509 13.9723Z" fill="#D6CCB4"/>
<path d="M42.187 14.643L42.8872 14.5195C42.9531 14.6371 43.1724 14.9854 43.5226 15.4373C43.8728 15.8891 44.3927 16.2256 44.6089 16.3374L42.693 19.0026C42.193 19.0673 41.0022 19.1861 40.2397 19.1438C39.4772 19.1014 38.9412 18.9143 38.7684 18.8261V18.1554L42.187 14.643Z" fill="#D6CCB4"/>
<path d="M45.8348 17.0258C46.0324 17.1952 46.8232 17.5788 47.1938 17.7494C47.2644 17.9671 47.3174 18.5225 46.9644 19.0026C46.5231 19.6027 45.5877 19.8851 45.0758 20.0539C44.5639 20.2226 43.1696 20.0539 43.0848 19.8851C43.0001 19.7163 42.8872 19.4262 43.0848 19.3203C43.2825 19.2144 44.2481 17.52 44.8287 16.814C45.4093 16.108 45.5877 16.814 45.8348 17.0258Z" fill="#D6CCB4"/>
<path d="M45.3053 7.49473L44.3521 6.45338L39.216 11.4836L38.3511 12.4367L38.4394 12.7191C38.7453 12.9074 39.6113 13.284 40.628 13.284C41.6446 13.284 42.3106 13.1075 42.5165 13.0192C43.4814 11.6837 45.4253 8.93497 45.4818 8.62432C45.5382 8.31368 45.3876 7.74183 45.3053 7.49473Z" fill="#D6CCB4"/>
<path d="M43.2578 6.45338C43.3962 6.21334 43.3155 5.45908 43.2578 5.11196H42.693L42.187 5.51791L35.7389 10.3717C35.7742 10.7894 35.9931 11.7025 36.5861 12.0131C37.1791 12.3238 37.7126 12.1426 37.9052 12.0131L41.8988 8.13012C42.2941 7.67123 43.1194 6.69342 43.2578 6.45338Z" fill="#D6CCB4"/>
<path d="M41.1928 5.65911C41.3763 5.43319 41.2693 4.52951 41.1928 4.1059L40.7339 4.3177C40.3632 4.50597 39.3148 5.05901 38.0864 5.76501C36.5508 6.64752 32.0147 8.13012 31.1499 8.32428C30.458 8.4796 29.9203 8.71847 29.7379 8.81849C30.6498 9.13619 32.7807 9.75746 34.0092 9.70098C35.2376 9.6445 35.9331 9.40681 36.1272 9.29503L40.4338 6.45338C40.6103 6.28276 41.0092 5.88503 41.1928 5.65911Z" fill="#D6CCB4"/>
<path d="M37.9052 2.85275C38.438 3.37519 39.4011 3.5764 39.8161 3.6117V4.19415C39.6572 4.29417 39.2054 4.55775 38.6688 4.81191C38.1323 5.06607 35.2212 6.28275 33.8327 6.85932C33.0326 7.14172 31.1393 7.6924 29.9673 7.63592C28.5024 7.56532 26.3138 6.91227 25.8019 6.45338C25.3924 6.08627 25.4195 5.8415 25.4842 5.76501C25.7137 5.82385 26.4655 5.88503 27.6375 5.65911C29.1025 5.37671 31.4323 5.11196 32.8266 4.3177C33.9421 3.6823 35.7977 2.46444 36.5861 1.93494C36.8038 2.02319 37.3724 2.3303 37.9052 2.85275Z" fill="#D6CCB4"/>
<path d="M43.5579 31.4459H45.9407V32.2048L43.3108 35.6643C43.1814 35.882 42.9366 36.4126 42.9931 36.7939C43.0637 37.2704 43.8756 38.1 44.7228 39.1413C45.4006 39.9744 48.1705 43.0538 49.4707 44.4893L50.1943 44.3128V48.69C47.3526 45.6307 41.4961 39.2825 40.8045 38.3647C40.1128 37.4469 40.3633 36.2879 40.575 35.8231L43.5579 31.4459Z" fill="#D6CCB4"/>
<path d="M47.7057 32.8403H50.1943V35.1348L48.2175 36.9704L46.3998 38.6118C46.1526 38.5295 45.5982 38.2023 45.3582 37.5528C45.0582 36.7409 45.4465 35.8231 45.7995 35.1348C46.0819 34.5841 47.1879 33.3756 47.7057 32.8403Z" fill="#D6CCB4"/>
<path d="M47.9175 39.3002C48.0869 39.0178 49.506 37.3234 50.1943 36.5115V43.2538C49.609 42.7596 48.3729 41.6829 48.1116 41.3299C47.7851 40.8887 47.7057 39.6532 47.9175 39.3002Z" fill="#D6CCB4"/>
</svg>
