<svg width="32" height="33" viewBox="0 0 32 33" fill="none" xmlns="http://www.w3.org/2000/svg">
<rect x="3.1012" y="3.42053" width="25.6993" height="25.7" stroke="#DFC38D" stroke-width="0.730716"/>
<rect x="4.99524" y="5.46698" width="21.6093" height="21.6071" stroke="#DFC38D" stroke-width="0.730716"/>
<g filter="url(#filter0_d_586_4475)">
<path d="M15.4872 1.16799C15.6305 1.02472 15.8628 1.02472 16.0061 1.16799L30.8496 16.0115C30.9928 16.1548 30.9928 16.3871 30.8496 16.5303L16.0061 31.3739C15.8628 31.5171 15.6305 31.5171 15.4872 31.3739L0.6437 16.5303C0.500424 16.3871 0.500425 16.1548 0.6437 16.0115L15.4872 1.16799Z" fill="url(#paint0_linear_586_4475)"/>
<path d="M15.4872 1.16799C15.6305 1.02472 15.8628 1.02472 16.0061 1.16799L30.8496 16.0115C30.9928 16.1548 30.9928 16.3871 30.8496 16.5303L16.0061 31.3739C15.8628 31.5171 15.6305 31.5171 15.4872 31.3739L0.6437 16.5303C0.500424 16.3871 0.500425 16.1548 0.6437 16.0115L15.4872 1.16799Z" fill="url(#paint1_radial_586_4475)"/>
</g>
<g filter="url(#filter1_i_586_4475)">
<path d="M15.487 2.96786C15.6303 2.82458 15.8626 2.82458 16.0059 2.96786L29.0494 16.0114C29.1927 16.1547 29.1927 16.3869 29.0494 16.5302L16.0059 29.5737C15.8626 29.717 15.6303 29.717 15.487 29.5737L2.4435 16.5302C2.30023 16.3869 2.30023 16.1547 2.4435 16.0114L15.487 2.96786Z" fill="#2F2A21"/>
<path d="M15.487 2.96786C15.6303 2.82458 15.8626 2.82458 16.0059 2.96786L29.0494 16.0114C29.1927 16.1547 29.1927 16.3869 29.0494 16.5302L16.0059 29.5737C15.8626 29.717 15.6303 29.717 15.487 29.5737L2.4435 16.5302C2.30023 16.3869 2.30023 16.1547 2.4435 16.0114L15.487 2.96786Z" fill="black" fill-opacity="0.5"/>
</g>
<g filter="url(#filter2_d_586_4475)">
<path d="M21.3138 10.898C21.3013 10.8875 21.2827 10.8858 21.268 10.8789C20.2598 10.4114 19.1693 10.0718 18.0337 9.87497C18.0236 9.87465 18.0137 9.87654 18.0044 9.88049C17.9861 9.88834 17.9755 9.90666 17.966 9.92419C17.8763 10.09 17.7783 10.2855 17.6923 10.4695C17.6214 10.6212 17.4604 10.7111 17.2942 10.69C16.267 10.5593 15.2273 10.5592 14.2001 10.6896C14.0325 10.7109 13.8705 10.6191 13.7987 10.4662C13.7076 10.2722 13.6019 10.0691 13.5033 9.89785C13.4993 9.88985 13.4911 9.88394 13.4809 9.88014C13.4612 9.8728 13.4395 9.87677 13.4188 9.8804C12.2927 10.0784 11.2185 10.4168 10.2109 10.8812C10.1992 10.8866 10.1869 10.8892 10.1774 10.8978C10.1731 10.9016 10.1687 10.9071 10.1655 10.9119C8.09494 14.0135 7.52404 17.0313 7.80601 20.0187C7.80601 20.024 7.80692 20.0292 7.80873 20.0342C7.81585 20.0536 7.83738 20.0631 7.85409 20.0753C9.21788 21.0711 10.5292 21.6762 11.8254 22.078C11.8356 22.0814 11.8459 22.0818 11.8548 22.0797C11.8745 22.0752 11.8848 22.0545 11.8966 22.0382C12.1945 21.626 12.463 21.1918 12.6948 20.7357C12.7101 20.7052 12.6948 20.6746 12.6643 20.667C12.2296 20.4992 11.8178 20.3009 11.4135 20.0721C11.392 20.0614 11.3857 20.0354 11.3918 20.013C11.397 19.9945 11.4137 19.9826 11.4291 19.9712C11.4975 19.9204 11.566 19.8654 11.6344 19.8146C11.6498 19.8032 11.664 19.7877 11.6831 19.7853C11.693 19.784 11.703 19.786 11.711 19.7899C14.3346 20.9873 17.1642 20.9873 19.7573 19.7899C19.7726 19.7823 19.7955 19.7823 19.8107 19.7976C19.8946 19.8662 19.9785 19.9272 20.0624 19.9959C20.0849 20.0127 20.0908 20.0419 20.0772 20.0622C20.0665 20.0782 20.0465 20.0847 20.03 20.0945C19.6407 20.3241 19.2297 20.5104 18.804 20.6746C18.7848 20.6795 18.7746 20.6964 18.7717 20.714C18.7684 20.7334 18.7781 20.7521 18.7873 20.7695C19.0167 21.204 19.2727 21.6184 19.549 22.0128C19.5752 22.0503 19.6148 22.0925 19.6582 22.078C20.962 21.6762 22.2733 21.0711 23.6371 20.0753C23.6538 20.0631 23.6754 20.0536 23.6825 20.0342C23.6843 20.0292 23.6852 20.024 23.6852 20.0187C24.0204 16.5675 23.1304 13.573 21.3268 10.9134C21.3229 10.9075 21.3192 10.9025 21.3138 10.898ZM13.0914 18.1959C12.3059 18.1959 11.65 17.4714 11.65 16.579C11.65 15.6867 12.2906 14.9621 13.0914 14.9621C13.8999 14.9621 14.5406 15.6943 14.5329 16.579C14.5329 17.4714 13.8923 18.1959 13.0914 18.1959ZM18.4074 18.1959C17.6218 18.1959 16.9659 17.4714 16.9659 16.579C16.9659 15.6867 17.6066 14.9621 18.4074 14.9621C19.2158 14.9621 19.8565 15.6943 19.8489 16.579C19.8489 17.4714 19.2158 18.1959 18.4074 18.1959Z" fill="url(#paint2_linear_586_4475)"/>
<path d="M21.3138 10.898C21.3013 10.8875 21.2827 10.8858 21.268 10.8789C20.2598 10.4114 19.1693 10.0718 18.0337 9.87497C18.0236 9.87465 18.0137 9.87654 18.0044 9.88049C17.9861 9.88834 17.9755 9.90666 17.966 9.92419C17.8763 10.09 17.7783 10.2855 17.6923 10.4695C17.6214 10.6212 17.4604 10.7111 17.2942 10.69C16.267 10.5593 15.2273 10.5592 14.2001 10.6896C14.0325 10.7109 13.8705 10.6191 13.7987 10.4662C13.7076 10.2722 13.6019 10.0691 13.5033 9.89785C13.4993 9.88985 13.4911 9.88394 13.4809 9.88014C13.4612 9.8728 13.4395 9.87677 13.4188 9.8804C12.2927 10.0784 11.2185 10.4168 10.2109 10.8812C10.1992 10.8866 10.1869 10.8892 10.1774 10.8978C10.1731 10.9016 10.1687 10.9071 10.1655 10.9119C8.09494 14.0135 7.52404 17.0313 7.80601 20.0187C7.80601 20.024 7.80692 20.0292 7.80873 20.0342C7.81585 20.0536 7.83738 20.0631 7.85409 20.0753C9.21788 21.0711 10.5292 21.6762 11.8254 22.078C11.8356 22.0814 11.8459 22.0818 11.8548 22.0797C11.8745 22.0752 11.8848 22.0545 11.8966 22.0382C12.1945 21.626 12.463 21.1918 12.6948 20.7357C12.7101 20.7052 12.6948 20.6746 12.6643 20.667C12.2296 20.4992 11.8178 20.3009 11.4135 20.0721C11.392 20.0614 11.3857 20.0354 11.3918 20.013C11.397 19.9945 11.4137 19.9826 11.4291 19.9712C11.4975 19.9204 11.566 19.8654 11.6344 19.8146C11.6498 19.8032 11.664 19.7877 11.6831 19.7853C11.693 19.784 11.703 19.786 11.711 19.7899C14.3346 20.9873 17.1642 20.9873 19.7573 19.7899C19.7726 19.7823 19.7955 19.7823 19.8107 19.7976C19.8946 19.8662 19.9785 19.9272 20.0624 19.9959C20.0849 20.0127 20.0908 20.0419 20.0772 20.0622C20.0665 20.0782 20.0465 20.0847 20.03 20.0945C19.6407 20.3241 19.2297 20.5104 18.804 20.6746C18.7848 20.6795 18.7746 20.6964 18.7717 20.714C18.7684 20.7334 18.7781 20.7521 18.7873 20.7695C19.0167 21.204 19.2727 21.6184 19.549 22.0128C19.5752 22.0503 19.6148 22.0925 19.6582 22.078C20.962 21.6762 22.2733 21.0711 23.6371 20.0753C23.6538 20.0631 23.6754 20.0536 23.6825 20.0342C23.6843 20.0292 23.6852 20.024 23.6852 20.0187C24.0204 16.5675 23.1304 13.573 21.3268 10.9134C21.3229 10.9075 21.3192 10.9025 21.3138 10.898ZM13.0914 18.1959C12.3059 18.1959 11.65 17.4714 11.65 16.579C11.65 15.6867 12.2906 14.9621 13.0914 14.9621C13.8999 14.9621 14.5406 15.6943 14.5329 16.579C14.5329 17.4714 13.8923 18.1959 13.0914 18.1959ZM18.4074 18.1959C17.6218 18.1959 16.9659 17.4714 16.9659 16.579C16.9659 15.6867 17.6066 14.9621 18.4074 14.9621C19.2158 14.9621 19.8565 15.6943 19.8489 16.579C19.8489 17.4714 19.2158 18.1959 18.4074 18.1959Z" fill="url(#paint3_radial_586_4475)"/>
</g>
<path style="mix-blend-mode:screen" d="M12.7382 13.6577C17.5484 8.84748 20.5853 4.08546 19.5212 3.0214C18.4572 1.95735 13.6951 4.9942 8.88493 9.8044C4.07473 14.6146 1.03788 19.3766 2.10193 20.4407C3.16599 21.5047 7.92801 18.4679 12.7382 13.6577Z" fill="url(#paint4_radial_586_4475)"/>
<defs>
<filter id="filter0_d_586_4475" x="0.0361328" y="0.760547" width="31.4209" height="31.4208" filterUnits="userSpaceOnUse" color-interpolation-filters="sRGB">
<feFlood flood-opacity="0" result="BackgroundImageFix"/>
<feColorMatrix in="SourceAlpha" type="matrix" values="0 0 0 0 0 0 0 0 0 0 0 0 0 0 0 0 0 0 127 0" result="hardAlpha"/>
<feOffset dy="0.2"/>
<feGaussianBlur stdDeviation="0.25"/>
<feComposite in2="hardAlpha" operator="out"/>
<feColorMatrix type="matrix" values="0 0 0 0 0 0 0 0 0 0 0 0 0 0 0 0 0 0 0.8 0"/>
<feBlend mode="normal" in2="BackgroundImageFix" result="effect1_dropShadow_586_4475"/>
<feBlend mode="normal" in="SourceGraphic" in2="effect1_dropShadow_586_4475" result="shape"/>
</filter>
<filter id="filter1_i_586_4475" x="2.33594" y="2.86041" width="26.8208" height="27.5546" filterUnits="userSpaceOnUse" color-interpolation-filters="sRGB">
<feFlood flood-opacity="0" result="BackgroundImageFix"/>
<feBlend mode="normal" in="SourceGraphic" in2="BackgroundImageFix" result="shape"/>
<feColorMatrix in="SourceAlpha" type="matrix" values="0 0 0 0 0 0 0 0 0 0 0 0 0 0 0 0 0 0 127 0" result="hardAlpha"/>
<feOffset dy="0.733759"/>
<feGaussianBlur stdDeviation="0.678727"/>
<feComposite in2="hardAlpha" operator="arithmetic" k2="-1" k3="1"/>
<feColorMatrix type="matrix" values="0 0 0 0 0 0 0 0 0 0 0 0 0 0 0 0 0 0 0.8 0"/>
<feBlend mode="normal" in2="shape" result="effect1_innerShadow_586_4475"/>
</filter>
<filter id="filter2_d_586_4475" x="7.23877" y="9.57494" width="17.0161" height="13.2061" filterUnits="userSpaceOnUse" color-interpolation-filters="sRGB">
<feFlood flood-opacity="0" result="BackgroundImageFix"/>
<feColorMatrix in="SourceAlpha" type="matrix" values="0 0 0 0 0 0 0 0 0 0 0 0 0 0 0 0 0 0 127 0" result="hardAlpha"/>
<feOffset dy="0.2"/>
<feGaussianBlur stdDeviation="0.25"/>
<feComposite in2="hardAlpha" operator="out"/>
<feColorMatrix type="matrix" values="0 0 0 0 0 0 0 0 0 0 0 0 0 0 0 0 0 0 0.8 0"/>
<feBlend mode="normal" in2="BackgroundImageFix" result="effect1_dropShadow_586_4475"/>
<feBlend mode="normal" in="SourceGraphic" in2="effect1_dropShadow_586_4475" result="shape"/>
</filter>
<linearGradient id="paint0_linear_586_4475" x1="15.7466" y1="0.908569" x2="15.7466" y2="31.6333" gradientUnits="userSpaceOnUse">
<stop stop-color="#FFFFF6"/>
<stop offset="0.489524" stop-color="#E6D375"/>
<stop offset="0.507857" stop-color="#261600"/>
<stop offset="1" stop-color="#5B4905"/>
</linearGradient>
<radialGradient id="paint1_radial_586_4475" cx="0" cy="0" r="1" gradientUnits="userSpaceOnUse" gradientTransform="translate(27.736 8.86811) rotate(143.869) scale(26.2017)">
<stop stop-color="#916619"/>
<stop offset="1" stop-color="#FFC55D" stop-opacity="0"/>
</radialGradient>
<linearGradient id="paint2_linear_586_4475" x1="15.7468" y1="9.87494" x2="15.7468" y2="22.0812" gradientUnits="userSpaceOnUse">
<stop stop-color="#FFFFF6"/>
<stop offset="0.489524" stop-color="#E6D375"/>
<stop offset="0.507857" stop-color="#261600"/>
<stop offset="1" stop-color="#5B4905"/>
</linearGradient>
<radialGradient id="paint3_radial_586_4475" cx="0" cy="0" r="1" gradientUnits="userSpaceOnUse" gradientTransform="translate(21.9965 13.0371) rotate(150.909) scale(12.6239 11.2622)">
<stop stop-color="#916619"/>
<stop offset="1" stop-color="#FFC55D" stop-opacity="0"/>
</radialGradient>
<radialGradient id="paint4_radial_586_4475" cx="0" cy="0" r="1" gradientUnits="userSpaceOnUse" gradientTransform="translate(10.8122 11.73) rotate(-43.0477) scale(12.1807 2.75524)">
<stop stop-color="white"/>
<stop offset="0.03" stop-color="#CFDAE5"/>
<stop offset="0.11" stop-color="#6185A9"/>
<stop offset="0.16" stop-color="#1B4F83"/>
<stop offset="0.18" stop-color="#003B75"/>
<stop offset="0.21" stop-color="#00356A"/>
<stop offset="0.3" stop-color="#002549"/>
<stop offset="0.4" stop-color="#00172E"/>
<stop offset="0.51" stop-color="#000D19"/>
<stop offset="0.63" stop-color="#00050B"/>
<stop offset="0.77" stop-color="#000102"/>
<stop offset="1"/>
</radialGradient>
</defs>
</svg>
