<svg width="764" height="151" viewBox="0 0 764 151" fill="none" xmlns="http://www.w3.org/2000/svg">
<rect width="6.15567" height="741.577" rx="0.366879" transform="matrix(-4.37114e-08 1 1 4.37114e-08 11.2554 99.8099)" fill="url(#paint0_linear_875_1296)"/>
<rect width="6.15567" height="741.577" rx="0.366879" transform="matrix(-4.37114e-08 1 1 4.37114e-08 11.2554 99.8099)" fill="url(#paint1_radial_875_1296)"/>
<path d="M17.5954 4.73987H171.357" stroke="url(#paint2_linear_875_1296)" stroke-width="0.730716"/>
<path d="M171.357 1.51147H44.525C44.525 19.8013 29.6982 34.6282 11.4083 34.6282" stroke="url(#paint3_linear_875_1296)" stroke-width="0.730716"/>
<path d="M745.209 4.73987H592.884" stroke="url(#paint4_linear_875_1296)" stroke-width="0.730716"/>
<path d="M592.884 1.51147H719.716C719.716 19.8013 734.543 34.6282 752.832 34.6282" stroke="url(#paint5_linear_875_1296)" stroke-width="0.730716"/>
<path d="M16.0879 9.37783L16.0879 70.609" stroke="url(#paint6_linear_875_1296)" stroke-width="0.730716"/>
<path d="M11.4082 70.7584L11.4082 20.6544C20.2205 20.6544 27.3643 13.5106 27.3643 4.69832" stroke="url(#paint7_linear_875_1296)" stroke-width="0.730716"/>
<path d="M16.0879 101.374L16.0879 69.6273" stroke="url(#paint8_linear_875_1296)" stroke-width="0.730716"/>
<path d="M11.4082 70.2695L11.4082 90.0971C20.2205 90.0971 27.3643 97.2409 27.3643 106.053" stroke="url(#paint9_linear_875_1296)" stroke-width="0.730716"/>
<path d="M747.793 9.37783L747.793 70.609" stroke="url(#paint10_linear_875_1296)" stroke-width="0.730716"/>
<path d="M752.473 70.7584L752.473 20.6544C743.66 20.6544 736.517 13.5106 736.517 4.69832" stroke="url(#paint11_linear_875_1296)" stroke-width="0.730716"/>
<path d="M747.793 101.374L747.793 69.6273" stroke="url(#paint12_linear_875_1296)" stroke-width="0.730716"/>
<path d="M752.473 70.2695L752.473 90.0971C743.66 90.0971 736.517 97.2409 736.517 106.053" stroke="url(#paint13_linear_875_1296)" stroke-width="0.730716"/>
<path d="M171.357 4.72266H595.589" stroke="#E2CF7A" stroke-width="0.730716"/>
<path d="M171.357 1.51147H595.589" stroke="#DECB78" stroke-width="0.730716"/>
<g filter="url(#filter0_d_875_1296)">
<path d="M383 8.52183C383.143 8.6651 383.375 8.6651 383.519 8.52183L387.058 4.98214C387.202 4.83886 387.202 4.60657 387.058 4.46329L383.519 0.923607C383.375 0.780332 383.143 0.780332 383 0.923607L379.46 4.46329C379.317 4.60657 379.317 4.83886 379.46 4.98214L383 8.52183Z" fill="url(#paint14_linear_875_1296)"/>
<path d="M383 8.52183C383.143 8.6651 383.375 8.6651 383.519 8.52183L387.058 4.98214C387.202 4.83886 387.202 4.60657 387.058 4.46329L383.519 0.923607C383.375 0.780332 383.143 0.780332 383 0.923607L379.46 4.46329C379.317 4.60657 379.317 4.83886 379.46 4.98214L383 8.52183Z" fill="url(#paint15_radial_875_1296)"/>
</g>
<g filter="url(#filter1_i_875_1296)">
<path d="M383 7.41819C383.143 7.56146 383.376 7.56146 383.519 7.41819L385.955 4.98219C386.098 4.83892 386.098 4.60662 385.955 4.46335L383.519 2.02735C383.376 1.88407 383.143 1.88407 383 2.02735L380.564 4.46335C380.421 4.60662 380.421 4.83892 380.564 4.98219L383 7.41819Z" fill="url(#paint16_linear_875_1296)"/>
<path d="M383 7.41819C383.143 7.56146 383.376 7.56146 383.519 7.41819L385.955 4.98219C386.098 4.83892 386.098 4.60662 385.955 4.46335L383.519 2.02735C383.376 1.88407 383.143 1.88407 383 2.02735L380.564 4.46335C380.421 4.60662 380.421 4.83892 380.564 4.98219L383 7.41819Z" fill="url(#paint17_radial_875_1296)"/>
<path d="M383 7.41819C383.143 7.56146 383.376 7.56146 383.519 7.41819L385.955 4.98219C386.098 4.83892 386.098 4.60662 385.955 4.46335L383.519 2.02735C383.376 1.88407 383.143 1.88407 383 2.02735L380.564 4.46335C380.421 4.60662 380.421 4.83892 380.564 4.98219L383 7.41819Z" fill="black" fill-opacity="0.5"/>
</g>
<path d="M382.999 6.65293C383.143 6.79621 383.375 6.79621 383.518 6.65293L385.189 4.98221C385.332 4.83894 385.332 4.60664 385.189 4.46337L383.518 2.79265C383.375 2.64938 383.143 2.64938 382.999 2.79265L381.329 4.46337C381.185 4.60664 381.185 4.83894 381.329 4.98221L382.999 6.65293Z" fill="url(#paint18_linear_875_1296)"/>
<path d="M382.999 6.65293C383.143 6.79621 383.375 6.79621 383.518 6.65293L385.189 4.98221C385.332 4.83894 385.332 4.60664 385.189 4.46337L383.518 2.79265C383.375 2.64938 383.143 2.64938 382.999 2.79265L381.329 4.46337C381.185 4.60664 381.185 4.83894 381.329 4.98221L382.999 6.65293Z" fill="url(#paint19_linear_875_1296)" fill-opacity="0.5"/>
<path d="M382.999 6.65293C383.143 6.79621 383.375 6.79621 383.518 6.65293L385.189 4.98221C385.332 4.83894 385.332 4.60664 385.189 4.46337L383.518 2.79265C383.375 2.64938 383.143 2.64938 382.999 2.79265L381.329 4.46337C381.185 4.60664 381.185 4.83894 381.329 4.98221L382.999 6.65293Z" fill="url(#paint20_radial_875_1296)"/>
<path d="M380.432 13.5002L379.964 12.9349L314.761 13.2868L380.432 13.5002Z" fill="#F6DE9C"/>
<path d="M386.086 13.5002L386.554 12.9349L451.757 13.2868L386.086 13.5002Z" fill="#F6DE9C"/>
<path d="M376.742 12.4398C377.055 12.2035 377.865 11.7063 378.596 11.6082C379.509 11.4855 380.368 11.8399 381.104 12.7261C381.693 13.4351 382.786 14.9666 383.259 15.6437V14.8647C383.052 14.533 382.738 14.0457 382.517 13.7611C382.242 13.4064 381.648 12.7398 381.386 12.4508C381.652 12.5222 382.259 12.7278 382.564 12.9789C382.855 13.2189 383.138 13.5023 383.259 13.6299V13.1326C383.008 12.8623 382.693 12.5218 382.632 12.4508C382.552 12.3591 382.553 12.2534 382.564 12.2119L383.259 10.8957V9.90344C383.063 10.2966 382.612 11.1725 382.371 11.5312C382.068 11.9796 381.425 11.9385 380.645 11.6082C379.866 11.2778 379.024 10.9436 378.313 11.1248C377.744 11.2698 377.028 12.0619 376.742 12.4398Z" fill="#F6DE9C"/>
<path d="M389.775 12.4398C389.462 12.2035 388.652 11.7063 387.921 11.6082C387.008 11.4855 386.149 11.8399 385.413 12.7261C384.824 13.4351 383.731 14.9666 383.258 15.6437V14.8647C383.465 14.533 383.78 14.0457 384 13.7611C384.275 13.4064 384.869 12.7398 385.131 12.4508C384.865 12.5222 384.258 12.7278 383.953 12.9789C383.662 13.2189 383.379 13.5023 383.258 13.6299V13.1326C383.509 12.8623 383.824 12.5218 383.886 12.4508C383.965 12.3591 383.964 12.2534 383.953 12.2119L383.258 10.8957V9.90344C383.454 10.2966 383.905 11.1725 384.146 11.5312C384.449 11.9796 385.092 11.9385 385.872 11.6082C386.651 11.2778 387.493 10.9436 388.204 11.1248C388.773 11.2698 389.489 12.0619 389.775 12.4398Z" fill="#F6DE9C"/>
<path d="M472.426 130.51C472.559 130.05 472.683 129.638 472.798 129.269C473.286 129.232 473.744 129.137 474.27 128.946C474.421 129.006 474.895 129.233 475.578 129.656C476.431 130.184 478.342 130.934 480.538 131.587C482.295 132.109 485.715 132.589 487.206 132.764C486.627 133.254 485.215 134.323 484.197 134.676C482.924 135.118 480.538 134.676 478.749 134.235C477.374 133.896 474.082 131.696 472.426 130.51Z" fill="url(#paint21_linear_875_1296)"/>
<path d="M472.426 130.51C472.559 130.05 472.683 129.638 472.798 129.269C473.286 129.232 473.744 129.137 474.27 128.946C474.421 129.006 474.895 129.233 475.578 129.656C476.431 130.184 478.342 130.934 480.538 131.587C482.295 132.109 485.715 132.589 487.206 132.764C486.627 133.254 485.215 134.323 484.197 134.676C482.924 135.118 480.538 134.676 478.749 134.235C477.374 133.896 474.082 131.696 472.426 130.51Z" fill="#E9D680"/>
<path d="M471.276 133.504C471.601 132.851 471.881 132.198 472.107 131.545L472.227 131.587C473.344 132.26 475.913 133.82 477.255 134.676C478.597 135.532 481.454 135.893 482.714 135.966L481.89 136.762C480.364 136.895 477.21 137.12 476.8 136.961C476.382 136.798 472.681 134.479 471.276 133.504Z" fill="url(#paint22_linear_875_1296)"/>
<path d="M471.276 133.504C471.601 132.851 471.881 132.198 472.107 131.545L472.227 131.587C473.344 132.26 475.913 133.82 477.255 134.676C478.597 135.532 481.454 135.893 482.714 135.966L481.89 136.762C480.364 136.895 477.21 137.12 476.8 136.961C476.382 136.798 472.681 134.479 471.276 133.504Z" fill="#E9D680"/>
<path d="M470.06 135.634C470.411 135.086 470.734 134.538 471.025 133.99C471.122 134.057 471.229 134.131 471.347 134.212C471.902 134.592 472.692 135.135 473.73 135.966C475.179 137.126 476.684 138.439 477.255 138.951C476.601 139.235 475.061 139.707 474.128 139.321C472.962 138.837 471.919 138.183 470.496 136.222C470.348 136.017 470.202 135.821 470.06 135.634Z" fill="url(#paint23_linear_875_1296)"/>
<path d="M470.06 135.634C470.411 135.086 470.734 134.538 471.025 133.99C471.122 134.057 471.229 134.131 471.347 134.212C471.902 134.592 472.692 135.135 473.73 135.966C475.179 137.126 476.684 138.439 477.255 138.951C476.601 139.235 475.061 139.707 474.128 139.321C472.962 138.837 471.919 138.183 470.496 136.222C470.348 136.017 470.202 135.821 470.06 135.634Z" fill="#E9D680"/>
<path d="M467.692 138.889C468.331 138.097 468.929 137.305 469.475 136.513C469.621 136.659 469.774 136.81 469.93 136.963C470.458 137.484 471.023 138.04 471.456 138.553C472.223 139.463 472.775 140.562 472.956 140.998C472.2 141.112 470.54 141.271 469.947 140.998C469.417 140.754 468.508 139.925 467.692 138.889Z" fill="url(#paint24_linear_875_1296)"/>
<path d="M467.692 138.889C468.331 138.097 468.929 137.305 469.475 136.513C469.621 136.659 469.774 136.81 469.93 136.963C470.458 137.484 471.023 138.04 471.456 138.553C472.223 139.463 472.775 140.562 472.956 140.998C472.2 141.112 470.54 141.271 469.947 140.998C469.417 140.754 468.508 139.925 467.692 138.889Z" fill="#E9D680"/>
<path d="M465.515 141.436C465.56 141.386 465.605 141.337 465.649 141.287C466.027 140.864 466.396 140.441 466.756 140.018C467.355 140.579 468.064 141.177 468.47 141.506C468.095 141.668 467.15 141.945 466.366 141.75C466.066 141.675 465.783 141.575 465.515 141.436Z" fill="url(#paint25_linear_875_1296)"/>
<path d="M465.515 141.436C465.56 141.386 465.605 141.337 465.649 141.287C466.027 140.864 466.396 140.441 466.756 140.018C467.355 140.579 468.064 141.177 468.47 141.506C468.095 141.668 467.15 141.945 466.366 141.75C466.066 141.675 465.783 141.575 465.515 141.436Z" fill="#E9D680"/>
<path d="M462.838 143.78C463.293 143.444 463.738 143.094 464.161 142.731C464.717 143.233 465.372 143.72 465.76 143.986C465.197 144.129 463.914 144.257 462.838 143.78Z" fill="url(#paint26_linear_875_1296)"/>
<path d="M462.838 143.78C463.293 143.444 463.738 143.094 464.161 142.731C464.717 143.233 465.372 143.72 465.76 143.986C465.197 144.129 463.914 144.257 462.838 143.78Z" fill="#E9D680"/>
<path d="M482.224 126.616H495.02L495.689 127.379C493.846 127.623 489.398 128.016 486.344 127.634C484.547 127.409 483.166 126.999 482.224 126.616Z" fill="url(#paint27_linear_875_1296)"/>
<path d="M482.224 126.616H495.02L495.689 127.379C493.846 127.623 489.398 128.016 486.344 127.634C484.547 127.409 483.166 126.999 482.224 126.616Z" fill="#E9D680"/>
<path d="M473.571 127.073L473.857 127.887C473.684 127.901 473.476 127.914 473.246 127.921C473.374 127.56 473.483 127.281 473.571 127.073Z" fill="url(#paint28_linear_875_1296)"/>
<path d="M473.571 127.073L473.857 127.887C473.684 127.901 473.476 127.914 473.246 127.921C473.374 127.56 473.483 127.281 473.571 127.073Z" fill="#E9D680"/>
<path d="M475.862 127.634H482.288C483.083 127.766 485.27 128.103 487.656 128.389C490.042 128.676 492.309 128.509 493.144 128.389C493.078 128.563 492.714 129.128 491.792 130.001C490.869 130.875 489.639 131.287 489.139 131.383C488.883 131.56 488.332 131.971 488.173 132.207C487.974 132.501 484.666 131.69 481.89 130.934C479.114 130.179 476.783 129.503 476.323 128.946C475.954 128.501 475.862 127.886 475.862 127.634Z" fill="url(#paint29_linear_875_1296)"/>
<path d="M475.862 127.634H482.288C483.083 127.766 485.27 128.103 487.656 128.389C490.042 128.676 492.309 128.509 493.144 128.389C493.078 128.563 492.714 129.128 491.792 130.001C490.869 130.875 489.639 131.287 489.139 131.383C488.883 131.56 488.332 131.971 488.173 132.207C487.974 132.501 484.666 131.69 481.89 130.934C479.114 130.179 476.783 129.503 476.323 128.946C475.954 128.501 475.862 127.886 475.862 127.634Z" fill="#E9D680"/>
<path d="M460.624 149.044C459.782 148.18 459.93 147.016 460.11 146.542C460.828 146.703 462.414 147.23 463.012 148.049C463.61 148.868 463.819 149.83 463.85 150.209C463.125 150.181 461.465 149.908 460.624 149.044Z" fill="url(#paint30_linear_875_1296)"/>
<path d="M460.624 149.044C459.782 148.18 459.93 147.016 460.11 146.542C460.828 146.703 462.414 147.23 463.012 148.049C463.61 148.868 463.819 149.83 463.85 150.209C463.125 150.181 461.465 149.908 460.624 149.044Z" fill="#E9D680"/>
<path d="M463.694 146.371C463.789 146.599 464.217 147.253 465.172 148.049C466.128 148.845 468.338 148.93 469.323 148.873C468.948 148.371 467.996 147.167 467.183 146.371C466.371 145.575 464.519 146.04 463.694 146.371Z" fill="url(#paint31_linear_875_1296)"/>
<path d="M463.694 146.371C463.789 146.599 464.217 147.253 465.172 148.049C466.128 148.845 468.338 148.93 469.323 148.873C468.948 148.371 467.996 147.167 467.183 146.371C466.371 145.575 464.519 146.04 463.694 146.371Z" fill="#E9D680"/>
<path d="M468.47 146.201C467.788 145.268 467.617 143.822 467.617 143.216C468.577 143.33 470.631 143.757 471.171 144.552C471.711 145.346 472.306 147.081 472.536 147.85C471.465 147.689 469.153 147.133 468.47 146.201Z" fill="url(#paint32_linear_875_1296)"/>
<path d="M468.47 146.201C467.788 145.268 467.617 143.822 467.617 143.216C468.577 143.33 470.631 143.757 471.171 144.552C471.711 145.346 472.306 147.081 472.536 147.85C471.465 147.689 469.153 147.133 468.47 146.201Z" fill="#E9D680"/>
<path d="M471.967 142.022C471.716 142.372 471.479 143.335 472.536 144.381C473.593 145.427 476.786 145.822 478.25 145.888C477.748 145.244 476.567 143.761 475.862 142.988C475.157 142.215 472.972 142.022 471.967 142.022Z" fill="url(#paint33_linear_875_1296)"/>
<path d="M471.967 142.022C471.716 142.372 471.479 143.335 472.536 144.381C473.593 145.427 476.786 145.822 478.25 145.888C477.748 145.244 476.567 143.761 475.862 142.988C475.157 142.215 472.972 142.022 471.967 142.022Z" fill="#E9D680"/>
<path d="M478.25 143.216C477.181 142.397 477.028 141.055 477.085 140.486C478.355 140.354 481.095 140.338 481.89 141.339C482.685 142.34 483.759 143.614 484.197 144.125C482.66 144.163 479.319 144.034 478.25 143.216Z" fill="url(#paint34_linear_875_1296)"/>
<path d="M478.25 143.216C477.181 142.397 477.028 141.055 477.085 140.486C478.355 140.354 481.095 140.338 481.89 141.339C482.685 142.34 483.759 143.614 484.197 144.125C482.66 144.163 479.319 144.034 478.25 143.216Z" fill="#E9D680"/>
<path d="M480.896 138.951C481.18 139.16 482.322 139.69 484.619 140.145C487.49 140.714 489.964 140.458 492.551 139.889C494.621 139.434 498.46 138.169 499.29 137.586L497.441 136.961H483.823C483.52 136.989 482.833 137.154 482.515 137.586C482.197 138.019 481.303 138.676 480.896 138.951Z" fill="url(#paint35_linear_875_1296)"/>
<path d="M480.896 138.951C481.18 139.16 482.322 139.69 484.619 140.145C487.49 140.714 489.964 140.458 492.551 139.889C494.621 139.434 498.46 138.169 499.29 137.586L497.441 136.961H483.823C483.52 136.989 482.833 137.154 482.515 137.586C482.197 138.019 481.303 138.676 480.896 138.951Z" fill="#E9D680"/>
<path d="M491.357 132.207L486.861 135.369C488.435 135.653 492.119 136.171 494.257 135.966C494.507 135.942 494.768 135.917 495.037 135.892L495.044 135.891C497.653 135.644 501.048 135.323 502.928 134.885C504.588 134.499 508.307 132.764 508.984 132.207H491.357Z" fill="url(#paint36_linear_875_1296)"/>
<path d="M491.357 132.207L486.861 135.369C488.435 135.653 492.119 136.171 494.257 135.966C494.507 135.942 494.768 135.917 495.037 135.892L495.044 135.891C497.653 135.644 501.048 135.323 502.928 134.885C504.588 134.499 508.307 132.764 508.984 132.207H491.357Z" fill="#E9D680"/>
<path d="M493.717 130.934L497.242 127.634H515.039C515.039 128.389 512.888 129.29 511.013 129.656C510.313 129.792 509.333 130.017 508.269 130.261C506.261 130.722 503.954 131.251 502.672 131.383C501.103 131.546 496.048 131.152 493.717 130.934Z" fill="url(#paint37_linear_875_1296)"/>
<path d="M493.717 130.934L497.242 127.634H515.039C515.039 128.389 512.888 129.29 511.013 129.656C510.313 129.792 509.333 130.017 508.269 130.261C506.261 130.722 503.954 131.251 502.672 131.383C501.103 131.546 496.048 131.152 493.717 130.934Z" fill="#E9D680"/>
<path d="M294.237 130.51C294.104 130.05 293.98 129.638 293.865 129.269C293.377 129.232 292.918 129.137 292.392 128.946C292.241 129.006 291.768 129.233 291.085 129.656C290.231 130.184 288.321 130.934 286.125 131.587C284.368 132.109 280.947 132.589 279.457 132.764C280.036 133.254 281.448 134.323 282.466 134.676C283.739 135.118 286.125 134.676 287.914 134.235C289.288 133.896 292.58 131.696 294.237 130.51Z" fill="url(#paint38_linear_875_1296)"/>
<path d="M294.237 130.51C294.104 130.05 293.98 129.638 293.865 129.269C293.377 129.232 292.918 129.137 292.392 128.946C292.241 129.006 291.768 129.233 291.085 129.656C290.231 130.184 288.321 130.934 286.125 131.587C284.368 132.109 280.947 132.589 279.457 132.764C280.036 133.254 281.448 134.323 282.466 134.676C283.739 135.118 286.125 134.676 287.914 134.235C289.288 133.896 292.58 131.696 294.237 130.51Z" fill="#E9D680"/>
<path d="M295.387 133.504C295.061 132.851 294.782 132.198 294.555 131.545L294.436 131.587C293.319 132.26 290.749 133.82 289.407 134.676C288.065 135.532 285.209 135.893 283.949 135.966L284.772 136.762C286.298 136.895 289.453 137.12 289.862 136.961C290.28 136.798 293.982 134.479 295.387 133.504Z" fill="url(#paint39_linear_875_1296)"/>
<path d="M295.387 133.504C295.061 132.851 294.782 132.198 294.555 131.545L294.436 131.587C293.319 132.26 290.749 133.82 289.407 134.676C288.065 135.532 285.209 135.893 283.949 135.966L284.772 136.762C286.298 136.895 289.453 137.12 289.862 136.961C290.28 136.798 293.982 134.479 295.387 133.504Z" fill="#E9D680"/>
<path d="M296.602 135.634C296.252 135.086 295.929 134.538 295.637 133.99C295.541 134.057 295.433 134.131 295.315 134.212C294.761 134.592 293.971 135.135 292.933 135.966C291.484 137.126 289.979 138.439 289.407 138.951C290.061 139.235 291.602 139.707 292.535 139.321C293.7 138.837 294.744 138.183 296.166 136.222C296.315 136.017 296.461 135.821 296.602 135.634Z" fill="url(#paint40_linear_875_1296)"/>
<path d="M296.602 135.634C296.252 135.086 295.929 134.538 295.637 133.99C295.541 134.057 295.433 134.131 295.315 134.212C294.761 134.592 293.971 135.135 292.933 135.966C291.484 137.126 289.979 138.439 289.407 138.951C290.061 139.235 291.602 139.707 292.535 139.321C293.7 138.837 294.744 138.183 296.166 136.222C296.315 136.017 296.461 135.821 296.602 135.634Z" fill="#E9D680"/>
<path d="M298.97 138.889C298.332 138.097 297.733 137.305 297.187 136.513C297.042 136.659 296.889 136.81 296.733 136.963C296.205 137.484 295.639 138.04 295.207 138.553C294.44 139.463 293.887 140.562 293.707 140.998C294.463 141.112 296.123 141.271 296.715 140.998C297.246 140.754 298.154 139.925 298.97 138.889Z" fill="url(#paint41_linear_875_1296)"/>
<path d="M298.97 138.889C298.332 138.097 297.733 137.305 297.187 136.513C297.042 136.659 296.889 136.81 296.733 136.963C296.205 137.484 295.639 138.04 295.207 138.553C294.44 139.463 293.887 140.562 293.707 140.998C294.463 141.112 296.123 141.271 296.715 140.998C297.246 140.754 298.154 139.925 298.97 138.889Z" fill="#E9D680"/>
<path d="M301.148 141.436C301.103 141.386 301.058 141.337 301.013 141.287C300.636 140.864 300.266 140.441 299.906 140.018C299.308 140.579 298.599 141.177 298.192 141.506C298.567 141.668 299.513 141.945 300.296 141.75C300.597 141.675 300.879 141.575 301.148 141.436Z" fill="url(#paint42_linear_875_1296)"/>
<path d="M301.148 141.436C301.103 141.386 301.058 141.337 301.013 141.287C300.636 140.864 300.266 140.441 299.906 140.018C299.308 140.579 298.599 141.177 298.192 141.506C298.567 141.668 299.513 141.945 300.296 141.75C300.597 141.675 300.879 141.575 301.148 141.436Z" fill="#E9D680"/>
<path d="M303.825 143.78C303.37 143.444 302.925 143.094 302.501 142.731C301.946 143.233 301.29 143.72 300.902 143.986C301.465 144.129 302.748 144.257 303.825 143.78Z" fill="url(#paint43_linear_875_1296)"/>
<path d="M303.825 143.78C303.37 143.444 302.925 143.094 302.501 142.731C301.946 143.233 301.29 143.72 300.902 143.986C301.465 144.129 302.748 144.257 303.825 143.78Z" fill="#E9D680"/>
<path d="M284.439 126.616H271.642L270.974 127.379C272.816 127.623 277.265 128.016 280.319 127.634C282.116 127.409 283.496 126.999 284.439 126.616Z" fill="url(#paint44_linear_875_1296)"/>
<path d="M284.439 126.616H271.642L270.974 127.379C272.816 127.623 277.265 128.016 280.319 127.634C282.116 127.409 283.496 126.999 284.439 126.616Z" fill="#E9D680"/>
<path d="M293.092 127.073L292.805 127.887C292.978 127.901 293.187 127.914 293.417 127.921C293.288 127.56 293.18 127.281 293.092 127.073Z" fill="url(#paint45_linear_875_1296)"/>
<path d="M293.092 127.073L292.805 127.887C292.978 127.901 293.187 127.914 293.417 127.921C293.288 127.56 293.18 127.281 293.092 127.073Z" fill="#E9D680"/>
<path d="M290.8 127.634H284.375C283.58 127.766 281.392 128.103 279.006 128.389C276.62 128.676 274.354 128.509 273.519 128.389C273.585 128.563 273.948 129.128 274.871 130.001C275.793 130.875 277.024 131.287 277.523 131.383C277.779 131.56 278.33 131.971 278.489 132.207C278.688 132.501 281.997 131.69 284.772 130.934C287.548 130.179 289.879 129.503 290.34 128.946C290.708 128.501 290.8 127.886 290.8 127.634Z" fill="url(#paint46_linear_875_1296)"/>
<path d="M290.8 127.634H284.375C283.58 127.766 281.392 128.103 279.006 128.389C276.62 128.676 274.354 128.509 273.519 128.389C273.585 128.563 273.948 129.128 274.871 130.001C275.793 130.875 277.024 131.287 277.523 131.383C277.779 131.56 278.33 131.971 278.489 132.207C278.688 132.501 281.997 131.69 284.772 130.934C287.548 130.179 289.879 129.503 290.34 128.946C290.708 128.501 290.8 127.886 290.8 127.634Z" fill="#E9D680"/>
<path d="M306.039 149.044C306.881 148.18 306.732 147.016 306.553 146.542C305.835 146.703 304.249 147.23 303.651 148.049C303.053 148.868 302.843 149.83 302.813 150.209C303.538 150.181 305.198 149.908 306.039 149.044Z" fill="url(#paint47_linear_875_1296)"/>
<path d="M306.039 149.044C306.881 148.18 306.732 147.016 306.553 146.542C305.835 146.703 304.249 147.23 303.651 148.049C303.053 148.868 302.843 149.83 302.813 150.209C303.538 150.181 305.198 149.908 306.039 149.044Z" fill="#E9D680"/>
<path d="M302.969 146.371C302.874 146.599 302.445 147.253 301.49 148.049C300.535 148.845 298.325 148.93 297.339 148.873C297.714 148.371 298.667 147.167 299.479 146.371C300.292 145.575 302.144 146.04 302.969 146.371Z" fill="url(#paint48_linear_875_1296)"/>
<path d="M302.969 146.371C302.874 146.599 302.445 147.253 301.49 148.049C300.535 148.845 298.325 148.93 297.339 148.873C297.714 148.371 298.667 147.167 299.479 146.371C300.292 145.575 302.144 146.04 302.969 146.371Z" fill="#E9D680"/>
<path d="M298.192 146.201C298.875 145.268 299.045 143.822 299.045 143.216C298.086 143.33 296.031 143.757 295.491 144.552C294.951 145.346 294.357 147.081 294.127 147.85C295.198 147.689 297.51 147.133 298.192 146.201Z" fill="url(#paint49_linear_875_1296)"/>
<path d="M298.192 146.201C298.875 145.268 299.045 143.822 299.045 143.216C298.086 143.33 296.031 143.757 295.491 144.552C294.951 145.346 294.357 147.081 294.127 147.85C295.198 147.689 297.51 147.133 298.192 146.201Z" fill="#E9D680"/>
<path d="M294.695 142.022C294.946 142.372 295.184 143.335 294.127 144.381C293.07 145.427 289.877 145.822 288.412 145.888C288.914 145.244 290.095 143.761 290.8 142.988C291.505 142.215 293.691 142.022 294.695 142.022Z" fill="url(#paint50_linear_875_1296)"/>
<path d="M294.695 142.022C294.946 142.372 295.184 143.335 294.127 144.381C293.07 145.427 289.877 145.822 288.412 145.888C288.914 145.244 290.095 143.761 290.8 142.988C291.505 142.215 293.691 142.022 294.695 142.022Z" fill="#E9D680"/>
<path d="M288.412 143.216C289.481 142.397 289.635 141.055 289.578 140.486C288.307 140.354 285.568 140.338 284.772 141.339C283.977 142.34 282.903 143.614 282.466 144.125C284.003 144.163 287.343 144.034 288.412 143.216Z" fill="url(#paint51_linear_875_1296)"/>
<path d="M288.412 143.216C289.481 142.397 289.635 141.055 289.578 140.486C288.307 140.354 285.568 140.338 284.772 141.339C283.977 142.34 282.903 143.614 282.466 144.125C284.003 144.163 287.343 144.034 288.412 143.216Z" fill="#E9D680"/>
<path d="M285.767 138.951C285.483 139.16 284.341 139.69 282.044 140.145C279.172 140.714 276.699 140.458 274.112 139.889C272.042 139.434 268.202 138.169 267.373 137.586L269.222 136.961H282.84C283.143 136.989 283.829 137.154 284.148 137.586C284.466 138.019 285.36 138.676 285.767 138.951Z" fill="url(#paint52_linear_875_1296)"/>
<path d="M285.767 138.951C285.483 139.16 284.341 139.69 282.044 140.145C279.172 140.714 276.699 140.458 274.112 139.889C272.042 139.434 268.202 138.169 267.373 137.586L269.222 136.961H282.84C283.143 136.989 283.829 137.154 284.148 137.586C284.466 138.019 285.36 138.676 285.767 138.951Z" fill="#E9D680"/>
<path d="M275.306 132.207L279.802 135.369C278.227 135.653 274.544 136.171 272.406 135.966C272.156 135.942 271.895 135.917 271.626 135.892L271.619 135.891C269.009 135.644 265.614 135.323 263.735 134.885C262.074 134.499 258.355 132.764 257.679 132.207H275.306Z" fill="url(#paint53_linear_875_1296)"/>
<path d="M275.306 132.207L279.802 135.369C278.227 135.653 274.544 136.171 272.406 135.966C272.156 135.942 271.895 135.917 271.626 135.892L271.619 135.891C269.009 135.644 265.614 135.323 263.735 134.885C262.074 134.499 258.355 132.764 257.679 132.207H275.306Z" fill="#E9D680"/>
<path d="M272.946 130.934L269.421 127.634H251.623C251.623 128.389 253.774 129.29 255.65 129.656C256.35 129.792 257.33 130.017 258.394 130.261C260.402 130.722 262.708 131.251 263.99 131.383C265.56 131.546 270.615 131.152 272.946 130.934Z" fill="url(#paint54_linear_875_1296)"/>
<path d="M272.946 130.934L269.421 127.634H251.623C251.623 128.389 253.774 129.29 255.65 129.656C256.35 129.792 257.33 130.017 258.394 130.261C260.402 130.722 262.708 131.251 263.99 131.383C265.56 131.546 270.615 131.152 272.946 130.934Z" fill="#E9D680"/>
<path d="M6.03838 97.418L16.778 97.418C16.8333 97.418 16.878 97.4628 16.878 97.518L16.878 108.258C16.878 108.313 16.8333 108.358 16.778 108.358L6.03838 108.358C5.98315 108.358 5.93838 108.313 5.93838 108.258L5.93838 97.518C5.93838 97.4628 5.98315 97.418 6.03838 97.418Z" stroke="url(#paint55_linear_875_1296)" stroke-width="0.2"/>
<path d="M6.03838 97.418L16.778 97.418C16.8333 97.418 16.878 97.4628 16.878 97.518L16.878 108.258C16.878 108.313 16.8333 108.358 16.778 108.358L6.03838 108.358C5.98315 108.358 5.93838 108.313 5.93838 108.258L5.93838 97.518C5.93838 97.4628 5.98315 97.418 6.03838 97.418Z" stroke="url(#paint56_linear_875_1296)" stroke-opacity="0.5" stroke-width="0.2"/>
<path d="M6.03838 97.418L16.778 97.418C16.8333 97.418 16.878 97.4628 16.878 97.518L16.878 108.258C16.878 108.313 16.8333 108.358 16.778 108.358L6.03838 108.358C5.98315 108.358 5.93838 108.313 5.93838 108.258L5.93838 97.518C5.93838 97.4628 5.98315 97.418 6.03838 97.418Z" stroke="url(#paint57_radial_875_1296)" stroke-width="0.2"/>
<path d="M6.61925 98.0989L16.197 98.0989L16.197 107.677L6.61925 107.677L6.61925 98.0989Z" stroke="url(#paint58_linear_875_1296)" stroke-width="0.2"/>
<path d="M6.61925 98.0989L16.197 98.0989L16.197 107.677L6.61925 107.677L6.61925 98.0989Z" stroke="url(#paint59_linear_875_1296)" stroke-opacity="0.5" stroke-width="0.2"/>
<path d="M6.61925 98.0989L16.197 98.0989L16.197 107.677L6.61925 107.677L6.61925 98.0989Z" stroke="url(#paint60_radial_875_1296)" stroke-width="0.2"/>
<g filter="url(#filter2_d_875_1296)">
<path d="M11.1484 94.9569C11.2916 94.8137 11.5239 94.8137 11.6672 94.9569L19.3389 102.629C19.4821 102.772 19.4821 103.004 19.3389 103.147L11.6672 110.819C11.5239 110.962 11.2916 110.962 11.1484 110.819L3.47671 103.147C3.33343 103.004 3.33343 102.772 3.47671 102.629L11.1484 94.9569Z" fill="url(#paint61_linear_875_1296)"/>
<path d="M11.1484 94.9569C11.2916 94.8137 11.5239 94.8137 11.6672 94.9569L19.3389 102.629C19.4821 102.772 19.4821 103.004 19.3389 103.147L11.6672 110.819C11.5239 110.962 11.2916 110.962 11.1484 110.819L3.47671 103.147C3.33343 103.004 3.33343 102.772 3.47671 102.629L11.1484 94.9569Z" fill="url(#paint62_radial_875_1296)"/>
</g>
<g filter="url(#filter3_i_875_1296)">
<path d="M11.1488 99.246C11.2921 99.1027 11.5244 99.1027 11.6677 99.246L15.0503 102.629C15.1936 102.772 15.1936 103.004 15.0503 103.147L11.6677 106.53C11.5244 106.673 11.2921 106.673 11.1488 106.53L7.76626 103.147C7.62298 103.004 7.62298 102.772 7.76626 102.629L11.1488 99.246Z" fill="url(#paint63_linear_875_1296)"/>
<path d="M11.1488 99.246C11.2921 99.1027 11.5244 99.1027 11.6677 99.246L15.0503 102.629C15.1936 102.772 15.1936 103.004 15.0503 103.147L11.6677 106.53C11.5244 106.673 11.2921 106.673 11.1488 106.53L7.76626 103.147C7.62298 103.004 7.62298 102.772 7.76626 102.629L11.1488 99.246Z" fill="url(#paint64_radial_875_1296)"/>
<path d="M11.1488 99.246C11.2921 99.1027 11.5244 99.1027 11.6677 99.246L15.0503 102.629C15.1936 102.772 15.1936 103.004 15.0503 103.147L11.6677 106.53C11.5244 106.673 11.2921 106.673 11.1488 106.53L7.76626 103.147C7.62298 103.004 7.62298 102.772 7.76626 102.629L11.1488 99.246Z" fill="black" fill-opacity="0.5"/>
</g>
<path d="M747.463 97.418L758.202 97.418C758.258 97.418 758.302 97.4628 758.302 97.518L758.302 108.258C758.302 108.313 758.258 108.358 758.202 108.358L747.463 108.358C747.407 108.358 747.363 108.313 747.363 108.258L747.363 97.518C747.363 97.4628 747.407 97.418 747.463 97.418Z" stroke="url(#paint65_linear_875_1296)" stroke-width="0.2"/>
<path d="M747.463 97.418L758.202 97.418C758.258 97.418 758.302 97.4628 758.302 97.518L758.302 108.258C758.302 108.313 758.258 108.358 758.202 108.358L747.463 108.358C747.407 108.358 747.363 108.313 747.363 108.258L747.363 97.518C747.363 97.4628 747.407 97.418 747.463 97.418Z" stroke="url(#paint66_linear_875_1296)" stroke-opacity="0.5" stroke-width="0.2"/>
<path d="M747.463 97.418L758.202 97.418C758.258 97.418 758.302 97.4628 758.302 97.518L758.302 108.258C758.302 108.313 758.258 108.358 758.202 108.358L747.463 108.358C747.407 108.358 747.363 108.313 747.363 108.258L747.363 97.518C747.363 97.4628 747.407 97.418 747.463 97.418Z" stroke="url(#paint67_radial_875_1296)" stroke-width="0.2"/>
<path d="M748.044 98.0989L757.621 98.0989L757.621 107.677L748.044 107.677L748.044 98.0989Z" stroke="url(#paint68_linear_875_1296)" stroke-width="0.2"/>
<path d="M748.044 98.0989L757.621 98.0989L757.621 107.677L748.044 107.677L748.044 98.0989Z" stroke="url(#paint69_linear_875_1296)" stroke-opacity="0.5" stroke-width="0.2"/>
<path d="M748.044 98.0989L757.621 98.0989L757.621 107.677L748.044 107.677L748.044 98.0989Z" stroke="url(#paint70_radial_875_1296)" stroke-width="0.2"/>
<g filter="url(#filter4_d_875_1296)">
<path d="M752.573 94.9569C752.716 94.8137 752.948 94.8137 753.092 94.9569L760.763 102.629C760.906 102.772 760.906 103.004 760.763 103.147L753.092 110.819C752.948 110.962 752.716 110.962 752.573 110.819L744.901 103.147C744.758 103.004 744.758 102.772 744.901 102.629L752.573 94.9569Z" fill="url(#paint71_linear_875_1296)"/>
<path d="M752.573 94.9569C752.716 94.8137 752.948 94.8137 753.092 94.9569L760.763 102.629C760.906 102.772 760.906 103.004 760.763 103.147L753.092 110.819C752.948 110.962 752.716 110.962 752.573 110.819L744.901 103.147C744.758 103.004 744.758 102.772 744.901 102.629L752.573 94.9569Z" fill="url(#paint72_radial_875_1296)"/>
</g>
<g filter="url(#filter5_i_875_1296)">
<path d="M752.573 99.246C752.716 99.1027 752.949 99.1027 753.092 99.246L756.475 102.629C756.618 102.772 756.618 103.004 756.475 103.147L753.092 106.53C752.949 106.673 752.716 106.673 752.573 106.53L749.191 103.147C749.047 103.004 749.047 102.772 749.191 102.629L752.573 99.246Z" fill="url(#paint73_linear_875_1296)"/>
<path d="M752.573 99.246C752.716 99.1027 752.949 99.1027 753.092 99.246L756.475 102.629C756.618 102.772 756.618 103.004 756.475 103.147L753.092 106.53C752.949 106.673 752.716 106.673 752.573 106.53L749.191 103.147C749.047 103.004 749.047 102.772 749.191 102.629L752.573 99.246Z" fill="url(#paint74_radial_875_1296)"/>
<path d="M752.573 99.246C752.716 99.1027 752.949 99.1027 753.092 99.246L756.475 102.629C756.618 102.772 756.618 103.004 756.475 103.147L753.092 106.53C752.949 106.673 752.716 106.673 752.573 106.53L749.191 103.147C749.047 103.004 749.047 102.772 749.191 102.629L752.573 99.246Z" fill="black" fill-opacity="0.5"/>
</g>
<path d="M29.3784 119.422L284.359 119.422" stroke="url(#paint75_linear_875_1296)" stroke-width="0.730716"/>
<path d="M323.472 123.249H68.9049C68.9049 92.1793 43.7179 66.9923 12.6482 66.9923" stroke="url(#paint76_linear_875_1296)" stroke-width="0.730716"/>
<path d="M737.568 119.422L482.587 119.422" stroke="url(#paint77_linear_875_1296)" stroke-width="0.730716"/>
<path d="M443.475 123.249H698.042C698.042 92.1793 723.229 66.9923 754.299 66.9923" stroke="url(#paint78_linear_875_1296)" stroke-width="0.730716"/>
<path d="M636.289 119.423H474.664C474.664 136.426 460.88 150.21 443.877 150.21" stroke="url(#paint79_linear_875_1296)" stroke-width="0.730716"/>
<path d="M732.614 113.953L743.353 113.953C743.408 113.953 743.453 113.998 743.453 114.053L743.453 124.792C743.453 124.848 743.408 124.892 743.353 124.892L732.614 124.892C732.558 124.892 732.514 124.848 732.514 124.792L732.514 114.053C732.514 113.998 732.558 113.953 732.614 113.953Z" stroke="url(#paint80_linear_875_1296)" stroke-width="0.2"/>
<path d="M732.614 113.953L743.353 113.953C743.408 113.953 743.453 113.998 743.453 114.053L743.453 124.792C743.453 124.848 743.408 124.892 743.353 124.892L732.614 124.892C732.558 124.892 732.514 124.848 732.514 124.792L732.514 114.053C732.514 113.998 732.558 113.953 732.614 113.953Z" stroke="url(#paint81_linear_875_1296)" stroke-opacity="0.5" stroke-width="0.2"/>
<path d="M732.614 113.953L743.353 113.953C743.408 113.953 743.453 113.998 743.453 114.053L743.453 124.792C743.453 124.848 743.408 124.892 743.353 124.892L732.614 124.892C732.558 124.892 732.514 124.848 732.514 124.792L732.514 114.053C732.514 113.998 732.558 113.953 732.614 113.953Z" stroke="url(#paint82_radial_875_1296)" stroke-width="0.2"/>
<path d="M733.194 114.634L742.772 114.634L742.772 124.211L733.194 124.211L733.194 114.634Z" stroke="url(#paint83_linear_875_1296)" stroke-width="0.2"/>
<path d="M733.194 114.634L742.772 114.634L742.772 124.211L733.194 124.211L733.194 114.634Z" stroke="url(#paint84_linear_875_1296)" stroke-opacity="0.5" stroke-width="0.2"/>
<path d="M733.194 114.634L742.772 114.634L742.772 124.211L733.194 124.211L733.194 114.634Z" stroke="url(#paint85_radial_875_1296)" stroke-width="0.2"/>
<g filter="url(#filter6_d_875_1296)">
<path d="M737.724 111.492C737.867 111.348 738.099 111.348 738.242 111.492L745.914 119.163C746.057 119.307 746.057 119.539 745.914 119.682L738.242 127.354C738.099 127.497 737.867 127.497 737.724 127.354L730.052 119.682C729.909 119.539 729.909 119.307 730.052 119.163L737.724 111.492Z" fill="url(#paint86_linear_875_1296)"/>
<path d="M737.724 111.492C737.867 111.348 738.099 111.348 738.242 111.492L745.914 119.163C746.057 119.307 746.057 119.539 745.914 119.682L738.242 127.354C738.099 127.497 737.867 127.497 737.724 127.354L730.052 119.682C729.909 119.539 729.909 119.307 730.052 119.163L737.724 111.492Z" fill="url(#paint87_radial_875_1296)"/>
</g>
<g filter="url(#filter7_i_875_1296)">
<path d="M737.724 115.781C737.867 115.638 738.1 115.638 738.243 115.781L741.625 119.163C741.769 119.307 741.769 119.539 741.625 119.682L738.243 123.065C738.1 123.208 737.867 123.208 737.724 123.065L734.341 119.682C734.198 119.539 734.198 119.307 734.341 119.163L737.724 115.781Z" fill="url(#paint88_linear_875_1296)"/>
<path d="M737.724 115.781C737.867 115.638 738.1 115.638 738.243 115.781L741.625 119.163C741.769 119.307 741.769 119.539 741.625 119.682L738.243 123.065C738.1 123.208 737.867 123.208 737.724 123.065L734.341 119.682C734.198 119.539 734.198 119.307 734.341 119.163L737.724 115.781Z" fill="url(#paint89_radial_875_1296)"/>
<path d="M737.724 115.781C737.867 115.638 738.1 115.638 738.243 115.781L741.625 119.163C741.769 119.307 741.769 119.539 741.625 119.682L738.243 123.065C738.1 123.208 737.867 123.208 737.724 123.065L734.341 119.682C734.198 119.539 734.198 119.307 734.341 119.163L737.724 115.781Z" fill="black" fill-opacity="0.5"/>
</g>
<path d="M130.658 119.423H292.282C292.282 136.426 306.066 150.21 323.07 150.21" stroke="url(#paint90_linear_875_1296)" stroke-width="0.730716"/>
<path d="M247.605 123.133H329.511C329.511 130.728 335.668 136.885 343.263 136.885" stroke="url(#paint91_linear_875_1296)" stroke-width="0.730716"/>
<path d="M522.729 126.633H403.148C403.148 137.721 394.16 146.71 383.071 146.71" stroke="url(#paint92_linear_875_1296)" stroke-width="0.730716"/>
<path d="M520.958 126.633H563.594C563.594 122.68 566.799 119.475 570.752 119.475" stroke="#E9D680" stroke-width="0.730716"/>
<path d="M243.414 126.633H200.778C200.778 122.68 197.573 119.475 193.619 119.475" stroke="#E9D680" stroke-width="0.730716"/>
<path d="M243.414 126.633H362.994C362.994 137.721 371.983 146.71 383.071 146.71" stroke="url(#paint93_linear_875_1296)" stroke-width="0.730716"/>
<path d="M519.34 123.133H437.435C437.435 130.728 431.278 136.885 423.683 136.885" stroke="url(#paint94_linear_875_1296)" stroke-width="0.730716"/>
<path d="M32.8664 113.953L22.1268 113.953C22.0715 113.953 22.0268 113.998 22.0268 114.053L22.0268 124.792C22.0268 124.848 22.0715 124.892 22.1268 124.892L32.8664 124.892C32.9216 124.892 32.9664 124.848 32.9664 124.792L32.9664 114.053C32.9664 113.998 32.9216 113.953 32.8664 113.953Z" stroke="url(#paint95_linear_875_1296)" stroke-width="0.2"/>
<path d="M32.8664 113.953L22.1268 113.953C22.0715 113.953 22.0268 113.998 22.0268 114.053L22.0268 124.792C22.0268 124.848 22.0715 124.892 22.1268 124.892L32.8664 124.892C32.9216 124.892 32.9664 124.848 32.9664 124.792L32.9664 114.053C32.9664 113.998 32.9216 113.953 32.8664 113.953Z" stroke="url(#paint96_linear_875_1296)" stroke-opacity="0.5" stroke-width="0.2"/>
<path d="M32.8664 113.953L22.1268 113.953C22.0715 113.953 22.0268 113.998 22.0268 114.053L22.0268 124.792C22.0268 124.848 22.0715 124.892 22.1268 124.892L32.8664 124.892C32.9216 124.892 32.9664 124.848 32.9664 124.792L32.9664 114.053C32.9664 113.998 32.9216 113.953 32.8664 113.953Z" stroke="url(#paint97_radial_875_1296)" stroke-width="0.2"/>
<path d="M32.2855 114.634L22.7078 114.634L22.7078 124.211L32.2855 124.211L32.2855 114.634Z" stroke="url(#paint98_linear_875_1296)" stroke-width="0.2"/>
<path d="M32.2855 114.634L22.7078 114.634L22.7078 124.211L32.2855 124.211L32.2855 114.634Z" stroke="url(#paint99_linear_875_1296)" stroke-opacity="0.5" stroke-width="0.2"/>
<path d="M32.2855 114.634L22.7078 114.634L22.7078 124.211L32.2855 124.211L32.2855 114.634Z" stroke="url(#paint100_radial_875_1296)" stroke-width="0.2"/>
<g filter="url(#filter8_d_875_1296)">
<path d="M27.7564 111.492C27.6131 111.348 27.3808 111.348 27.2376 111.492L19.5659 119.163C19.4226 119.307 19.4226 119.539 19.5659 119.682L27.2376 127.354C27.3808 127.497 27.6131 127.497 27.7564 127.354L35.4281 119.682C35.5714 119.539 35.5714 119.307 35.4281 119.163L27.7564 111.492Z" fill="url(#paint101_linear_875_1296)"/>
<path d="M27.7564 111.492C27.6131 111.348 27.3808 111.348 27.2376 111.492L19.5659 119.163C19.4226 119.307 19.4226 119.539 19.5659 119.682L27.2376 127.354C27.3808 127.497 27.6131 127.497 27.7564 127.354L35.4281 119.682C35.5714 119.539 35.5714 119.307 35.4281 119.163L27.7564 111.492Z" fill="url(#paint102_radial_875_1296)"/>
</g>
<g filter="url(#filter9_i_875_1296)">
<path d="M27.7559 115.781C27.6127 115.638 27.3804 115.638 27.2371 115.781L23.8545 119.163C23.7112 119.307 23.7112 119.539 23.8545 119.682L27.2371 123.065C27.3804 123.208 27.6127 123.208 27.7559 123.065L31.1385 119.682C31.2818 119.539 31.2818 119.307 31.1385 119.163L27.7559 115.781Z" fill="url(#paint103_linear_875_1296)"/>
<path d="M27.7559 115.781C27.6127 115.638 27.3804 115.638 27.2371 115.781L23.8545 119.163C23.7112 119.307 23.7112 119.539 23.8545 119.682L27.2371 123.065C27.3804 123.208 27.6127 123.208 27.7559 123.065L31.1385 119.682C31.2818 119.539 31.2818 119.307 31.1385 119.163L27.7559 115.781Z" fill="url(#paint104_radial_875_1296)"/>
<path d="M27.7559 115.781C27.6127 115.638 27.3804 115.638 27.2371 115.781L23.8545 119.163C23.7112 119.307 23.7112 119.539 23.8545 119.682L27.2371 123.065C27.3804 123.208 27.6127 123.208 27.7559 123.065L31.1385 119.682C31.2818 119.539 31.2818 119.307 31.1385 119.163L27.7559 115.781Z" fill="black" fill-opacity="0.5"/>
</g>
<path d="M323.069 150.21L443.876 150.21" stroke="#4E390C" stroke-width="0.73"/>
<path d="M343.263 136.885H423.683" stroke="#4E390C" stroke-width="0.73"/>
<path fill-rule="evenodd" clip-rule="evenodd" d="M383.072 143.547C392.413 143.547 399.986 135.974 399.986 126.633C399.986 117.292 392.413 109.719 383.072 109.719C373.73 109.719 366.157 117.292 366.157 126.633C366.157 135.974 373.73 143.547 383.072 143.547ZM383.072 144.929C393.176 144.929 401.367 136.737 401.367 126.633C401.367 116.529 393.176 108.337 383.072 108.337C372.967 108.337 364.776 116.529 364.776 126.633C364.776 136.737 372.967 144.929 383.072 144.929Z" fill="url(#paint105_linear_875_1296)"/>
<path fill-rule="evenodd" clip-rule="evenodd" d="M383.072 143.547C392.413 143.547 399.986 135.974 399.986 126.633C399.986 117.292 392.413 109.719 383.072 109.719C373.73 109.719 366.157 117.292 366.157 126.633C366.157 135.974 373.73 143.547 383.072 143.547ZM383.072 144.929C393.176 144.929 401.367 136.737 401.367 126.633C401.367 116.529 393.176 108.337 383.072 108.337C372.967 108.337 364.776 116.529 364.776 126.633C364.776 136.737 372.967 144.929 383.072 144.929Z" fill="url(#paint106_radial_875_1296)"/>
<circle cx="383.072" cy="126.633" r="15.7484" fill="#00121D"/>
<circle cx="383.072" cy="126.633" r="15.7484" fill="url(#paint107_radial_875_1296)"/>
<g filter="url(#filter10_f_875_1296)">
<circle cx="383.072" cy="126.633" r="14.8631" fill="url(#paint108_radial_875_1296)"/>
</g>
<g filter="url(#filter11_f_875_1296)">
<circle cx="380.439" cy="126.423" r="12.2306" transform="rotate(90 380.439 126.423)" fill="url(#paint109_radial_875_1296)"/>
</g>
<circle cx="380.058" cy="120.964" r="7.70333" fill="url(#paint110_radial_875_1296)"/>
<path fill-rule="evenodd" clip-rule="evenodd" d="M375.646 108.565C376.058 108.395 375.923 107.449 375.477 107.449L69.5995 107.449C69.3325 107.449 69.1528 107.726 69.2525 107.973C69.6881 109.054 70.2531 110.76 70.6387 112.39C70.9804 113.834 71.4534 116.181 71.6346 117.43C71.6613 117.614 71.8176 117.752 72.0033 117.752L365.52 117.752C365.658 117.752 365.785 117.674 365.849 117.551C367.941 113.514 371.416 110.31 375.646 108.565Z" fill="url(#paint111_linear_875_1296)"/>
<path fill-rule="evenodd" clip-rule="evenodd" d="M375.646 108.565C376.058 108.395 375.923 107.449 375.477 107.449L69.5995 107.449C69.3325 107.449 69.1528 107.726 69.2525 107.973C69.6881 109.054 70.2531 110.76 70.6387 112.39C70.9804 113.834 71.4534 116.181 71.6346 117.43C71.6613 117.614 71.8176 117.752 72.0033 117.752L365.52 117.752C365.658 117.752 365.785 117.674 365.849 117.551C367.941 113.514 371.416 110.31 375.646 108.565Z" fill="url(#paint112_radial_875_1296)"/>
<path fill-rule="evenodd" clip-rule="evenodd" d="M391.301 108.565C390.889 108.395 391.025 107.449 391.47 107.449L697.348 107.449C697.615 107.449 697.795 107.726 697.695 107.973C697.259 109.054 696.694 110.76 696.309 112.39C695.967 113.834 695.494 116.181 695.313 117.43C695.286 117.614 695.13 117.752 694.944 117.752L401.428 117.752C401.289 117.752 401.162 117.674 401.099 117.551C399.007 113.514 395.532 110.31 391.301 108.565Z" fill="url(#paint113_linear_875_1296)"/>
<path fill-rule="evenodd" clip-rule="evenodd" d="M391.301 108.565C390.889 108.395 391.025 107.449 391.47 107.449L697.348 107.449C697.615 107.449 697.795 107.726 697.695 107.973C697.259 109.054 696.694 110.76 696.309 112.39C695.967 113.834 695.494 116.181 695.313 117.43C695.286 117.614 695.13 117.752 694.944 117.752L401.428 117.752C401.289 117.752 401.162 117.674 401.099 117.551C399.007 113.514 395.532 110.31 391.301 108.565Z" fill="url(#paint114_radial_875_1296)"/>
<path fill-rule="evenodd" clip-rule="evenodd" d="M364.634 139.269C364.447 138.968 364.12 138.78 363.766 138.78H340.756C339.109 138.65 334.908 137.453 331.662 134.206C330.348 132.893 329.302 130.798 328.739 129.212C328.59 128.792 328.201 128.498 327.756 128.498H298.569C297.865 128.498 297.386 129.201 297.673 129.843C299.016 132.841 301.658 137.67 304.828 140.336C309.46 144.233 314.754 146.218 319.828 147.321C323.887 148.204 332.107 148.179 335.71 148.057H369.968C371.063 148.057 371.5 146.255 370.608 145.62C368.223 143.92 366.188 141.76 364.634 139.269ZM403.18 138.78C402.826 138.78 402.5 138.968 402.312 139.269C400.758 141.76 398.723 143.92 396.338 145.62C395.447 146.255 395.884 148.057 396.978 148.057H431.236C434.839 148.179 443.06 148.204 447.118 147.321C452.192 146.218 457.486 144.233 462.119 140.336C465.288 137.67 467.931 132.841 469.273 129.843C469.561 129.201 469.081 128.498 468.378 128.498H439.19C438.745 128.498 438.357 128.792 438.208 129.212C437.645 130.798 436.598 132.893 435.285 134.206C432.039 137.453 427.838 138.65 426.19 138.78H403.18Z" fill="url(#paint115_linear_875_1296)"/>
<defs>
<filter id="filter0_d_875_1296" x="378.853" y="0.516162" width="8.81348" height="8.81311" filterUnits="userSpaceOnUse" color-interpolation-filters="sRGB">
<feFlood flood-opacity="0" result="BackgroundImageFix"/>
<feColorMatrix in="SourceAlpha" type="matrix" values="0 0 0 0 0 0 0 0 0 0 0 0 0 0 0 0 0 0 127 0" result="hardAlpha"/>
<feOffset dy="0.2"/>
<feGaussianBlur stdDeviation="0.25"/>
<feComposite in2="hardAlpha" operator="out"/>
<feColorMatrix type="matrix" values="0 0 0 0 0 0 0 0 0 0 0 0 0 0 0 0 0 0 0.8 0"/>
<feBlend mode="normal" in2="BackgroundImageFix" result="effect1_dropShadow_875_1296"/>
<feBlend mode="normal" in="SourceGraphic" in2="effect1_dropShadow_875_1296" result="shape"/>
</filter>
<filter id="filter1_i_875_1296" x="380.457" y="1.91992" width="5.60596" height="6.33947" filterUnits="userSpaceOnUse" color-interpolation-filters="sRGB">
<feFlood flood-opacity="0" result="BackgroundImageFix"/>
<feBlend mode="normal" in="SourceGraphic" in2="BackgroundImageFix" result="shape"/>
<feColorMatrix in="SourceAlpha" type="matrix" values="0 0 0 0 0 0 0 0 0 0 0 0 0 0 0 0 0 0 127 0" result="hardAlpha"/>
<feOffset dy="0.733759"/>
<feGaussianBlur stdDeviation="0.678727"/>
<feComposite in2="hardAlpha" operator="arithmetic" k2="-1" k3="1"/>
<feColorMatrix type="matrix" values="0 0 0 0 0 0 0 0 0 0 0 0 0 0 0 0 0 0 0.8 0"/>
<feBlend mode="normal" in2="shape" result="effect1_innerShadow_875_1296"/>
</filter>
<filter id="filter2_d_875_1296" x="2.86914" y="94.5495" width="17.0771" height="17.077" filterUnits="userSpaceOnUse" color-interpolation-filters="sRGB">
<feFlood flood-opacity="0" result="BackgroundImageFix"/>
<feColorMatrix in="SourceAlpha" type="matrix" values="0 0 0 0 0 0 0 0 0 0 0 0 0 0 0 0 0 0 127 0" result="hardAlpha"/>
<feOffset dy="0.2"/>
<feGaussianBlur stdDeviation="0.25"/>
<feComposite in2="hardAlpha" operator="out"/>
<feColorMatrix type="matrix" values="0 0 0 0 0 0 0 0 0 0 0 0 0 0 0 0 0 0 0.8 0"/>
<feBlend mode="normal" in2="BackgroundImageFix" result="effect1_dropShadow_875_1296"/>
<feBlend mode="normal" in="SourceGraphic" in2="effect1_dropShadow_875_1296" result="shape"/>
</filter>
<filter id="filter3_i_875_1296" x="7.65869" y="99.1385" width="7.49902" height="8.23266" filterUnits="userSpaceOnUse" color-interpolation-filters="sRGB">
<feFlood flood-opacity="0" result="BackgroundImageFix"/>
<feBlend mode="normal" in="SourceGraphic" in2="BackgroundImageFix" result="shape"/>
<feColorMatrix in="SourceAlpha" type="matrix" values="0 0 0 0 0 0 0 0 0 0 0 0 0 0 0 0 0 0 127 0" result="hardAlpha"/>
<feOffset dy="0.733759"/>
<feGaussianBlur stdDeviation="0.678727"/>
<feComposite in2="hardAlpha" operator="arithmetic" k2="-1" k3="1"/>
<feColorMatrix type="matrix" values="0 0 0 0 0 0 0 0 0 0 0 0 0 0 0 0 0 0 0.8 0"/>
<feBlend mode="normal" in2="shape" result="effect1_innerShadow_875_1296"/>
</filter>
<filter id="filter4_d_875_1296" x="744.293" y="94.5495" width="17.0771" height="17.077" filterUnits="userSpaceOnUse" color-interpolation-filters="sRGB">
<feFlood flood-opacity="0" result="BackgroundImageFix"/>
<feColorMatrix in="SourceAlpha" type="matrix" values="0 0 0 0 0 0 0 0 0 0 0 0 0 0 0 0 0 0 127 0" result="hardAlpha"/>
<feOffset dy="0.2"/>
<feGaussianBlur stdDeviation="0.25"/>
<feComposite in2="hardAlpha" operator="out"/>
<feColorMatrix type="matrix" values="0 0 0 0 0 0 0 0 0 0 0 0 0 0 0 0 0 0 0.8 0"/>
<feBlend mode="normal" in2="BackgroundImageFix" result="effect1_dropShadow_875_1296"/>
<feBlend mode="normal" in="SourceGraphic" in2="effect1_dropShadow_875_1296" result="shape"/>
</filter>
<filter id="filter5_i_875_1296" x="749.083" y="99.1385" width="7.49902" height="8.23266" filterUnits="userSpaceOnUse" color-interpolation-filters="sRGB">
<feFlood flood-opacity="0" result="BackgroundImageFix"/>
<feBlend mode="normal" in="SourceGraphic" in2="BackgroundImageFix" result="shape"/>
<feColorMatrix in="SourceAlpha" type="matrix" values="0 0 0 0 0 0 0 0 0 0 0 0 0 0 0 0 0 0 127 0" result="hardAlpha"/>
<feOffset dy="0.733759"/>
<feGaussianBlur stdDeviation="0.678727"/>
<feComposite in2="hardAlpha" operator="arithmetic" k2="-1" k3="1"/>
<feColorMatrix type="matrix" values="0 0 0 0 0 0 0 0 0 0 0 0 0 0 0 0 0 0 0.8 0"/>
<feBlend mode="normal" in2="shape" result="effect1_innerShadow_875_1296"/>
</filter>
<filter id="filter6_d_875_1296" x="729.444" y="111.084" width="17.0771" height="17.077" filterUnits="userSpaceOnUse" color-interpolation-filters="sRGB">
<feFlood flood-opacity="0" result="BackgroundImageFix"/>
<feColorMatrix in="SourceAlpha" type="matrix" values="0 0 0 0 0 0 0 0 0 0 0 0 0 0 0 0 0 0 127 0" result="hardAlpha"/>
<feOffset dy="0.2"/>
<feGaussianBlur stdDeviation="0.25"/>
<feComposite in2="hardAlpha" operator="out"/>
<feColorMatrix type="matrix" values="0 0 0 0 0 0 0 0 0 0 0 0 0 0 0 0 0 0 0.8 0"/>
<feBlend mode="normal" in2="BackgroundImageFix" result="effect1_dropShadow_875_1296"/>
<feBlend mode="normal" in="SourceGraphic" in2="effect1_dropShadow_875_1296" result="shape"/>
</filter>
<filter id="filter7_i_875_1296" x="734.234" y="115.673" width="7.49902" height="8.23266" filterUnits="userSpaceOnUse" color-interpolation-filters="sRGB">
<feFlood flood-opacity="0" result="BackgroundImageFix"/>
<feBlend mode="normal" in="SourceGraphic" in2="BackgroundImageFix" result="shape"/>
<feColorMatrix in="SourceAlpha" type="matrix" values="0 0 0 0 0 0 0 0 0 0 0 0 0 0 0 0 0 0 127 0" result="hardAlpha"/>
<feOffset dy="0.733759"/>
<feGaussianBlur stdDeviation="0.678727"/>
<feComposite in2="hardAlpha" operator="arithmetic" k2="-1" k3="1"/>
<feColorMatrix type="matrix" values="0 0 0 0 0 0 0 0 0 0 0 0 0 0 0 0 0 0 0.8 0"/>
<feBlend mode="normal" in2="shape" result="effect1_innerShadow_875_1296"/>
</filter>
<filter id="filter8_d_875_1296" x="18.9585" y="111.084" width="17.0771" height="17.077" filterUnits="userSpaceOnUse" color-interpolation-filters="sRGB">
<feFlood flood-opacity="0" result="BackgroundImageFix"/>
<feColorMatrix in="SourceAlpha" type="matrix" values="0 0 0 0 0 0 0 0 0 0 0 0 0 0 0 0 0 0 127 0" result="hardAlpha"/>
<feOffset dy="0.2"/>
<feGaussianBlur stdDeviation="0.25"/>
<feComposite in2="hardAlpha" operator="out"/>
<feColorMatrix type="matrix" values="0 0 0 0 0 0 0 0 0 0 0 0 0 0 0 0 0 0 0.8 0"/>
<feBlend mode="normal" in2="BackgroundImageFix" result="effect1_dropShadow_875_1296"/>
<feBlend mode="normal" in="SourceGraphic" in2="effect1_dropShadow_875_1296" result="shape"/>
</filter>
<filter id="filter9_i_875_1296" x="23.7471" y="115.673" width="7.49902" height="8.23266" filterUnits="userSpaceOnUse" color-interpolation-filters="sRGB">
<feFlood flood-opacity="0" result="BackgroundImageFix"/>
<feBlend mode="normal" in="SourceGraphic" in2="BackgroundImageFix" result="shape"/>
<feColorMatrix in="SourceAlpha" type="matrix" values="0 0 0 0 0 0 0 0 0 0 0 0 0 0 0 0 0 0 127 0" result="hardAlpha"/>
<feOffset dy="0.733759"/>
<feGaussianBlur stdDeviation="0.678727"/>
<feComposite in2="hardAlpha" operator="arithmetic" k2="-1" k3="1"/>
<feColorMatrix type="matrix" values="0 0 0 0 0 0 0 0 0 0 0 0 0 0 0 0 0 0 0.8 0"/>
<feBlend mode="normal" in2="shape" result="effect1_innerShadow_875_1296"/>
</filter>
<filter id="filter10_f_875_1296" x="367.784" y="111.345" width="30.576" height="30.5761" filterUnits="userSpaceOnUse" color-interpolation-filters="sRGB">
<feFlood flood-opacity="0" result="BackgroundImageFix"/>
<feBlend mode="normal" in="SourceGraphic" in2="BackgroundImageFix" result="shape"/>
<feGaussianBlur stdDeviation="0.212469" result="effect1_foregroundBlur_875_1296"/>
</filter>
<filter id="filter11_f_875_1296" x="367.803" y="113.788" width="25.2708" height="25.2706" filterUnits="userSpaceOnUse" color-interpolation-filters="sRGB">
<feFlood flood-opacity="0" result="BackgroundImageFix"/>
<feBlend mode="normal" in="SourceGraphic" in2="BackgroundImageFix" result="shape"/>
<feGaussianBlur stdDeviation="0.202352" result="effect1_foregroundBlur_875_1296"/>
</filter>
<linearGradient id="paint0_linear_875_1296" x1="0" y1="234.842" x2="6.15567" y2="234.842" gradientUnits="userSpaceOnUse">
<stop stop-color="#A67F31"/>
<stop offset="0.48902" stop-color="#E6D375"/>
<stop offset="0.514515" stop-color="#261600"/>
<stop offset="1" stop-color="#5B4905"/>
</linearGradient>
<radialGradient id="paint1_radial_875_1296" cx="0" cy="0" r="1" gradientUnits="userSpaceOnUse" gradientTransform="translate(5.47988 192.113) rotate(90.6514) scale(372.912 8.90241)">
<stop stop-color="#916619"/>
<stop offset="1" stop-color="#FFC55D" stop-opacity="0"/>
</radialGradient>
<linearGradient id="paint2_linear_875_1296" x1="20.3982" y1="4.73987" x2="118.188" y2="4.73987" gradientUnits="userSpaceOnUse">
<stop stop-color="#372506"/>
<stop offset="0.042299" stop-color="#463410"/>
<stop offset="0.49644" stop-color="#EAD780"/>
</linearGradient>
<linearGradient id="paint3_linear_875_1296" x1="117.543" y1="1.51147" x2="14.9287" y2="1.51147" gradientUnits="userSpaceOnUse">
<stop stop-color="#E8D57F"/>
<stop offset="1" stop-color="#4D380B"/>
</linearGradient>
<linearGradient id="paint4_linear_875_1296" x1="743.843" y1="4.73987" x2="646.053" y2="4.73987" gradientUnits="userSpaceOnUse">
<stop stop-color="#372506"/>
<stop offset="0.49644" stop-color="#EAD780"/>
</linearGradient>
<linearGradient id="paint5_linear_875_1296" x1="646.698" y1="1.51147" x2="749.312" y2="1.51147" gradientUnits="userSpaceOnUse">
<stop stop-color="#E8D57F"/>
<stop offset="1" stop-color="#4D380B"/>
</linearGradient>
<linearGradient id="paint6_linear_875_1296" x1="16.0879" y1="9.00791" x2="16.0879" y2="56.1242" gradientUnits="userSpaceOnUse">
<stop stop-color="#372506"/>
<stop offset="1" stop-color="#EAD780"/>
</linearGradient>
<linearGradient id="paint7_linear_875_1296" x1="11.4082" y1="55.835" x2="11.4082" y2="6.39429" gradientUnits="userSpaceOnUse">
<stop stop-color="#E8D57F"/>
<stop offset="1" stop-color="#4D380B"/>
</linearGradient>
<linearGradient id="paint8_linear_875_1296" x1="16.0879" y1="101.565" x2="16.0879" y2="77.1372" gradientUnits="userSpaceOnUse">
<stop stop-color="#372506"/>
<stop offset="1" stop-color="#EAD780"/>
</linearGradient>
<linearGradient id="paint9_linear_875_1296" x1="11.4082" y1="70.8311" x2="11.4082" y2="104.358" gradientUnits="userSpaceOnUse">
<stop stop-color="#E8D57F"/>
<stop offset="1" stop-color="#4D380B"/>
</linearGradient>
<linearGradient id="paint10_linear_875_1296" x1="747.793" y1="9.00791" x2="747.793" y2="56.1242" gradientUnits="userSpaceOnUse">
<stop stop-color="#372506"/>
<stop offset="1" stop-color="#EAD780"/>
</linearGradient>
<linearGradient id="paint11_linear_875_1296" x1="752.473" y1="55.835" x2="752.473" y2="6.39429" gradientUnits="userSpaceOnUse">
<stop stop-color="#E8D57F"/>
<stop offset="1" stop-color="#4D380B"/>
</linearGradient>
<linearGradient id="paint12_linear_875_1296" x1="747.793" y1="101.565" x2="747.793" y2="77.1372" gradientUnits="userSpaceOnUse">
<stop stop-color="#372506"/>
<stop offset="1" stop-color="#EAD780"/>
</linearGradient>
<linearGradient id="paint13_linear_875_1296" x1="752.473" y1="70.8311" x2="752.473" y2="104.358" gradientUnits="userSpaceOnUse">
<stop stop-color="#E8D57F"/>
<stop offset="1" stop-color="#4D380B"/>
</linearGradient>
<linearGradient id="paint14_linear_875_1296" x1="383.259" y1="8.78125" x2="383.259" y2="0.664185" gradientUnits="userSpaceOnUse">
<stop stop-color="#FFFFF6"/>
<stop offset="0.489524" stop-color="#E6D375"/>
<stop offset="0.507857" stop-color="#261600"/>
<stop offset="1" stop-color="#5B4905"/>
</linearGradient>
<radialGradient id="paint15_radial_875_1296" cx="0" cy="0" r="1" gradientUnits="userSpaceOnUse" gradientTransform="translate(386.427 6.67844) rotate(-143.869) scale(6.92214)">
<stop stop-color="#916619"/>
<stop offset="1" stop-color="#FFC55D" stop-opacity="0"/>
</radialGradient>
<linearGradient id="paint16_linear_875_1296" x1="383.26" y1="7.67761" x2="383.26" y2="1.76793" gradientUnits="userSpaceOnUse">
<stop stop-color="#FFFFF6"/>
<stop offset="0.489524" stop-color="#E6D375"/>
<stop offset="0.507857" stop-color="#261600"/>
<stop offset="1" stop-color="#5B4905"/>
</linearGradient>
<radialGradient id="paint17_radial_875_1296" cx="0" cy="0" r="1" gradientUnits="userSpaceOnUse" gradientTransform="translate(385.566 6.14665) rotate(-143.869) scale(5.03972)">
<stop stop-color="#916619"/>
<stop offset="1" stop-color="#FFC55D" stop-opacity="0"/>
</radialGradient>
<linearGradient id="paint18_linear_875_1296" x1="383.259" y1="6.91235" x2="383.259" y2="2.53323" gradientUnits="userSpaceOnUse">
<stop stop-color="#C1F0FF"/>
<stop offset="0.489524" stop-color="#00EFFF"/>
<stop offset="0.516666" stop-color="#0085FF"/>
<stop offset="1" stop-color="#00E0FF"/>
</linearGradient>
<linearGradient id="paint19_linear_875_1296" x1="381.069" y1="4.72279" x2="385.448" y2="4.72279" gradientUnits="userSpaceOnUse">
<stop stop-color="#149DF2"/>
<stop offset="0.48744" stop-color="#C8EBFF"/>
<stop offset="0.508881" stop-color="#0377FF"/>
<stop offset="1" stop-color="#23B9FA"/>
</linearGradient>
<radialGradient id="paint20_radial_875_1296" cx="0" cy="0" r="1" gradientUnits="userSpaceOnUse" gradientTransform="translate(384.612 3.86404) rotate(144.125) scale(2.59559)">
<stop stop-color="#0066FF"/>
<stop offset="1" stop-color="#0066FF" stop-opacity="0"/>
</radialGradient>
<linearGradient id="paint21_linear_875_1296" x1="514.507" y1="128.723" x2="505.094" y2="152.876" gradientUnits="userSpaceOnUse">
<stop stop-color="#A67F31"/>
<stop offset="0.663719" stop-color="#E6D375"/>
<stop offset="0.683521" stop-color="#261600"/>
<stop offset="0.830785" stop-color="#524004"/>
<stop offset="1" stop-color="#DDB109"/>
</linearGradient>
<linearGradient id="paint22_linear_875_1296" x1="514.507" y1="128.723" x2="505.094" y2="152.876" gradientUnits="userSpaceOnUse">
<stop stop-color="#A67F31"/>
<stop offset="0.663719" stop-color="#E6D375"/>
<stop offset="0.683521" stop-color="#261600"/>
<stop offset="0.830785" stop-color="#524004"/>
<stop offset="1" stop-color="#DDB109"/>
</linearGradient>
<linearGradient id="paint23_linear_875_1296" x1="514.507" y1="128.723" x2="505.094" y2="152.876" gradientUnits="userSpaceOnUse">
<stop stop-color="#A67F31"/>
<stop offset="0.663719" stop-color="#E6D375"/>
<stop offset="0.683521" stop-color="#261600"/>
<stop offset="0.830785" stop-color="#524004"/>
<stop offset="1" stop-color="#DDB109"/>
</linearGradient>
<linearGradient id="paint24_linear_875_1296" x1="514.507" y1="128.723" x2="505.094" y2="152.876" gradientUnits="userSpaceOnUse">
<stop stop-color="#A67F31"/>
<stop offset="0.663719" stop-color="#E6D375"/>
<stop offset="0.683521" stop-color="#261600"/>
<stop offset="0.830785" stop-color="#524004"/>
<stop offset="1" stop-color="#DDB109"/>
</linearGradient>
<linearGradient id="paint25_linear_875_1296" x1="514.507" y1="128.723" x2="505.094" y2="152.876" gradientUnits="userSpaceOnUse">
<stop stop-color="#A67F31"/>
<stop offset="0.663719" stop-color="#E6D375"/>
<stop offset="0.683521" stop-color="#261600"/>
<stop offset="0.830785" stop-color="#524004"/>
<stop offset="1" stop-color="#DDB109"/>
</linearGradient>
<linearGradient id="paint26_linear_875_1296" x1="514.507" y1="128.723" x2="505.094" y2="152.876" gradientUnits="userSpaceOnUse">
<stop stop-color="#A67F31"/>
<stop offset="0.663719" stop-color="#E6D375"/>
<stop offset="0.683521" stop-color="#261600"/>
<stop offset="0.830785" stop-color="#524004"/>
<stop offset="1" stop-color="#DDB109"/>
</linearGradient>
<linearGradient id="paint27_linear_875_1296" x1="514.507" y1="128.723" x2="505.094" y2="152.876" gradientUnits="userSpaceOnUse">
<stop stop-color="#A67F31"/>
<stop offset="0.663719" stop-color="#E6D375"/>
<stop offset="0.683521" stop-color="#261600"/>
<stop offset="0.830785" stop-color="#524004"/>
<stop offset="1" stop-color="#DDB109"/>
</linearGradient>
<linearGradient id="paint28_linear_875_1296" x1="514.507" y1="128.723" x2="505.094" y2="152.876" gradientUnits="userSpaceOnUse">
<stop stop-color="#A67F31"/>
<stop offset="0.663719" stop-color="#E6D375"/>
<stop offset="0.683521" stop-color="#261600"/>
<stop offset="0.830785" stop-color="#524004"/>
<stop offset="1" stop-color="#DDB109"/>
</linearGradient>
<linearGradient id="paint29_linear_875_1296" x1="514.507" y1="128.723" x2="505.094" y2="152.876" gradientUnits="userSpaceOnUse">
<stop stop-color="#A67F31"/>
<stop offset="0.663719" stop-color="#E6D375"/>
<stop offset="0.683521" stop-color="#261600"/>
<stop offset="0.830785" stop-color="#524004"/>
<stop offset="1" stop-color="#DDB109"/>
</linearGradient>
<linearGradient id="paint30_linear_875_1296" x1="514.507" y1="128.723" x2="505.094" y2="152.876" gradientUnits="userSpaceOnUse">
<stop stop-color="#A67F31"/>
<stop offset="0.663719" stop-color="#E6D375"/>
<stop offset="0.683521" stop-color="#261600"/>
<stop offset="0.830785" stop-color="#524004"/>
<stop offset="1" stop-color="#DDB109"/>
</linearGradient>
<linearGradient id="paint31_linear_875_1296" x1="514.507" y1="128.723" x2="505.094" y2="152.876" gradientUnits="userSpaceOnUse">
<stop stop-color="#A67F31"/>
<stop offset="0.663719" stop-color="#E6D375"/>
<stop offset="0.683521" stop-color="#261600"/>
<stop offset="0.830785" stop-color="#524004"/>
<stop offset="1" stop-color="#DDB109"/>
</linearGradient>
<linearGradient id="paint32_linear_875_1296" x1="514.507" y1="128.723" x2="505.094" y2="152.876" gradientUnits="userSpaceOnUse">
<stop stop-color="#A67F31"/>
<stop offset="0.663719" stop-color="#E6D375"/>
<stop offset="0.683521" stop-color="#261600"/>
<stop offset="0.830785" stop-color="#524004"/>
<stop offset="1" stop-color="#DDB109"/>
</linearGradient>
<linearGradient id="paint33_linear_875_1296" x1="514.507" y1="128.723" x2="505.094" y2="152.876" gradientUnits="userSpaceOnUse">
<stop stop-color="#A67F31"/>
<stop offset="0.663719" stop-color="#E6D375"/>
<stop offset="0.683521" stop-color="#261600"/>
<stop offset="0.830785" stop-color="#524004"/>
<stop offset="1" stop-color="#DDB109"/>
</linearGradient>
<linearGradient id="paint34_linear_875_1296" x1="514.507" y1="128.723" x2="505.094" y2="152.876" gradientUnits="userSpaceOnUse">
<stop stop-color="#A67F31"/>
<stop offset="0.663719" stop-color="#E6D375"/>
<stop offset="0.683521" stop-color="#261600"/>
<stop offset="0.830785" stop-color="#524004"/>
<stop offset="1" stop-color="#DDB109"/>
</linearGradient>
<linearGradient id="paint35_linear_875_1296" x1="514.507" y1="128.723" x2="505.094" y2="152.876" gradientUnits="userSpaceOnUse">
<stop stop-color="#A67F31"/>
<stop offset="0.663719" stop-color="#E6D375"/>
<stop offset="0.683521" stop-color="#261600"/>
<stop offset="0.830785" stop-color="#524004"/>
<stop offset="1" stop-color="#DDB109"/>
</linearGradient>
<linearGradient id="paint36_linear_875_1296" x1="514.507" y1="128.723" x2="505.094" y2="152.876" gradientUnits="userSpaceOnUse">
<stop stop-color="#A67F31"/>
<stop offset="0.663719" stop-color="#E6D375"/>
<stop offset="0.683521" stop-color="#261600"/>
<stop offset="0.830785" stop-color="#524004"/>
<stop offset="1" stop-color="#DDB109"/>
</linearGradient>
<linearGradient id="paint37_linear_875_1296" x1="514.507" y1="128.723" x2="505.094" y2="152.876" gradientUnits="userSpaceOnUse">
<stop stop-color="#A67F31"/>
<stop offset="0.663719" stop-color="#E6D375"/>
<stop offset="0.683521" stop-color="#261600"/>
<stop offset="0.830785" stop-color="#524004"/>
<stop offset="1" stop-color="#DDB109"/>
</linearGradient>
<linearGradient id="paint38_linear_875_1296" x1="252.155" y1="128.723" x2="261.569" y2="152.876" gradientUnits="userSpaceOnUse">
<stop stop-color="#A67F31"/>
<stop offset="0.663719" stop-color="#E6D375"/>
<stop offset="0.683521" stop-color="#261600"/>
<stop offset="0.830785" stop-color="#524004"/>
<stop offset="1" stop-color="#DDB109"/>
</linearGradient>
<linearGradient id="paint39_linear_875_1296" x1="252.155" y1="128.723" x2="261.569" y2="152.876" gradientUnits="userSpaceOnUse">
<stop stop-color="#A67F31"/>
<stop offset="0.663719" stop-color="#E6D375"/>
<stop offset="0.683521" stop-color="#261600"/>
<stop offset="0.830785" stop-color="#524004"/>
<stop offset="1" stop-color="#DDB109"/>
</linearGradient>
<linearGradient id="paint40_linear_875_1296" x1="252.155" y1="128.723" x2="261.569" y2="152.876" gradientUnits="userSpaceOnUse">
<stop stop-color="#A67F31"/>
<stop offset="0.663719" stop-color="#E6D375"/>
<stop offset="0.683521" stop-color="#261600"/>
<stop offset="0.830785" stop-color="#524004"/>
<stop offset="1" stop-color="#DDB109"/>
</linearGradient>
<linearGradient id="paint41_linear_875_1296" x1="252.155" y1="128.723" x2="261.569" y2="152.876" gradientUnits="userSpaceOnUse">
<stop stop-color="#A67F31"/>
<stop offset="0.663719" stop-color="#E6D375"/>
<stop offset="0.683521" stop-color="#261600"/>
<stop offset="0.830785" stop-color="#524004"/>
<stop offset="1" stop-color="#DDB109"/>
</linearGradient>
<linearGradient id="paint42_linear_875_1296" x1="252.155" y1="128.723" x2="261.569" y2="152.876" gradientUnits="userSpaceOnUse">
<stop stop-color="#A67F31"/>
<stop offset="0.663719" stop-color="#E6D375"/>
<stop offset="0.683521" stop-color="#261600"/>
<stop offset="0.830785" stop-color="#524004"/>
<stop offset="1" stop-color="#DDB109"/>
</linearGradient>
<linearGradient id="paint43_linear_875_1296" x1="252.155" y1="128.723" x2="261.569" y2="152.876" gradientUnits="userSpaceOnUse">
<stop stop-color="#A67F31"/>
<stop offset="0.663719" stop-color="#E6D375"/>
<stop offset="0.683521" stop-color="#261600"/>
<stop offset="0.830785" stop-color="#524004"/>
<stop offset="1" stop-color="#DDB109"/>
</linearGradient>
<linearGradient id="paint44_linear_875_1296" x1="252.155" y1="128.723" x2="261.569" y2="152.876" gradientUnits="userSpaceOnUse">
<stop stop-color="#A67F31"/>
<stop offset="0.663719" stop-color="#E6D375"/>
<stop offset="0.683521" stop-color="#261600"/>
<stop offset="0.830785" stop-color="#524004"/>
<stop offset="1" stop-color="#DDB109"/>
</linearGradient>
<linearGradient id="paint45_linear_875_1296" x1="252.155" y1="128.723" x2="261.569" y2="152.876" gradientUnits="userSpaceOnUse">
<stop stop-color="#A67F31"/>
<stop offset="0.663719" stop-color="#E6D375"/>
<stop offset="0.683521" stop-color="#261600"/>
<stop offset="0.830785" stop-color="#524004"/>
<stop offset="1" stop-color="#DDB109"/>
</linearGradient>
<linearGradient id="paint46_linear_875_1296" x1="252.155" y1="128.723" x2="261.569" y2="152.876" gradientUnits="userSpaceOnUse">
<stop stop-color="#A67F31"/>
<stop offset="0.663719" stop-color="#E6D375"/>
<stop offset="0.683521" stop-color="#261600"/>
<stop offset="0.830785" stop-color="#524004"/>
<stop offset="1" stop-color="#DDB109"/>
</linearGradient>
<linearGradient id="paint47_linear_875_1296" x1="252.155" y1="128.723" x2="261.569" y2="152.876" gradientUnits="userSpaceOnUse">
<stop stop-color="#A67F31"/>
<stop offset="0.663719" stop-color="#E6D375"/>
<stop offset="0.683521" stop-color="#261600"/>
<stop offset="0.830785" stop-color="#524004"/>
<stop offset="1" stop-color="#DDB109"/>
</linearGradient>
<linearGradient id="paint48_linear_875_1296" x1="252.155" y1="128.723" x2="261.569" y2="152.876" gradientUnits="userSpaceOnUse">
<stop stop-color="#A67F31"/>
<stop offset="0.663719" stop-color="#E6D375"/>
<stop offset="0.683521" stop-color="#261600"/>
<stop offset="0.830785" stop-color="#524004"/>
<stop offset="1" stop-color="#DDB109"/>
</linearGradient>
<linearGradient id="paint49_linear_875_1296" x1="252.155" y1="128.723" x2="261.569" y2="152.876" gradientUnits="userSpaceOnUse">
<stop stop-color="#A67F31"/>
<stop offset="0.663719" stop-color="#E6D375"/>
<stop offset="0.683521" stop-color="#261600"/>
<stop offset="0.830785" stop-color="#524004"/>
<stop offset="1" stop-color="#DDB109"/>
</linearGradient>
<linearGradient id="paint50_linear_875_1296" x1="252.155" y1="128.723" x2="261.569" y2="152.876" gradientUnits="userSpaceOnUse">
<stop stop-color="#A67F31"/>
<stop offset="0.663719" stop-color="#E6D375"/>
<stop offset="0.683521" stop-color="#261600"/>
<stop offset="0.830785" stop-color="#524004"/>
<stop offset="1" stop-color="#DDB109"/>
</linearGradient>
<linearGradient id="paint51_linear_875_1296" x1="252.155" y1="128.723" x2="261.569" y2="152.876" gradientUnits="userSpaceOnUse">
<stop stop-color="#A67F31"/>
<stop offset="0.663719" stop-color="#E6D375"/>
<stop offset="0.683521" stop-color="#261600"/>
<stop offset="0.830785" stop-color="#524004"/>
<stop offset="1" stop-color="#DDB109"/>
</linearGradient>
<linearGradient id="paint52_linear_875_1296" x1="252.155" y1="128.723" x2="261.569" y2="152.876" gradientUnits="userSpaceOnUse">
<stop stop-color="#A67F31"/>
<stop offset="0.663719" stop-color="#E6D375"/>
<stop offset="0.683521" stop-color="#261600"/>
<stop offset="0.830785" stop-color="#524004"/>
<stop offset="1" stop-color="#DDB109"/>
</linearGradient>
<linearGradient id="paint53_linear_875_1296" x1="252.155" y1="128.723" x2="261.569" y2="152.876" gradientUnits="userSpaceOnUse">
<stop stop-color="#A67F31"/>
<stop offset="0.663719" stop-color="#E6D375"/>
<stop offset="0.683521" stop-color="#261600"/>
<stop offset="0.830785" stop-color="#524004"/>
<stop offset="1" stop-color="#DDB109"/>
</linearGradient>
<linearGradient id="paint54_linear_875_1296" x1="252.155" y1="128.723" x2="261.569" y2="152.876" gradientUnits="userSpaceOnUse">
<stop stop-color="#A67F31"/>
<stop offset="0.663719" stop-color="#E6D375"/>
<stop offset="0.683521" stop-color="#261600"/>
<stop offset="0.830785" stop-color="#524004"/>
<stop offset="1" stop-color="#DDB109"/>
</linearGradient>
<linearGradient id="paint55_linear_875_1296" x1="5.83838" y1="97.318" x2="16.978" y2="108.458" gradientUnits="userSpaceOnUse">
<stop stop-color="#E7CE97"/>
<stop offset="0.489524" stop-color="#B28A38"/>
<stop offset="0.636666" stop-color="#322003"/>
<stop offset="1" stop-color="#503B0D"/>
</linearGradient>
<linearGradient id="paint56_linear_875_1296" x1="5.83838" y1="108.458" x2="16.978" y2="97.318" gradientUnits="userSpaceOnUse">
<stop stop-color="#E6CD97"/>
<stop offset="0.48744" stop-color="#EAD581"/>
<stop offset="0.601666" stop-color="#BA923D"/>
<stop offset="1" stop-color="#4B350B"/>
</linearGradient>
<radialGradient id="paint57_radial_875_1296" cx="0" cy="0" r="1" gradientUnits="userSpaceOnUse" gradientTransform="translate(17.0354 101.63) rotate(170.875) scale(9.33758)">
<stop stop-color="#EAD680"/>
<stop offset="1" stop-color="#B1893B" stop-opacity="0"/>
</radialGradient>
<linearGradient id="paint58_linear_875_1296" x1="6.51925" y1="97.9989" x2="16.297" y2="107.777" gradientUnits="userSpaceOnUse">
<stop stop-color="#E7CE97"/>
<stop offset="0.489524" stop-color="#B28A38"/>
<stop offset="0.636666" stop-color="#322003"/>
<stop offset="1" stop-color="#503B0D"/>
</linearGradient>
<linearGradient id="paint59_linear_875_1296" x1="6.51925" y1="107.777" x2="16.297" y2="97.9989" gradientUnits="userSpaceOnUse">
<stop stop-color="#E6CD97"/>
<stop offset="0.48744" stop-color="#EAD581"/>
<stop offset="0.601666" stop-color="#BA923D"/>
<stop offset="1" stop-color="#4B350B"/>
</linearGradient>
<radialGradient id="paint60_radial_875_1296" cx="0" cy="0" r="1" gradientUnits="userSpaceOnUse" gradientTransform="translate(16.3474 101.783) rotate(170.875) scale(8.196)">
<stop stop-color="#EAD680"/>
<stop offset="1" stop-color="#B1893B" stop-opacity="0"/>
</radialGradient>
<linearGradient id="paint61_linear_875_1296" x1="11.4078" y1="94.6975" x2="11.4078" y2="111.079" gradientUnits="userSpaceOnUse">
<stop stop-color="#FFFFF6"/>
<stop offset="0.489524" stop-color="#E6D375"/>
<stop offset="0.507857" stop-color="#261600"/>
<stop offset="1" stop-color="#5B4905"/>
</linearGradient>
<radialGradient id="paint62_radial_875_1296" cx="0" cy="0" r="1" gradientUnits="userSpaceOnUse" gradientTransform="translate(17.7999 98.9412) rotate(143.869) scale(13.9695)">
<stop stop-color="#916619"/>
<stop offset="1" stop-color="#FFC55D" stop-opacity="0"/>
</radialGradient>
<linearGradient id="paint63_linear_875_1296" x1="11.4083" y1="98.9866" x2="11.4083" y2="106.789" gradientUnits="userSpaceOnUse">
<stop stop-color="#FFFFF6"/>
<stop offset="0.489524" stop-color="#E6D375"/>
<stop offset="0.507857" stop-color="#261600"/>
<stop offset="1" stop-color="#5B4905"/>
</linearGradient>
<radialGradient id="paint64_radial_875_1296" cx="0" cy="0" r="1" gradientUnits="userSpaceOnUse" gradientTransform="translate(14.4531 101.008) rotate(143.869) scale(6.6542)">
<stop stop-color="#916619"/>
<stop offset="1" stop-color="#FFC55D" stop-opacity="0"/>
</radialGradient>
<linearGradient id="paint65_linear_875_1296" x1="747.263" y1="97.318" x2="758.402" y2="108.458" gradientUnits="userSpaceOnUse">
<stop stop-color="#E7CE97"/>
<stop offset="0.489524" stop-color="#B28A38"/>
<stop offset="0.636666" stop-color="#322003"/>
<stop offset="1" stop-color="#503B0D"/>
</linearGradient>
<linearGradient id="paint66_linear_875_1296" x1="747.263" y1="108.458" x2="758.402" y2="97.318" gradientUnits="userSpaceOnUse">
<stop stop-color="#E6CD97"/>
<stop offset="0.48744" stop-color="#EAD581"/>
<stop offset="0.601666" stop-color="#BA923D"/>
<stop offset="1" stop-color="#4B350B"/>
</linearGradient>
<radialGradient id="paint67_radial_875_1296" cx="0" cy="0" r="1" gradientUnits="userSpaceOnUse" gradientTransform="translate(758.46 101.63) rotate(170.875) scale(9.33758)">
<stop stop-color="#EAD680"/>
<stop offset="1" stop-color="#B1893B" stop-opacity="0"/>
</radialGradient>
<linearGradient id="paint68_linear_875_1296" x1="747.944" y1="97.9989" x2="757.721" y2="107.777" gradientUnits="userSpaceOnUse">
<stop stop-color="#E7CE97"/>
<stop offset="0.489524" stop-color="#B28A38"/>
<stop offset="0.636666" stop-color="#322003"/>
<stop offset="1" stop-color="#503B0D"/>
</linearGradient>
<linearGradient id="paint69_linear_875_1296" x1="747.944" y1="107.777" x2="757.721" y2="97.9989" gradientUnits="userSpaceOnUse">
<stop stop-color="#E6CD97"/>
<stop offset="0.48744" stop-color="#EAD581"/>
<stop offset="0.601666" stop-color="#BA923D"/>
<stop offset="1" stop-color="#4B350B"/>
</linearGradient>
<radialGradient id="paint70_radial_875_1296" cx="0" cy="0" r="1" gradientUnits="userSpaceOnUse" gradientTransform="translate(757.772 101.783) rotate(170.875) scale(8.196)">
<stop stop-color="#EAD680"/>
<stop offset="1" stop-color="#B1893B" stop-opacity="0"/>
</radialGradient>
<linearGradient id="paint71_linear_875_1296" x1="752.832" y1="94.6975" x2="752.832" y2="111.079" gradientUnits="userSpaceOnUse">
<stop stop-color="#FFFFF6"/>
<stop offset="0.489524" stop-color="#E6D375"/>
<stop offset="0.507857" stop-color="#261600"/>
<stop offset="1" stop-color="#5B4905"/>
</linearGradient>
<radialGradient id="paint72_radial_875_1296" cx="0" cy="0" r="1" gradientUnits="userSpaceOnUse" gradientTransform="translate(759.224 98.9412) rotate(143.869) scale(13.9695)">
<stop stop-color="#916619"/>
<stop offset="1" stop-color="#FFC55D" stop-opacity="0"/>
</radialGradient>
<linearGradient id="paint73_linear_875_1296" x1="752.833" y1="98.9866" x2="752.833" y2="106.789" gradientUnits="userSpaceOnUse">
<stop stop-color="#FFFFF6"/>
<stop offset="0.489524" stop-color="#E6D375"/>
<stop offset="0.507857" stop-color="#261600"/>
<stop offset="1" stop-color="#5B4905"/>
</linearGradient>
<radialGradient id="paint74_radial_875_1296" cx="0" cy="0" r="1" gradientUnits="userSpaceOnUse" gradientTransform="translate(755.877 101.008) rotate(143.869) scale(6.6542)">
<stop stop-color="#916619"/>
<stop offset="1" stop-color="#FFC55D" stop-opacity="0"/>
</radialGradient>
<linearGradient id="paint75_linear_875_1296" x1="33.9001" y1="119.422" x2="191.635" y2="119.422" gradientUnits="userSpaceOnUse">
<stop stop-color="#372506"/>
<stop offset="0.042299" stop-color="#463410"/>
<stop offset="0.49644" stop-color="#EAD780"/>
</linearGradient>
<linearGradient id="paint76_linear_875_1296" x1="192.944" y1="123.249" x2="18.6294" y2="123.249" gradientUnits="userSpaceOnUse">
<stop stop-color="#E8D57F"/>
<stop offset="1" stop-color="#4D380B"/>
</linearGradient>
<linearGradient id="paint77_linear_875_1296" x1="733.047" y1="119.422" x2="575.312" y2="119.422" gradientUnits="userSpaceOnUse">
<stop stop-color="#372506"/>
<stop offset="0.042299" stop-color="#463410"/>
<stop offset="0.49644" stop-color="#EAD780"/>
</linearGradient>
<linearGradient id="paint78_linear_875_1296" x1="574.003" y1="123.249" x2="748.317" y2="123.249" gradientUnits="userSpaceOnUse">
<stop stop-color="#E8D57F"/>
<stop offset="1" stop-color="#4D380B"/>
</linearGradient>
<linearGradient id="paint79_linear_875_1296" x1="542.548" y1="119.423" x2="447.152" y2="119.423" gradientUnits="userSpaceOnUse">
<stop stop-color="#E8D57F"/>
<stop offset="1" stop-color="#4D380B"/>
</linearGradient>
<linearGradient id="paint80_linear_875_1296" x1="732.414" y1="113.853" x2="743.553" y2="124.992" gradientUnits="userSpaceOnUse">
<stop stop-color="#E7CE97"/>
<stop offset="0.489524" stop-color="#B28A38"/>
<stop offset="0.636666" stop-color="#322003"/>
<stop offset="1" stop-color="#503B0D"/>
</linearGradient>
<linearGradient id="paint81_linear_875_1296" x1="732.414" y1="124.992" x2="743.553" y2="113.853" gradientUnits="userSpaceOnUse">
<stop stop-color="#E6CD97"/>
<stop offset="0.48744" stop-color="#EAD581"/>
<stop offset="0.601666" stop-color="#BA923D"/>
<stop offset="1" stop-color="#4B350B"/>
</linearGradient>
<radialGradient id="paint82_radial_875_1296" cx="0" cy="0" r="1" gradientUnits="userSpaceOnUse" gradientTransform="translate(743.611 118.164) rotate(170.875) scale(9.33758)">
<stop stop-color="#EAD680"/>
<stop offset="1" stop-color="#B1893B" stop-opacity="0"/>
</radialGradient>
<linearGradient id="paint83_linear_875_1296" x1="733.094" y1="114.534" x2="742.872" y2="124.311" gradientUnits="userSpaceOnUse">
<stop stop-color="#E7CE97"/>
<stop offset="0.489524" stop-color="#B28A38"/>
<stop offset="0.636666" stop-color="#322003"/>
<stop offset="1" stop-color="#503B0D"/>
</linearGradient>
<linearGradient id="paint84_linear_875_1296" x1="733.094" y1="124.311" x2="742.872" y2="114.534" gradientUnits="userSpaceOnUse">
<stop stop-color="#E6CD97"/>
<stop offset="0.48744" stop-color="#EAD581"/>
<stop offset="0.601666" stop-color="#BA923D"/>
<stop offset="1" stop-color="#4B350B"/>
</linearGradient>
<radialGradient id="paint85_radial_875_1296" cx="0" cy="0" r="1" gradientUnits="userSpaceOnUse" gradientTransform="translate(742.923 118.318) rotate(170.875) scale(8.196)">
<stop stop-color="#EAD680"/>
<stop offset="1" stop-color="#B1893B" stop-opacity="0"/>
</radialGradient>
<linearGradient id="paint86_linear_875_1296" x1="737.983" y1="111.232" x2="737.983" y2="127.613" gradientUnits="userSpaceOnUse">
<stop stop-color="#FFFFF6"/>
<stop offset="0.489524" stop-color="#E6D375"/>
<stop offset="0.507857" stop-color="#261600"/>
<stop offset="1" stop-color="#5B4905"/>
</linearGradient>
<radialGradient id="paint87_radial_875_1296" cx="0" cy="0" r="1" gradientUnits="userSpaceOnUse" gradientTransform="translate(744.375 115.476) rotate(143.869) scale(13.9695)">
<stop stop-color="#916619"/>
<stop offset="1" stop-color="#FFC55D" stop-opacity="0"/>
</radialGradient>
<linearGradient id="paint88_linear_875_1296" x1="737.983" y1="115.521" x2="737.983" y2="123.324" gradientUnits="userSpaceOnUse">
<stop stop-color="#FFFFF6"/>
<stop offset="0.489524" stop-color="#E6D375"/>
<stop offset="0.507857" stop-color="#261600"/>
<stop offset="1" stop-color="#5B4905"/>
</linearGradient>
<radialGradient id="paint89_radial_875_1296" cx="0" cy="0" r="1" gradientUnits="userSpaceOnUse" gradientTransform="translate(741.028 117.543) rotate(143.869) scale(6.6542)">
<stop stop-color="#916619"/>
<stop offset="1" stop-color="#FFC55D" stop-opacity="0"/>
</radialGradient>
<linearGradient id="paint90_linear_875_1296" x1="224.399" y1="119.423" x2="319.795" y2="119.423" gradientUnits="userSpaceOnUse">
<stop stop-color="#E8D57F"/>
<stop offset="1" stop-color="#4D380B"/>
</linearGradient>
<linearGradient id="paint91_linear_875_1296" x1="299.191" y1="123.133" x2="341.801" y2="123.133" gradientUnits="userSpaceOnUse">
<stop stop-color="#E8D57F"/>
<stop offset="1" stop-color="#4D380B"/>
</linearGradient>
<linearGradient id="paint92_linear_875_1296" x1="447.415" y1="126.633" x2="385.205" y2="126.633" gradientUnits="userSpaceOnUse">
<stop stop-color="#E8D57F"/>
<stop offset="1" stop-color="#4D380B"/>
</linearGradient>
<linearGradient id="paint93_linear_875_1296" x1="318.728" y1="126.633" x2="380.937" y2="126.633" gradientUnits="userSpaceOnUse">
<stop stop-color="#E8D57F"/>
<stop offset="1" stop-color="#4D380B"/>
</linearGradient>
<linearGradient id="paint94_linear_875_1296" x1="467.755" y1="123.133" x2="425.145" y2="123.133" gradientUnits="userSpaceOnUse">
<stop stop-color="#E8D57F"/>
<stop offset="1" stop-color="#4D380B"/>
</linearGradient>
<linearGradient id="paint95_linear_875_1296" x1="33.0664" y1="113.853" x2="21.9268" y2="124.992" gradientUnits="userSpaceOnUse">
<stop stop-color="#E7CE97"/>
<stop offset="0.489524" stop-color="#B28A38"/>
<stop offset="0.636666" stop-color="#322003"/>
<stop offset="1" stop-color="#503B0D"/>
</linearGradient>
<linearGradient id="paint96_linear_875_1296" x1="33.0664" y1="124.992" x2="21.9268" y2="113.853" gradientUnits="userSpaceOnUse">
<stop stop-color="#E6CD97"/>
<stop offset="0.48744" stop-color="#EAD581"/>
<stop offset="0.601666" stop-color="#BA923D"/>
<stop offset="1" stop-color="#4B350B"/>
</linearGradient>
<radialGradient id="paint97_radial_875_1296" cx="0" cy="0" r="1" gradientUnits="userSpaceOnUse" gradientTransform="translate(21.8693 118.164) rotate(9.12501) scale(9.33758)">
<stop stop-color="#EAD680"/>
<stop offset="1" stop-color="#B1893B" stop-opacity="0"/>
</radialGradient>
<linearGradient id="paint98_linear_875_1296" x1="32.3855" y1="114.534" x2="22.6078" y2="124.311" gradientUnits="userSpaceOnUse">
<stop stop-color="#E7CE97"/>
<stop offset="0.489524" stop-color="#B28A38"/>
<stop offset="0.636666" stop-color="#322003"/>
<stop offset="1" stop-color="#503B0D"/>
</linearGradient>
<linearGradient id="paint99_linear_875_1296" x1="32.3855" y1="124.311" x2="22.6078" y2="114.534" gradientUnits="userSpaceOnUse">
<stop stop-color="#E6CD97"/>
<stop offset="0.48744" stop-color="#EAD581"/>
<stop offset="0.601666" stop-color="#BA923D"/>
<stop offset="1" stop-color="#4B350B"/>
</linearGradient>
<radialGradient id="paint100_radial_875_1296" cx="0" cy="0" r="1" gradientUnits="userSpaceOnUse" gradientTransform="translate(22.5574 118.318) rotate(9.12501) scale(8.196)">
<stop stop-color="#EAD680"/>
<stop offset="1" stop-color="#B1893B" stop-opacity="0"/>
</radialGradient>
<linearGradient id="paint101_linear_875_1296" x1="27.497" y1="111.232" x2="27.497" y2="127.613" gradientUnits="userSpaceOnUse">
<stop stop-color="#FFFFF6"/>
<stop offset="0.489524" stop-color="#E6D375"/>
<stop offset="0.507857" stop-color="#261600"/>
<stop offset="1" stop-color="#5B4905"/>
</linearGradient>
<radialGradient id="paint102_radial_875_1296" cx="0" cy="0" r="1" gradientUnits="userSpaceOnUse" gradientTransform="translate(21.1048 115.476) rotate(36.1309) scale(13.9695)">
<stop stop-color="#916619"/>
<stop offset="1" stop-color="#FFC55D" stop-opacity="0"/>
</radialGradient>
<linearGradient id="paint103_linear_875_1296" x1="27.4965" y1="115.521" x2="27.4965" y2="123.324" gradientUnits="userSpaceOnUse">
<stop stop-color="#FFFFF6"/>
<stop offset="0.489524" stop-color="#E6D375"/>
<stop offset="0.507857" stop-color="#261600"/>
<stop offset="1" stop-color="#5B4905"/>
</linearGradient>
<radialGradient id="paint104_radial_875_1296" cx="0" cy="0" r="1" gradientUnits="userSpaceOnUse" gradientTransform="translate(24.4517 117.543) rotate(36.1309) scale(6.6542)">
<stop stop-color="#916619"/>
<stop offset="1" stop-color="#FFC55D" stop-opacity="0"/>
</radialGradient>
<linearGradient id="paint105_linear_875_1296" x1="388.076" y1="110.662" x2="388.076" y2="143.225" gradientUnits="userSpaceOnUse">
<stop stop-color="#A67F31"/>
<stop offset="0.507589" stop-color="#E6D375"/>
<stop offset="0.514515" stop-color="#261600"/>
<stop offset="1" stop-color="#5B4905"/>
</linearGradient>
<radialGradient id="paint106_radial_875_1296" cx="0" cy="0" r="1" gradientUnits="userSpaceOnUse" gradientTransform="translate(397.35 117.817) rotate(143.869) scale(31.2047)">
<stop stop-color="#916619"/>
<stop offset="1" stop-color="#FFC55D" stop-opacity="0"/>
</radialGradient>
<radialGradient id="paint107_radial_875_1296" cx="0" cy="0" r="1" gradientUnits="userSpaceOnUse" gradientTransform="translate(380.867 123.434) rotate(64.6632) scale(18.1462)">
<stop stop-color="#00AAFF"/>
<stop offset="0.446666" stop-color="#00AAFF" stop-opacity="0.825"/>
<stop offset="1" stop-color="#00AAFF" stop-opacity="0"/>
</radialGradient>
<radialGradient id="paint108_radial_875_1296" cx="0" cy="0" r="1" gradientUnits="userSpaceOnUse" gradientTransform="translate(382.39 126.162) rotate(41.0753) scale(22.1271)">
<stop stop-color="#D1DEF1" stop-opacity="0"/>
<stop offset="0.617129" stop-color="#D1DEF1" stop-opacity="0"/>
<stop offset="0.826677" stop-color="#D1DEF1"/>
</radialGradient>
<radialGradient id="paint109_radial_875_1296" cx="0" cy="0" r="1" gradientUnits="userSpaceOnUse" gradientTransform="translate(376.595 123.449) rotate(40.5454) scale(22.3837)">
<stop stop-color="#D1DEF1" stop-opacity="0"/>
<stop offset="0.617129" stop-color="#D1DEF1" stop-opacity="0"/>
<stop offset="0.826677" stop-color="#D1DEF1"/>
</radialGradient>
<radialGradient id="paint110_radial_875_1296" cx="0" cy="0" r="1" gradientUnits="userSpaceOnUse" gradientTransform="translate(370.98 113.261) rotate(41.2277) scale(18.6577)">
<stop stop-color="#D1DEF1"/>
<stop offset="1" stop-color="#D1DEF1" stop-opacity="0"/>
</radialGradient>
<linearGradient id="paint111_linear_875_1296" x1="239.314" y1="107.449" x2="239.314" y2="117.752" gradientUnits="userSpaceOnUse">
<stop stop-color="#A67F31"/>
<stop offset="0.508693" stop-color="#E6D375"/>
<stop offset="0.514515" stop-color="#261600"/>
<stop offset="1" stop-color="#5B4905"/>
</linearGradient>
<radialGradient id="paint112_radial_875_1296" cx="0" cy="0" r="1" gradientUnits="userSpaceOnUse" gradientTransform="translate(342.226 110.118) rotate(178.595) scale(211.289 10.8759)">
<stop stop-color="#916619"/>
<stop offset="1" stop-color="#FFC55D" stop-opacity="0"/>
</radialGradient>
<linearGradient id="paint113_linear_875_1296" x1="527.633" y1="107.449" x2="527.633" y2="117.752" gradientUnits="userSpaceOnUse">
<stop stop-color="#A67F31"/>
<stop offset="0.508693" stop-color="#E6D375"/>
<stop offset="0.514515" stop-color="#261600"/>
<stop offset="1" stop-color="#5B4905"/>
</linearGradient>
<radialGradient id="paint114_radial_875_1296" cx="0" cy="0" r="1" gradientUnits="userSpaceOnUse" gradientTransform="translate(424.721 110.118) rotate(1.40509) scale(211.289 10.8759)">
<stop stop-color="#916619"/>
<stop offset="1" stop-color="#FFC55D" stop-opacity="0"/>
</radialGradient>
<linearGradient id="paint115_linear_875_1296" x1="392.858" y1="134.255" x2="392.858" y2="148.119" gradientUnits="userSpaceOnUse">
<stop stop-color="#A67F31"/>
<stop offset="0.508693" stop-color="#E6D375"/>
<stop offset="0.514515" stop-color="#261600"/>
<stop offset="1" stop-color="#5B4905"/>
</linearGradient>
</defs>
</svg>
