<svg width="183" height="31" viewBox="0 0 183 31" fill="none" xmlns="http://www.w3.org/2000/svg">
<path d="M10.9216 30.172C11.0649 30.3153 11.2971 30.3153 11.4404 30.172L19.0049 22.6075C19.1482 22.4643 19.1482 22.232 19.0049 22.0887L11.4404 14.5242C11.2971 14.3809 11.0649 14.3809 10.9216 14.5242L3.35708 22.0887C3.2138 22.232 3.2138 22.4643 3.35708 22.6075L10.9216 30.172Z" fill="url(#paint0_linear_962_1668)"/>
<path d="M10.9216 30.172C11.0649 30.3153 11.2971 30.3153 11.4404 30.172L19.0049 22.6075C19.1482 22.4643 19.1482 22.232 19.0049 22.0887L11.4404 14.5242C11.2971 14.3809 11.0649 14.3809 10.9216 14.5242L3.35708 22.0887C3.2138 22.232 3.2138 22.4643 3.35708 22.6075L10.9216 30.172Z" fill="url(#paint1_radial_962_1668)"/>
<g filter="url(#filter0_i_962_1668)">
<path d="M10.9216 27.9739C11.0649 28.1171 11.2972 28.1171 11.4405 27.9739L16.8067 22.6076C16.95 22.4643 16.95 22.232 16.8067 22.0887L11.4405 16.7224C11.2972 16.5792 11.0649 16.5792 10.9216 16.7224L5.55532 22.0887C5.41205 22.232 5.41205 22.4643 5.55532 22.6076L10.9216 27.9739Z" fill="url(#paint2_linear_962_1668)"/>
<path d="M10.9216 27.9739C11.0649 28.1171 11.2972 28.1171 11.4405 27.9739L16.8067 22.6076C16.95 22.4643 16.95 22.232 16.8067 22.0887L11.4405 16.7224C11.2972 16.5792 11.0649 16.5792 10.9216 16.7224L5.55532 22.0887C5.41205 22.232 5.41205 22.4643 5.55532 22.6076L10.9216 27.9739Z" fill="url(#paint3_radial_962_1668)"/>
<path d="M10.9216 27.9739C11.0649 28.1171 11.2972 28.1171 11.4405 27.9739L16.8067 22.6076C16.95 22.4643 16.95 22.232 16.8067 22.0887L11.4405 16.7224C11.2972 16.5792 11.0649 16.5792 10.9216 16.7224L5.55532 22.0887C5.41205 22.232 5.41205 22.4643 5.55532 22.6076L10.9216 27.9739Z" fill="black" fill-opacity="0.5"/>
</g>
<path d="M10.9218 26.4496C11.0651 26.5929 11.2974 26.5929 11.4407 26.4496L15.2828 22.6075C15.426 22.4643 15.426 22.232 15.2828 22.0887L11.4407 18.2466C11.2974 18.1033 11.0651 18.1033 10.9218 18.2466L7.07974 22.0887C6.93646 22.232 6.93646 22.4643 7.07974 22.6075L10.9218 26.4496Z" fill="url(#paint4_linear_962_1668)"/>
<path d="M10.9218 26.4496C11.0651 26.5929 11.2974 26.5929 11.4407 26.4496L15.2828 22.6075C15.426 22.4643 15.426 22.232 15.2828 22.0887L11.4407 18.2466C11.2974 18.1033 11.0651 18.1033 10.9218 18.2466L7.07974 22.0887C6.93646 22.232 6.93646 22.4643 7.07974 22.6075L10.9218 26.4496Z" fill="url(#paint5_linear_962_1668)" fill-opacity="0.5"/>
<path d="M10.9218 26.4496C11.0651 26.5929 11.2974 26.5929 11.4407 26.4496L15.2828 22.6075C15.426 22.4643 15.426 22.232 15.2828 22.0887L11.4407 18.2466C11.2974 18.1033 11.0651 18.1033 10.9218 18.2466L7.07974 22.0887C6.93646 22.232 6.93646 22.4643 7.07974 22.6075L10.9218 26.4496Z" fill="url(#paint6_radial_962_1668)"/>
<path d="M10.9216 16.5808C11.0649 16.7241 11.2971 16.7241 11.4404 16.5808L19.0049 9.01629C19.1482 8.87302 19.1482 8.64072 19.0049 8.49745L11.4404 0.93295C11.2971 0.789674 11.0649 0.789674 10.9216 0.93295L3.35708 8.49745C3.2138 8.64072 3.2138 8.87302 3.35708 9.01629L10.9216 16.5808Z" fill="url(#paint7_linear_962_1668)"/>
<path d="M10.9216 16.5808C11.0649 16.7241 11.2971 16.7241 11.4404 16.5808L19.0049 9.01629C19.1482 8.87302 19.1482 8.64072 19.0049 8.49745L11.4404 0.93295C11.2971 0.789674 11.0649 0.789674 10.9216 0.93295L3.35708 8.49745C3.2138 8.64072 3.2138 8.87302 3.35708 9.01629L10.9216 16.5808Z" fill="url(#paint8_radial_962_1668)"/>
<g filter="url(#filter1_i_962_1668)">
<path d="M10.9216 14.3826C11.0649 14.5259 11.2972 14.5259 11.4405 14.3826L16.8067 9.01632C16.95 8.87304 16.95 8.64075 16.8067 8.49747L11.4405 3.13118C11.2972 2.98791 11.0649 2.98791 10.9216 3.13118L5.55532 8.49747C5.41205 8.64075 5.41205 8.87304 5.55532 9.01632L10.9216 14.3826Z" fill="url(#paint9_linear_962_1668)"/>
<path d="M10.9216 14.3826C11.0649 14.5259 11.2972 14.5259 11.4405 14.3826L16.8067 9.01632C16.95 8.87304 16.95 8.64075 16.8067 8.49747L11.4405 3.13118C11.2972 2.98791 11.0649 2.98791 10.9216 3.13118L5.55532 8.49747C5.41205 8.64075 5.41205 8.87304 5.55532 9.01632L10.9216 14.3826Z" fill="url(#paint10_radial_962_1668)"/>
<path d="M10.9216 14.3826C11.0649 14.5259 11.2972 14.5259 11.4405 14.3826L16.8067 9.01632C16.95 8.87304 16.95 8.64075 16.8067 8.49747L11.4405 3.13118C11.2972 2.98791 11.0649 2.98791 10.9216 3.13118L5.55532 8.49747C5.41205 8.64075 5.41205 8.87304 5.55532 9.01632L10.9216 14.3826Z" fill="black" fill-opacity="0.5"/>
</g>
<path d="M10.9218 12.8584C11.0651 13.0016 11.2974 13.0017 11.4407 12.8584L15.2828 9.01629C15.426 8.87301 15.426 8.64072 15.2828 8.49744L11.4407 4.65536C11.2974 4.51208 11.0651 4.51208 10.9218 4.65536L7.07974 8.49744C6.93646 8.64072 6.93646 8.87301 7.07974 9.01629L10.9218 12.8584Z" fill="url(#paint11_linear_962_1668)"/>
<path d="M10.9218 12.8584C11.0651 13.0016 11.2974 13.0017 11.4407 12.8584L15.2828 9.01629C15.426 8.87301 15.426 8.64072 15.2828 8.49744L11.4407 4.65536C11.2974 4.51208 11.0651 4.51208 10.9218 4.65536L7.07974 8.49744C6.93646 8.64072 6.93646 8.87301 7.07974 9.01629L10.9218 12.8584Z" fill="url(#paint12_linear_962_1668)" fill-opacity="0.5"/>
<path d="M10.9218 12.8584C11.0651 13.0016 11.2974 13.0017 11.4407 12.8584L15.2828 9.01629C15.426 8.87301 15.426 8.64072 15.2828 8.49744L11.4407 4.65536C11.2974 4.51208 11.0651 4.51208 10.9218 4.65536L7.07974 8.49744C6.93646 8.64072 6.93646 8.87301 7.07974 9.01629L10.9218 12.8584Z" fill="url(#paint13_radial_962_1668)"/>
<path d="M10.921 26.4492C11.0643 26.5925 11.2966 26.5925 11.4399 26.4492L22.1015 15.7876C22.2447 15.6443 22.2447 15.412 22.1015 15.2687L11.4399 4.60715C11.2966 4.46387 11.0643 4.46387 10.921 4.60715L0.259423 15.2687C0.116147 15.412 0.116148 15.6443 0.259423 15.7876L10.921 26.4492Z" fill="url(#paint14_linear_962_1668)"/>
<path d="M10.921 26.4492C11.0643 26.5925 11.2966 26.5925 11.4399 26.4492L22.1015 15.7876C22.2447 15.6443 22.2447 15.412 22.1015 15.2687L11.4399 4.60715C11.2966 4.46387 11.0643 4.46387 10.921 4.60715L0.259423 15.2687C0.116147 15.412 0.116148 15.6443 0.259423 15.7876L10.921 26.4492Z" fill="url(#paint15_radial_962_1668)"/>
<g filter="url(#filter2_i_962_1668)">
<path d="M10.9219 23.1087C11.0652 23.252 11.2974 23.252 11.4407 23.1087L18.7619 15.7876C18.9051 15.6443 18.9051 15.412 18.7619 15.2688L11.4407 7.94761C11.2974 7.80433 11.0652 7.80433 10.9219 7.94761L3.60073 15.2688C3.45746 15.412 3.45746 15.6443 3.60073 15.7876L10.9219 23.1087Z" fill="url(#paint16_linear_962_1668)"/>
<path d="M10.9219 23.1087C11.0652 23.252 11.2974 23.252 11.4407 23.1087L18.7619 15.7876C18.9051 15.6443 18.9051 15.412 18.7619 15.2688L11.4407 7.94761C11.2974 7.80433 11.0652 7.80433 10.9219 7.94761L3.60073 15.2688C3.45746 15.412 3.45746 15.6443 3.60073 15.7876L10.9219 23.1087Z" fill="url(#paint17_radial_962_1668)"/>
<path d="M10.9219 23.1087C11.0652 23.252 11.2974 23.252 11.4407 23.1087L18.7619 15.7876C18.9051 15.6443 18.9051 15.412 18.7619 15.2688L11.4407 7.94761C11.2974 7.80433 11.0652 7.80433 10.9219 7.94761L3.60073 15.2688C3.45746 15.412 3.45746 15.6443 3.60073 15.7876L10.9219 23.1087Z" fill="black" fill-opacity="0.5"/>
</g>
<path d="M10.922 22.2553C11.0653 22.3986 11.2975 22.3986 11.4408 22.2553L17.9085 15.7876C18.0518 15.6443 18.0518 15.412 17.9085 15.2688L11.4408 8.80105C11.2975 8.65777 11.0653 8.65777 10.922 8.80105L4.45425 15.2688C4.31097 15.412 4.31097 15.6443 4.45425 15.7876L10.922 22.2553Z" fill="url(#paint18_linear_962_1668)"/>
<path d="M10.922 22.2553C11.0653 22.3986 11.2975 22.3986 11.4408 22.2553L17.9085 15.7876C18.0518 15.6443 18.0518 15.412 17.9085 15.2688L11.4408 8.80105C11.2975 8.65777 11.0653 8.65777 10.922 8.80105L4.45425 15.2688C4.31097 15.412 4.31097 15.6443 4.45425 15.7876L10.922 22.2553Z" fill="url(#paint19_linear_962_1668)" fill-opacity="0.5"/>
<path d="M10.922 22.2553C11.0653 22.3986 11.2975 22.3986 11.4408 22.2553L17.9085 15.7876C18.0518 15.6443 18.0518 15.412 17.9085 15.2688L11.4408 8.80105C11.2975 8.65777 11.0653 8.65777 10.922 8.80105L4.45425 15.2688C4.31097 15.412 4.31097 15.6443 4.45425 15.7876L10.922 22.2553Z" fill="url(#paint20_radial_962_1668)"/>
<path d="M171.203 30.1477C171.346 30.291 171.578 30.291 171.722 30.1477L179.286 22.5832C179.429 22.4399 179.429 22.2076 179.286 22.0643L171.722 14.4998C171.578 14.3566 171.346 14.3566 171.203 14.4998L163.638 22.0643C163.495 22.2076 163.495 22.4399 163.638 22.5832L171.203 30.1477Z" fill="url(#paint21_linear_962_1668)"/>
<path d="M171.203 30.1477C171.346 30.291 171.578 30.291 171.722 30.1477L179.286 22.5832C179.429 22.4399 179.429 22.2076 179.286 22.0643L171.722 14.4998C171.578 14.3566 171.346 14.3566 171.203 14.4998L163.638 22.0643C163.495 22.2076 163.495 22.4399 163.638 22.5832L171.203 30.1477Z" fill="url(#paint22_radial_962_1668)"/>
<g filter="url(#filter3_i_962_1668)">
<path d="M171.203 27.9495C171.346 28.0928 171.578 28.0928 171.722 27.9495L177.088 22.5832C177.231 22.4399 177.231 22.2076 177.088 22.0644L171.722 16.6981C171.578 16.5548 171.346 16.5548 171.203 16.6981L165.837 22.0644C165.693 22.2076 165.693 22.4399 165.837 22.5832L171.203 27.9495Z" fill="url(#paint23_linear_962_1668)"/>
<path d="M171.203 27.9495C171.346 28.0928 171.578 28.0928 171.722 27.9495L177.088 22.5832C177.231 22.4399 177.231 22.2076 177.088 22.0644L171.722 16.6981C171.578 16.5548 171.346 16.5548 171.203 16.6981L165.837 22.0644C165.693 22.2076 165.693 22.4399 165.837 22.5832L171.203 27.9495Z" fill="url(#paint24_radial_962_1668)"/>
<path d="M171.203 27.9495C171.346 28.0928 171.578 28.0928 171.722 27.9495L177.088 22.5832C177.231 22.4399 177.231 22.2076 177.088 22.0644L171.722 16.6981C171.578 16.5548 171.346 16.5548 171.203 16.6981L165.837 22.0644C165.693 22.2076 165.693 22.4399 165.837 22.5832L171.203 27.9495Z" fill="black" fill-opacity="0.5"/>
</g>
<path d="M171.203 26.4253C171.346 26.5685 171.579 26.5685 171.722 26.4253L175.564 22.5832C175.707 22.4399 175.707 22.2076 175.564 22.0643L171.722 18.2223C171.579 18.079 171.346 18.079 171.203 18.2223L167.361 22.0643C167.218 22.2076 167.218 22.4399 167.361 22.5832L171.203 26.4253Z" fill="url(#paint25_linear_962_1668)"/>
<path d="M171.203 26.4253C171.346 26.5685 171.579 26.5685 171.722 26.4253L175.564 22.5832C175.707 22.4399 175.707 22.2076 175.564 22.0643L171.722 18.2223C171.579 18.079 171.346 18.079 171.203 18.2223L167.361 22.0643C167.218 22.2076 167.218 22.4399 167.361 22.5832L171.203 26.4253Z" fill="url(#paint26_linear_962_1668)" fill-opacity="0.5"/>
<path d="M171.203 26.4253C171.346 26.5685 171.579 26.5685 171.722 26.4253L175.564 22.5832C175.707 22.4399 175.707 22.2076 175.564 22.0643L171.722 18.2223C171.579 18.079 171.346 18.079 171.203 18.2223L167.361 22.0643C167.218 22.2076 167.218 22.4399 167.361 22.5832L171.203 26.4253Z" fill="url(#paint27_radial_962_1668)"/>
<path d="M171.203 16.5564C171.346 16.6997 171.578 16.6997 171.722 16.5564L179.286 8.99194C179.429 8.84866 179.429 8.61637 179.286 8.47309L171.722 0.908597C171.578 0.765321 171.346 0.765321 171.203 0.908597L163.638 8.47309C163.495 8.61637 163.495 8.84866 163.638 8.99194L171.203 16.5564Z" fill="url(#paint28_linear_962_1668)"/>
<path d="M171.203 16.5564C171.346 16.6997 171.578 16.6997 171.722 16.5564L179.286 8.99194C179.429 8.84866 179.429 8.61637 179.286 8.47309L171.722 0.908597C171.578 0.765321 171.346 0.765321 171.203 0.908597L163.638 8.47309C163.495 8.61637 163.495 8.84866 163.638 8.99194L171.203 16.5564Z" fill="url(#paint29_radial_962_1668)"/>
<g filter="url(#filter4_i_962_1668)">
<path d="M171.203 14.3583C171.346 14.5015 171.578 14.5015 171.722 14.3583L177.088 8.99196C177.231 8.84869 177.231 8.61639 177.088 8.47312L171.722 3.10683C171.578 2.96356 171.346 2.96356 171.203 3.10683L165.837 8.47312C165.693 8.61639 165.693 8.84869 165.837 8.99196L171.203 14.3583Z" fill="url(#paint30_linear_962_1668)"/>
<path d="M171.203 14.3583C171.346 14.5015 171.578 14.5015 171.722 14.3583L177.088 8.99196C177.231 8.84869 177.231 8.61639 177.088 8.47312L171.722 3.10683C171.578 2.96356 171.346 2.96356 171.203 3.10683L165.837 8.47312C165.693 8.61639 165.693 8.84869 165.837 8.99196L171.203 14.3583Z" fill="url(#paint31_radial_962_1668)"/>
<path d="M171.203 14.3583C171.346 14.5015 171.578 14.5015 171.722 14.3583L177.088 8.99196C177.231 8.84869 177.231 8.61639 177.088 8.47312L171.722 3.10683C171.578 2.96356 171.346 2.96356 171.203 3.10683L165.837 8.47312C165.693 8.61639 165.693 8.84869 165.837 8.99196L171.203 14.3583Z" fill="black" fill-opacity="0.5"/>
</g>
<path d="M171.203 12.834C171.346 12.9773 171.579 12.9773 171.722 12.834L175.564 8.99194C175.707 8.84866 175.707 8.61637 175.564 8.47309L171.722 4.63101C171.579 4.48773 171.346 4.48773 171.203 4.63101L167.361 8.47309C167.218 8.61637 167.218 8.84866 167.361 8.99194L171.203 12.834Z" fill="url(#paint32_linear_962_1668)"/>
<path d="M171.203 12.834C171.346 12.9773 171.579 12.9773 171.722 12.834L175.564 8.99194C175.707 8.84866 175.707 8.61637 175.564 8.47309L171.722 4.63101C171.579 4.48773 171.346 4.48773 171.203 4.63101L167.361 8.47309C167.218 8.61637 167.218 8.84866 167.361 8.99194L171.203 12.834Z" fill="url(#paint33_linear_962_1668)" fill-opacity="0.5"/>
<path d="M171.203 12.834C171.346 12.9773 171.579 12.9773 171.722 12.834L175.564 8.99194C175.707 8.84866 175.707 8.61637 175.564 8.47309L171.722 4.63101C171.579 4.48773 171.346 4.48773 171.203 4.63101L167.361 8.47309C167.218 8.61637 167.218 8.84866 167.361 8.99194L171.203 12.834Z" fill="url(#paint34_radial_962_1668)"/>
<path d="M171.202 26.4248C171.346 26.5681 171.578 26.5681 171.721 26.4248L182.383 15.7632C182.526 15.62 182.526 15.3877 182.383 15.2444L171.721 4.58279C171.578 4.43952 171.346 4.43952 171.202 4.58279L160.541 15.2444C160.397 15.3877 160.397 15.62 160.541 15.7632L171.202 26.4248Z" fill="url(#paint35_linear_962_1668)"/>
<path d="M171.202 26.4248C171.346 26.5681 171.578 26.5681 171.721 26.4248L182.383 15.7632C182.526 15.62 182.526 15.3877 182.383 15.2444L171.721 4.58279C171.578 4.43952 171.346 4.43952 171.202 4.58279L160.541 15.2444C160.397 15.3877 160.397 15.62 160.541 15.7632L171.202 26.4248Z" fill="url(#paint36_radial_962_1668)"/>
<g filter="url(#filter5_i_962_1668)">
<path d="M171.203 23.0844C171.346 23.2277 171.579 23.2277 171.722 23.0844L179.043 15.7633C179.186 15.62 179.186 15.3877 179.043 15.2445L171.722 7.92332C171.579 7.78004 171.346 7.78004 171.203 7.92332L163.882 15.2445C163.739 15.3877 163.739 15.62 163.882 15.7633L171.203 23.0844Z" fill="url(#paint37_linear_962_1668)"/>
<path d="M171.203 23.0844C171.346 23.2277 171.579 23.2277 171.722 23.0844L179.043 15.7633C179.186 15.62 179.186 15.3877 179.043 15.2445L171.722 7.92332C171.579 7.78004 171.346 7.78004 171.203 7.92332L163.882 15.2445C163.739 15.3877 163.739 15.62 163.882 15.7633L171.203 23.0844Z" fill="url(#paint38_radial_962_1668)"/>
<path d="M171.203 23.0844C171.346 23.2277 171.579 23.2277 171.722 23.0844L179.043 15.7633C179.186 15.62 179.186 15.3877 179.043 15.2445L171.722 7.92332C171.579 7.78004 171.346 7.78004 171.203 7.92332L163.882 15.2445C163.739 15.3877 163.739 15.62 163.882 15.7633L171.203 23.0844Z" fill="black" fill-opacity="0.5"/>
</g>
<path d="M171.203 22.231C171.347 22.3743 171.579 22.3743 171.722 22.231L178.19 15.7633C178.333 15.62 178.333 15.3877 178.19 15.2444L171.722 8.77669C171.579 8.63342 171.347 8.63342 171.203 8.77669L164.735 15.2444C164.592 15.3877 164.592 15.62 164.735 15.7633L171.203 22.231Z" fill="url(#paint39_linear_962_1668)"/>
<path d="M171.203 22.231C171.347 22.3743 171.579 22.3743 171.722 22.231L178.19 15.7633C178.333 15.62 178.333 15.3877 178.19 15.2444L171.722 8.77669C171.579 8.63342 171.347 8.63342 171.203 8.77669L164.735 15.2444C164.592 15.3877 164.592 15.62 164.735 15.7633L171.203 22.231Z" fill="url(#paint40_linear_962_1668)" fill-opacity="0.5"/>
<path d="M171.203 22.231C171.347 22.3743 171.579 22.3743 171.722 22.231L178.19 15.7633C178.333 15.62 178.333 15.3877 178.19 15.2444L171.722 8.77669C171.579 8.63342 171.347 8.63342 171.203 8.77669L164.735 15.2444C164.592 15.3877 164.592 15.62 164.735 15.7633L171.203 22.231Z" fill="url(#paint41_radial_962_1668)"/>
<defs>
<filter id="filter0_i_962_1668" x="5.44775" y="16.615" width="11.4663" height="12.2001" filterUnits="userSpaceOnUse" color-interpolation-filters="sRGB">
<feFlood flood-opacity="0" result="BackgroundImageFix"/>
<feBlend mode="normal" in="SourceGraphic" in2="BackgroundImageFix" result="shape"/>
<feColorMatrix in="SourceAlpha" type="matrix" values="0 0 0 0 0 0 0 0 0 0 0 0 0 0 0 0 0 0 127 0" result="hardAlpha"/>
<feOffset dy="0.733759"/>
<feGaussianBlur stdDeviation="0.678727"/>
<feComposite in2="hardAlpha" operator="arithmetic" k2="-1" k3="1"/>
<feColorMatrix type="matrix" values="0 0 0 0 0 0 0 0 0 0 0 0 0 0 0 0 0 0 0.8 0"/>
<feBlend mode="normal" in2="shape" result="effect1_innerShadow_962_1668"/>
</filter>
<filter id="filter1_i_962_1668" x="5.44775" y="3.02374" width="11.4663" height="12.2001" filterUnits="userSpaceOnUse" color-interpolation-filters="sRGB">
<feFlood flood-opacity="0" result="BackgroundImageFix"/>
<feBlend mode="normal" in="SourceGraphic" in2="BackgroundImageFix" result="shape"/>
<feColorMatrix in="SourceAlpha" type="matrix" values="0 0 0 0 0 0 0 0 0 0 0 0 0 0 0 0 0 0 127 0" result="hardAlpha"/>
<feOffset dy="0.733759"/>
<feGaussianBlur stdDeviation="0.678727"/>
<feComposite in2="hardAlpha" operator="arithmetic" k2="-1" k3="1"/>
<feColorMatrix type="matrix" values="0 0 0 0 0 0 0 0 0 0 0 0 0 0 0 0 0 0 0.8 0"/>
<feBlend mode="normal" in2="shape" result="effect1_innerShadow_962_1668"/>
</filter>
<filter id="filter2_i_962_1668" x="3.49316" y="7.84015" width="15.376" height="16.1098" filterUnits="userSpaceOnUse" color-interpolation-filters="sRGB">
<feFlood flood-opacity="0" result="BackgroundImageFix"/>
<feBlend mode="normal" in="SourceGraphic" in2="BackgroundImageFix" result="shape"/>
<feColorMatrix in="SourceAlpha" type="matrix" values="0 0 0 0 0 0 0 0 0 0 0 0 0 0 0 0 0 0 127 0" result="hardAlpha"/>
<feOffset dy="0.733759"/>
<feGaussianBlur stdDeviation="0.678727"/>
<feComposite in2="hardAlpha" operator="arithmetic" k2="-1" k3="1"/>
<feColorMatrix type="matrix" values="0 0 0 0 0 0 0 0 0 0 0 0 0 0 0 0 0 0 0.8 0"/>
<feBlend mode="normal" in2="shape" result="effect1_innerShadow_962_1668"/>
</filter>
<filter id="filter3_i_962_1668" x="165.729" y="16.5906" width="11.4663" height="12.2001" filterUnits="userSpaceOnUse" color-interpolation-filters="sRGB">
<feFlood flood-opacity="0" result="BackgroundImageFix"/>
<feBlend mode="normal" in="SourceGraphic" in2="BackgroundImageFix" result="shape"/>
<feColorMatrix in="SourceAlpha" type="matrix" values="0 0 0 0 0 0 0 0 0 0 0 0 0 0 0 0 0 0 127 0" result="hardAlpha"/>
<feOffset dy="0.733759"/>
<feGaussianBlur stdDeviation="0.678727"/>
<feComposite in2="hardAlpha" operator="arithmetic" k2="-1" k3="1"/>
<feColorMatrix type="matrix" values="0 0 0 0 0 0 0 0 0 0 0 0 0 0 0 0 0 0 0.8 0"/>
<feBlend mode="normal" in2="shape" result="effect1_innerShadow_962_1668"/>
</filter>
<filter id="filter4_i_962_1668" x="165.729" y="2.99939" width="11.4663" height="12.2001" filterUnits="userSpaceOnUse" color-interpolation-filters="sRGB">
<feFlood flood-opacity="0" result="BackgroundImageFix"/>
<feBlend mode="normal" in="SourceGraphic" in2="BackgroundImageFix" result="shape"/>
<feColorMatrix in="SourceAlpha" type="matrix" values="0 0 0 0 0 0 0 0 0 0 0 0 0 0 0 0 0 0 127 0" result="hardAlpha"/>
<feOffset dy="0.733759"/>
<feGaussianBlur stdDeviation="0.678727"/>
<feComposite in2="hardAlpha" operator="arithmetic" k2="-1" k3="1"/>
<feColorMatrix type="matrix" values="0 0 0 0 0 0 0 0 0 0 0 0 0 0 0 0 0 0 0.8 0"/>
<feBlend mode="normal" in2="shape" result="effect1_innerShadow_962_1668"/>
</filter>
<filter id="filter5_i_962_1668" x="163.774" y="7.81586" width="15.376" height="16.1098" filterUnits="userSpaceOnUse" color-interpolation-filters="sRGB">
<feFlood flood-opacity="0" result="BackgroundImageFix"/>
<feBlend mode="normal" in="SourceGraphic" in2="BackgroundImageFix" result="shape"/>
<feColorMatrix in="SourceAlpha" type="matrix" values="0 0 0 0 0 0 0 0 0 0 0 0 0 0 0 0 0 0 127 0" result="hardAlpha"/>
<feOffset dy="0.733759"/>
<feGaussianBlur stdDeviation="0.678727"/>
<feComposite in2="hardAlpha" operator="arithmetic" k2="-1" k3="1"/>
<feColorMatrix type="matrix" values="0 0 0 0 0 0 0 0 0 0 0 0 0 0 0 0 0 0 0.8 0"/>
<feBlend mode="normal" in2="shape" result="effect1_innerShadow_962_1668"/>
</filter>
<linearGradient id="paint0_linear_962_1668" x1="11.181" y1="30.4315" x2="11.181" y2="14.2648" gradientUnits="userSpaceOnUse">
<stop stop-color="#FFFFF6"/>
<stop offset="0.489524" stop-color="#E6D375"/>
<stop offset="0.507857" stop-color="#261600"/>
<stop offset="1" stop-color="#5B4905"/>
</linearGradient>
<radialGradient id="paint1_radial_962_1668" cx="0" cy="0" r="1" gradientUnits="userSpaceOnUse" gradientTransform="translate(17.4895 26.2433) rotate(-143.869) scale(13.7868)">
<stop stop-color="#916619"/>
<stop offset="1" stop-color="#FFC55D" stop-opacity="0"/>
</radialGradient>
<linearGradient id="paint2_linear_962_1668" x1="11.181" y1="28.2333" x2="11.181" y2="16.463" gradientUnits="userSpaceOnUse">
<stop stop-color="#FFFFF6"/>
<stop offset="0.489524" stop-color="#E6D375"/>
<stop offset="0.507857" stop-color="#261600"/>
<stop offset="1" stop-color="#5B4905"/>
</linearGradient>
<radialGradient id="paint3_radial_962_1668" cx="0" cy="0" r="1" gradientUnits="userSpaceOnUse" gradientTransform="translate(15.774 25.1841) rotate(-143.869) scale(10.0376)">
<stop stop-color="#916619"/>
<stop offset="1" stop-color="#FFC55D" stop-opacity="0"/>
</radialGradient>
<linearGradient id="paint4_linear_962_1668" x1="11.1812" y1="26.709" x2="11.1812" y2="17.9872" gradientUnits="userSpaceOnUse">
<stop stop-color="#C1F0FF"/>
<stop offset="0.489524" stop-color="#00EFFF"/>
<stop offset="0.516666" stop-color="#0085FF"/>
<stop offset="1" stop-color="#00E0FF"/>
</linearGradient>
<linearGradient id="paint5_linear_962_1668" x1="6.82031" y1="22.3481" x2="15.5422" y2="22.3481" gradientUnits="userSpaceOnUse">
<stop stop-color="#149DF2"/>
<stop offset="0.48744" stop-color="#C8EBFF"/>
<stop offset="0.508881" stop-color="#0377FF"/>
<stop offset="1" stop-color="#23B9FA"/>
</linearGradient>
<radialGradient id="paint6_radial_962_1668" cx="0" cy="0" r="1" gradientUnits="userSpaceOnUse" gradientTransform="translate(13.8768 20.6378) rotate(144.125) scale(5.1696)">
<stop stop-color="#0066FF"/>
<stop offset="1" stop-color="#0066FF" stop-opacity="0"/>
</radialGradient>
<linearGradient id="paint7_linear_962_1668" x1="11.181" y1="16.8402" x2="11.181" y2="0.673527" gradientUnits="userSpaceOnUse">
<stop stop-color="#FFFFF6"/>
<stop offset="0.489524" stop-color="#E6D375"/>
<stop offset="0.507857" stop-color="#261600"/>
<stop offset="1" stop-color="#5B4905"/>
</linearGradient>
<radialGradient id="paint8_radial_962_1668" cx="0" cy="0" r="1" gradientUnits="userSpaceOnUse" gradientTransform="translate(17.4895 12.6521) rotate(-143.869) scale(13.7868)">
<stop stop-color="#916619"/>
<stop offset="1" stop-color="#FFC55D" stop-opacity="0"/>
</radialGradient>
<linearGradient id="paint9_linear_962_1668" x1="11.181" y1="14.642" x2="11.181" y2="2.87176" gradientUnits="userSpaceOnUse">
<stop stop-color="#FFFFF6"/>
<stop offset="0.489524" stop-color="#E6D375"/>
<stop offset="0.507857" stop-color="#261600"/>
<stop offset="1" stop-color="#5B4905"/>
</linearGradient>
<radialGradient id="paint10_radial_962_1668" cx="0" cy="0" r="1" gradientUnits="userSpaceOnUse" gradientTransform="translate(15.774 11.5928) rotate(-143.869) scale(10.0376)">
<stop stop-color="#916619"/>
<stop offset="1" stop-color="#FFC55D" stop-opacity="0"/>
</radialGradient>
<linearGradient id="paint11_linear_962_1668" x1="11.1812" y1="13.1178" x2="11.1812" y2="4.39594" gradientUnits="userSpaceOnUse">
<stop stop-color="#C1F0FF"/>
<stop offset="0.489524" stop-color="#00EFFF"/>
<stop offset="0.516666" stop-color="#0085FF"/>
<stop offset="1" stop-color="#00E0FF"/>
</linearGradient>
<linearGradient id="paint12_linear_962_1668" x1="6.82031" y1="8.75687" x2="15.5422" y2="8.75687" gradientUnits="userSpaceOnUse">
<stop stop-color="#149DF2"/>
<stop offset="0.48744" stop-color="#C8EBFF"/>
<stop offset="0.508881" stop-color="#0377FF"/>
<stop offset="1" stop-color="#23B9FA"/>
</linearGradient>
<radialGradient id="paint13_radial_962_1668" cx="0" cy="0" r="1" gradientUnits="userSpaceOnUse" gradientTransform="translate(13.8768 7.04651) rotate(144.125) scale(5.1696)">
<stop stop-color="#0066FF"/>
<stop offset="1" stop-color="#0066FF" stop-opacity="0"/>
</radialGradient>
<linearGradient id="paint14_linear_962_1668" x1="11.1804" y1="26.7086" x2="11.1804" y2="4.34772" gradientUnits="userSpaceOnUse">
<stop stop-color="#FFFFF6"/>
<stop offset="0.489524" stop-color="#E6D375"/>
<stop offset="0.507857" stop-color="#261600"/>
<stop offset="1" stop-color="#5B4905"/>
</linearGradient>
<radialGradient id="paint15_radial_962_1668" cx="0" cy="0" r="1" gradientUnits="userSpaceOnUse" gradientTransform="translate(19.9061 20.9158) rotate(-143.869) scale(19.0691)">
<stop stop-color="#916619"/>
<stop offset="1" stop-color="#FFC55D" stop-opacity="0"/>
</radialGradient>
<linearGradient id="paint16_linear_962_1668" x1="11.1813" y1="23.3682" x2="11.1813" y2="7.68818" gradientUnits="userSpaceOnUse">
<stop stop-color="#FFFFF6"/>
<stop offset="0.489524" stop-color="#E6D375"/>
<stop offset="0.507857" stop-color="#261600"/>
<stop offset="1" stop-color="#5B4905"/>
</linearGradient>
<radialGradient id="paint17_radial_962_1668" cx="0" cy="0" r="1" gradientUnits="userSpaceOnUse" gradientTransform="translate(17.2999 19.3061) rotate(-143.869) scale(13.3717)">
<stop stop-color="#916619"/>
<stop offset="1" stop-color="#FFC55D" stop-opacity="0"/>
</radialGradient>
<linearGradient id="paint18_linear_962_1668" x1="11.1814" y1="22.5148" x2="11.1814" y2="8.54162" gradientUnits="userSpaceOnUse">
<stop stop-color="#C1F0FF"/>
<stop offset="0.489524" stop-color="#00EFFF"/>
<stop offset="0.516666" stop-color="#0085FF"/>
<stop offset="1" stop-color="#00E0FF"/>
</linearGradient>
<linearGradient id="paint19_linear_962_1668" x1="4.19482" y1="15.5282" x2="18.168" y2="15.5282" gradientUnits="userSpaceOnUse">
<stop stop-color="#149DF2"/>
<stop offset="0.48744" stop-color="#C8EBFF"/>
<stop offset="0.508881" stop-color="#0377FF"/>
<stop offset="1" stop-color="#23B9FA"/>
</linearGradient>
<radialGradient id="paint20_radial_962_1668" cx="0" cy="0" r="1" gradientUnits="userSpaceOnUse" gradientTransform="translate(15.4999 12.7881) rotate(144.125) scale(8.28213)">
<stop stop-color="#0066FF"/>
<stop offset="1" stop-color="#0066FF" stop-opacity="0"/>
</radialGradient>
<linearGradient id="paint21_linear_962_1668" x1="171.462" y1="30.4071" x2="171.462" y2="14.2404" gradientUnits="userSpaceOnUse">
<stop stop-color="#FFFFF6"/>
<stop offset="0.489524" stop-color="#E6D375"/>
<stop offset="0.507857" stop-color="#261600"/>
<stop offset="1" stop-color="#5B4905"/>
</linearGradient>
<radialGradient id="paint22_radial_962_1668" cx="0" cy="0" r="1" gradientUnits="userSpaceOnUse" gradientTransform="translate(177.771 26.219) rotate(-143.869) scale(13.7868)">
<stop stop-color="#916619"/>
<stop offset="1" stop-color="#FFC55D" stop-opacity="0"/>
</radialGradient>
<linearGradient id="paint23_linear_962_1668" x1="171.462" y1="28.2089" x2="171.462" y2="16.4387" gradientUnits="userSpaceOnUse">
<stop stop-color="#FFFFF6"/>
<stop offset="0.489524" stop-color="#E6D375"/>
<stop offset="0.507857" stop-color="#261600"/>
<stop offset="1" stop-color="#5B4905"/>
</linearGradient>
<radialGradient id="paint24_radial_962_1668" cx="0" cy="0" r="1" gradientUnits="userSpaceOnUse" gradientTransform="translate(176.055 25.1597) rotate(-143.869) scale(10.0376)">
<stop stop-color="#916619"/>
<stop offset="1" stop-color="#FFC55D" stop-opacity="0"/>
</radialGradient>
<linearGradient id="paint25_linear_962_1668" x1="171.462" y1="26.6847" x2="171.462" y2="17.9628" gradientUnits="userSpaceOnUse">
<stop stop-color="#C1F0FF"/>
<stop offset="0.489524" stop-color="#00EFFF"/>
<stop offset="0.516666" stop-color="#0085FF"/>
<stop offset="1" stop-color="#00E0FF"/>
</linearGradient>
<linearGradient id="paint26_linear_962_1668" x1="167.102" y1="22.3238" x2="175.823" y2="22.3238" gradientUnits="userSpaceOnUse">
<stop stop-color="#149DF2"/>
<stop offset="0.48744" stop-color="#C8EBFF"/>
<stop offset="0.508881" stop-color="#0377FF"/>
<stop offset="1" stop-color="#23B9FA"/>
</linearGradient>
<radialGradient id="paint27_radial_962_1668" cx="0" cy="0" r="1" gradientUnits="userSpaceOnUse" gradientTransform="translate(174.158 20.6134) rotate(144.125) scale(5.1696)">
<stop stop-color="#0066FF"/>
<stop offset="1" stop-color="#0066FF" stop-opacity="0"/>
</radialGradient>
<linearGradient id="paint28_linear_962_1668" x1="171.462" y1="16.8159" x2="171.462" y2="0.649174" gradientUnits="userSpaceOnUse">
<stop stop-color="#FFFFF6"/>
<stop offset="0.489524" stop-color="#E6D375"/>
<stop offset="0.507857" stop-color="#261600"/>
<stop offset="1" stop-color="#5B4905"/>
</linearGradient>
<radialGradient id="paint29_radial_962_1668" cx="0" cy="0" r="1" gradientUnits="userSpaceOnUse" gradientTransform="translate(177.771 12.6277) rotate(-143.869) scale(13.7868)">
<stop stop-color="#916619"/>
<stop offset="1" stop-color="#FFC55D" stop-opacity="0"/>
</radialGradient>
<linearGradient id="paint30_linear_962_1668" x1="171.462" y1="14.6177" x2="171.462" y2="2.84741" gradientUnits="userSpaceOnUse">
<stop stop-color="#FFFFF6"/>
<stop offset="0.489524" stop-color="#E6D375"/>
<stop offset="0.507857" stop-color="#261600"/>
<stop offset="1" stop-color="#5B4905"/>
</linearGradient>
<radialGradient id="paint31_radial_962_1668" cx="0" cy="0" r="1" gradientUnits="userSpaceOnUse" gradientTransform="translate(176.055 11.5685) rotate(-143.869) scale(10.0376)">
<stop stop-color="#916619"/>
<stop offset="1" stop-color="#FFC55D" stop-opacity="0"/>
</radialGradient>
<linearGradient id="paint32_linear_962_1668" x1="171.462" y1="13.0934" x2="171.462" y2="4.37158" gradientUnits="userSpaceOnUse">
<stop stop-color="#C1F0FF"/>
<stop offset="0.489524" stop-color="#00EFFF"/>
<stop offset="0.516666" stop-color="#0085FF"/>
<stop offset="1" stop-color="#00E0FF"/>
</linearGradient>
<linearGradient id="paint33_linear_962_1668" x1="167.102" y1="8.73251" x2="175.823" y2="8.73251" gradientUnits="userSpaceOnUse">
<stop stop-color="#149DF2"/>
<stop offset="0.48744" stop-color="#C8EBFF"/>
<stop offset="0.508881" stop-color="#0377FF"/>
<stop offset="1" stop-color="#23B9FA"/>
</linearGradient>
<radialGradient id="paint34_radial_962_1668" cx="0" cy="0" r="1" gradientUnits="userSpaceOnUse" gradientTransform="translate(174.158 7.02215) rotate(144.125) scale(5.1696)">
<stop stop-color="#0066FF"/>
<stop offset="1" stop-color="#0066FF" stop-opacity="0"/>
</radialGradient>
<linearGradient id="paint35_linear_962_1668" x1="171.462" y1="26.6843" x2="171.462" y2="4.32337" gradientUnits="userSpaceOnUse">
<stop stop-color="#FFFFF6"/>
<stop offset="0.489524" stop-color="#E6D375"/>
<stop offset="0.507857" stop-color="#261600"/>
<stop offset="1" stop-color="#5B4905"/>
</linearGradient>
<radialGradient id="paint36_radial_962_1668" cx="0" cy="0" r="1" gradientUnits="userSpaceOnUse" gradientTransform="translate(180.187 20.8915) rotate(-143.869) scale(19.0691)">
<stop stop-color="#916619"/>
<stop offset="1" stop-color="#FFC55D" stop-opacity="0"/>
</radialGradient>
<linearGradient id="paint37_linear_962_1668" x1="171.463" y1="23.3439" x2="171.463" y2="7.66389" gradientUnits="userSpaceOnUse">
<stop stop-color="#FFFFF6"/>
<stop offset="0.489524" stop-color="#E6D375"/>
<stop offset="0.507857" stop-color="#261600"/>
<stop offset="1" stop-color="#5B4905"/>
</linearGradient>
<radialGradient id="paint38_radial_962_1668" cx="0" cy="0" r="1" gradientUnits="userSpaceOnUse" gradientTransform="translate(177.581 19.2818) rotate(-143.869) scale(13.3717)">
<stop stop-color="#916619"/>
<stop offset="1" stop-color="#FFC55D" stop-opacity="0"/>
</radialGradient>
<linearGradient id="paint39_linear_962_1668" x1="171.463" y1="22.4904" x2="171.463" y2="8.51727" gradientUnits="userSpaceOnUse">
<stop stop-color="#C1F0FF"/>
<stop offset="0.489524" stop-color="#00EFFF"/>
<stop offset="0.516666" stop-color="#0085FF"/>
<stop offset="1" stop-color="#00E0FF"/>
</linearGradient>
<linearGradient id="paint40_linear_962_1668" x1="164.476" y1="15.5038" x2="178.449" y2="15.5038" gradientUnits="userSpaceOnUse">
<stop stop-color="#149DF2"/>
<stop offset="0.48744" stop-color="#C8EBFF"/>
<stop offset="0.508881" stop-color="#0377FF"/>
<stop offset="1" stop-color="#23B9FA"/>
</linearGradient>
<radialGradient id="paint41_radial_962_1668" cx="0" cy="0" r="1" gradientUnits="userSpaceOnUse" gradientTransform="translate(175.781 12.7637) rotate(144.125) scale(8.28213)">
<stop stop-color="#0066FF"/>
<stop offset="1" stop-color="#0066FF" stop-opacity="0"/>
</radialGradient>
</defs>
</svg>
