<svg width="95" height="93" viewBox="0 0 95 93" fill="none" xmlns="http://www.w3.org/2000/svg">
<path d="M7.44841 45.0106C9.60359 44.8529 10.2301 46.9161 10.2739 47.9674C10.2739 48.0563 10.3904 48.2753 10.8563 48.4401C11.4386 48.6461 12.0064 48.1998 12.2468 47.7706C12.4391 47.4273 12.3269 46.8951 12.2468 46.6719C12.1037 46.6491 11.7627 46.514 11.5429 46.1569C11.2683 45.7106 10.9249 45.0106 9.84342 44.1312C8.7619 43.2519 6.71903 43.1871 4.55731 44.5432C2.3956 45.8994 2.34835 49.0219 3.56974 50.7928C4.79114 52.5636 6.72579 54.3773 9.01905 54.3773C11.3123 54.3773 14.8078 52.764 16.4505 50.7928C18.0931 48.8215 18.2903 45.9304 18.1589 43.9592C18.0537 42.3822 16.3191 40.1482 15.4649 39.2283V37.717H21.9699C22.4955 38.7464 23.56 40.9235 23.6126 41.3966C23.6783 41.988 23.8097 45.6019 23.1526 47.9674C22.4955 50.3329 19.7358 53.7496 16.4505 55.3923C13.1651 57.0349 8.56559 57.3635 6.72579 56.575C4.88599 55.7865 1.60057 53.0925 0.943449 51.4499C0.286329 49.8073 0.154961 47.2446 0.943449 45.0106C1.73194 42.7766 5.28013 40.2796 7.44841 40.2796C9.61669 40.2796 11.588 41.1338 13.2307 42.6451C14.8734 44.1564 14.8734 46.9161 13.7564 49.4787C12.6393 52.0413 9.35398 51.7127 7.44841 51.4499C5.54284 51.1871 4.55731 49.4787 4.55731 47.9674C4.55731 46.4561 4.75444 45.2077 7.44841 45.0106Z" fill="#04111C"/>
<path d="M3.38507 57.245C3.00892 56.9226 1.12364 55.3642 0.228027 54.6253V59.3945L2.44469 59.7303C2.81971 59.596 3.65372 59.1795 3.98963 58.5884C4.40952 57.8495 3.85527 57.648 3.38507 57.245Z" fill="#04111C"/>
<path d="M2.44469 39.2283C2.0954 39.2283 0.821378 38.5665 0.228027 38.2355V25.1707C0.586279 26.1559 1.36324 28.2875 1.60505 28.9323C1.90732 29.7384 1.60505 30.6787 1.60505 31.0482C1.60505 31.3437 1.00051 31.5072 0.698241 31.552C0.63107 32.0334 0.503444 33.0633 0.530313 33.332C0.563898 33.6678 1.20202 34.0373 1.60505 34.1045C2.00808 34.1716 3.78812 34.4403 3.98963 34.5747C4.19114 34.709 4.89644 35.683 5.9376 36.5227C6.97875 37.3623 6.37421 37.717 5.26588 38.2355C4.15756 38.754 2.88131 39.2283 2.44469 39.2283Z" fill="#04111C"/>
<path d="M0.228027 23.2227V19.0245C0.474327 19.0245 1.0341 19.1455 1.30278 19.6291C1.63864 20.2337 2.44469 20.8382 2.84772 21.6778C3.17014 22.3496 6.65409 25.7865 8.35576 27.421C8.44532 28.1599 8.5304 29.7182 8.15425 30.0407C7.68405 30.4437 6.17269 30.4101 5.26588 30.2422C4.35907 30.0742 3.98963 29.6712 3.38509 28.6972C2.78055 27.7232 1.84015 26.4806 1.30278 25.473C0.872886 24.667 0.407156 23.637 0.228027 23.2227Z" fill="#04111C"/>
<path d="M8.15425 25.7417C7.56314 24.9894 4.37027 21.1293 2.84772 19.2933L7.44841 16.3377L11.3449 21.9801C11.8487 22.7974 12.8697 24.5125 12.9234 24.8349C12.9906 25.2379 12.5875 26.6485 11.3449 26.7493C10.1022 26.85 8.89313 26.6821 8.15425 25.7417Z" fill="#04111C"/>
<path d="M0.228027 10.8968V15.3973C0.519108 15.5764 1.32965 15.9414 2.24318 15.9683C3.38509 16.0018 4.0568 15.8339 4.35907 15.3973C4.66134 14.9607 4.02322 14.692 3.55302 14.0875C3.08282 13.4829 1.94091 11.7701 1.30278 11.2327C0.792281 10.8028 0.37357 10.8297 0.228027 10.8968Z" fill="#04111C"/>
<path d="M1.90732 9.85567V7.77337C2.01927 7.53828 2.28348 6.97408 2.44469 6.59792C2.64621 6.12772 4.35907 5.6575 4.93003 5.75826C5.50098 5.85902 6.67648 7.13527 7.81839 8.44511C8.9603 9.75495 8.62444 11.2327 8.15425 11.8373C7.68405 12.4418 6.44138 13.886 5.9376 13.8188C5.43381 13.7516 4.66134 13.1135 4.35907 12.4082C4.11726 11.844 2.62382 10.4714 1.90732 9.85567Z" fill="#04111C"/>
<path d="M1.30278 5.25449C0.819149 5.25449 0.384765 4.94103 0.228027 4.7843V0.55249H7.01233L7.81839 0.754035C7.19146 1.07869 5.62189 2.01682 4.35907 3.17217C2.78055 4.61635 1.90732 5.25449 1.30278 5.25449Z" fill="#04111C"/>
<path d="M8.35576 2.53402C9.08164 1.8623 9.88968 0.933119 10.203 0.55249C10.8075 0.55249 12.077 0.666676 12.3189 1.12342C12.6211 1.69435 13.6623 2.93704 14.1325 3.7431C14.6027 4.54915 14.0989 7.20241 13.6623 7.37034C13.2257 7.53827 10.5052 7.77337 9.76635 6.90014C9.02747 6.02692 7.81839 5.59031 7.81839 5.25449C7.81839 4.91868 7.44841 3.37366 8.35576 2.53402Z" fill="#04111C"/>
<path d="M16.0133 2.26533C15.261 1.53986 15.0953 0.95552 15.1065 0.754035H24.7119C24.544 0.95553 23.8857 1.53988 22.5961 2.26533C20.9839 3.17214 19.439 3.7431 18.2299 3.7431C17.0208 3.7431 16.9537 3.17217 16.0133 2.26533Z" fill="#04111C"/>
<path d="M60.2119 0.754035L36.9707 0.55249L36.6348 0.754035C37.5864 0.95553 39.7382 1.47943 40.7323 1.96306C41.9749 2.5676 45.3671 2.73553 48.1211 2.73553C50.3243 2.73553 53.6963 2.60119 55.1069 2.53402V3.00421C52.8679 3.25051 47.9935 3.7431 46.4082 3.7431C44.823 3.7431 41.6055 3.07138 40.1949 2.73553C38.7731 2.5788 35.4661 2.26533 33.6121 2.26533C31.7582 2.26533 28.0929 2.5788 26.492 2.73553C28.7422 4.12373 33.7801 7.07479 35.9295 7.77337C38.6164 8.64659 43.9565 9.41906 46.1396 9.28472C48.3226 9.15038 50.2034 8.91528 51.8155 7.37034C53.1052 6.13439 57.9505 2.44449 60.2119 0.754035Z" fill="#04111C"/>
<path d="M94.0326 0.754035H64.0743C63.6265 1.2578 62.4756 2.46013 61.4546 3.23931C60.4336 4.0185 57.9841 5.91497 56.887 6.7658H85.737C86.1064 6.5419 87.2215 5.87914 88.7261 5.01935C90.2308 4.15956 92.8907 1.81756 94.0326 0.754035Z" fill="#04111C"/>
<path d="M83.5539 9.28472H54.3009C54.0098 9.44145 53.1052 9.97659 51.8155 10.8632C50.5258 11.7499 47.1807 13.8076 45.6694 14.7256L70.7914 15.0279C71.4519 14.9047 73.532 14.3897 76.5681 13.315C79.6043 12.2403 82.4904 10.1803 83.5539 9.28472Z" fill="#04111C"/>
<path d="M51.8155 17.2445C45.4477 16.8683 42.0645 16.7295 41.1689 16.7071C40.9226 17.043 39.9867 18.0237 38.2134 19.2596C36.44 20.4956 34.8772 20.6926 34.3174 20.6367L34.1159 21.7114C34.4294 21.8569 35.231 22.2823 35.9295 22.8197C36.8028 23.4914 39.624 24.2639 42.1093 24.3311C44.5946 24.3982 49.5653 24.2975 54.5024 22.8197C58.452 21.6375 64.6788 19.2596 67.2985 18.2185L67.097 17.5132C64.6564 17.5804 58.1834 17.6207 51.8155 17.2445Z" fill="#04111C"/>
<path d="M27.7347 23.525L26.1225 24.8349C26.38 25.1372 27.1032 25.9432 27.9362 26.7493C28.7691 27.5553 31.5746 29.2794 32.8733 30.0407H39.1538L40.7323 28.6972C40.4748 28.0479 39.7583 26.6284 38.9522 26.1447C38.1462 25.661 35.5265 24.1967 34.3174 23.525H27.7347Z" fill="#04111C"/>
<path d="M25.0478 26.1447H19.9764C19.2487 26.4134 17.7933 26.9978 17.7933 27.1858C17.7933 27.4209 18.1589 27.7568 19.3383 28.9323C20.2818 29.8727 22.5809 32.2573 23.6126 33.332C25.0538 33.2648 28.3526 33.0096 30.0185 32.526C31.6843 32.0423 31.9664 31.3393 31.8993 31.0482C31.7761 31.0482 31.2276 30.7997 30.0185 29.8055C28.8094 28.8114 26.2009 26.9508 25.0478 26.1447Z" fill="#04111C"/>
<path d="M15.4649 27.421L14.1325 27.1858C14.0071 27.4098 13.5898 28.0725 12.9234 28.9323C12.257 29.7921 11.2677 30.4325 10.8563 30.6452L14.5019 35.7166C15.4535 35.8397 17.7194 36.0659 19.1703 35.9853C20.6212 35.9047 21.6412 35.5487 21.9699 35.3807V34.1045L15.4649 27.421Z" fill="#04111C"/>
<path d="M8.52369 31.955C8.14753 32.2774 6.64289 33.0073 5.9376 33.332C5.80325 33.7462 5.7025 34.8031 6.37421 35.7166C7.21385 36.8585 8.99389 37.3959 9.96787 37.717C10.9419 38.0382 13.5951 37.717 13.7564 37.3959C13.9176 37.0747 14.1325 36.5227 13.7564 36.3211C13.3803 36.1196 11.5429 32.8954 10.4381 31.552C9.33319 30.2085 8.99389 31.552 8.52369 31.955Z" fill="#04111C"/>
<path d="M9.53126 13.8188L11.3449 11.8373L21.1183 21.4091L22.764 23.2227L22.5961 23.7601C22.0139 24.1184 20.366 24.8349 18.4314 24.8349C16.4969 24.8349 15.2296 24.499 14.8378 24.3311C13.0018 21.7898 9.30287 16.5594 9.1954 15.9683C9.08792 15.3771 9.37452 14.289 9.53126 13.8188Z" fill="#04111C"/>
<path d="M13.4272 11.8373C13.1638 11.3805 13.3175 9.94525 13.4272 9.28472H14.5019L15.4649 10.0572L27.7347 19.2933C27.6675 20.0881 27.251 21.8256 26.1225 22.4167C24.9941 23.0078 23.979 22.663 23.6126 22.4167L16.0133 15.0279C15.261 14.1546 13.6905 12.294 13.4272 11.8373Z" fill="#04111C"/>
<path d="M17.3567 10.3259C17.0074 9.89598 17.2112 8.1764 17.3567 7.37034L18.2299 7.77337C18.9352 8.13161 20.9302 9.18396 23.2678 10.5274C26.1897 12.2067 34.8212 15.0279 36.4669 15.3973C37.7835 15.6929 38.8067 16.1474 39.1538 16.3377C37.4185 16.9423 33.3636 18.1245 31.026 18.017C28.6885 17.9095 27.3652 17.4572 26.9958 17.2445L18.8009 11.8373C18.465 11.5126 17.706 10.7558 17.3567 10.3259Z" fill="#04111C"/>
<path d="M23.6126 4.98576C22.5987 5.9799 20.766 6.36277 19.9764 6.42995V7.53827C20.2787 7.72859 21.1384 8.23013 22.1594 8.71377C23.1804 9.1974 28.7198 11.5126 31.3619 12.6097C32.8844 13.1471 36.4871 14.1949 38.7171 14.0875C41.5047 13.9531 45.6694 12.7105 46.6434 11.8373C47.4225 11.1387 47.371 10.6729 47.2479 10.5274C46.8113 10.6393 45.3805 10.7558 43.1504 10.3259C40.3628 9.78851 35.9295 9.28472 33.2763 7.77337C31.1537 6.56428 27.6227 4.24688 26.1225 3.23931C25.7083 3.40724 24.6264 3.99163 23.6126 4.98576Z" fill="#04111C"/>
<path d="M12.8562 59.3945H8.32217V60.8386L13.3264 67.4214C13.5727 67.8356 14.0384 68.8454 13.931 69.5709C13.7966 70.4777 12.2517 72.0562 10.6396 74.0378C9.34989 75.623 4.07919 81.4826 1.60505 84.2142L0.228027 83.8783V92.2076C5.63551 86.3861 16.7795 74.3064 18.0956 72.56C19.4117 70.8135 18.935 68.6081 18.5322 67.7237L12.8562 59.3945Z" fill="#04111C"/>
<path d="M4.96361 62.0477H0.228027V66.4138L3.98963 69.9067L7.44841 73.0302C7.91879 72.8735 8.97373 72.251 9.4305 71.0151C10.0015 69.4701 9.26257 67.7237 8.59086 66.4138C8.05349 65.366 5.94879 63.0665 4.96361 62.0477Z" fill="#04111C"/>
<path d="M4.56059 74.34C4.23816 73.8027 1.53787 70.5784 0.228027 69.0335V81.8632C1.34193 80.9228 3.69402 78.8741 4.19114 78.2024C4.81255 77.3627 4.96361 75.0117 4.56059 74.34Z" fill="#04111C"/>
</svg>
