<svg width="94" height="93" viewBox="0 0 94 93" fill="none" xmlns="http://www.w3.org/2000/svg">
<path d="M86.5848 45.0106C84.4296 44.8529 83.8031 46.9161 83.7593 47.9674C83.7593 48.0563 83.6428 48.2753 83.1769 48.4401C82.5946 48.6461 82.0268 48.1998 81.7864 47.7706C81.5941 47.4273 81.7063 46.8951 81.7864 46.6719C81.9295 46.6491 82.2705 46.514 82.4903 46.1569C82.7649 45.7106 83.1083 45.0106 84.1898 44.1312C85.2713 43.2519 87.3142 43.1871 89.4759 44.5432C91.6376 45.8994 91.6849 49.0219 90.4635 50.7928C89.2421 52.5636 87.3074 54.3773 85.0142 54.3773C82.7209 54.3773 79.2254 52.764 77.5827 50.7928C75.9401 48.8215 75.7429 45.9304 75.8743 43.9592C75.9795 42.3822 77.7142 40.1482 78.5683 39.2283V37.717H72.0633C71.5377 38.7464 70.4732 40.9235 70.4206 41.3966C70.3549 41.988 70.2235 45.6019 70.8806 47.9674C71.5377 50.3329 74.2974 53.7496 77.5827 55.3923C80.8681 57.0349 85.4676 57.3635 87.3074 56.575C89.1472 55.7865 92.4326 53.0925 93.0898 51.4499C93.7469 49.8073 93.8782 47.2446 93.0898 45.0106C92.3013 42.7766 88.7531 40.2796 86.5848 40.2796C84.4165 40.2796 82.4452 41.1338 80.8025 42.6451C79.1598 44.1564 79.1598 46.9161 80.2768 49.4787C81.3939 52.0413 84.6792 51.7127 86.5848 51.4499C88.4904 51.1871 89.4759 49.4787 89.4759 47.9674C89.4759 46.4561 89.2788 45.2077 86.5848 45.0106Z" fill="#04111C"/>
<path d="M90.6481 57.245C91.0243 56.9226 92.9096 55.3642 93.8052 54.6253V59.3945L91.5885 59.7303C91.2135 59.596 90.3795 59.1795 90.0436 58.5884C89.6237 57.8495 90.1779 57.648 90.6481 57.245Z" fill="#04111C"/>
<path d="M91.5885 39.2283C91.9378 39.2283 93.2118 38.5665 93.8052 38.2355V25.1707C93.4469 26.1559 92.67 28.2875 92.4282 28.9323C92.1259 29.7384 92.4282 30.6787 92.4282 31.0482C92.4282 31.3437 93.0327 31.5072 93.335 31.552C93.4021 32.0334 93.5298 33.0633 93.5029 33.332C93.4693 33.6678 92.8312 34.0373 92.4282 34.1045C92.0251 34.1716 90.2451 34.4403 90.0436 34.5747C89.8421 34.709 89.1368 35.683 88.0956 36.5227C87.0545 37.3623 87.659 37.717 88.7673 38.2355C89.8756 38.754 91.1519 39.2283 91.5885 39.2283Z" fill="#04111C"/>
<path d="M93.8052 23.2227V19.0245C93.5589 19.0245 92.9991 19.1455 92.7304 19.6291C92.3946 20.2337 91.5885 20.8382 91.1855 21.6778C90.8631 22.3496 87.3791 25.7865 85.6774 27.421C85.5879 28.1599 85.5028 29.7182 85.879 30.0407C86.3492 30.4437 87.8605 30.4101 88.7673 30.2422C89.6741 30.0742 90.0436 29.6712 90.6481 28.6972C91.2527 27.7232 92.1931 26.4806 92.7304 25.473C93.1603 24.667 93.626 23.637 93.8052 23.2227Z" fill="#04111C"/>
<path d="M85.879 25.7417C86.4701 24.9894 89.6629 21.1293 91.1855 19.2933L86.5848 16.3377L82.6883 21.9801C82.1845 22.7974 81.1635 24.5125 81.1098 24.8349C81.0426 25.2379 81.4457 26.6485 82.6883 26.7493C83.931 26.85 85.1401 26.6821 85.879 25.7417Z" fill="#04111C"/>
<path d="M93.8052 10.8968V15.3973C93.5141 15.5764 92.7036 15.9414 91.79 15.9683C90.6481 16.0018 89.9764 15.8339 89.6741 15.3973C89.3719 14.9607 90.01 14.692 90.4802 14.0875C90.9504 13.4829 92.0923 11.7701 92.7304 11.2327C93.2409 10.8028 93.6596 10.8297 93.8052 10.8968Z" fill="#04111C"/>
<path d="M92.1259 9.85567V7.77337C92.0139 7.53828 91.7497 6.97408 91.5885 6.59792C91.387 6.12772 89.6741 5.6575 89.1032 5.75826C88.5322 5.85902 87.3567 7.13527 86.2148 8.44511C85.0729 9.75495 85.4088 11.2327 85.879 11.8373C86.3492 12.4418 87.5918 13.886 88.0956 13.8188C88.5994 13.7516 89.3719 13.1135 89.6741 12.4082C89.9159 11.844 91.4094 10.4714 92.1259 9.85567Z" fill="#04111C"/>
<path d="M92.7304 5.25449C93.2141 5.25449 93.6484 4.94103 93.8052 4.7843V0.55249H87.0209L86.2148 0.754035C86.8417 1.07869 88.4113 2.01682 89.6741 3.17217C91.2527 4.61635 92.1259 5.25449 92.7304 5.25449Z" fill="#04111C"/>
<path d="M85.6774 2.53402C84.9516 1.8623 84.1435 0.933119 83.8302 0.55249C83.2257 0.55249 81.9562 0.666676 81.7143 1.12342C81.4121 1.69435 80.3709 2.93704 79.9007 3.7431C79.4305 4.54915 79.9343 7.20241 80.3709 7.37034C80.8075 7.53827 83.528 7.77337 84.2668 6.90014C85.0057 6.02692 86.2148 5.59031 86.2148 5.25449C86.2148 4.91868 86.5848 3.37366 85.6774 2.53402Z" fill="#04111C"/>
<path d="M78.0199 2.26533C78.7722 1.53986 78.9379 0.95552 78.9267 0.754035H69.3213C69.4892 0.95553 70.1475 1.53988 71.4371 2.26533C73.0493 3.17214 74.5942 3.7431 75.8033 3.7431C77.0124 3.7431 77.0795 3.17217 78.0199 2.26533Z" fill="#04111C"/>
<path d="M33.8213 0.754035L57.0625 0.55249L57.3984 0.754035C56.4468 0.95553 54.2951 1.47943 53.3009 1.96306C52.0583 2.5676 48.6661 2.73553 45.9121 2.73553C43.7089 2.73553 40.3369 2.60119 38.9263 2.53402V3.00421C41.1653 3.25051 46.0397 3.7431 47.625 3.7431C49.2102 3.7431 52.4277 3.07138 53.8383 2.73553C55.2601 2.5788 58.5671 2.26533 60.4211 2.26533C62.275 2.26533 65.9403 2.5788 67.5412 2.73553C65.291 4.12373 60.2531 7.07479 58.1037 7.77337C55.4168 8.64659 50.0767 9.41906 47.8936 9.28472C45.7106 9.15038 43.8298 8.91528 42.2177 7.37034C40.928 6.13439 36.0827 2.44449 33.8213 0.754035Z" fill="#04111C"/>
<path d="M0.000564575 0.754035H29.9589C30.4067 1.2578 31.5576 2.46013 32.5786 3.23931C33.5996 4.0185 36.0491 5.91497 37.1462 6.7658H8.29621C7.92677 6.5419 6.81172 5.87914 5.30709 5.01935C3.80245 4.15956 1.14247 1.81756 0.000564575 0.754035Z" fill="#04111C"/>
<path d="M10.4793 9.28472H39.7323C40.0234 9.44145 40.928 9.97659 42.2177 10.8632C43.5074 11.7499 46.8525 13.8076 48.3638 14.7256L23.2418 15.0279C22.5813 14.9047 20.5012 14.3897 17.4651 13.315C14.4289 12.2403 11.5428 10.1803 10.4793 9.28472Z" fill="#04111C"/>
<path d="M42.2177 17.2445C48.5855 16.8683 51.9687 16.7295 52.8643 16.7071C53.1106 17.043 54.0465 18.0237 55.8198 19.2596C57.5932 20.4956 59.156 20.6926 59.7158 20.6367L59.9173 21.7114C59.6038 21.8569 58.8022 22.2823 58.1037 22.8197C57.2304 23.4914 54.4092 24.2639 51.9239 24.3311C49.4386 24.3982 44.4679 24.2975 39.5308 22.8197C35.5812 21.6375 29.3544 19.2596 26.7347 18.2185L26.9362 17.5132C29.3768 17.5804 35.8498 17.6207 42.2177 17.2445Z" fill="#04111C"/>
<path d="M66.2985 23.525L67.9107 24.8349C67.6532 25.1372 66.93 25.9432 66.097 26.7493C65.2641 27.5553 62.4586 29.2794 61.16 30.0407H54.8794L53.3009 28.6972C53.5584 28.0479 54.2749 26.6284 55.081 26.1447C55.887 25.661 58.5067 24.1967 59.7158 23.525H66.2985Z" fill="#04111C"/>
<path d="M68.9854 26.1447H74.0568C74.7845 26.4134 76.2399 26.9978 76.2399 27.1858C76.2399 27.4209 75.8743 27.7568 74.695 28.9323C73.7514 29.8727 71.4523 32.2573 70.4206 33.332C68.9794 33.2648 65.6806 33.0096 64.0147 32.526C62.3489 32.0423 62.0668 31.3393 62.1339 31.0482C62.2571 31.0482 62.8056 30.7997 64.0147 29.8055C65.2238 28.8114 67.8323 26.9508 68.9854 26.1447Z" fill="#04111C"/>
<path d="M78.5683 27.421L79.9007 27.1858C80.0261 27.4098 80.4434 28.0725 81.1098 28.9323C81.7762 29.7921 82.7655 30.4325 83.1769 30.6452L79.5313 35.7166C78.5797 35.8397 76.3138 36.0659 74.8629 35.9853C73.412 35.9047 72.392 35.5487 72.0633 35.3807V34.1045L78.5683 27.421Z" fill="#04111C"/>
<path d="M85.5095 31.955C85.8857 32.2774 87.3903 33.0073 88.0956 33.332C88.2299 33.7462 88.3307 34.8031 87.659 35.7166C86.8194 36.8585 85.0393 37.3959 84.0653 37.717C83.0914 38.0382 80.4381 37.717 80.2768 37.3959C80.1156 37.0747 79.9007 36.5227 80.2768 36.3211C80.6529 36.1196 82.4903 32.8954 83.5951 31.552C84.7 30.2085 85.0393 31.552 85.5095 31.955Z" fill="#04111C"/>
<path d="M84.5019 13.8188L82.6883 11.8373L72.9149 21.4091L71.2692 23.2227L71.4371 23.7601C72.0193 24.1184 73.6672 24.8349 75.6018 24.8349C77.5363 24.8349 78.8036 24.499 79.1954 24.3311C81.0314 21.7898 84.7303 16.5594 84.8378 15.9683C84.9453 15.3771 84.6587 14.289 84.5019 13.8188Z" fill="#04111C"/>
<path d="M80.606 11.8373C80.8694 11.3805 80.7157 9.94525 80.606 9.28472H79.5313L78.5683 10.0572L66.2985 19.2933C66.3657 20.0881 66.7822 21.8256 67.9107 22.4167C69.0391 23.0078 70.0542 22.663 70.4206 22.4167L78.0199 15.0279C78.7722 14.1546 80.3427 12.294 80.606 11.8373Z" fill="#04111C"/>
<path d="M76.6765 10.3259C77.0258 9.89598 76.822 8.1764 76.6765 7.37034L75.8033 7.77337C75.098 8.13161 73.103 9.18396 70.7654 10.5274C67.8435 12.2067 59.212 15.0279 57.5663 15.3973C56.2497 15.6929 55.2265 16.1474 54.8794 16.3377C56.6147 16.9423 60.6696 18.1245 63.0072 18.017C65.3447 17.9095 66.668 17.4572 67.0374 17.2445L75.2323 11.8373C75.5682 11.5126 76.3272 10.7558 76.6765 10.3259Z" fill="#04111C"/>
<path d="M70.4206 4.98576C71.4345 5.9799 73.2672 6.36277 74.0568 6.42995V7.53827C73.7546 7.72859 72.8948 8.23013 71.8738 8.71377C70.8528 9.1974 65.3134 11.5126 62.6713 12.6097C61.1488 13.1471 57.5461 14.1949 55.3161 14.0875C52.5285 13.9531 48.3638 12.7105 47.3899 11.8373C46.6107 11.1387 46.6622 10.6729 46.7853 10.5274C47.2219 10.6393 48.6527 10.7558 50.8828 10.3259C53.6704 9.78851 58.1037 9.28472 60.7569 7.77337C62.8795 6.56428 66.4105 4.24688 67.9107 3.23931C68.3249 3.40724 69.4068 3.99163 70.4206 4.98576Z" fill="#04111C"/>
<path d="M81.177 59.3945H85.711V60.8386L80.7068 67.4214C80.4605 67.8356 79.9948 68.8454 80.1022 69.5709C80.2366 70.4777 81.7815 72.0562 83.3936 74.0378C84.6833 75.623 89.954 81.4826 92.4282 84.2142L93.8052 83.8783V92.2076C88.3977 86.3861 77.2537 74.3064 75.9376 72.56C74.6215 70.8135 75.0982 68.6081 75.501 67.7237L81.177 59.3945Z" fill="#04111C"/>
<path d="M89.0696 62.0477H93.8052V66.4138L90.0436 69.9067L86.5848 73.0302C86.1144 72.8735 85.0595 72.251 84.6027 71.0151C84.0317 69.4701 84.7706 67.7237 85.4423 66.4138C85.9797 65.366 88.0844 63.0665 89.0696 62.0477Z" fill="#04111C"/>
<path d="M89.4726 74.34C89.795 73.8027 92.4953 70.5784 93.8052 69.0335V81.8632C92.6913 80.9228 90.3392 78.8741 89.8421 78.2024C89.2207 77.3627 89.0696 75.0117 89.4726 74.34Z" fill="#04111C"/>
</svg>
