<svg width="154" height="41" viewBox="0 0 154 41" fill="none" xmlns="http://www.w3.org/2000/svg">
<rect x="9.64905" y="6.9172" width="135.29" height="25.7" stroke="#DFC38D" stroke-width="0.730716"/>
<rect x="11.5431" y="8.96365" width="131.502" height="21.6071" stroke="#DFC38D" stroke-width="0.730716"/>
<g filter="url(#filter0_d_817_2)">
<path d="M20.3487 4.77589C20.2518 4.77589 20.1589 4.81439 20.0903 4.8829L5.4644 19.5088C5.32172 19.6515 5.32172 19.8829 5.4644 20.0255L20.0903 34.6515C20.1589 34.72 20.2518 34.7585 20.3487 34.7585H134.239C134.336 34.7585 134.429 34.72 134.497 34.6515L149.123 20.0255C149.266 19.8829 149.266 19.6515 149.123 19.5088L134.497 4.8829C134.429 4.81439 134.336 4.77589 134.239 4.77589H20.3487Z" fill="url(#paint0_radial_817_2)"/>
<path d="M6.23944 19.7672L20.5 5.50661H134.088L148.348 19.7672L134.088 34.0278H20.5L6.23944 19.7672ZM148.607 20.0255C148.606 20.0251 148.606 20.0247 148.605 20.0242L148.607 20.0255ZM148.605 19.5102C148.606 19.5097 148.606 19.5093 148.607 19.5088L148.605 19.5102Z" stroke="url(#paint1_linear_817_2)" stroke-width="1.46143"/>
<path d="M6.23944 19.7672L20.5 5.50661H134.088L148.348 19.7672L134.088 34.0278H20.5L6.23944 19.7672ZM148.607 20.0255C148.606 20.0251 148.606 20.0247 148.605 20.0242L148.607 20.0255ZM148.605 19.5102C148.606 19.5097 148.606 19.5093 148.607 19.5088L148.605 19.5102Z" stroke="url(#paint2_radial_817_2)" stroke-width="1.46143"/>
</g>
<path d="M135.377 11.9757C135.52 11.8331 135.751 11.8331 135.894 11.9757L143.427 19.5089C143.569 19.6515 143.569 19.8829 143.427 20.0256L135.894 27.5587C135.751 27.7014 135.52 27.7014 135.377 27.5587L127.844 20.0256C127.701 19.8829 127.701 19.6515 127.844 19.5089L135.377 11.9757Z" fill="url(#paint3_linear_817_2)"/>
<path d="M135.377 11.9757C135.52 11.8331 135.751 11.8331 135.894 11.9757L143.427 19.5089C143.569 19.6515 143.569 19.8829 143.427 20.0256L135.894 27.5587C135.751 27.7014 135.52 27.7014 135.377 27.5587L127.844 20.0256C127.701 19.8829 127.701 19.6515 127.844 19.5089L135.377 11.9757Z" fill="url(#paint4_radial_817_2)"/>
<g filter="url(#filter1_i_817_2)">
<path d="M135.377 14.1648C135.519 14.0221 135.751 14.0221 135.893 14.1648L141.238 19.5088C141.38 19.6515 141.38 19.8829 141.238 20.0255L135.893 25.3696C135.751 25.5123 135.519 25.5123 135.377 25.3696L130.033 20.0255C129.89 19.8829 129.89 19.6515 130.033 19.5088L135.377 14.1648Z" fill="url(#paint5_linear_817_2)"/>
<path d="M135.377 14.1648C135.519 14.0221 135.751 14.0221 135.893 14.1648L141.238 19.5088C141.38 19.6515 141.38 19.8829 141.238 20.0255L135.893 25.3696C135.751 25.5123 135.519 25.5123 135.377 25.3696L130.033 20.0255C129.89 19.8829 129.89 19.6515 130.033 19.5088L135.377 14.1648Z" fill="url(#paint6_radial_817_2)"/>
<path d="M135.377 14.1648C135.519 14.0221 135.751 14.0221 135.893 14.1648L141.238 19.5088C141.38 19.6515 141.38 19.8829 141.238 20.0255L135.893 25.3696C135.751 25.5123 135.519 25.5123 135.377 25.3696L130.033 20.0255C129.89 19.8829 129.89 19.6515 130.033 19.5088L135.377 14.1648Z" fill="black" fill-opacity="0.5"/>
</g>
<path d="M135.377 15.6827C135.52 15.54 135.751 15.54 135.894 15.6827L139.72 19.5088C139.863 19.6515 139.863 19.8829 139.72 20.0255L135.894 23.8517C135.751 23.9944 135.52 23.9944 135.377 23.8517L131.551 20.0255C131.408 19.8829 131.408 19.6515 131.551 19.5088L135.377 15.6827Z" fill="url(#paint7_linear_817_2)"/>
<path d="M135.377 15.6827C135.52 15.54 135.751 15.54 135.894 15.6827L139.72 19.5088C139.863 19.6515 139.863 19.8829 139.72 20.0255L135.894 23.8517C135.751 23.9944 135.52 23.9944 135.377 23.8517L131.551 20.0255C131.408 19.8829 131.408 19.6515 131.551 19.5088L135.377 15.6827Z" fill="url(#paint8_linear_817_2)" fill-opacity="0.5"/>
<path d="M135.377 15.6827C135.52 15.54 135.751 15.54 135.894 15.6827L139.72 19.5088C139.863 19.6515 139.863 19.8829 139.72 20.0255L135.894 23.8517C135.751 23.9944 135.52 23.9944 135.377 23.8517L131.551 20.0255C131.408 19.8829 131.408 19.6515 131.551 19.5088L135.377 15.6827Z" fill="url(#paint9_radial_817_2)"/>
<path d="M18.7075 11.9757C18.8502 11.8331 19.0815 11.8331 19.2242 11.9757L26.7573 19.5089C26.9 19.6515 26.9 19.8829 26.7573 20.0256L19.2242 27.5587C19.0815 27.7014 18.8502 27.7014 18.7075 27.5587L11.1744 20.0256C11.0317 19.8829 11.0317 19.6515 11.1744 19.5089L18.7075 11.9757Z" fill="url(#paint10_linear_817_2)"/>
<path d="M18.7075 11.9757C18.8502 11.8331 19.0815 11.8331 19.2242 11.9757L26.7573 19.5089C26.9 19.6515 26.9 19.8829 26.7573 20.0256L19.2242 27.5587C19.0815 27.7014 18.8502 27.7014 18.7075 27.5587L11.1744 20.0256C11.0317 19.8829 11.0317 19.6515 11.1744 19.5089L18.7075 11.9757Z" fill="url(#paint11_radial_817_2)"/>
<g filter="url(#filter2_i_817_2)">
<path d="M18.7074 14.1648C18.85 14.0221 19.0814 14.0221 19.2241 14.1648L24.5681 19.5088C24.7108 19.6515 24.7108 19.8829 24.5681 20.0255L19.2241 25.3696C19.0814 25.5123 18.85 25.5123 18.7074 25.3696L13.3633 20.0255C13.2206 19.8829 13.2206 19.6515 13.3633 19.5088L18.7074 14.1648Z" fill="url(#paint12_linear_817_2)"/>
<path d="M18.7074 14.1648C18.85 14.0221 19.0814 14.0221 19.2241 14.1648L24.5681 19.5088C24.7108 19.6515 24.7108 19.8829 24.5681 20.0255L19.2241 25.3696C19.0814 25.5123 18.85 25.5123 18.7074 25.3696L13.3633 20.0255C13.2206 19.8829 13.2206 19.6515 13.3633 19.5088L18.7074 14.1648Z" fill="url(#paint13_radial_817_2)"/>
<path d="M18.7074 14.1648C18.85 14.0221 19.0814 14.0221 19.2241 14.1648L24.5681 19.5088C24.7108 19.6515 24.7108 19.8829 24.5681 20.0255L19.2241 25.3696C19.0814 25.5123 18.85 25.5123 18.7074 25.3696L13.3633 20.0255C13.2206 19.8829 13.2206 19.6515 13.3633 19.5088L18.7074 14.1648Z" fill="black" fill-opacity="0.5"/>
</g>
<path d="M18.7075 15.6827C18.8502 15.54 19.0816 15.54 19.2242 15.6827L23.0504 19.5088C23.1931 19.6515 23.1931 19.8829 23.0504 20.0255L19.2242 23.8517C19.0816 23.9944 18.8502 23.9944 18.7075 23.8517L14.8814 20.0255C14.7387 19.8829 14.7387 19.6515 14.8814 19.5088L18.7075 15.6827Z" fill="url(#paint14_linear_817_2)"/>
<path d="M18.7075 15.6827C18.8502 15.54 19.0816 15.54 19.2242 15.6827L23.0504 19.5088C23.1931 19.6515 23.1931 19.8829 23.0504 20.0255L19.2242 23.8517C19.0816 23.9944 18.8502 23.9944 18.7075 23.8517L14.8814 20.0255C14.7387 19.8829 14.7387 19.6515 14.8814 19.5088L18.7075 15.6827Z" fill="url(#paint15_linear_817_2)" fill-opacity="0.5"/>
<path d="M18.7075 15.6827C18.8502 15.54 19.0816 15.54 19.2242 15.6827L23.0504 19.5088C23.1931 19.6515 23.1931 19.8829 23.0504 20.0255L19.2242 23.8517C19.0816 23.9944 18.8502 23.9944 18.7075 23.8517L14.8814 20.0255C14.7387 19.8829 14.7387 19.6515 14.8814 19.5088L18.7075 15.6827Z" fill="url(#paint16_radial_817_2)"/>
<rect x="22.6084" y="7.06532" width="109.371" height="0.598211" rx="0.299106" fill="url(#paint17_linear_817_2)"/>
<rect x="22.6084" y="31.8709" width="109.371" height="0.598211" rx="0.299106" fill="url(#paint18_linear_817_2)"/>
<defs>
<filter id="filter0_d_817_2" x="0.790447" y="0.939635" width="153.007" height="39.1165" filterUnits="userSpaceOnUse" color-interpolation-filters="sRGB">
<feFlood flood-opacity="0" result="BackgroundImageFix"/>
<feColorMatrix in="SourceAlpha" type="matrix" values="0 0 0 0 0 0 0 0 0 0 0 0 0 0 0 0 0 0 127 0" result="hardAlpha"/>
<feOffset dy="0.730716"/>
<feGaussianBlur stdDeviation="2.28349"/>
<feComposite in2="hardAlpha" operator="out"/>
<feColorMatrix type="matrix" values="0 0 0 0 0 0 0 0 0 0 0 0 0 0 0 0 0 0 0.8 0"/>
<feBlend mode="normal" in2="BackgroundImageFix" result="effect1_dropShadow_817_2"/>
<feBlend mode="normal" in="SourceGraphic" in2="effect1_dropShadow_817_2" result="shape"/>
</filter>
<filter id="filter1_i_817_2" x="129.926" y="14.0578" width="11.4189" height="12.1495" filterUnits="userSpaceOnUse" color-interpolation-filters="sRGB">
<feFlood flood-opacity="0" result="BackgroundImageFix"/>
<feBlend mode="normal" in="SourceGraphic" in2="BackgroundImageFix" result="shape"/>
<feColorMatrix in="SourceAlpha" type="matrix" values="0 0 0 0 0 0 0 0 0 0 0 0 0 0 0 0 0 0 127 0" result="hardAlpha"/>
<feOffset dy="0.730716"/>
<feGaussianBlur stdDeviation="0.675912"/>
<feComposite in2="hardAlpha" operator="arithmetic" k2="-1" k3="1"/>
<feColorMatrix type="matrix" values="0 0 0 0 0 0 0 0 0 0 0 0 0 0 0 0 0 0 0.8 0"/>
<feBlend mode="normal" in2="shape" result="effect1_innerShadow_817_2"/>
</filter>
<filter id="filter2_i_817_2" x="13.2563" y="14.0578" width="11.4189" height="12.1495" filterUnits="userSpaceOnUse" color-interpolation-filters="sRGB">
<feFlood flood-opacity="0" result="BackgroundImageFix"/>
<feBlend mode="normal" in="SourceGraphic" in2="BackgroundImageFix" result="shape"/>
<feColorMatrix in="SourceAlpha" type="matrix" values="0 0 0 0 0 0 0 0 0 0 0 0 0 0 0 0 0 0 127 0" result="hardAlpha"/>
<feOffset dy="0.730716"/>
<feGaussianBlur stdDeviation="0.675912"/>
<feComposite in2="hardAlpha" operator="arithmetic" k2="-1" k3="1"/>
<feColorMatrix type="matrix" values="0 0 0 0 0 0 0 0 0 0 0 0 0 0 0 0 0 0 0.8 0"/>
<feBlend mode="normal" in2="shape" result="effect1_innerShadow_817_2"/>
</filter>
<radialGradient id="paint0_radial_817_2" cx="0" cy="0" r="1" gradientUnits="userSpaceOnUse" gradientTransform="translate(77.2939 19.7672) rotate(90) scale(14.9913 72.0879)">
<stop stop-color="#1F2D48"/>
<stop offset="1" stop-color="#0D1119"/>
</radialGradient>
<linearGradient id="paint1_linear_817_2" x1="77.2939" y1="4.77589" x2="77.2939" y2="34.7585" gradientUnits="userSpaceOnUse">
<stop stop-color="#FFFFF6"/>
<stop offset="0.489524" stop-color="#E6D375"/>
<stop offset="0.507857" stop-color="#261600"/>
<stop offset="1" stop-color="#5B4905"/>
</linearGradient>
<radialGradient id="paint2_radial_817_2" cx="0" cy="0" r="1" gradientUnits="userSpaceOnUse" gradientTransform="translate(133.554 12.5432) rotate(171.367) scale(100.442 31.2988)">
<stop stop-color="#916619"/>
<stop offset="1" stop-color="#FFC55D" stop-opacity="0"/>
</radialGradient>
<linearGradient id="paint3_linear_817_2" x1="135.635" y1="11.7174" x2="135.635" y2="27.817" gradientUnits="userSpaceOnUse">
<stop stop-color="#FFFFF6"/>
<stop offset="0.489524" stop-color="#E6D375"/>
<stop offset="0.507857" stop-color="#261600"/>
<stop offset="1" stop-color="#5B4905"/>
</linearGradient>
<radialGradient id="paint4_radial_817_2" cx="0" cy="0" r="1" gradientUnits="userSpaceOnUse" gradientTransform="translate(141.918 15.8882) rotate(143.869) scale(13.7296)">
<stop stop-color="#916619"/>
<stop offset="1" stop-color="#FFC55D" stop-opacity="0"/>
</radialGradient>
<linearGradient id="paint5_linear_817_2" x1="135.635" y1="13.9065" x2="135.635" y2="25.6279" gradientUnits="userSpaceOnUse">
<stop stop-color="#FFFFF6"/>
<stop offset="0.489524" stop-color="#E6D375"/>
<stop offset="0.507857" stop-color="#261600"/>
<stop offset="1" stop-color="#5B4905"/>
</linearGradient>
<radialGradient id="paint6_radial_817_2" cx="0" cy="0" r="1" gradientUnits="userSpaceOnUse" gradientTransform="translate(140.209 16.943) rotate(143.869) scale(9.99593)">
<stop stop-color="#916619"/>
<stop offset="1" stop-color="#FFC55D" stop-opacity="0"/>
</radialGradient>
<linearGradient id="paint7_linear_817_2" x1="135.635" y1="15.4243" x2="135.635" y2="24.11" gradientUnits="userSpaceOnUse">
<stop stop-color="#C1F0FF"/>
<stop offset="0.489524" stop-color="#00EFFF"/>
<stop offset="0.516666" stop-color="#0085FF"/>
<stop offset="1" stop-color="#00E0FF"/>
</linearGradient>
<linearGradient id="paint8_linear_817_2" x1="131.292" y1="19.7672" x2="139.978" y2="19.7672" gradientUnits="userSpaceOnUse">
<stop stop-color="#149DF2"/>
<stop offset="0.48744" stop-color="#C8EBFF"/>
<stop offset="0.508881" stop-color="#0377FF"/>
<stop offset="1" stop-color="#23B9FA"/>
</linearGradient>
<radialGradient id="paint9_radial_817_2" cx="0" cy="0" r="1" gradientUnits="userSpaceOnUse" gradientTransform="translate(138.32 21.4705) rotate(-144.125) scale(5.14817)">
<stop stop-color="#0066FF"/>
<stop offset="1" stop-color="#0066FF" stop-opacity="0"/>
</radialGradient>
<linearGradient id="paint10_linear_817_2" x1="18.9658" y1="11.7174" x2="18.9658" y2="27.817" gradientUnits="userSpaceOnUse">
<stop stop-color="#FFFFF6"/>
<stop offset="0.489524" stop-color="#E6D375"/>
<stop offset="0.507857" stop-color="#261600"/>
<stop offset="1" stop-color="#5B4905"/>
</linearGradient>
<radialGradient id="paint11_radial_817_2" cx="0" cy="0" r="1" gradientUnits="userSpaceOnUse" gradientTransform="translate(25.2482 15.8882) rotate(143.869) scale(13.7296)">
<stop stop-color="#916619"/>
<stop offset="1" stop-color="#FFC55D" stop-opacity="0"/>
</radialGradient>
<linearGradient id="paint12_linear_817_2" x1="18.9657" y1="13.9065" x2="18.9657" y2="25.6279" gradientUnits="userSpaceOnUse">
<stop stop-color="#FFFFF6"/>
<stop offset="0.489524" stop-color="#E6D375"/>
<stop offset="0.507857" stop-color="#261600"/>
<stop offset="1" stop-color="#5B4905"/>
</linearGradient>
<radialGradient id="paint13_radial_817_2" cx="0" cy="0" r="1" gradientUnits="userSpaceOnUse" gradientTransform="translate(23.5396 16.943) rotate(143.869) scale(9.99593)">
<stop stop-color="#916619"/>
<stop offset="1" stop-color="#FFC55D" stop-opacity="0"/>
</radialGradient>
<linearGradient id="paint14_linear_817_2" x1="18.9659" y1="15.4243" x2="18.9659" y2="24.11" gradientUnits="userSpaceOnUse">
<stop stop-color="#C1F0FF"/>
<stop offset="0.489524" stop-color="#00EFFF"/>
<stop offset="0.516666" stop-color="#0085FF"/>
<stop offset="1" stop-color="#00E0FF"/>
</linearGradient>
<linearGradient id="paint15_linear_817_2" x1="14.623" y1="19.7672" x2="23.3087" y2="19.7672" gradientUnits="userSpaceOnUse">
<stop stop-color="#149DF2"/>
<stop offset="0.48744" stop-color="#C8EBFF"/>
<stop offset="0.508881" stop-color="#0377FF"/>
<stop offset="1" stop-color="#23B9FA"/>
</linearGradient>
<radialGradient id="paint16_radial_817_2" cx="0" cy="0" r="1" gradientUnits="userSpaceOnUse" gradientTransform="translate(21.6502 21.4705) rotate(-144.125) scale(5.14817)">
<stop stop-color="#0066FF"/>
<stop offset="1" stop-color="#0066FF" stop-opacity="0"/>
</radialGradient>
<linearGradient id="paint17_linear_817_2" x1="131.98" y1="7.22029" x2="22.6084" y2="7.22029" gradientUnits="userSpaceOnUse">
<stop stop-color="#C59339" stop-opacity="0"/>
<stop offset="0.486666" stop-color="#E1C690"/>
<stop offset="1" stop-color="#FFC55D" stop-opacity="0"/>
</linearGradient>
<linearGradient id="paint18_linear_817_2" x1="131.98" y1="32.0258" x2="22.6084" y2="32.0258" gradientUnits="userSpaceOnUse">
<stop stop-color="#C59339" stop-opacity="0"/>
<stop offset="0.486666" stop-color="#E1C690"/>
<stop offset="1" stop-color="#FFC55D" stop-opacity="0"/>
</linearGradient>
</defs>
</svg>
