<svg width="138" height="7" viewBox="0 0 138 7" fill="none" xmlns="http://www.w3.org/2000/svg">
<path d="M66.4668 4.13173L65.9989 3.56642L0.795898 3.91827L66.4668 4.13173Z" fill="#F6DE9C"/>
<path d="M72.1211 4.13173L72.589 3.56642L137.792 3.91827L72.1211 4.13173Z" fill="#F6DE9C"/>
<path d="M62.7769 3.07136C63.0905 2.83504 63.9003 2.33787 64.6311 2.2397C65.5445 2.11699 66.4034 2.47147 67.1396 3.35765C67.7286 4.0666 68.8211 5.59811 69.2938 6.27524V5.49622C69.0871 5.1645 68.7727 4.67719 68.5521 4.39267C68.2771 4.03793 67.6835 3.37131 67.4211 3.08235C67.6869 3.15376 68.2944 3.35936 68.5989 3.61046C68.8898 3.85045 69.1732 4.13384 69.2938 4.26138V3.76411C69.0431 3.49379 68.7284 3.15333 68.6667 3.08235C68.587 2.99067 68.5883 2.8849 68.5989 2.84347L69.2938 1.52721V0.534973C69.0985 0.928117 68.6475 1.80408 68.4058 2.16278C68.1036 2.61115 67.4603 2.57006 66.6805 2.2397C65.9008 1.90935 65.0588 1.57517 64.348 1.75635C63.7794 1.9013 63.0636 2.69342 62.7769 3.07136Z" fill="#F6DE9C"/>
<path d="M75.8105 3.07136C75.4969 2.83504 74.6871 2.33787 73.9563 2.2397C73.0429 2.11699 72.184 2.47147 71.4478 3.35765C70.8588 4.0666 69.7663 5.59811 69.2936 6.27524V5.49622C69.5003 5.1645 69.8147 4.67719 70.0353 4.39267C70.3103 4.03793 70.9039 3.37131 71.1663 3.08235C70.9005 3.15376 70.293 3.35936 69.9885 3.61046C69.6976 3.85045 69.4142 4.13384 69.2936 4.26138V3.76411C69.5443 3.49379 69.859 3.15333 69.9207 3.08235C70.0004 2.99067 69.9991 2.8849 69.9885 2.84347L69.2936 1.52721V0.534973C69.4889 0.928117 69.9399 1.80408 70.1816 2.16278C70.4838 2.61115 71.1271 2.57006 71.9069 2.2397C72.6867 1.90935 73.5286 1.57517 74.2394 1.75635C74.808 1.9013 75.5238 2.69342 75.8105 3.07136Z" fill="#F6DE9C"/>
</svg>
