<svg width="40" height="39" viewBox="0 0 40 39" fill="none" xmlns="http://www.w3.org/2000/svg">
<path d="M3.00912 18.528C3.90729 18.4623 4.16838 19.3222 4.18665 19.7603C4.18665 19.7974 4.23519 19.8886 4.42935 19.9573C4.67205 20.0432 4.90869 19.8572 5.00885 19.6783C5.08898 19.5352 5.04224 19.3134 5.00885 19.2204C4.94923 19.2109 4.8071 19.1546 4.71553 19.0058C4.60106 18.8198 4.45797 18.528 4.00724 18.1616C3.55652 17.7951 2.70515 17.7681 1.80424 18.3333C0.903341 18.8985 0.883649 20.1998 1.39267 20.9378C1.90169 21.6758 2.70796 22.4316 3.66369 22.4316C4.61941 22.4316 6.07616 21.7593 6.76075 20.9378C7.44534 20.1163 7.5275 18.9114 7.47273 18.0899C7.42891 17.4327 6.70598 16.5016 6.35 16.1183V15.4884H9.06098C9.28005 15.9174 9.72367 16.8248 9.74558 17.0219C9.77296 17.2684 9.82773 18.7745 9.55389 19.7603C9.28005 20.7461 8.12994 22.1701 6.76075 22.8546C5.39157 23.5392 3.47471 23.6762 2.70796 23.3476C1.94122 23.0189 0.572011 21.8962 0.298154 21.2116C0.0242973 20.5271 -0.0304505 19.4591 0.298154 18.528C0.626759 17.597 2.10548 16.5564 3.00912 16.5564C3.91275 16.5564 4.73432 16.9124 5.41891 17.5422C6.1035 18.1721 6.1035 19.3222 5.63798 20.3901C5.17246 21.4581 3.80327 21.3212 3.00912 21.2116C2.21496 21.1021 1.80424 20.3901 1.80424 19.7603C1.80424 19.1305 1.88639 18.6102 3.00912 18.528Z" fill="#1A2948"/>
<path d="M1.31571 23.6268C1.15894 23.4924 0.373251 22.8429 0 22.535V24.5226L0.923802 24.6625C1.08009 24.6066 1.42767 24.433 1.56766 24.1866C1.74265 23.8787 1.51167 23.7947 1.31571 23.6268Z" fill="#1A2948"/>
<path d="M0.923802 16.1183C0.778234 16.1183 0.247281 15.8424 0 15.7045V10.2597C0.149302 10.6703 0.473102 11.5586 0.573879 11.8274C0.699852 12.1633 0.573879 12.5552 0.573879 12.7092C0.573879 12.8323 0.321935 12.9005 0.195963 12.9191C0.167969 13.1197 0.114781 13.549 0.125978 13.661C0.139975 13.8009 0.405917 13.9549 0.573879 13.9829C0.741842 14.0109 1.48368 14.1229 1.56766 14.1789C1.65164 14.2348 1.94558 14.6408 2.37948 14.9907C2.81338 15.3406 2.56144 15.4884 2.09954 15.7045C1.63764 15.9206 1.10576 16.1183 0.923802 16.1183Z" fill="#1A2948"/>
<path d="M0 9.4479V7.69829C0.102646 7.69829 0.335932 7.74868 0.447907 7.95024C0.587876 8.2022 0.923802 8.45413 1.09176 8.80406C1.22614 9.08399 2.67808 10.5163 3.38726 11.1975C3.42458 11.5055 3.46004 12.1549 3.30328 12.2893C3.10732 12.4572 2.47746 12.4432 2.09954 12.3733C1.72163 12.3033 1.56766 12.1353 1.31572 11.7294C1.06377 11.3235 0.671858 10.8056 0.447907 10.3857C0.268747 10.0498 0.0746523 9.62053 0 9.4479Z" fill="#1A2948"/>
<path d="M3.30328 10.4977C3.05693 10.1841 1.72629 8.57544 1.09176 7.81027L3.00912 6.57855L4.63298 8.93003C4.84294 9.27062 5.26844 9.98539 5.29084 10.1198C5.31883 10.2877 5.15087 10.8756 4.63298 10.9176C4.1151 10.9596 3.61121 10.8896 3.30328 10.4977Z" fill="#1A2948"/>
<path d="M0 4.31104V6.18662C0.121309 6.26127 0.459105 6.41337 0.839821 6.42457C1.31572 6.43856 1.59565 6.36858 1.72163 6.18662C1.8476 6.00467 1.58166 5.89268 1.3857 5.64074C1.18974 5.3888 0.713848 4.67496 0.447907 4.45101C0.235154 4.27185 0.0606554 4.28305 0 4.31104Z" fill="#1A2948"/>
<path d="M0.699852 3.87713V3.00932C0.746508 2.91135 0.856617 2.67622 0.923802 2.51945C1.00778 2.32349 1.72163 2.12753 1.95957 2.16952C2.19752 2.21151 2.68741 2.74339 3.16331 3.28927C3.6392 3.83515 3.49923 4.45101 3.30328 4.70296C3.10732 4.95491 2.58943 5.55677 2.37948 5.52878C2.16953 5.50078 1.8476 5.23484 1.72163 4.94091C1.62085 4.70576 0.998452 4.13374 0.699852 3.87713Z" fill="#1A2948"/>
<path d="M0.447907 1.95957C0.246352 1.95957 0.065321 1.82894 0 1.76362V0H2.82738L3.16331 0.0839944C2.90203 0.219294 2.24791 0.610266 1.72163 1.09176C1.06377 1.69363 0.699852 1.95957 0.447907 1.95957Z" fill="#1A2948"/>
<path d="M3.38726 0.825807C3.68977 0.545869 4.02652 0.158628 4.15709 0C4.40903 0 4.93811 0.0475874 5.03889 0.237937C5.16486 0.475873 5.59877 0.99377 5.79472 1.3297C5.99068 1.66562 5.78073 2.77138 5.59877 2.84136C5.41681 2.91135 4.28306 3.00932 3.97513 2.6454C3.6672 2.28149 3.16331 2.09952 3.16331 1.95957C3.16331 1.81962 3.00912 1.17573 3.38726 0.825807Z" fill="#1A2948"/>
<path d="M6.57855 0.713831C6.26502 0.411489 6.19597 0.167964 6.20064 0.0839944H10.2037C10.1338 0.167968 9.85943 0.411498 9.32195 0.713831C8.65009 1.09175 8.00624 1.3297 7.50235 1.3297C6.99846 1.3297 6.97047 1.09176 6.57855 0.713831Z" fill="#1A2948"/>
<path d="M24.9985 0.0839944L15.3126 0L15.1727 0.0839944C15.5692 0.167968 16.466 0.386304 16.8803 0.587859C17.3982 0.839804 18.8118 0.909788 19.9596 0.909788C20.8778 0.909788 22.2831 0.853801 22.8709 0.825807V1.02176C21.9378 1.12441 19.9064 1.3297 19.2458 1.3297C18.5851 1.3297 17.2442 1.04976 16.6563 0.909788C16.0638 0.844469 14.6856 0.713831 13.9129 0.713831C13.1403 0.713831 11.6128 0.844469 10.9456 0.909788C11.8834 1.48833 13.9829 2.71819 14.8787 3.00932C15.9985 3.37324 18.224 3.69517 19.1338 3.63918C20.0436 3.5832 20.8274 3.48522 21.4993 2.84136C22.0367 2.32627 24.056 0.788497 24.9985 0.0839944Z" fill="#1A2948"/>
<path d="M39.0934 0.0839944H26.6081C26.4215 0.29394 25.9419 0.795014 25.5164 1.11974C25.0909 1.44447 24.07 2.23483 23.6128 2.58942H35.6361C35.7901 2.4961 36.2548 2.2199 36.8819 1.86158C37.5089 1.50326 38.6175 0.527222 39.0934 0.0839944Z" fill="#1A2948"/>
<path d="M34.7263 3.63918H22.535C22.4137 3.7045 22.0367 3.92752 21.4993 4.29704C20.9618 4.66656 19.5677 5.5241 18.9378 5.90668L29.4075 6.03266C29.6828 5.98133 30.5497 5.76671 31.815 5.31881C33.0803 4.87091 34.2831 4.01244 34.7263 3.63918Z" fill="#1A2948"/>
<path d="M21.4993 6.95645C18.8454 6.79969 17.4355 6.74183 17.0622 6.7325C16.9596 6.87247 16.5695 7.28118 15.8305 7.79626C15.0915 8.31135 14.4401 8.39347 14.2069 8.37014L14.1229 8.81804C14.2535 8.87869 14.5876 9.05599 14.8787 9.27994C15.2426 9.55987 16.4184 9.8818 17.4541 9.9098C18.4899 9.93779 20.5615 9.8958 22.619 9.27994C24.265 8.78725 26.8601 7.79626 27.9518 7.36236L27.8678 7.06843C26.8507 7.09642 24.1531 7.11322 21.4993 6.95645Z" fill="#1A2948"/>
<path d="M11.4635 9.57387L10.7916 10.1198C10.8989 10.2457 11.2003 10.5817 11.5475 10.9176C11.8946 11.2535 13.0638 11.972 13.605 12.2893H16.2224L16.8803 11.7294C16.773 11.4588 16.4744 10.8672 16.1384 10.6656C15.8025 10.4641 14.7108 9.85381 14.2069 9.57387H11.4635Z" fill="#1A2948"/>
<path d="M10.3437 10.6656H8.23019C7.92692 10.7776 7.32039 11.0212 7.32039 11.0995C7.32039 11.1975 7.47273 11.3375 7.96425 11.8274C8.35746 12.2193 9.31564 13.2131 9.74558 13.661C10.3462 13.633 11.721 13.5266 12.4153 13.325C13.1095 13.1235 13.2271 12.8305 13.1991 12.7092C13.1478 12.7092 12.9191 12.6056 12.4153 12.1913C11.9114 11.777 10.8243 11.0016 10.3437 10.6656Z" fill="#1A2948"/>
<path d="M6.35 11.1975L5.79472 11.0995C5.74248 11.1928 5.56855 11.4691 5.29084 11.8274C5.01312 12.1857 4.6008 12.4526 4.42935 12.5412L5.94869 14.6547C6.34527 14.7061 7.28959 14.8003 7.89426 14.7667C8.49893 14.7331 8.92402 14.5848 9.06098 14.5148V13.9829L6.35 11.1975Z" fill="#1A2948"/>
<path d="M3.45724 13.0871C3.30048 13.2215 2.67342 13.5257 2.37948 13.661C2.32349 13.8336 2.2815 14.274 2.56144 14.6547C2.91136 15.1306 3.6532 15.3546 4.05911 15.4884C4.46502 15.6223 5.57077 15.4884 5.63798 15.3546C5.70518 15.2208 5.79472 14.9907 5.63798 14.9067C5.48123 14.8227 4.71553 13.479 4.25507 12.9191C3.79461 12.3592 3.6532 12.9191 3.45724 13.0871Z" fill="#1A2948"/>
<path d="M3.87715 5.52878L4.63298 4.70296L8.70608 8.69207L9.39193 9.4479L9.32195 9.67185C9.07933 9.82115 8.39255 10.1198 7.58633 10.1198C6.78011 10.1198 6.25196 9.97979 6.08866 9.9098C5.3235 8.8507 3.78197 6.67091 3.73718 6.42457C3.69239 6.17822 3.81183 5.72473 3.87715 5.52878Z" fill="#1A2948"/>
<path d="M5.50079 4.70296C5.39104 4.5126 5.45506 3.91446 5.50079 3.63918H5.94869L6.35 3.96111L11.4635 7.81027C11.4355 8.14153 11.2619 8.86564 10.7916 9.11197C10.3213 9.35831 9.8983 9.21461 9.74558 9.11197L6.57855 6.03266C6.26503 5.66874 5.61054 4.89332 5.50079 4.70296Z" fill="#1A2948"/>
<path d="M7.13843 4.07309C6.99286 3.89393 7.07777 3.17729 7.13843 2.84136L7.50235 3.00932C7.79628 3.15862 8.6277 3.59719 9.60188 4.15707C10.8196 4.85691 14.4168 6.03266 15.1027 6.18662C15.6513 6.3098 16.0778 6.49923 16.2224 6.57855C15.4992 6.83049 13.8094 7.32317 12.8352 7.27838C11.861 7.23359 11.3095 7.0451 11.1555 6.95645L7.7403 4.70296C7.60033 4.56765 7.284 4.25225 7.13843 4.07309Z" fill="#1A2948"/>
<path d="M9.74558 1.84758C9.32305 2.26189 8.55926 2.42145 8.23019 2.44945V2.91135C8.35616 2.99066 8.71448 3.19968 9.13999 3.40124C9.56549 3.60279 11.874 4.56765 12.9751 5.02488C13.6097 5.24883 15.1111 5.68553 16.0405 5.64074C17.2022 5.58475 18.9378 5.06687 19.3437 4.70296C19.6685 4.41183 19.647 4.21773 19.5957 4.15707C19.4137 4.20373 18.8174 4.25225 17.8881 4.07309C16.7263 3.84914 14.8787 3.63918 13.773 3.00932C12.8884 2.50543 11.4168 1.53965 10.7916 1.11974C10.619 1.18973 10.1681 1.43327 9.74558 1.84758Z" fill="#1A2948"/>
<path d="M5.26284 24.5226H3.37326V25.1244L5.4588 27.8678C5.56144 28.0405 5.75553 28.4613 5.71074 28.7636C5.65476 29.1415 5.0109 29.7994 4.33905 30.6252C3.80157 31.2859 1.60498 33.7279 0.573879 34.8663L0 34.7263V38.1975C2.25358 35.7714 6.89787 30.7372 7.44636 30.0094C7.99485 29.2815 7.7962 28.3624 7.62832 27.9938L5.26284 24.5226Z" fill="#1A2948"/>
<path d="M1.97357 25.6283H0V27.4479L1.56766 28.9036L3.00912 30.2053C3.20515 30.14 3.6448 29.8806 3.83516 29.3655C4.07311 28.7216 3.76517 27.9938 3.48524 27.4479C3.26129 27.0112 2.38415 26.0529 1.97357 25.6283Z" fill="#1A2948"/>
<path d="M1.80561 30.7512C1.67124 30.5272 0.545881 29.1835 0 28.5397V33.8865C0.464223 33.4946 1.44446 32.6408 1.65164 32.3608C1.91061 32.0109 1.97357 31.0311 1.80561 30.7512Z" fill="#1A2948"/>
</svg>
