<svg width="17" height="17" viewBox="0 0 17 17" fill="none" xmlns="http://www.w3.org/2000/svg">
<path d="M4.25613 4.75382C4.25613 4.69859 4.3009 4.65382 4.35613 4.65382L11.9588 4.65382C12.014 4.65382 12.0588 4.69859 12.0588 4.75382L12.0588 12.3565C12.0588 12.4117 12.014 12.4565 11.9588 12.4565L4.35613 12.4565C4.3009 12.4565 4.25613 12.4117 4.25613 12.3565L4.25613 4.75382Z" stroke="url(#paint0_linear_574_9199)" stroke-width="0.2"/>
<path d="M4.25613 4.75382C4.25613 4.69859 4.3009 4.65382 4.35613 4.65382L11.9588 4.65382C12.014 4.65382 12.0588 4.69859 12.0588 4.75382L12.0588 12.3565C12.0588 12.4117 12.014 12.4565 11.9588 12.4565L4.35613 12.4565C4.3009 12.4565 4.25613 12.4117 4.25613 12.3565L4.25613 4.75382Z" stroke="url(#paint1_linear_574_9199)" stroke-opacity="0.5" stroke-width="0.2"/>
<path d="M4.25613 4.75382C4.25613 4.69859 4.3009 4.65382 4.35613 4.65382L11.9588 4.65382C12.014 4.65382 12.0588 4.69859 12.0588 4.75382L12.0588 12.3565C12.0588 12.4117 12.014 12.4565 11.9588 12.4565L4.35613 12.4565C4.3009 12.4565 4.25613 12.4117 4.25613 12.3565L4.25613 4.75382Z" stroke="url(#paint2_radial_574_9199)" stroke-width="0.2"/>
<path d="M4.74545 5.14301L11.5698 5.14301L11.5698 11.9673L4.74545 11.9673L4.74545 5.14301Z" stroke="url(#paint3_linear_574_9199)" stroke-width="0.2"/>
<path d="M4.74545 5.14301L11.5698 5.14301L11.5698 11.9673L4.74545 11.9673L4.74545 5.14301Z" stroke="url(#paint4_linear_574_9199)" stroke-opacity="0.5" stroke-width="0.2"/>
<path d="M4.74545 5.14301L11.5698 5.14301L11.5698 11.9673L4.74545 11.9673L4.74545 5.14301Z" stroke="url(#paint5_radial_574_9199)" stroke-width="0.2"/>
<g filter="url(#filter0_d_574_9199)">
<path d="M7.89804 2.93063C8.04132 2.78736 8.27361 2.78736 8.41689 2.93063L13.7821 8.29581C13.9253 8.43909 13.9253 8.67139 13.7821 8.81466L8.41689 14.1798C8.27361 14.3231 8.04132 14.3231 7.89804 14.1798L2.53286 8.81466C2.38959 8.67139 2.38959 8.43909 2.53286 8.29581L7.89804 2.93063Z" fill="url(#paint6_linear_574_9199)"/>
<path d="M7.89804 2.93063C8.04132 2.78736 8.27361 2.78736 8.41689 2.93063L13.7821 8.29581C13.9253 8.43909 13.9253 8.67139 13.7821 8.81466L8.41689 14.1798C8.27361 14.3231 8.04132 14.3231 7.89804 14.1798L2.53286 8.81466C2.38959 8.67139 2.38959 8.43909 2.53286 8.29581L7.89804 2.93063Z" fill="url(#paint7_radial_574_9199)"/>
</g>
<g filter="url(#filter1_i_574_9199)">
<path d="M7.89799 4.11427C8.04127 3.97099 8.27356 3.97099 8.41684 4.11427L12.5984 8.29581C12.7416 8.43908 12.7416 8.67138 12.5984 8.81465L8.41684 12.9962C8.27356 13.1395 8.04127 13.1395 7.89799 12.9962L3.71645 8.81465C3.57318 8.67138 3.57318 8.43908 3.71645 8.29581L7.89799 4.11427Z" fill="url(#paint8_linear_574_9199)"/>
<path d="M7.89799 4.11427C8.04127 3.97099 8.27356 3.97099 8.41684 4.11427L12.5984 8.29581C12.7416 8.43908 12.7416 8.67138 12.5984 8.81465L8.41684 12.9962C8.27356 13.1395 8.04127 13.1395 7.89799 12.9962L3.71645 8.81465C3.57318 8.67138 3.57318 8.43908 3.71645 8.29581L7.89799 4.11427Z" fill="url(#paint9_radial_574_9199)"/>
<path d="M7.89799 4.11427C8.04127 3.97099 8.27356 3.97099 8.41684 4.11427L12.5984 8.29581C12.7416 8.43908 12.7416 8.67138 12.5984 8.81465L8.41684 12.9962C8.27356 13.1395 8.04127 13.1395 7.89799 12.9962L3.71645 8.81465C3.57318 8.67138 3.57318 8.43908 3.71645 8.29581L7.89799 4.11427Z" fill="black" fill-opacity="0.5"/>
</g>
<path d="M7.89771 6.2835C8.04098 6.14022 8.27328 6.14022 8.41655 6.2835L10.4289 8.2958C10.5721 8.43908 10.5721 8.67137 10.4289 8.81465L8.41655 10.827C8.27328 10.9702 8.04098 10.9702 7.89771 10.827L5.8854 8.81465C5.74212 8.67138 5.74212 8.43908 5.8854 8.2958L7.89771 6.2835Z" fill="url(#paint10_linear_574_9199)"/>
<path d="M7.89771 6.2835C8.04098 6.14022 8.27328 6.14022 8.41655 6.2835L10.4289 8.2958C10.5721 8.43908 10.5721 8.67137 10.4289 8.81465L8.41655 10.827C8.27328 10.9702 8.04098 10.9702 7.89771 10.827L5.8854 8.81465C5.74212 8.67138 5.74212 8.43908 5.8854 8.2958L7.89771 6.2835Z" fill="url(#paint11_linear_574_9199)" fill-opacity="0.5"/>
<path d="M7.89771 6.2835C8.04098 6.14022 8.27328 6.14022 8.41655 6.2835L10.4289 8.2958C10.5721 8.43908 10.5721 8.67137 10.4289 8.81465L8.41655 10.827C8.27328 10.9702 8.04098 10.9702 7.89771 10.827L5.8854 8.81465C5.74212 8.67138 5.74212 8.43908 5.8854 8.2958L7.89771 6.2835Z" fill="url(#paint12_radial_574_9199)"/>
<defs>
<filter id="filter0_d_574_9199" x="1.92529" y="2.52318" width="12.4644" height="12.4641" filterUnits="userSpaceOnUse" color-interpolation-filters="sRGB">
<feFlood flood-opacity="0" result="BackgroundImageFix"/>
<feColorMatrix in="SourceAlpha" type="matrix" values="0 0 0 0 0 0 0 0 0 0 0 0 0 0 0 0 0 0 127 0" result="hardAlpha"/>
<feOffset dy="0.2"/>
<feGaussianBlur stdDeviation="0.25"/>
<feComposite in2="hardAlpha" operator="out"/>
<feColorMatrix type="matrix" values="0 0 0 0 0 0 0 0 0 0 0 0 0 0 0 0 0 0 0.8 0"/>
<feBlend mode="normal" in2="BackgroundImageFix" result="effect1_dropShadow_574_9199"/>
<feBlend mode="normal" in="SourceGraphic" in2="effect1_dropShadow_574_9199" result="shape"/>
</filter>
<filter id="filter1_i_574_9199" x="3.60889" y="4.00681" width="9.09717" height="9.83059" filterUnits="userSpaceOnUse" color-interpolation-filters="sRGB">
<feFlood flood-opacity="0" result="BackgroundImageFix"/>
<feBlend mode="normal" in="SourceGraphic" in2="BackgroundImageFix" result="shape"/>
<feColorMatrix in="SourceAlpha" type="matrix" values="0 0 0 0 0 0 0 0 0 0 0 0 0 0 0 0 0 0 127 0" result="hardAlpha"/>
<feOffset dy="0.733759"/>
<feGaussianBlur stdDeviation="0.678727"/>
<feComposite in2="hardAlpha" operator="arithmetic" k2="-1" k3="1"/>
<feColorMatrix type="matrix" values="0 0 0 0 0 0 0 0 0 0 0 0 0 0 0 0 0 0 0.8 0"/>
<feBlend mode="normal" in2="shape" result="effect1_innerShadow_574_9199"/>
</filter>
<linearGradient id="paint0_linear_574_9199" x1="4.15613" y1="4.55382" x2="12.1588" y2="12.5565" gradientUnits="userSpaceOnUse">
<stop stop-color="#E7CE97"/>
<stop offset="0.489524" stop-color="#B28A38"/>
<stop offset="0.636666" stop-color="#322003"/>
<stop offset="1" stop-color="#503B0D"/>
</linearGradient>
<linearGradient id="paint1_linear_574_9199" x1="4.15613" y1="12.5565" x2="12.1588" y2="4.55382" gradientUnits="userSpaceOnUse">
<stop stop-color="#E6CD97"/>
<stop offset="0.48744" stop-color="#EAD581"/>
<stop offset="0.601666" stop-color="#BA923D"/>
<stop offset="1" stop-color="#4B350B"/>
</linearGradient>
<radialGradient id="paint2_radial_574_9199" cx="0" cy="0" r="1" gradientUnits="userSpaceOnUse" gradientTransform="translate(12.2001 7.65122) rotate(170.875) scale(6.70809)">
<stop stop-color="#EAD680"/>
<stop offset="1" stop-color="#B1893B" stop-opacity="0"/>
</radialGradient>
<linearGradient id="paint3_linear_574_9199" x1="4.64545" y1="5.04301" x2="11.6698" y2="12.0673" gradientUnits="userSpaceOnUse">
<stop stop-color="#E7CE97"/>
<stop offset="0.489524" stop-color="#B28A38"/>
<stop offset="0.636666" stop-color="#322003"/>
<stop offset="1" stop-color="#503B0D"/>
</linearGradient>
<linearGradient id="paint4_linear_574_9199" x1="4.64545" y1="12.0673" x2="11.6698" y2="5.04301" gradientUnits="userSpaceOnUse">
<stop stop-color="#E6CD97"/>
<stop offset="0.48744" stop-color="#EAD581"/>
<stop offset="0.601666" stop-color="#BA923D"/>
<stop offset="1" stop-color="#4B350B"/>
</linearGradient>
<radialGradient id="paint5_radial_574_9199" cx="0" cy="0" r="1" gradientUnits="userSpaceOnUse" gradientTransform="translate(11.706 7.76174) rotate(170.875) scale(5.88798)">
<stop stop-color="#EAD680"/>
<stop offset="1" stop-color="#B1893B" stop-opacity="0"/>
</radialGradient>
<linearGradient id="paint6_linear_574_9199" x1="8.15746" y1="2.67121" x2="8.15746" y2="14.4393" gradientUnits="userSpaceOnUse">
<stop stop-color="#FFFFF6"/>
<stop offset="0.489524" stop-color="#E6D375"/>
<stop offset="0.507857" stop-color="#261600"/>
<stop offset="1" stop-color="#5B4905"/>
</linearGradient>
<radialGradient id="paint7_radial_574_9199" cx="0" cy="0" r="1" gradientUnits="userSpaceOnUse" gradientTransform="translate(12.7496 5.71984) rotate(143.869) scale(10.0357)">
<stop stop-color="#916619"/>
<stop offset="1" stop-color="#FFC55D" stop-opacity="0"/>
</radialGradient>
<linearGradient id="paint8_linear_574_9199" x1="8.15741" y1="3.85485" x2="8.15741" y2="13.2556" gradientUnits="userSpaceOnUse">
<stop stop-color="#FFFFF6"/>
<stop offset="0.489524" stop-color="#E6D375"/>
<stop offset="0.507857" stop-color="#261600"/>
<stop offset="1" stop-color="#5B4905"/>
</linearGradient>
<radialGradient id="paint9_radial_574_9199" cx="0" cy="0" r="1" gradientUnits="userSpaceOnUse" gradientTransform="translate(11.8258 6.29021) rotate(143.869) scale(8.01687)">
<stop stop-color="#916619"/>
<stop offset="1" stop-color="#FFC55D" stop-opacity="0"/>
</radialGradient>
<linearGradient id="paint10_linear_574_9199" x1="8.15713" y1="6.02407" x2="8.15713" y2="11.0864" gradientUnits="userSpaceOnUse">
<stop stop-color="#D5FFC1"/>
<stop offset="0.488128" stop-color="#E5FFE1"/>
<stop offset="0.516666" stop-color="#041A00"/>
<stop offset="1" stop-color="#0B7F01"/>
</linearGradient>
<linearGradient id="paint11_linear_574_9199" x1="5.62598" y1="8.55523" x2="10.6883" y2="8.55523" gradientUnits="userSpaceOnUse">
<stop stop-color="#5BF214"/>
<stop offset="0.48744" stop-color="#CFFFC8"/>
<stop offset="0.508881" stop-color="#45FF03"/>
<stop offset="1" stop-color="#2DE300"/>
</linearGradient>
<radialGradient id="paint12_radial_574_9199" cx="0" cy="0" r="1" gradientUnits="userSpaceOnUse" gradientTransform="translate(9.72166 9.54795) rotate(-144.125) scale(3.00052)">
<stop stop-color="#14FF00"/>
<stop offset="1" stop-color="#0066FF" stop-opacity="0"/>
</radialGradient>
</defs>
</svg>
