<svg width="13" height="12" viewBox="0 0 13 12" fill="none" xmlns="http://www.w3.org/2000/svg">
<path d="M3.43909 3.16291C3.43909 3.10768 3.48386 3.06291 3.53909 3.06291L9.00281 3.06291C9.05803 3.06291 9.10281 3.10768 9.10281 3.16291L9.10281 8.62663C9.10281 8.68186 9.05803 8.72663 9.00281 8.72663L3.53909 8.72663C3.48386 8.72663 3.43909 8.68186 3.43909 8.62663L3.43909 3.16291Z" stroke="url(#paint0_linear_574_10120)" stroke-width="0.2"/>
<path d="M3.43909 3.16291C3.43909 3.10768 3.48386 3.06291 3.53909 3.06291L9.00281 3.06291C9.05803 3.06291 9.10281 3.10768 9.10281 3.16291L9.10281 8.62663C9.10281 8.68186 9.05803 8.72663 9.00281 8.72663L3.53909 8.72663C3.48386 8.72663 3.43909 8.68186 3.43909 8.62663L3.43909 3.16291Z" stroke="url(#paint1_linear_574_10120)" stroke-opacity="0.5" stroke-width="0.2"/>
<path d="M3.43909 3.16291C3.43909 3.10768 3.48386 3.06291 3.53909 3.06291L9.00281 3.06291C9.05803 3.06291 9.10281 3.10768 9.10281 3.16291L9.10281 8.62663C9.10281 8.68186 9.05803 8.72663 9.00281 8.72663L3.53909 8.72663C3.48386 8.72663 3.43909 8.68186 3.43909 8.62663L3.43909 3.16291Z" stroke="url(#paint2_radial_574_10120)" stroke-width="0.2"/>
<path d="M3.83144 3.45523L8.71052 3.45523L8.71052 8.33432L3.83144 8.33432L3.83144 3.45523Z" stroke="url(#paint3_linear_574_10120)" stroke-width="0.2"/>
<path d="M3.83144 3.45523L8.71052 3.45523L8.71052 8.33432L3.83144 8.33432L3.83144 3.45523Z" stroke="url(#paint4_linear_574_10120)" stroke-opacity="0.5" stroke-width="0.2"/>
<path d="M3.83144 3.45523L8.71052 3.45523L8.71052 8.33432L3.83144 8.33432L3.83144 3.45523Z" stroke="url(#paint5_radial_574_10120)" stroke-width="0.2"/>
<g filter="url(#filter0_d_574_10120)">
<path d="M6.01109 2.04001C6.15437 1.89673 6.38666 1.89673 6.52994 2.04001L10.1254 5.63543C10.2686 5.7787 10.2686 6.011 10.1254 6.15427L6.52994 9.74969C6.38666 9.89297 6.15437 9.89297 6.01109 9.74969L2.41567 6.15427C2.2724 6.011 2.2724 5.7787 2.41567 5.63543L6.01109 2.04001Z" fill="url(#paint6_linear_574_10120)"/>
<path d="M6.01109 2.04001C6.15437 1.89673 6.38666 1.89673 6.52994 2.04001L10.1254 5.63543C10.2686 5.7787 10.2686 6.011 10.1254 6.15427L6.52994 9.74969C6.38666 9.89297 6.15437 9.89297 6.01109 9.74969L2.41567 6.15427C2.2724 6.011 2.2724 5.7787 2.41567 5.63543L6.01109 2.04001Z" fill="url(#paint7_radial_574_10120)"/>
</g>
<g filter="url(#filter1_i_574_10120)">
<path d="M6.01139 3.15884C6.15466 3.01557 6.38696 3.01557 6.53023 3.15884L9.00681 5.63542C9.15008 5.77869 9.15008 6.01099 9.00681 6.15426L6.53023 8.63084C6.38696 8.77411 6.15466 8.77411 6.01139 8.63084L3.53481 6.15426C3.39154 6.01099 3.39154 5.77869 3.53481 5.63542L6.01139 3.15884Z" fill="url(#paint8_linear_574_10120)"/>
<path d="M6.01139 3.15884C6.15466 3.01557 6.38696 3.01557 6.53023 3.15884L9.00681 5.63542C9.15008 5.77869 9.15008 6.01099 9.00681 6.15426L6.53023 8.63084C6.38696 8.77411 6.15466 8.77411 6.01139 8.63084L3.53481 6.15426C3.39154 6.01099 3.39154 5.77869 3.53481 5.63542L6.01139 3.15884Z" fill="url(#paint9_radial_574_10120)"/>
<path d="M6.01139 3.15884C6.15466 3.01557 6.38696 3.01557 6.53023 3.15884L9.00681 5.63542C9.15008 5.77869 9.15008 6.01099 9.00681 6.15426L6.53023 8.63084C6.38696 8.77411 6.15466 8.77411 6.01139 8.63084L3.53481 6.15426C3.39154 6.01099 3.39154 5.77869 3.53481 5.63542L6.01139 3.15884Z" fill="black" fill-opacity="0.5"/>
</g>
<path d="M6.01148 3.93463C6.15475 3.79136 6.38705 3.79136 6.53032 3.93463L8.23111 5.63542C8.37438 5.77869 8.37438 6.01099 8.23111 6.15426L6.53032 7.85504C6.38705 7.99832 6.15475 7.99832 6.01148 7.85504L4.31069 6.15426C4.16742 6.01099 4.16742 5.77869 4.31069 5.63542L6.01148 3.93463Z" fill="url(#paint10_linear_574_10120)"/>
<path d="M6.01148 3.93463C6.15475 3.79136 6.38705 3.79136 6.53032 3.93463L8.23111 5.63542C8.37438 5.77869 8.37438 6.01099 8.23111 6.15426L6.53032 7.85504C6.38705 7.99832 6.15475 7.99832 6.01148 7.85504L4.31069 6.15426C4.16742 6.01099 4.16742 5.77869 4.31069 5.63542L6.01148 3.93463Z" fill="url(#paint11_linear_574_10120)" fill-opacity="0.5"/>
<path d="M6.01148 3.93463C6.15475 3.79136 6.38705 3.79136 6.53032 3.93463L8.23111 5.63542C8.37438 5.77869 8.37438 6.01099 8.23111 6.15426L6.53032 7.85504C6.38705 7.99832 6.15475 7.99832 6.01148 7.85504L4.31069 6.15426C4.16742 6.01099 4.16742 5.77869 4.31069 5.63542L6.01148 3.93463Z" fill="url(#paint12_radial_574_10120)"/>
<defs>
<filter id="filter0_d_574_10120" x="1.80811" y="1.63256" width="8.9248" height="8.92459" filterUnits="userSpaceOnUse" color-interpolation-filters="sRGB">
<feFlood flood-opacity="0" result="BackgroundImageFix"/>
<feColorMatrix in="SourceAlpha" type="matrix" values="0 0 0 0 0 0 0 0 0 0 0 0 0 0 0 0 0 0 127 0" result="hardAlpha"/>
<feOffset dy="0.2"/>
<feGaussianBlur stdDeviation="0.25"/>
<feComposite in2="hardAlpha" operator="out"/>
<feColorMatrix type="matrix" values="0 0 0 0 0 0 0 0 0 0 0 0 0 0 0 0 0 0 0.8 0"/>
<feBlend mode="normal" in2="BackgroundImageFix" result="effect1_dropShadow_574_10120"/>
<feBlend mode="normal" in="SourceGraphic" in2="effect1_dropShadow_574_10120" result="shape"/>
</filter>
<filter id="filter1_i_574_10120" x="3.42725" y="3.05139" width="5.68701" height="6.42066" filterUnits="userSpaceOnUse" color-interpolation-filters="sRGB">
<feFlood flood-opacity="0" result="BackgroundImageFix"/>
<feBlend mode="normal" in="SourceGraphic" in2="BackgroundImageFix" result="shape"/>
<feColorMatrix in="SourceAlpha" type="matrix" values="0 0 0 0 0 0 0 0 0 0 0 0 0 0 0 0 0 0 127 0" result="hardAlpha"/>
<feOffset dy="0.733759"/>
<feGaussianBlur stdDeviation="0.678727"/>
<feComposite in2="hardAlpha" operator="arithmetic" k2="-1" k3="1"/>
<feColorMatrix type="matrix" values="0 0 0 0 0 0 0 0 0 0 0 0 0 0 0 0 0 0 0.8 0"/>
<feBlend mode="normal" in2="shape" result="effect1_innerShadow_574_10120"/>
</filter>
<linearGradient id="paint0_linear_574_10120" x1="3.33909" y1="2.96291" x2="9.20281" y2="8.82663" gradientUnits="userSpaceOnUse">
<stop stop-color="#E7CE97"/>
<stop offset="0.489524" stop-color="#B28A38"/>
<stop offset="0.636666" stop-color="#322003"/>
<stop offset="1" stop-color="#503B0D"/>
</linearGradient>
<linearGradient id="paint1_linear_574_10120" x1="3.33909" y1="8.82663" x2="9.20281" y2="2.96291" gradientUnits="userSpaceOnUse">
<stop stop-color="#E6CD97"/>
<stop offset="0.48744" stop-color="#EAD581"/>
<stop offset="0.601666" stop-color="#BA923D"/>
<stop offset="1" stop-color="#4B350B"/>
</linearGradient>
<radialGradient id="paint2_radial_574_10120" cx="0" cy="0" r="1" gradientUnits="userSpaceOnUse" gradientTransform="translate(9.23303 5.23243) rotate(170.875) scale(4.91514)">
<stop stop-color="#EAD680"/>
<stop offset="1" stop-color="#B1893B" stop-opacity="0"/>
</radialGradient>
<linearGradient id="paint3_linear_574_10120" x1="3.73144" y1="3.35523" x2="8.81052" y2="8.43432" gradientUnits="userSpaceOnUse">
<stop stop-color="#E7CE97"/>
<stop offset="0.489524" stop-color="#B28A38"/>
<stop offset="0.636666" stop-color="#322003"/>
<stop offset="1" stop-color="#503B0D"/>
</linearGradient>
<linearGradient id="paint4_linear_574_10120" x1="3.73144" y1="8.43432" x2="8.81052" y2="3.35523" gradientUnits="userSpaceOnUse">
<stop stop-color="#E6CD97"/>
<stop offset="0.48744" stop-color="#EAD581"/>
<stop offset="0.601666" stop-color="#BA923D"/>
<stop offset="1" stop-color="#4B350B"/>
</linearGradient>
<radialGradient id="paint5_radial_574_10120" cx="0" cy="0" r="1" gradientUnits="userSpaceOnUse" gradientTransform="translate(8.8367 5.32107) rotate(170.875) scale(4.25744)">
<stop stop-color="#EAD680"/>
<stop offset="1" stop-color="#B1893B" stop-opacity="0"/>
</radialGradient>
<linearGradient id="paint6_linear_574_10120" x1="6.27051" y1="1.78059" x2="6.27051" y2="10.0091" gradientUnits="userSpaceOnUse">
<stop stop-color="#FFFFF6"/>
<stop offset="0.489524" stop-color="#E6D375"/>
<stop offset="0.507857" stop-color="#261600"/>
<stop offset="1" stop-color="#5B4905"/>
</linearGradient>
<radialGradient id="paint7_radial_574_10120" cx="0" cy="0" r="1" gradientUnits="userSpaceOnUse" gradientTransform="translate(9.48143 3.91227) rotate(143.869) scale(7.0172)">
<stop stop-color="#916619"/>
<stop offset="1" stop-color="#FFC55D" stop-opacity="0"/>
</radialGradient>
<linearGradient id="paint8_linear_574_10120" x1="6.27081" y1="2.89942" x2="6.27081" y2="8.89026" gradientUnits="userSpaceOnUse">
<stop stop-color="#FFFFF6"/>
<stop offset="0.489524" stop-color="#E6D375"/>
<stop offset="0.507857" stop-color="#261600"/>
<stop offset="1" stop-color="#5B4905"/>
</linearGradient>
<radialGradient id="paint9_radial_574_10120" cx="0" cy="0" r="1" gradientUnits="userSpaceOnUse" gradientTransform="translate(8.60854 4.45141) rotate(143.869) scale(5.10892)">
<stop stop-color="#916619"/>
<stop offset="1" stop-color="#FFC55D" stop-opacity="0"/>
</radialGradient>
<linearGradient id="paint10_linear_574_10120" x1="6.2709" y1="3.67521" x2="6.2709" y2="8.11447" gradientUnits="userSpaceOnUse">
<stop stop-color="#C1F0FF"/>
<stop offset="0.489524" stop-color="#00EFFF"/>
<stop offset="0.516666" stop-color="#0085FF"/>
<stop offset="1" stop-color="#00E0FF"/>
</linearGradient>
<linearGradient id="paint11_linear_574_10120" x1="4.05127" y1="5.89484" x2="8.49053" y2="5.89484" gradientUnits="userSpaceOnUse">
<stop stop-color="#149DF2"/>
<stop offset="0.48744" stop-color="#C8EBFF"/>
<stop offset="0.508881" stop-color="#0377FF"/>
<stop offset="1" stop-color="#23B9FA"/>
</linearGradient>
<radialGradient id="paint12_radial_574_10120" cx="0" cy="0" r="1" gradientUnits="userSpaceOnUse" gradientTransform="translate(7.64287 6.76538) rotate(-144.125) scale(2.63123)">
<stop stop-color="#0066FF"/>
<stop offset="1" stop-color="#0066FF" stop-opacity="0"/>
</radialGradient>
</defs>
</svg>
