<svg width="133" height="20" viewBox="0 0 133 20" fill="none" xmlns="http://www.w3.org/2000/svg">
<rect x="9.56689" y="0.633865" width="113.743" height="17.9367" fill="#171717"/>
<rect x="9.56689" y="0.0356522" width="109.371" height="0.598211" rx="0.299106" fill="url(#paint0_linear_952_1588)"/>
<rect x="9.56689" y="18.5705" width="109.371" height="0.598211" rx="0.299106" fill="url(#paint1_linear_952_1588)"/>
<path d="M9.30715 0.295075C9.45043 0.1518 9.68272 0.1518 9.826 0.295075L18.8737 9.3428C19.017 9.48608 19.017 9.71837 18.8737 9.86165L9.826 18.9094C9.68272 19.0527 9.45043 19.0527 9.30715 18.9094L0.259423 9.86165C0.116148 9.71837 0.116148 9.48608 0.259423 9.3428L9.30715 0.295075Z" fill="url(#paint2_linear_952_1588)"/>
<path d="M9.30715 0.295075C9.45043 0.1518 9.68272 0.1518 9.826 0.295075L18.8737 9.3428C19.017 9.48608 19.017 9.71837 18.8737 9.86165L9.826 18.9094C9.68272 19.0527 9.45043 19.0527 9.30715 18.9094L0.259423 9.86165C0.116148 9.71837 0.116148 9.48608 0.259423 9.3428L9.30715 0.295075Z" fill="url(#paint3_radial_952_1588)"/>
<g filter="url(#filter0_i_952_1588)">
<path d="M9.30715 2.89662C9.45043 2.75334 9.68272 2.75334 9.826 2.89661L16.2722 9.34278C16.4154 9.48606 16.4154 9.71835 16.2722 9.86163L9.826 16.3078C9.68272 16.4511 9.45043 16.4511 9.30715 16.3078L2.86099 9.86163C2.71771 9.71835 2.71771 9.48606 2.86099 9.34278L9.30715 2.89662Z" fill="url(#paint4_linear_952_1588)"/>
<path d="M9.30715 2.89662C9.45043 2.75334 9.68272 2.75334 9.826 2.89661L16.2722 9.34278C16.4154 9.48606 16.4154 9.71835 16.2722 9.86163L9.826 16.3078C9.68272 16.4511 9.45043 16.4511 9.30715 16.3078L2.86099 9.86163C2.71771 9.71835 2.71771 9.48606 2.86099 9.34278L9.30715 2.89662Z" fill="url(#paint5_radial_952_1588)"/>
<path d="M9.30715 2.89662C9.45043 2.75334 9.68272 2.75334 9.826 2.89661L16.2722 9.34278C16.4154 9.48606 16.4154 9.71835 16.2722 9.86163L9.826 16.3078C9.68272 16.4511 9.45043 16.4511 9.30715 16.3078L2.86099 9.86163C2.71771 9.71835 2.71771 9.48606 2.86099 9.34278L9.30715 2.89662Z" fill="black" fill-opacity="0.5"/>
</g>
<path d="M9.30747 4.70049C9.45074 4.55722 9.68304 4.55722 9.82631 4.70049L14.4686 9.34278C14.6119 9.48605 14.6119 9.71835 14.4686 9.86162L9.82631 14.5039C9.68304 14.6472 9.45074 14.6472 9.30747 14.5039L4.66518 9.86162C4.52191 9.71835 4.52191 9.48605 4.66518 9.34278L9.30747 4.70049Z" fill="url(#paint6_linear_952_1588)"/>
<path d="M9.30747 4.70049C9.45074 4.55722 9.68304 4.55722 9.82631 4.70049L14.4686 9.34278C14.6119 9.48605 14.6119 9.71835 14.4686 9.86162L9.82631 14.5039C9.68304 14.6472 9.45074 14.6472 9.30747 14.5039L4.66518 9.86162C4.52191 9.71835 4.52191 9.48605 4.66518 9.34278L9.30747 4.70049Z" fill="url(#paint7_linear_952_1588)" fill-opacity="0.5"/>
<path d="M9.30747 4.70049C9.45074 4.55722 9.68304 4.55722 9.82631 4.70049L14.4686 9.34278C14.6119 9.48605 14.6119 9.71835 14.4686 9.86162L9.82631 14.5039C9.68304 14.6472 9.45074 14.6472 9.30747 14.5039L4.66518 9.86162C4.52191 9.71835 4.52191 9.48605 4.66518 9.34278L9.30747 4.70049Z" fill="url(#paint8_radial_952_1588)"/>
<path d="M123.051 0.259423C123.195 0.116148 123.427 0.116148 123.57 0.259423L132.653 9.34278C132.797 9.48606 132.797 9.71835 132.653 9.86163L123.57 18.945C123.427 19.0883 123.195 19.0883 123.051 18.945L113.968 9.86163C113.825 9.71835 113.825 9.48606 113.968 9.34278L123.051 0.259423Z" fill="url(#paint9_linear_952_1588)"/>
<path d="M123.051 0.259423C123.195 0.116148 123.427 0.116148 123.57 0.259423L132.653 9.34278C132.797 9.48606 132.797 9.71835 132.653 9.86163L123.57 18.945C123.427 19.0883 123.195 19.0883 123.051 18.945L113.968 9.86163C113.825 9.71835 113.825 9.48606 113.968 9.34278L123.051 0.259423Z" fill="url(#paint10_radial_952_1588)"/>
<g filter="url(#filter1_i_952_1588)">
<path d="M123.051 2.87064C123.195 2.72737 123.427 2.72737 123.57 2.87064L130.042 9.34275C130.186 9.48603 130.186 9.71832 130.042 9.8616L123.57 16.3337C123.427 16.477 123.195 16.477 123.051 16.3337L116.579 9.8616C116.436 9.71832 116.436 9.48603 116.579 9.34275L123.051 2.87064Z" fill="url(#paint11_linear_952_1588)"/>
<path d="M123.051 2.87064C123.195 2.72737 123.427 2.72737 123.57 2.87064L130.042 9.34275C130.186 9.48603 130.186 9.71832 130.042 9.8616L123.57 16.3337C123.427 16.477 123.195 16.477 123.051 16.3337L116.579 9.8616C116.436 9.71832 116.436 9.48603 116.579 9.34275L123.051 2.87064Z" fill="url(#paint12_radial_952_1588)"/>
<path d="M123.051 2.87064C123.195 2.72737 123.427 2.72737 123.57 2.87064L130.042 9.34275C130.186 9.48603 130.186 9.71832 130.042 9.8616L123.57 16.3337C123.427 16.477 123.195 16.477 123.051 16.3337L116.579 9.8616C116.436 9.71832 116.436 9.48603 116.579 9.34275L123.051 2.87064Z" fill="black" fill-opacity="0.5"/>
</g>
<path d="M123.052 4.68125C123.195 4.53798 123.427 4.53798 123.571 4.68125L128.232 9.34276C128.375 9.48603 128.375 9.71833 128.232 9.8616L123.571 14.5231C123.427 14.6664 123.195 14.6664 123.052 14.5231L118.39 9.8616C118.247 9.71833 118.247 9.48603 118.39 9.34276L123.052 4.68125Z" fill="url(#paint13_linear_952_1588)"/>
<path d="M123.052 4.68125C123.195 4.53798 123.427 4.53798 123.571 4.68125L128.232 9.34276C128.375 9.48603 128.375 9.71833 128.232 9.8616L123.571 14.5231C123.427 14.6664 123.195 14.6664 123.052 14.5231L118.39 9.8616C118.247 9.71833 118.247 9.48603 118.39 9.34276L123.052 4.68125Z" fill="url(#paint14_linear_952_1588)" fill-opacity="0.5"/>
<path d="M123.052 4.68125C123.195 4.53798 123.427 4.53798 123.571 4.68125L128.232 9.34276C128.375 9.48603 128.375 9.71833 128.232 9.8616L123.571 14.5231C123.427 14.6664 123.195 14.6664 123.052 14.5231L118.39 9.8616C118.247 9.71833 118.247 9.48603 118.39 9.34276L123.052 4.68125Z" fill="url(#paint15_radial_952_1588)"/>
<defs>
<filter id="filter0_i_952_1588" x="2.75342" y="2.78916" width="13.626" height="14.3598" filterUnits="userSpaceOnUse" color-interpolation-filters="sRGB">
<feFlood flood-opacity="0" result="BackgroundImageFix"/>
<feBlend mode="normal" in="SourceGraphic" in2="BackgroundImageFix" result="shape"/>
<feColorMatrix in="SourceAlpha" type="matrix" values="0 0 0 0 0 0 0 0 0 0 0 0 0 0 0 0 0 0 127 0" result="hardAlpha"/>
<feOffset dy="0.733759"/>
<feGaussianBlur stdDeviation="0.678727"/>
<feComposite in2="hardAlpha" operator="arithmetic" k2="-1" k3="1"/>
<feColorMatrix type="matrix" values="0 0 0 0 0 0 0 0 0 0 0 0 0 0 0 0 0 0 0.8 0"/>
<feBlend mode="normal" in2="shape" result="effect1_innerShadow_952_1588"/>
</filter>
<filter id="filter1_i_952_1588" x="116.472" y="2.76319" width="13.6782" height="14.4117" filterUnits="userSpaceOnUse" color-interpolation-filters="sRGB">
<feFlood flood-opacity="0" result="BackgroundImageFix"/>
<feBlend mode="normal" in="SourceGraphic" in2="BackgroundImageFix" result="shape"/>
<feColorMatrix in="SourceAlpha" type="matrix" values="0 0 0 0 0 0 0 0 0 0 0 0 0 0 0 0 0 0 127 0" result="hardAlpha"/>
<feOffset dy="0.733759"/>
<feGaussianBlur stdDeviation="0.678727"/>
<feComposite in2="hardAlpha" operator="arithmetic" k2="-1" k3="1"/>
<feColorMatrix type="matrix" values="0 0 0 0 0 0 0 0 0 0 0 0 0 0 0 0 0 0 0.8 0"/>
<feBlend mode="normal" in2="shape" result="effect1_innerShadow_952_1588"/>
</filter>
<linearGradient id="paint0_linear_952_1588" x1="118.938" y1="0.190625" x2="9.56689" y2="0.190625" gradientUnits="userSpaceOnUse">
<stop stop-color="#C59339" stop-opacity="0"/>
<stop offset="0.347609" stop-color="#D9B777" stop-opacity="0.714266"/>
<stop offset="0.486666" stop-color="#E1C690"/>
<stop offset="1" stop-color="#FFC55D" stop-opacity="0"/>
</linearGradient>
<linearGradient id="paint1_linear_952_1588" x1="118.938" y1="18.7255" x2="9.56689" y2="18.7255" gradientUnits="userSpaceOnUse">
<stop stop-color="#C59339" stop-opacity="0"/>
<stop offset="0.347609" stop-color="#D9B777" stop-opacity="0.714266"/>
<stop offset="0.486666" stop-color="#E1C690"/>
<stop offset="1" stop-color="#FFC55D" stop-opacity="0"/>
</linearGradient>
<linearGradient id="paint2_linear_952_1588" x1="9.56658" y1="0.0356522" x2="9.56658" y2="19.1688" gradientUnits="userSpaceOnUse">
<stop stop-color="#FFFFF6"/>
<stop offset="0.489524" stop-color="#E6D375"/>
<stop offset="0.507857" stop-color="#261600"/>
<stop offset="1" stop-color="#5B4905"/>
</linearGradient>
<radialGradient id="paint3_radial_952_1588" cx="0" cy="0" r="1" gradientUnits="userSpaceOnUse" gradientTransform="translate(17.0327 4.99228) rotate(143.869) scale(16.3165)">
<stop stop-color="#916619"/>
<stop offset="1" stop-color="#FFC55D" stop-opacity="0"/>
</radialGradient>
<linearGradient id="paint4_linear_952_1588" x1="9.56657" y1="2.63719" x2="9.56657" y2="16.5672" gradientUnits="userSpaceOnUse">
<stop stop-color="#FFFFF6"/>
<stop offset="0.489524" stop-color="#E6D375"/>
<stop offset="0.507857" stop-color="#261600"/>
<stop offset="1" stop-color="#5B4905"/>
</linearGradient>
<radialGradient id="paint5_radial_952_1588" cx="0" cy="0" r="1" gradientUnits="userSpaceOnUse" gradientTransform="translate(15.0023 6.2459) rotate(143.869) scale(11.8794)">
<stop stop-color="#916619"/>
<stop offset="1" stop-color="#FFC55D" stop-opacity="0"/>
</radialGradient>
<linearGradient id="paint6_linear_952_1588" x1="9.56689" y1="4.44107" x2="9.56689" y2="14.7633" gradientUnits="userSpaceOnUse">
<stop stop-color="#C1F0FF"/>
<stop offset="0.489524" stop-color="#00EFFF"/>
<stop offset="0.516666" stop-color="#0085FF"/>
<stop offset="1" stop-color="#00E0FF"/>
</linearGradient>
<linearGradient id="paint7_linear_952_1588" x1="4.40576" y1="9.6022" x2="14.728" y2="9.6022" gradientUnits="userSpaceOnUse">
<stop stop-color="#149DF2"/>
<stop offset="0.48744" stop-color="#C8EBFF"/>
<stop offset="0.508881" stop-color="#0377FF"/>
<stop offset="1" stop-color="#23B9FA"/>
</linearGradient>
<radialGradient id="paint8_radial_952_1588" cx="0" cy="0" r="1" gradientUnits="userSpaceOnUse" gradientTransform="translate(12.757 11.6264) rotate(-144.125) scale(6.11819)">
<stop stop-color="#0066FF"/>
<stop offset="1" stop-color="#0066FF" stop-opacity="0"/>
</radialGradient>
<linearGradient id="paint9_linear_952_1588" x1="123.311" y1="0" x2="123.311" y2="19.2044" gradientUnits="userSpaceOnUse">
<stop stop-color="#FFFFF6"/>
<stop offset="0.489524" stop-color="#E6D375"/>
<stop offset="0.507857" stop-color="#261600"/>
<stop offset="1" stop-color="#5B4905"/>
</linearGradient>
<radialGradient id="paint10_radial_952_1588" cx="0" cy="0" r="1" gradientUnits="userSpaceOnUse" gradientTransform="translate(130.805 4.97509) rotate(143.869) scale(16.3773)">
<stop stop-color="#916619"/>
<stop offset="1" stop-color="#FFC55D" stop-opacity="0"/>
</radialGradient>
<linearGradient id="paint11_linear_952_1588" x1="123.311" y1="2.61122" x2="123.311" y2="16.5931" gradientUnits="userSpaceOnUse">
<stop stop-color="#FFFFF6"/>
<stop offset="0.489524" stop-color="#E6D375"/>
<stop offset="0.507857" stop-color="#261600"/>
<stop offset="1" stop-color="#5B4905"/>
</linearGradient>
<radialGradient id="paint12_radial_952_1588" cx="0" cy="0" r="1" gradientUnits="userSpaceOnUse" gradientTransform="translate(128.767 6.23337) rotate(143.869) scale(11.9236)">
<stop stop-color="#916619"/>
<stop offset="1" stop-color="#FFC55D" stop-opacity="0"/>
</radialGradient>
<linearGradient id="paint13_linear_952_1588" x1="123.311" y1="4.42183" x2="123.311" y2="14.7825" gradientUnits="userSpaceOnUse">
<stop stop-color="#C1F0FF"/>
<stop offset="0.489524" stop-color="#00EFFF"/>
<stop offset="0.516666" stop-color="#0085FF"/>
<stop offset="1" stop-color="#00E0FF"/>
</linearGradient>
<linearGradient id="paint14_linear_952_1588" x1="118.131" y1="9.60218" x2="128.492" y2="9.60218" gradientUnits="userSpaceOnUse">
<stop stop-color="#149DF2"/>
<stop offset="0.48744" stop-color="#C8EBFF"/>
<stop offset="0.508881" stop-color="#0377FF"/>
<stop offset="1" stop-color="#23B9FA"/>
</linearGradient>
<radialGradient id="paint15_radial_952_1588" cx="0" cy="0" r="1" gradientUnits="userSpaceOnUse" gradientTransform="translate(126.513 11.6339) rotate(-144.125) scale(6.14097)">
<stop stop-color="#0066FF"/>
<stop offset="1" stop-color="#0066FF" stop-opacity="0"/>
</radialGradient>
</defs>
</svg>
