<svg width="131" height="59" viewBox="0 0 131 59" fill="none" xmlns="http://www.w3.org/2000/svg">
<path fill-rule="evenodd" clip-rule="evenodd" d="M76.3379 16.8176C76.0446 16.7526 76.4472 16.7631 76.3379 16.8176V16.8176ZM64.3059 43.2525C64.324 43.2431 64.3413 43.235 64.3573 43.2288C64.5055 43.1707 65.6394 43.629 65.9423 43.7582C66.2451 43.8873 66.6059 44.0164 66.986 43.6549C67.3661 43.2933 67.4177 43.0932 67.4177 43.0932L65.9423 42.6412C65.9423 42.6412 65.6266 42.6154 65.8714 42.3571C66.1162 42.0989 66.2064 42.0666 67.3661 42.0989C68.5259 42.1312 69.1186 42.086 69.8596 41.492C70.6005 40.8981 70.9519 40.4867 71.1383 40.2108C71.3247 39.9348 71.3671 39.7183 71.3671 39.7183C71.3671 39.7183 70.7104 40.389 70.058 40.5079C69.4056 40.6268 68.5626 40.3296 67.8805 40.1046C67.1985 39.8796 67.0841 39.8754 66.8045 39.9306C66.5249 39.9858 66.4825 39.9943 66.4825 39.9943L66.0673 38.899C66.0673 38.899 65.3514 39.4212 65.093 39.9433C64.8345 40.4655 64.6651 40.8942 64.6863 41.2848C64.7075 41.6753 64.7117 41.9512 64.6481 42.0956L64.3058 43.2525H64.3059ZM11.6131 22.1365C11.9965 21.927 12.7907 21.1008 12.8347 20.505C12.825 20.3531 12.7754 20.3834 12.6191 20.3756C11.7195 20.3353 10.9808 20.3333 10.0861 20.3752L9.30418 20.4109L9.15046 20.3917C9.18143 20.0152 9.62424 18.8194 9.78289 18.4006C10.0069 17.8093 10.3201 17.0956 10.4963 16.5112L10.5845 16.2629C10.657 16.1893 11.2649 14.8839 11.4271 14.6056C11.6413 14.2379 12.2266 13.3277 12.4838 13.122C12.6777 12.821 13.5385 11.9474 13.8999 11.7304C14.054 11.5426 14.8442 11.0606 15.1057 10.9019C15.3418 10.7586 15.5276 10.6657 15.7816 10.529C16.0079 10.4073 16.2866 10.3101 16.469 10.1923L16.7643 10.0893C18.6123 9.5362 20.0922 9.17693 22.2963 9.20075C23.8303 9.21733 26.2121 9.77721 27.4661 10.385C28.2884 10.7836 28.8254 11.1533 29.408 11.6286C30.0007 12.1122 30.3858 12.5803 30.892 13.2903C31.6986 14.4214 31.9605 15.4092 32.2819 16.691C32.3551 16.9827 32.4817 17.7759 32.5625 17.9537C32.8585 17.9185 33.6982 17.4525 34.0183 17.3273C35.6438 16.6919 37.7412 16.5362 39.4938 16.6779C40.1849 16.8066 41.678 17.1839 42.2582 17.4282C42.6972 17.613 43.0507 17.7968 43.414 18.0685C43.619 18.2217 44.3443 18.7822 44.4972 18.8211C44.7042 18.2929 44.9244 17.9283 45.3455 17.6684C45.532 17.5081 46.019 17.2098 46.3689 17.2198C46.3794 17.2113 46.3977 17.1888 46.404 17.1996C46.4103 17.2104 46.4311 17.1842 46.44 17.1807C46.4963 17.158 46.4851 17.1591 46.5568 17.1392L47.2138 17.0583C48.3036 17.0188 49.2608 17.1007 50.3046 17.1028C53.2318 17.1088 56.4227 16.9847 58.8477 18.8828C59.0456 19.0376 59.2505 19.1721 59.4332 19.3483C59.5847 19.4944 59.8135 19.7387 59.9731 19.8456C60.1384 19.795 60.0692 19.7963 60.2151 19.6985L60.3581 19.5191C60.5779 19.2098 61.8214 18.1103 62.1616 17.994C62.1975 17.9152 62.1602 17.9757 62.2596 17.8992C62.3156 17.8561 62.3321 17.8567 62.3985 17.7977C62.472 17.6575 62.3954 17.7513 62.5168 17.6484L62.9157 17.7227L62.9598 17.7088L63.0944 17.694L63.1601 17.476L63.2474 17.457L63.2927 17.4394C63.3415 17.2544 63.2972 17.3624 63.446 17.2728C63.4968 17.2422 63.5463 17.2437 63.5933 17.2274C64.0073 17.0776 64.9221 16.7108 65.3788 16.7779L65.4423 16.7798C65.5496 16.7264 65.516 16.7281 65.6596 16.7393L65.706 16.7571C65.6771 16.5426 65.7038 16.6887 65.8087 16.6495C65.8723 16.6258 65.9672 16.6393 66.0225 16.6425C66.235 16.5386 66.4051 16.5855 66.601 16.4085C66.5566 16.3789 66.5874 16.3844 66.5 16.3619C66.4706 16.3544 66.4131 16.3587 66.3793 16.3596L66.1387 16.324L66.1169 16.1249C65.9957 16.0397 66.0855 15.9607 65.9299 15.8532C65.2327 15.7362 63.1397 16.1846 62.6534 16.4398L61.5416 16.9586L61.3877 16.9323C61.3353 16.8254 61.5191 15.8067 61.5462 15.6087L61.685 14.1865L61.7162 13.8874C61.78 13.7296 61.8028 13.262 61.7174 13.1307C61.5922 13.1927 61.4709 13.4919 61.468 13.6219C61.3524 13.7332 61.2971 13.9163 61.2912 14.0625C61.2817 14.0711 61.2692 14.0832 61.2637 14.0896C61.1157 14.2614 61.1215 14.3618 60.9939 14.5835C60.876 14.7883 60.8079 14.8731 60.7089 15.101C60.6076 15.1859 60.415 15.5438 60.3281 15.6637C60.169 15.8834 60.0955 15.9631 59.9234 16.1369C59.8305 16.2179 59.8006 16.2545 59.6907 16.3261C59.6371 16.361 59.6185 16.3641 59.5703 16.4012C59.4734 16.4759 59.5028 16.4631 59.4632 16.5095L59.1865 16.5532C59.0614 16.6187 59.1402 16.5962 58.966 16.6055L58.7888 16.639L58.8138 16.7703C58.9958 16.7831 58.8719 16.7373 58.9145 16.8455C58.7989 17.0975 58.9355 17.3164 58.483 17.1492C58.2718 17.0712 58.0639 16.9753 57.845 16.8826C57.4369 16.7099 56.9375 16.5758 56.4617 16.4826L55.1515 16.206C54.9036 16.1673 54.3777 16.1645 54.2089 16.0339C53.8574 16.0589 53.2622 15.9754 52.8466 15.9681C51.3465 15.9417 47.2258 15.8909 46.0586 16.1508C45.3596 16.3064 44.5343 16.7133 44.2198 17.1021C43.947 17.1504 43.8715 16.9659 43.4349 16.696C42.7852 16.2942 41.5544 15.9495 40.7773 15.8085C40.0982 15.6851 39.4902 15.5287 38.743 15.5046C37.9198 15.4779 37.2339 15.5686 36.4501 15.5937C36.4174 15.5986 36.3922 15.5983 36.3725 15.5935L35.8306 15.592L36.0281 14.9071C36.1557 14.8055 36.0914 14.8965 36.1446 14.7108C36.389 14.301 36.8664 12.0326 36.4945 11.5677C36.3451 11.2738 34.2911 11.7969 34.1002 11.8514C33.0424 12.1537 32.6775 12.4561 32.0491 12.6595C31.9687 12.669 32.068 12.6882 31.9643 12.6663C31.8865 12.65 31.8908 12.6381 31.8824 12.6321C31.7918 12.5751 31.8487 12.6128 31.7765 12.5553C31.7743 12.5535 31.7255 12.5055 31.7153 12.4965C31.5451 11.9754 30.5325 11.052 30.0376 10.6521C29.8807 10.5253 29.883 10.5551 29.798 10.4056C29.632 10.3219 29.4428 10.1417 29.2586 10.0257C29.0582 9.89936 28.9011 9.79259 28.7103 9.6789C28.2729 9.41836 27.9056 9.31315 27.4733 9.09684C26.4505 8.8248 25.4068 8.48003 24.2831 8.28411C23.6091 8.16658 21.1052 7.87832 20.6013 8.18161C20.0553 8.17444 19.0512 8.37018 18.543 8.50622C17.8494 8.69188 17.2506 8.794 16.5873 8.9974C15.3152 9.38747 14.38 10.0228 13.4106 10.7216L12.9125 11.0855C12.5441 11.3728 11.8061 11.9929 11.6445 12.3687C11.3819 12.5612 11.0431 13.1752 10.7622 13.5383C10.6135 13.7305 10.0967 14.5587 10.01 14.8541C9.82082 15.0753 9.64122 15.5757 9.50536 15.875C9.35452 16.2071 9.24535 16.5953 9.03924 16.8683C8.94945 16.8576 8.88589 16.8476 8.84029 16.8373C8.77118 16.7063 8.82397 16.7831 8.72225 16.6747C8.54312 16.4839 8.03751 16.2074 7.7791 16.1141C7.42095 15.9848 6.80142 15.7783 6.6006 15.6365L5.38389 15.2024L5.20558 15.1732C5.17037 15.3938 5.24404 15.5611 5.27457 15.7905C5.54312 17.395 6.12871 18.6672 7.10875 19.4805C7.3782 19.6707 7.50215 19.7796 7.66526 19.9542C7.60369 20.026 7.77874 20.0424 7.54701 20.0003V20.0306C6.86323 20.0855 6.9124 20.1031 6.36978 20.3273L6.3024 20.4048C5.70567 20.6238 5.08711 21.4343 4.64324 21.8418C4.23648 22.2153 3.63655 22.9741 2.99153 23.2499L2.5606 23.486L2.27987 23.625L1.68256 23.814C1.67069 23.8189 1.65663 23.8239 1.64572 23.8294C1.57139 23.8666 1.59361 23.8621 1.55373 23.8994C1.71305 24.0008 1.96978 24.0851 2.17504 24.0761V24.1612L2.2747 24.128C2.49929 24.3182 3.65484 24.4784 4.05448 24.4854C4.40632 24.4916 4.73046 24.4714 5.05292 24.4361C5.37048 24.4014 5.69428 24.2945 5.98467 24.2993C6.19915 24.164 6.8188 24.0455 7.03728 24.0525L6.62337 26.0654C6.26392 27.7152 5.74987 30.8355 5.54551 32.4325C5.19154 35.1984 5.60104 37.5577 6.36588 40.123C6.41458 40.2863 6.47655 40.4029 6.5245 40.5457C6.5801 40.7113 6.60152 40.9248 6.64898 41.0771L5.97861 40.9894C5.17354 40.8344 4.41105 40.5989 3.67026 40.4068C2.99815 40.2325 2.03632 40.0065 1.46373 39.7606L1.3833 39.7083C1.11895 39.6967 0.781406 39.5348 0.546309 39.4149L0.0987797 39.2456C0.0946743 39.4803 0.177442 39.6256 0.244492 39.808L0.467732 40.3333L0.828919 41.0803C1.27236 41.8847 2.00166 42.7707 2.69836 43.2873C3.04686 43.5456 3.5835 43.8529 4.11247 43.911C4.60895 43.9655 5.62621 43.9874 6.09909 43.9189C8.58396 43.5748 8.20173 43.1201 9.00262 43.8135C9.50264 44.2465 9.67709 44.1904 9.62481 44.4618L9.58098 44.4895L9.53985 44.6213C9.38317 44.7902 9.31285 44.8544 9.18033 45.0679C9.08992 45.2136 9.00927 45.4785 8.85615 45.5974C8.81634 45.8245 8.50125 46.3152 8.36052 46.5398C8.15862 46.8621 7.92889 47.1195 7.73707 47.4229C7.46486 47.6704 7.25597 47.931 7.00749 48.1821C6.71934 48.4734 6.45588 48.6377 6.21231 48.9192L6.1441 48.9293L5.89979 49.1168C5.84448 49.2493 5.63674 49.3612 5.48351 49.4971C5.28958 49.6692 5.16665 49.7635 4.96076 49.8337C5.00912 49.9101 5.01444 49.9359 5.01474 49.9414C5.01607 49.9354 5.03051 49.91 5.15172 49.9396C5.30698 49.7779 5.91546 49.5921 6.14204 49.4867L6.26376 49.4448L6.80904 49.3395C7.06619 49.3055 7.37524 49.2499 7.60221 49.2131C7.77188 49.1855 8.06891 49.1597 8.20918 49.083L8.31738 49.0069C8.48211 49.0613 9.63709 48.972 9.98527 48.989C10.5471 49.0164 11.029 49.1295 11.4981 49.2493C13.0957 49.6573 12.76 49.7747 14.4711 49.7096C16.8741 49.6182 19.945 48.2468 20.1 48.2419C20.1539 48.1681 20.1089 48.214 20.1787 48.1526C20.1832 48.1486 20.2618 48.0895 20.2686 48.0853C20.3722 48.0224 20.4209 48.0138 20.5075 47.9994C20.5646 47.929 20.5182 47.9734 20.5921 47.9171L21.4221 47.5079C21.5749 47.2664 21.8471 47.3178 22.0876 47.0434C22.3517 46.9946 22.6602 46.7645 22.975 46.7025C22.9212 46.8317 22.9986 46.7615 22.8606 46.8869C22.6214 47.0017 22.4025 47.1455 22.1607 47.2779C21.8875 47.4273 21.7515 47.5469 21.4491 47.703C21.388 47.8713 21.0002 48.1818 20.8708 48.4961L20.7015 48.6662C20.7113 48.8202 20.641 48.9198 20.5712 49.0735C20.48 49.4881 20.5785 49.9708 20.6768 50.3261C20.8562 51.1932 21.6926 52.5695 22.0441 53.7276L22.3841 54.9122L22.8251 56.7763C22.8704 57.0291 22.7736 57.8401 23.2671 57.3845L25.0417 55.7155C25.2718 55.4671 25.1582 55.4978 25.3884 55.432C25.9727 55.097 27.0042 53.3899 27.3727 52.556C27.4323 52.4211 27.5289 52.1163 27.567 52.0451C27.62 51.7602 27.7278 51.477 27.7592 51.2118C27.8003 50.8657 27.7096 50.5874 27.7244 50.2676C27.7947 50.2202 27.6203 50.1949 27.8973 50.2363L28.0737 50.5175C28.2427 50.9447 28.5867 51.2521 28.7287 51.6157C28.8824 51.6885 29.4963 52.9527 29.5638 53.138C29.6693 53.2145 29.5835 53.1283 29.6617 53.2238C29.6775 53.2431 29.7126 53.3074 29.7142 53.31C29.8095 53.0354 29.7155 53.2425 29.8656 53.1559C29.8846 53.0395 30.2872 52.3093 30.3864 52.063C30.5047 51.8509 30.6386 51.4378 30.7684 51.2824C30.9751 51.3167 31.1178 51.563 31.2621 51.7201C31.3748 51.8428 31.6374 52.0588 31.7245 52.2649C31.8285 52.2763 32.7411 53.1702 32.8833 53.2912L34.1715 54.3083C34.3674 54.3881 35.3871 55.0387 35.4822 55.1565C35.6836 55.14 35.5405 55.1861 35.6535 55.1219C36.0555 53.283 36.4701 52.3614 36.4796 50.2676C36.4823 49.6761 36.3741 49.0224 36.3801 48.4957C36.663 48.4728 37.0512 48.6429 37.2969 48.7238C37.5323 48.8013 38.0204 49.0099 38.2344 48.9973C38.346 49.1234 38.1381 48.9772 38.3667 49.119C38.3878 49.3688 38.3254 49.6677 38.4703 49.745C38.4807 49.7466 38.498 49.7381 38.5017 49.7474C38.5586 49.8902 38.4987 49.8343 38.635 49.6669C38.7063 49.5793 38.7263 49.5107 38.7612 49.3996L38.8279 49.2298C39.1861 49.2054 40.0513 49.5276 40.4491 49.5945C41.0177 49.6901 41.6168 49.7824 42.194 49.8574C43.4027 50.0146 44.7599 50.0698 46.0695 50.0137C47.3938 49.9568 48.3106 49.7852 49.5073 49.4696C49.949 49.3531 50.5346 49.1432 50.9762 48.938C51.3997 48.7412 51.9558 48.4042 52.3843 48.2602C52.428 48.2101 53.6058 47.5478 53.7612 47.4396C54.0207 47.259 54.2138 47.1656 54.457 46.9863C54.6331 46.8565 54.9253 46.5749 55.1249 46.5438C55.2055 46.4252 55.0919 46.5479 55.2354 46.4215C55.2654 46.3951 55.3111 46.3655 55.352 46.3372C55.4386 46.2772 55.5204 46.2192 55.5872 46.1735C56.353 45.6496 58.6728 44.1576 59.4141 44.4096C59.4651 44.6433 59.3666 44.7783 59.3302 44.9857C59.2737 45.3083 59.3665 45.3861 59.624 45.4153C59.6866 45.3581 59.7717 45.3003 59.86 45.2121C59.9971 45.0751 59.996 45.029 60.1227 44.9234C60.4014 44.8776 60.618 44.9751 60.8196 45.0557C60.8277 45.0661 60.84 45.069 60.8448 45.0863C60.8494 45.1031 60.8641 45.1098 60.8708 45.1149L61.3799 45.3555L61.9101 43.032C61.6391 42.9504 61.1982 43.1426 60.9967 42.7986L60.8206 42.7979C60.6434 42.6528 60.712 42.605 60.6243 42.4165C60.568 42.2058 60.5039 41.9575 60.3863 41.7932C60.2205 41.5793 60.1073 41.4627 59.934 41.3354L59.1892 41.3319L58.3983 41.45L58.429 41.1973C58.5664 40.9902 58.6302 40.7808 58.7471 40.553C58.8522 40.3483 58.9146 40.1173 59.0113 39.9284C59.03 39.4095 59.1515 38.8967 58.8753 38.4843L58.8701 38.3901L58.8195 38.2119C58.7801 37.9983 58.7906 38.0443 58.6575 37.962C58.6761 37.9171 58.6413 37.9624 58.6413 37.9624L58.5566 38.2814C58.4195 38.468 58.3159 38.6427 58.1674 38.8203C58.0117 39.0066 57.8967 39.1422 57.7401 39.3397C57.5884 39.531 57.0291 40.2353 57.0087 40.4833C56.9458 40.5349 56.9161 40.545 56.8738 40.7096C56.8045 40.9791 56.8667 41.3518 56.8334 41.661C56.6863 41.8198 56.6975 41.8571 56.5149 42.0067C56.0626 42.4123 55.442 42.8774 54.8491 43.1728L54.2919 43.4286L54.1904 43.4753L54.0261 43.4882L54.0249 43.3038L54.019 42.6271C53.9303 42.5268 53.9391 42.3165 53.695 42.5349L53.4998 42.5641L52.9291 43.04C52.9256 43.0317 52.911 43.0501 52.9014 43.0538C52.869 43.1093 52.8937 43.1038 52.834 43.1675C52.635 43.1059 52.6641 42.9794 52.6183 42.7964C52.3291 42.2866 52.0518 41.8466 51.6752 41.5032C51.4758 41.3215 51.3147 41.1434 51.1098 40.9696C50.9623 40.8445 50.6514 40.5748 50.5124 40.4789L50.3191 40.2872C50.1162 40.2863 50.1395 40.2605 50.1161 40.528C50.1007 40.7028 50.1175 40.7556 50.0523 40.8826C50.0752 41.2413 49.9439 41.9598 49.9079 42.3778C49.8633 42.8951 49.8722 43.5007 49.9016 44.02C49.8606 44.2032 49.8199 44.1555 49.5615 44.1586C48.1527 44.1754 43.2399 44.2337 42.624 44.149L42.4312 44.0718C41.8763 43.2838 41.5807 42.8075 41.6346 41.5781C41.7222 41.3292 41.6613 41.6368 41.7063 41.4072C41.7337 41.2675 41.7102 41.2958 41.7621 41.1618C41.8819 40.8523 41.7783 41.0561 41.8297 40.7515L41.9265 40.2559C41.5381 40.3135 41.5367 40.5349 41.2853 40.6914C41.2617 40.7516 41.306 40.7126 41.221 40.7933C41.0541 40.9879 40.5391 41.4753 40.4636 41.6899C40.2443 41.8339 40.0633 42.1212 39.9896 42.4406C39.8867 42.8868 40.1856 43.1278 39.9192 43.4775C38.8836 44.1127 35.648 44.8274 34.1247 44.7284L34.1166 44.701C33.6348 44.3935 34.6243 43.874 34.8197 43.7787L35.2042 43.5826C35.3659 43.5491 35.4335 43.5178 35.5496 43.4715C35.5776 43.4603 35.6646 43.4292 35.6904 43.4158C35.881 43.3169 35.7692 43.3877 35.8432 43.297C35.926 43.2778 35.8606 43.3204 35.9817 43.2534L35.954 43.1428C35.9073 43.0776 35.9721 43.0973 35.8827 43.0685L34.9286 42.7733L34.6375 42.6804C34.3393 42.6217 33.9645 42.5503 33.6104 42.5176C33.0997 42.4705 32.8733 42.5972 32.4749 42.5884C32.4378 42.0462 32.7886 40.3329 32.9021 39.7693C32.9975 39.2959 33.0745 38.8785 33.2149 38.4389C33.3566 37.9951 33.5597 37.7043 33.7161 37.3009C33.8103 37.2258 33.8485 37.1618 33.9089 37.0583C34.0658 37.0346 34.0805 36.9777 34.1569 36.8339L34.0659 36.7993C33.7912 36.7342 32.8043 36.9492 32.5454 37.0032C32.0241 37.1118 31.5092 37.2084 31.0307 37.3436C30.1692 37.587 29.0535 38.0711 28.5863 38.5689L28.3055 38.9559C28.2269 39.2003 28.0442 39.4295 27.9264 39.7242C27.8155 40.0016 27.7057 40.2319 27.603 40.5037C27.4027 41.0336 27.2554 41.617 26.9865 42.0668C26.8735 42.3315 26.7026 42.7235 26.4804 42.8714C26.2403 42.7668 26.2025 42.3675 26.0483 42.327C25.9714 42.0412 25.8909 42.005 25.7836 41.768C25.5363 41.5991 25.1552 41.1277 24.8738 40.8949C24.0257 40.1933 22.8428 39.8978 22.3577 38.8201C22.2884 38.6663 22.1658 38.2763 22.0906 38.1474C22.0721 37.7885 22.0097 37.8451 21.9054 37.7846L21.3555 39.202C21.061 39.7141 21.1567 40.1416 21.1951 40.7298C21.2154 41.0423 21.2682 41.2383 21.347 41.4968C21.398 41.6644 21.5804 41.9929 21.5416 42.2121L21.9623 42.9842C22.1158 43.1851 22.2504 43.4907 22.3413 43.7504L22.0581 43.632C21.9356 43.629 21.8035 43.5653 21.7223 43.4853L21.1998 43.2993L19.7698 42.7517C19.2996 42.6368 18.6174 42.4921 18.2134 42.2975C17.507 42.1942 16.8791 42.0456 16.1709 41.9651C15.1912 41.8537 14.8927 41.9666 13.9734 42.0723C13.8051 42.1436 13.7517 42.1074 13.5994 42.2106L13.4936 42.2109C13.251 42.4069 12.4743 42.561 12.2377 42.7658C12.0753 42.8173 11.6956 43.0222 11.5579 43.1049C11.434 43.1793 11.1169 43.403 10.9576 43.4433L10.7883 43.6198C10.5647 43.6325 10.4194 43.4329 10.2506 43.3074C9.18004 42.5115 7.99 41.1806 7.58793 39.8851C7.2985 38.9525 7.04266 38.1897 6.85471 37.1613C6.41135 34.7353 6.6817 33.1683 7.01312 30.8296L8.57118 22.7826C8.65652 22.3482 8.70175 22.5132 9.12311 22.5313C10.0927 22.5389 10.8775 22.5385 11.6131 22.1366L11.6131 22.1365ZM37.6355 45.4241C37.9479 45.3497 38.9684 44.9741 39.1744 45.1378C39.0795 45.5415 38.6917 47.2683 38.543 47.5335C38.1608 47.5093 37.4043 47.2108 37.0318 47.0867C36.7258 46.9847 35.8454 46.6532 35.5927 46.645C35.5511 46.5932 35.5759 46.6125 35.516 46.5663C35.4785 46.5374 35.4268 46.5118 35.3897 46.4873C35.1144 46.388 34.6992 46.277 34.6727 45.9535L35.6322 45.7755L36.0983 45.7356C36.209 45.7143 36.1953 45.6924 36.3004 45.6974C36.3683 45.7006 36.4136 45.7018 36.4432 45.7023C36.8464 45.6405 37.2807 45.5085 37.6355 45.4241H37.6355ZM41.1535 47.3577C41.2211 47.2993 41.6057 47.1161 41.7174 47.0572C42.2503 46.7763 42.9709 46.2259 43.3592 45.8541C43.8388 45.3949 43.8778 45.3626 44.7228 45.3638C45.3535 45.3647 45.9861 45.3685 46.6167 45.3636C47.2313 45.3589 47.8459 45.3601 48.4606 45.3612C49.1013 45.3624 49.6763 45.2821 50.1888 45.5384C50.6223 45.7552 50.9893 45.9332 51.4888 46.0885C52.1349 46.2893 52.1922 46.2346 52.6517 46.3321C53.077 46.4224 52.9633 46.3435 52.9706 46.4599C52.7402 46.6888 52.4268 46.9052 52.1294 47.0358C51.8919 47.3079 50.1893 48.0734 49.6664 48.2747C48.9437 48.5529 47.407 48.9233 46.5753 48.9552C44.6297 49.0883 42.9582 48.9317 41.2184 48.4247L40.6372 48.2188C40.4497 48.1584 39.9837 48.0398 39.915 47.8705C40.1037 47.729 40.886 47.4264 41.1535 47.3578L41.1535 47.3577ZM78.0898 17.0347L79.3993 16.9882C79.5783 17.1202 80.2541 17.1146 81.0986 17.5664C81.3219 17.6859 81.4151 17.8034 81.5527 17.8866C82.2031 17.5366 82.4472 17.2895 83.3475 17.159C83.9539 17.0712 87.582 17.0779 88.2238 17.1578C88.6375 17.2093 88.8787 17.2682 89.197 17.4321L89.9753 17.9027C90.3287 17.9364 90.4105 17.206 92.3176 17.1372C92.8103 17.1194 96.4142 17.1298 96.9269 17.1966C97.2738 17.2417 97.939 17.4704 98.1994 17.4553C98.4846 17.4387 98.3815 17.3736 98.6805 17.3153C98.925 17.2676 99.1236 17.2209 99.3443 17.1707C99.7518 17.0778 100.444 17.1263 100.89 17.1213C101.914 17.1099 102.954 17.1151 103.98 17.117C104.911 17.1188 106.053 17.0743 106.767 17.4634C108.954 18.6559 108.008 21.5287 108.487 22.0254C108.56 21.7755 108.581 21.3912 108.638 21.1319C109.047 19.258 109.022 17.1695 112.153 17.1047C114.18 17.0628 118.559 17.0464 120.398 17.4787C121.76 17.799 122.446 17.995 123.494 18.6759C124.162 19.1101 125.135 20.2297 125.509 20.9547C126.377 22.6374 126.631 24.4198 126.39 26.3538C126.297 27.0954 126.126 27.5626 125.987 28.2193C125.927 28.4612 125.794 29.1748 125.609 29.303C125.492 29.1244 125.476 28.9207 125.431 28.8277C125.323 28.6036 125.415 28.7499 125.298 28.6684L125.325 28.6139C125.225 28.4974 125.162 28.3865 125.047 28.257C124.928 28.1214 124.805 27.9917 124.732 27.8961C124.484 27.7609 124.294 27.5587 123.998 27.4097C123.712 27.2661 123.514 27.1343 123.243 27.0186C123.189 26.9899 122.756 26.6987 122.718 26.6537L122.59 26.6581C122.484 26.546 122.714 26.6415 122.459 26.5531C122.383 26.5268 122.328 26.5352 122.254 26.5294C122.29 26.7377 122.313 26.6983 122.436 26.8504C122.547 27.0615 122.792 27.4583 122.842 27.6778C122.842 27.6779 122.842 27.6781 122.841 27.6782C122.877 27.7558 122.888 27.8002 122.93 27.8839C122.937 27.8988 122.959 27.9401 122.967 27.9531C123.008 28.0204 122.993 28.0005 123.036 28.0448C123.034 28.2315 123.094 28.4478 123.119 28.6636C123.154 28.9571 123.119 29.0262 123.097 29.2956C123.075 29.5654 123.129 30.4146 123.198 30.6298C123.346 30.9271 123.517 30.8571 123.619 31.1407C123.568 31.3307 123.398 31.4179 123.291 31.6634C123.211 31.847 123.163 32.1467 123.108 32.3636C122.973 32.769 122.867 32.9907 122.722 33.3257C122.643 33.4147 122.67 33.4064 122.617 33.4805C122.489 33.663 122.597 33.5417 122.47 33.632C122.455 33.7212 122.466 33.6682 122.421 33.7397C122.411 33.756 122.38 33.8115 122.375 33.7995C122.371 33.7908 122.357 33.8199 122.349 33.8308C122.267 33.8939 122.259 33.9338 122.176 33.9875L122.149 34.1969L122.444 34.1595L122.632 34.1119L123.217 33.9828C123.312 33.9661 123.376 33.9617 123.46 33.9313C123.646 33.8645 123.567 33.9021 123.672 33.7877C123.698 33.7929 123.718 33.796 123.733 33.798C123.862 33.8058 123.928 33.712 124.101 33.6906C124.152 33.6324 124.099 33.6697 124.213 33.585C124.244 33.5616 124.326 33.5147 124.37 33.4928C124.487 33.4335 124.537 33.4056 124.681 33.4209C124.802 33.8499 124.396 35.889 124.288 36.4013C124.155 37.0377 123.702 38.8454 123.895 39.4321C123.97 40.2503 124.351 40.9941 124.142 41.8121C124.053 42.1636 123.919 42.5328 123.751 42.809C123.598 43.0615 123.286 43.4015 123.105 43.4982C122.56 44.3753 119.614 44.1591 118.482 44.1624C117.254 44.1661 115.928 44.3193 114.891 43.7766C114.488 43.5654 114.548 43.4693 114.196 43.1935C113.966 43.2715 113.669 43.7413 112.967 43.9829C112.13 44.2713 108.079 44.1985 107.201 44.1382C106.905 44.1179 106.48 44.0503 106.221 44.077C105.013 44.201 102.608 44.1813 101.338 44.1612C100.026 44.1404 100.154 43.9553 99.6415 43.8968C99.5142 43.7555 99.3197 43.7233 99.212 43.5996C98.8488 43.4736 98.7916 43.1497 98.4977 42.9325C98.4965 42.8838 98.2391 42.1915 98.1984 42.1171C98.0576 42.1958 98.0666 42.2763 97.9965 42.4252C97.9118 42.6055 97.5359 43.1863 97.4035 43.2935C96.5717 44.2149 95.2436 44.1635 93.7629 44.1628C92.6774 44.1623 90.9413 44.1886 89.8721 44.0925C89.5436 44.063 89.6627 44.0234 89.427 43.9681C89.1929 44.0782 89.37 44.104 89.0317 44.1222L87.5332 44.1391C86.8691 44.1386 86.2039 44.1413 85.5397 44.1453C84.8545 44.1494 84.1807 44.1326 83.4962 44.1165C82.2734 44.0876 82.2233 43.6903 81.985 43.6389C81.8084 43.6008 81.4679 43.8545 81.2683 43.9301C80.4869 44.2263 79.3178 44.1663 78.5126 44.1525C77.9559 44.143 74.9927 44.266 74.6907 43.9968L74.4002 43.98C74.1994 43.9364 74.1757 43.9612 74.0794 43.8254C74.2447 43.6781 75.3925 43.5097 75.6616 43.5292V43.4542C76.0021 43.4723 76.8167 43.2307 77.0018 42.9979C77.191 42.9633 77.2362 42.9035 77.421 42.7967L77.6036 42.6861C77.7481 42.6002 77.6346 42.6792 77.6927 42.5902C77.832 42.5384 77.8311 42.5185 77.9089 42.4248C78.0603 42.3233 78.0347 42.3635 78.111 42.2017C78.4049 42.0811 78.7534 41.276 78.8877 41.1047C78.9571 40.9398 79.0116 40.7873 79.0798 40.6529C79.1657 40.4834 79.2184 40.3645 79.2542 40.1949C79.2726 40.1705 79.2924 40.148 79.3228 40.1022C79.34 40.0762 79.354 40.0502 79.3674 40.0276C79.2801 39.8944 79.478 39.9 79.2586 39.9194C79.1795 40.0591 79.1856 40.0082 79.1109 40.171C79.1012 40.2944 78.8289 40.7097 78.7432 40.852C78.6249 41.0486 78.3605 41.2589 78.3209 41.4518C78.1208 41.5801 78.1262 41.6841 77.9644 41.8286C77.8608 41.9212 77.732 42.0095 77.6202 42.123L77.4852 42.1742L77.3108 42.2147C76.8034 42.2671 76.4565 42.2807 75.9448 42.2361L75.7262 42.2165L73.7448 41.8056C73.424 41.8482 72.4951 41.7699 72.2083 41.7009C72.2518 41.286 72.3646 41.2259 72.3119 40.7359L72.1319 40.7294L71.9369 41.0232L71.8669 41.0919C71.3757 41.6763 70.6883 42.1912 70.1563 42.8926C69.8069 43.3531 70.0394 43.642 69.3649 43.8975L68.1683 44.242C68.0366 44.3006 68.0966 44.272 68.0302 44.3291C67.8047 44.2974 66.9278 44.5123 66.5269 44.5276C66.0796 44.5424 65.0664 44.671 64.7415 44.6116C64.5825 44.5815 64.3477 44.6168 64.16 44.6312C64.0319 44.641 63.9485 44.6522 63.8874 44.6668L63.578 45.7127L63.7872 45.7233L64.3558 45.872L64.4118 45.8452C64.7016 45.7972 65.3783 45.8919 65.7543 45.8891C66.0001 45.8873 66.182 45.8732 66.4084 45.8509C66.6544 45.8268 66.8381 45.8495 67.0213 45.7283C67.3913 45.7393 67.7009 45.5386 68.0483 45.5141C68.3967 45.4895 68.6149 45.7732 68.8767 45.9403C69.3402 46.236 70.1065 46.5868 70.7915 46.2938L72.0401 45.8895C72.1518 45.7929 72.1187 45.8373 72.1735 45.6847C71.9831 45.6474 71.9329 45.6855 71.7843 45.5626L71.245 45.3548C71.145 45.2006 71.0278 45.3043 70.9239 45.1096C70.7619 45.03 70.7603 45.0721 70.7142 44.854C70.8147 44.8698 70.7672 44.8375 70.8691 44.8841C71.1197 44.9986 70.8863 44.872 71.0011 44.9897L71.6357 45.0655C71.7352 45.1013 71.7135 45.0969 71.7678 45.1364C71.9512 45.0785 73.1963 45.2658 73.5787 45.2804C74.213 45.3046 74.8544 45.3119 75.4899 45.3582C76.1315 45.4051 79.1638 45.2793 79.4477 45.4308C79.4967 45.4943 79.4563 45.433 79.4962 45.5332C79.5165 45.584 79.514 45.5935 79.5355 45.6437C79.7063 46.0422 80.7469 46.182 81.3055 47.3202C81.4212 47.5561 81.5276 48.1628 81.6025 48.2631C81.8694 48.1521 82.9498 47.1374 83.2494 46.7741C83.3123 46.6979 83.6271 46.2182 83.6918 46.1686C83.7929 45.7166 83.717 45.8018 83.707 45.4391C84.3116 45.3285 85.7014 45.418 86.3869 45.4203C87.2812 45.4233 88.2054 45.4369 89.0974 45.4039C89.1571 45.2902 89.43 45.2324 89.5813 45.2436C89.7291 45.2545 89.6278 45.2512 89.7264 45.3121C90.0798 45.5302 93.9037 45.4177 94.4124 45.4149C94.9084 45.4121 95.8753 45.3615 96.3376 45.2114C96.5641 45.1379 96.6585 45.0583 96.8546 45.27C97.3468 45.8012 97.5677 46.4889 97.8417 47.1788C97.8777 47.133 97.867 47.1515 97.903 47.0759C97.9298 47.0195 97.9254 47.0217 97.9479 46.9651L98.2249 46.2764C98.3296 45.9521 98.551 44.9507 98.6968 44.7711L100.207 45.26C101.095 45.4958 105.068 45.3641 106.171 45.374C106.264 45.3142 106.297 45.2347 106.452 45.2831C106.463 45.2864 106.476 45.2944 106.486 45.2992L106.574 45.3653C106.666 45.4197 106.617 45.4126 106.766 45.4277L109.462 45.4303C110.448 45.4201 111.108 45.4548 112.102 45.3789C112.339 45.3609 112.669 45.262 112.885 45.2901L114.038 44.8168C114.236 44.7557 115.117 45.1499 115.122 45.1533C115.132 45.159 115.147 45.1717 115.154 45.1767C115.162 45.1816 115.176 45.1918 115.185 45.2012C115.698 45.2128 115.971 45.5646 117.764 45.4171C119.549 45.2704 121.39 45.6322 123.028 44.9915C123.526 44.7969 123.972 44.5308 124.338 44.1493C124.455 44.0277 124.562 43.8525 124.671 43.7581C124.767 43.4335 125.511 42.2938 125.433 41.0776C125.402 40.5877 125.224 40.1576 125.151 39.6445C124.987 38.4982 125.543 36.4526 125.736 35.1499C126.136 32.4443 125.63 32.5306 125.572 32.1534C126.366 32.26 127.326 33.1185 128.789 30.6312C129.442 29.5217 129.855 28.0696 129.956 26.5663L130.074 24.9675C129.903 25.1878 129.949 25.3591 129.844 25.6438C129.76 25.8749 129.66 26.076 129.584 26.294L129.357 26.7113C129.161 26.9496 129.086 27.1507 128.866 27.4113C128.776 27.518 128.679 27.6165 128.577 27.7222C128.495 27.8072 128.414 27.9215 128.292 27.9448C128.143 28.1472 127.968 28.2701 127.724 28.4216L127.228 28.7292L127.103 28.6922L127.182 28.1412L127.228 28.0775C127.242 28.0515 127.254 28.0314 127.263 28.0161C127.264 28.0141 127.264 28.012 127.265 28.0098L127.564 26.598C127.67 26.0291 127.717 25.414 127.697 24.7966C127.663 23.7441 127.36 22.4812 127.068 21.5368C126.776 20.5943 126.156 19.7167 125.659 19.0555C125.391 18.7002 125.051 18.3643 124.682 18.0843C124.448 17.9065 123.723 17.3807 123.485 17.31C123.37 17.1808 122.911 16.9761 122.688 16.8877C122.351 16.7544 122.061 16.6777 121.702 16.5691C121.058 16.3741 120.332 16.2534 119.628 16.139C118.897 16.1035 118.198 15.984 117.438 15.9732C116.675 15.9622 115.903 15.9729 115.142 15.952C114.005 15.9206 111.782 15.8153 110.799 16.1199L110.395 16.2046C109.902 16.2741 109.197 15.6787 108.798 15.3734C108.227 14.9361 108.106 14.7131 107.732 14.3009L107.545 14.1495C107.515 13.9899 107.461 13.9429 107.319 13.8022C107.198 13.8998 107.145 13.928 107.179 14.1901C107.133 14.2417 107.147 14.2123 107.107 14.2962L107.033 14.6334C106.94 15.2581 107.007 15.7576 106.948 16.1879C106.468 16.2083 105.773 16.0207 105.18 15.9845C104.561 15.9466 103.925 15.9518 103.282 15.957C101.989 15.9673 100.679 15.9213 99.3897 15.9825C98.9158 16.1154 98.0886 16.2906 97.5494 16.1522C96.8664 15.9767 96.4155 15.9527 95.6567 15.9475C94.2104 15.9374 92.8929 15.9698 91.4902 16.0449L91.063 16.0978L91.0113 15.809C90.9995 15.233 90.9131 14.4681 90.7493 13.9877L90.4743 12.9623C90.3263 13.0534 90.0055 14.001 89.6847 14.5639C89.4472 14.9806 88.9919 15.6766 88.6823 15.8929C88.4289 16.1084 86.6291 15.9862 86.1378 15.9866C85.2865 15.9874 84.3954 16.0199 83.5501 15.9998C83.055 16.0106 82.7476 16.0347 82.3038 16.1522C82.022 16.2267 81.4841 16.4041 81.2365 16.2927L81.1959 16.2053L80.8728 16.1609L80.8062 16.1446C80.806 16.1449 80.8058 16.1453 80.8057 16.1456L80.6489 16.1062L79.7221 16.0282C79.4299 15.9737 78.0556 15.9463 77.7803 16.0184C77.7219 15.9827 77.5816 15.9599 77.4021 15.9472C77.3195 15.9452 77.2381 15.9418 77.1585 15.9363C76.8703 15.9296 76.5397 15.9402 76.2842 15.9596L76.2113 15.9353C76.1021 16.0122 76.1155 15.9923 75.9396 15.9974L76.1615 16.5035L76.2127 16.7944L76.1472 16.8652C76.2535 16.847 76.3111 16.831 76.3379 16.8176C76.3986 16.8311 76.4891 16.8478 76.62 16.8679C76.6588 16.8739 76.7697 16.8752 76.8182 16.878C76.963 17.1212 76.9423 16.9976 77.2802 17.0491L77.7155 17.0584L78.0898 17.0348V17.0347Z" fill="#C9A65C"/>
<path fill-rule="evenodd" clip-rule="evenodd" d="M66.0577 11.5474C66.0577 11.5474 65.4949 12.2715 64.9044 12.898C64.3138 13.5246 63.8066 13.8449 63.7024 13.9841C63.5982 14.1234 63.539 14.3007 64.0809 14.2242C64.6228 14.1476 65.9505 14.3122 66.7438 14.4965C67.5371 14.6807 68.5458 15.0913 68.6771 15.2808C68.8084 15.4704 70.458 15.9283 70.5684 15.9494C70.6787 15.9705 70.8626 15.8231 71.0359 15.8388C71.2093 15.8546 73.4 16.6285 73.7362 16.8233C74.0725 17.018 76.4943 18.0972 76.4943 18.0972C76.4943 18.0972 76.7412 18.1341 76.2317 17.018C75.7221 15.902 74.7607 13.4436 74.7607 13.4436L74.6083 15.3282C74.6083 15.3282 71.8975 14.8492 71.4615 14.6123C71.0254 14.3754 70.5841 13.9542 70.5841 13.9542C70.5841 13.9542 69.1079 13.9069 68.467 13.7437C67.8261 13.5805 65.6774 12.9066 65.6774 12.9066L66.0577 11.5474H66.0577Z" fill="#C9A65C"/>
<path fill-rule="evenodd" clip-rule="evenodd" d="M72.2652 4.35089C72.2652 4.35089 72.2848 4.13519 72.1771 3.90475C72.0695 3.6743 71.9521 3.39976 72.0303 3.04186C72.1086 2.68396 71.9863 2.39469 72.2848 1.89462C72.5832 1.39454 73.3024 0.923883 73.6009 0.688548C73.8994 0.453212 74.1636 0.463037 74.3299 0.482642C74.4963 0.502247 74.7947 0.771917 74.8583 1.07588C74.9219 1.37984 74.7703 2.24273 74.7067 2.64965C74.643 3.05657 74.6479 3.0958 74.3397 3.65962C74.0315 4.22344 73.7232 4.63526 73.6303 4.67939C73.5373 4.72352 73.3319 4.66222 72.979 4.55386C72.6261 4.44551 72.4611 4.40273 72.3928 4.39417C72.3245 4.38562 72.2652 4.35089 72.2652 4.35089ZM72.1455 2.59152C72.1455 2.59152 72.115 2.22747 72.4376 1.86338C72.7601 1.4993 72.7534 1.43466 73.1948 1.10462C73.6362 0.774578 73.7686 0.65207 73.8603 0.631659C73.952 0.611248 74.1965 0.413887 73.8264 0.880041C73.4562 1.34619 73.0624 1.59117 72.8654 1.94163C72.6685 2.29209 72.7024 2.32272 72.7296 2.40438C72.7567 2.48603 72.6481 2.92835 72.4749 3.17334C72.3018 3.41833 72.3323 3.36049 72.2882 3.5102C72.244 3.6599 72.1693 3.86746 72.1082 3.63269C72.0471 3.39792 71.9622 3.34008 72.1591 2.95219C72.3561 2.5643 72.3527 2.5779 72.3561 2.39416C72.3595 2.21042 72.3079 2.24453 72.2543 2.40112C72.2007 2.55772 72.1472 2.65618 72.1472 2.65618L72.1456 2.59151L72.1455 2.59152ZM74.2364 0.524643C74.2364 0.524643 74.5419 0.69187 74.5933 0.797376C74.6446 0.902868 74.5137 1.05981 74.3827 1.18331C74.2518 1.30681 74.3519 1.55895 74.2363 1.71075C74.1208 1.86256 74.1259 1.84198 74.3622 1.87542C74.5984 1.90886 74.7345 2.0118 74.7807 1.73134C74.8269 1.45088 74.8342 1.23535 74.7983 1.05278C74.7625 0.870202 74.7072 0.789393 74.5639 0.656198C74.4205 0.523003 74.3563 0.530497 74.31 0.518515C74.2637 0.506548 74.2364 0.524643 74.2364 0.524643ZM74.5528 2.19159C74.6396 2.23319 74.617 2.36552 74.5415 2.5697C74.466 2.77388 74.5264 3.03858 74.4094 3.26544C74.2925 3.4923 74.266 3.4923 74.2623 3.57548C74.2585 3.65868 74.232 3.79908 74.0922 3.98779C73.9524 4.17649 73.8468 4.34232 73.8468 4.34232C73.8468 4.34232 74.0636 3.7848 74.0636 3.5532C74.0636 3.32162 73.9638 3.24156 74.018 2.95852C74.0722 2.67547 73.9638 2.70691 74.095 2.47819C74.2263 2.24948 74.5528 2.19159 74.5528 2.19159H74.5528ZM72.8253 4.30515C72.8253 4.30515 73.1991 3.54177 73.3646 3.17295C73.5301 2.80413 73.6157 2.71551 73.7527 2.63832C73.8896 2.56112 74.0037 2.48966 73.8925 2.84703C73.7812 3.20439 73.7213 3.40168 73.784 3.60182C73.8468 3.80196 73.8668 3.87345 73.707 4.10789C73.5472 4.34233 73.1734 4.27372 73.0137 4.32517C72.8539 4.37664 72.7483 4.44239 72.774 4.38521C72.7997 4.32804 72.8254 4.30517 72.8254 4.30517L72.8253 4.30515ZM72.8237 2.38891C72.8707 2.43606 72.879 2.8326 73.1724 2.18092C73.4657 1.52924 73.5958 1.35457 73.6567 1.2464C73.7176 1.13825 73.4131 1.43497 73.1945 1.67622C72.9759 1.91747 72.9206 2.00621 72.8652 2.15041C72.8098 2.29461 72.8237 2.3889 72.8237 2.3889L72.8237 2.38891Z" fill="#C9A65C"/>
<path fill-rule="evenodd" clip-rule="evenodd" d="M71.7442 14.718C71.7442 14.718 71.5164 14.499 72.8016 13.4757C74.0867 12.4524 74.8698 11.5778 75.0433 11.0497C75.2168 10.5215 75.3456 9.74423 75.3456 9.74423C75.3456 9.74423 75.5841 11.0553 74.7178 12.0557C73.8515 13.056 72.9966 13.7459 72.5548 14.1196C72.1131 14.4933 71.9963 14.7884 71.9963 14.7884L71.7442 14.718ZM65.1709 14.624C65.1709 14.624 65.4339 15.4551 67.9424 14.8267C70.4509 14.1983 73.1566 13.2567 74.1098 11.8836C75.0246 10.5658 75.4476 8.9176 74.163 7.56957C73.4222 6.79217 72.8737 6.17888 72.5304 5.7343C72.5337 5.73225 72.537 5.73012 72.5403 5.7278C72.7022 5.61466 73.1839 5.64107 73.1199 5.49399C73.0559 5.34692 73.1086 5.11686 73.1086 5.11686C73.1086 5.11686 72.8377 5.35068 72.5629 5.41479C72.4557 5.43982 72.3611 5.42291 72.2855 5.39296C72.1853 5.23786 72.1266 5.11659 72.1109 5.02972C72.077 4.84293 72.0572 4.74081 72.0645 4.66341C72.1439 4.6753 72.2566 4.69558 72.3702 4.73963C72.559 4.81278 73.138 5.09026 73.2966 5.07765C73.4552 5.06503 73.6054 4.83026 73.6054 4.83026C73.6054 4.83026 73.5226 4.86044 73.3119 4.78124C73.1393 4.71641 72.4222 4.51009 72.1676 4.43736C72.2094 4.27285 72.063 3.96111 71.9885 3.75751C71.9044 3.52758 71.935 3.29767 71.935 3.29767C71.935 3.29767 71.2619 4.02575 71.5067 4.99142C71.7514 5.95708 72.7304 6.29428 73.61 7.60484C74.4895 8.9154 74.6425 9.29095 74.4207 10.1646C74.1989 11.0383 73.4187 12.2492 72.1874 12.9083C70.956 13.5674 68.5238 14.3645 67.5907 14.5408C66.6576 14.7171 66.1757 14.6663 66.0734 14.6306C65.971 14.595 65.8198 14.5593 65.5395 14.5772C65.2593 14.595 65.1709 14.624 65.1709 14.624V14.624ZM71.8535 6.89867C71.9538 7.01725 72.0261 7.15394 72.2628 7.12758C72.4995 7.10123 72.677 7.02218 72.6803 6.94147C72.6836 6.86078 72.5998 6.8262 72.5356 6.75537C72.4715 6.68455 72.4683 6.69277 72.2743 6.70102C72.0804 6.70926 72.0146 6.69279 71.9686 6.72902C71.9226 6.76525 71.8059 6.72901 71.8026 6.65654C71.7993 6.58407 71.7089 6.51984 71.5659 6.63348C71.4229 6.74713 71.3933 6.81301 71.4509 6.85419C71.5084 6.89536 71.5396 6.89866 71.6826 6.8723C71.8256 6.84595 71.8536 6.89865 71.8536 6.89865L71.8535 6.89867ZM71.1349 7.42192C71.1349 7.42192 71.2708 7.46251 71.3684 7.55326C71.4662 7.64401 71.6496 7.75623 71.795 7.78727C71.9404 7.81833 72.0643 7.94727 72.367 7.921C72.6696 7.89474 72.927 7.85652 72.7221 7.71563C72.5171 7.57474 72.4027 7.59623 72.193 7.55086C71.9833 7.50548 71.8188 7.47447 71.6282 7.43146C71.4376 7.38847 71.3565 7.38609 71.2684 7.37893C71.1802 7.37175 71.1381 7.36665 71.1266 7.38675C71.1151 7.40686 71.1349 7.42191 71.1349 7.42191V7.42192ZM71.0062 8.10967C71.0062 8.10967 71.2731 8.17414 71.5019 8.19563C71.7307 8.21714 71.7736 8.28399 71.9833 8.28399C72.193 8.28399 72.3408 8.31024 72.4337 8.4225C72.5266 8.53475 72.5934 8.69474 72.3122 8.6828C72.031 8.67086 71.7378 8.59444 71.4971 8.46788C71.2565 8.34131 71.2374 8.37713 71.1182 8.30789C70.9991 8.23864 70.98 8.30789 70.9681 8.21236C70.9562 8.11684 71.0062 8.10969 71.0062 8.10969L71.0062 8.10967ZM70.7703 8.58728C70.7703 8.58728 70.8513 8.7616 70.9991 8.82369C71.1468 8.88579 71.173 8.87621 71.3827 8.89055C71.5925 8.90489 71.7307 8.97175 71.888 9.02428C72.0453 9.07681 72.1692 9.04817 72.2454 9.09831C72.3217 9.14845 72.398 9.39681 72.3122 9.47561C72.2264 9.55442 71.795 9.3944 71.5949 9.31322C71.3947 9.23204 71.154 9.11501 71.0992 9.04815C71.0444 8.9813 71.0444 8.97892 70.9252 8.96458C70.8061 8.95024 70.7107 8.9455 70.6917 8.82608C70.6726 8.70667 70.7703 8.58728 70.7703 8.58728H70.7703ZM70.837 9.62846C70.837 9.62846 71.2469 9.70966 71.4161 9.71682C71.5853 9.72398 71.6449 9.79084 71.7783 9.80039C71.9118 9.80994 72.1382 9.85532 72.2121 9.88159C72.286 9.90785 72.3527 10.1395 72.0667 10.1658C71.7807 10.192 71.2684 10.0464 71.0586 9.91742C70.8489 9.78846 70.787 9.79324 70.7893 9.73114C70.7917 9.66905 70.837 9.62847 70.837 9.62847V9.62846ZM70.6106 9.4207C70.6273 9.42786 70.6773 9.51143 70.6964 9.56159C70.7155 9.61174 70.6654 9.61173 70.5844 9.64755C70.5033 9.68336 70.6106 9.42068 70.6106 9.42068L70.6106 9.4207ZM70.3485 10.4284C70.3485 10.4284 70.4914 10.4905 70.6773 10.5096C70.8632 10.5287 70.968 10.7986 71.2922 10.8487C71.6163 10.8989 71.8474 10.8989 72.0238 10.8607C72.2001 10.8225 72.3646 10.7437 72.0166 10.641C71.6687 10.5383 71.2517 10.3759 71.0848 10.3568C70.918 10.3377 70.8275 10.4165 70.7417 10.3783C70.6559 10.3401 70.4962 10.2207 70.4509 10.2063C70.4056 10.192 70.3556 10.2637 70.3556 10.3162C70.3556 10.3687 70.3485 10.4284 70.3485 10.4284L70.3485 10.4284ZM70.1149 11.2332C70.1149 11.2332 70.3366 11.2213 70.3961 11.2237C70.4557 11.226 70.8465 11.4649 71.03 11.5341C71.2135 11.6034 71.4471 11.6392 71.6091 11.5819C71.7712 11.5246 71.7831 11.3646 71.7545 11.3049C71.7259 11.2452 71.1444 11.2643 70.8728 11.1878C70.6011 11.1114 70.4486 11.1329 70.3985 11.0756C70.3485 11.0183 70.3485 10.9061 70.2079 11.0326C70.0673 11.1592 70.1149 11.2332 70.1149 11.2332H70.1149ZM70.0911 11.3956C70.0911 11.3956 70.0529 11.5317 69.9981 11.601C69.9433 11.6702 69.9123 11.792 70.0148 11.8159C70.1173 11.8398 70.2627 11.9711 70.439 12.0595C70.6154 12.1478 70.9633 12.3484 71.2445 12.3484C71.5257 12.3484 71.6925 12.303 71.7068 12.2935C71.7212 12.2839 71.6282 12.2839 71.5305 12.1812C71.4328 12.0786 71.4924 12.038 71.3327 11.9926C71.173 11.9472 70.451 11.8063 70.3437 11.792C70.2365 11.7777 70.2174 11.7968 70.1983 11.6869C70.1793 11.5771 70.0911 11.3956 70.0911 11.3956H70.0911ZM72.8113 7.11014C72.8113 7.11014 73.2491 7.54257 73.443 7.9374C73.6369 8.33222 73.8558 9.49164 73.5994 10.3252C73.3429 11.1587 72.6737 12.1803 72.3798 12.4623C72.0858 12.7443 71.5104 12.9574 71.2415 13.0639C70.9726 13.1705 70.7381 13.1452 70.5253 13.0173C70.3125 12.8893 70.3181 12.8726 70.2053 12.7954C70.0925 12.7182 69.8863 12.7017 69.8477 12.6355C69.8092 12.5694 69.7212 12.4784 69.8285 12.2993C69.9358 12.1201 69.9715 12.0788 69.9715 12.0788C69.9715 12.0788 69.977 12.3875 70.043 12.4922C70.1091 12.597 70.1448 12.6576 70.3016 12.6659C70.4584 12.6741 70.981 12.7541 71.1929 12.7044C71.4047 12.6548 72.1208 12.2076 72.4362 11.5165C72.7516 10.8255 72.9762 10.054 73.0778 9.39511C73.1794 8.7362 73.1445 8.2825 73.0469 8.01432C72.9494 7.74614 72.8602 7.58968 72.8156 7.44163C72.771 7.29358 72.8113 7.11014 72.8113 7.11014H72.8113Z" fill="#C9A65C"/>
<path fill-rule="evenodd" clip-rule="evenodd" d="M69.3617 15.4518L70.8206 15.8798L71.1651 18.1074L70.8873 19.1221L70.6477 19.9541C70.5397 19.9034 70.4291 19.8535 70.3178 19.8063C69.8018 19.5869 68.8512 19.2436 67.6249 19.2257L67.9186 17.9375L68.9042 15.9421L69.3617 15.4518H69.3617ZM69.1862 25.0291L65.5797 37.5521L65.4428 38.0325C65.2 37.9101 64.9336 37.7606 64.7135 37.5994C64.3109 37.3046 63.936 36.6323 63.7753 36.1109L66.6636 23.4422C66.9058 23.2931 67.2359 23.152 67.5798 23.1923C68.2584 23.2718 68.558 23.6338 68.8312 24.1107C69.0216 24.4431 69.135 24.827 69.1862 25.0291ZM64.2226 42.3145L62.3065 49.0387L60.8984 51.4574L61.0393 48.1115L62.4693 41.8389C63.0955 42.036 63.8321 42.2545 64.2226 42.3145V42.3145Z" fill="#C9A65C"/>
<path fill-rule="evenodd" clip-rule="evenodd" d="M27.7532 31.4255C27.8407 31.2786 28.1646 29.5031 28.2419 29.1085C28.3208 28.7062 28.419 28.324 28.51 27.9293C28.6063 27.5113 28.6551 27.1388 28.7792 26.7302C28.8317 26.5358 28.9814 26.0546 28.9551 25.8558L20.0792 25.8851C19.7925 25.9477 19.8204 26.1556 19.7503 26.4394C19.7 26.6429 19.6412 26.8517 19.593 27.0757C19.5015 27.5009 19.398 27.9498 19.3376 28.389C19.2405 28.7681 19.1831 29.1406 19.1026 29.4908C19.0324 29.796 18.8961 30.2371 18.9178 30.5635L18.9671 30.5319C19.1932 30.6711 20.8767 30.5362 21.3599 30.6085L21.2762 30.9711C21.2219 31.2895 21.1539 31.4214 21.0897 31.7344C21.0407 31.973 20.9545 32.2969 20.8955 32.5469C20.7914 32.9886 20.6695 33.6914 20.5159 34.0782C20.4507 34.359 20.3287 34.6523 20.2322 34.9149C20.125 35.2063 19.9684 35.4531 19.9001 35.6704C19.4974 35.974 19.1642 36.8954 17.36 36.7829C16.852 36.7512 16.745 36.6055 16.365 36.5012C16.3765 36.4045 16.284 36.3775 16.1834 36.2687C15.8995 35.9619 15.8715 35.6341 15.7692 35.3857L15.7074 35.2649C15.8007 34.9852 15.7144 34.2338 15.7814 33.8551C15.8603 33.4089 15.9523 32.9881 15.9936 32.5193C15.9998 32.5039 16.0136 32.4175 16.0223 32.3849C16.069 32.21 15.9977 32.4406 16.0435 32.3078C16.0924 32.1659 16.0224 32.2867 16.092 32.2019C16.0687 31.7776 16.5406 30.0613 16.6531 29.4906C16.7474 29.0118 16.8536 28.6068 16.9346 28.1014C17.0051 27.6616 17.175 27.198 17.2216 26.7143L18.2845 21.8404C18.7152 20.7931 18.795 17.3221 21.2029 17.1271C22.5191 17.0205 23.1527 17.6703 23.4624 18.6865C23.8087 19.8225 23.3225 21.0785 23.3354 22.2126C23.8745 22.2845 29.2474 22.2603 29.4278 22.1622C29.8392 21.8963 29.7004 18.5466 29.7871 18.1591C29.7445 18.0977 29.7677 18.1536 29.7404 18.0469L29.7027 17.6654C29.6854 17.5395 29.6418 17.4133 29.6152 17.279C29.5507 16.954 29.5222 16.755 29.416 16.4674C29.006 15.3567 28.7458 14.8631 27.9008 13.9876C27.5047 13.5773 27.2838 13.4417 26.7747 13.1069C26.3168 12.9171 25.9014 12.6444 25.4475 12.5354C24.0957 11.9246 20.845 11.9176 19.301 12.2855C15.2054 13.0583 13.9273 16.0272 13.7194 16.1591L13.6054 16.4634C13.409 16.7063 12.8419 17.8379 12.8074 18.2267C12.6567 18.3741 12.3748 19.1467 12.3912 19.3863C12.3795 19.3968 12.3638 19.4092 12.3552 19.4169C12.3472 19.4241 12.3301 19.4393 12.3222 19.4465C12.3134 19.4545 12.2796 19.4886 12.2689 19.5013L12.1964 20.0291L12.8585 20.0625C13.0506 20.2129 13.163 20.2253 13.1022 20.637C13.0722 20.8408 12.9621 21.1158 12.8769 21.2976C12.6596 21.7611 12.3738 21.9135 12.0617 22.2277C11.8508 22.3017 11.4488 22.5007 11.349 22.6952C11.2591 23.2204 11.0828 23.8439 10.9592 24.3711C10.875 24.7304 10.6044 25.8218 10.624 26.1157L10.5787 26.1862C10.5305 26.2881 10.569 26.1795 10.5304 26.302C10.3925 26.7392 9.94921 29.3573 9.95277 29.505C9.86518 29.636 9.34644 33.0947 9.32735 33.6374C9.28206 34.9245 9.35385 36.7525 9.75257 37.9169C9.92369 38.4167 9.99113 38.6117 10.218 39.0511C10.3096 39.2285 10.4155 39.3964 10.5127 39.5509C10.6544 39.7763 10.728 39.8084 10.8093 40.047L10.7706 40.0566C10.9236 40.1342 11.2588 40.4885 11.4282 40.631C11.6079 40.7823 12.0156 41.0457 12.092 41.1328C12.2734 41.1825 12.2516 41.1908 12.3853 41.2702C12.5726 41.3814 12.5431 41.2983 12.6521 41.4973L13.4246 41.8155C14.058 41.8494 14.4055 41.7228 14.9695 41.6693C16.5475 41.5193 16.6411 42.4193 19.1512 41.0782C20.5818 40.3138 21.1491 39.1073 21.688 37.6748C21.793 37.3955 21.7932 37.2628 22.1521 37.2816C22.3657 37.609 22.4076 38.0686 22.5984 38.4788C22.9825 39.3044 23.3278 39.572 24.2557 40.1098C24.4812 40.2404 25.0719 40.7559 25.2421 40.7794C25.3423 40.915 25.4934 41.0506 25.6844 41.1073C25.8171 40.9232 25.9258 40.0904 25.988 39.7987C26.0018 39.734 26.0129 39.6502 26.0266 39.5918C26.0267 39.5914 26.0611 39.4723 26.0622 39.4696C26.094 39.3939 26.1031 39.3899 26.1301 39.3525C26.12 39.0056 26.2879 38.6984 26.3288 38.345C26.4472 38.137 26.6813 36.6671 26.7645 36.2667C26.8446 35.8815 26.8794 35.5552 26.9732 35.1909C27.0593 34.8562 27.16 34.401 27.2003 34.0591L27.7532 31.4256V31.4255ZM123.33 26.6983C123.428 26.7807 123.179 26.7683 123.515 26.7787C123.619 26.7053 123.554 26.8465 123.631 26.6724C123.656 26.615 123.661 26.4757 123.667 26.4124C123.799 25.7689 123.798 24.9029 123.765 24.2115C123.708 24.0859 123.64 23.6889 123.677 23.5204C123.299 23.0903 123.409 21.5236 120.944 20.4302C120.51 20.2376 119.929 20.0833 119.378 20.0448C118.74 20.0002 118.231 19.9506 117.535 19.9455L111.787 19.8928L111.628 19.9243L111.582 20.1759L109.935 28.0594C109.917 28.0797 109.908 28.088 109.904 28.0909C109.904 28.0971 109.9 28.1149 109.884 28.1594C109.86 28.2238 109.88 28.163 109.86 28.2384C109.843 28.3039 109.834 28.3772 109.818 28.4493L109.581 29.5639C109.471 30.0556 109.375 30.5282 109.276 31.0696C109.183 31.576 108.631 33.7141 108.679 34.0279C108.561 34.1686 108.565 34.3391 108.533 34.5166L108.217 35.814C108.035 36.6975 107.577 38.7843 107.47 39.5388C107.391 40.0961 107.017 41.1253 107.268 41.3226C107.495 41.4179 111.784 41.4257 111.998 41.3352C112.209 41.2307 112.157 41.0214 112.231 40.7677L112.295 40.6084C112.299 40.587 112.308 40.5822 112.316 40.5708C112.244 40.1494 112.797 38.2593 112.866 37.6831C112.973 37.3456 113.028 36.9225 113.118 36.5515C113.217 36.1436 113.295 35.788 113.378 35.3752C113.525 34.6376 113.662 33.6004 113.882 32.9437C113.896 32.8674 113.913 32.781 113.938 32.7284C114.017 32.5653 114.007 32.5944 114.122 32.5986L114.392 32.5155C114.886 32.4808 115.862 32.5406 116.279 32.8136C116.66 33.1009 116.698 33.2458 116.883 33.7017C116.953 34.8178 116.513 36.6461 116.33 37.733C116.296 38.1859 116.174 38.8113 116.086 39.268C115.999 39.7228 116.025 40.5161 116.073 40.987C116.174 41.1336 116.146 41.257 116.422 41.3365C116.875 41.4671 120.049 41.3714 120.824 41.374C121.173 41.3752 121.328 41.4169 121.456 41.2787C121.511 41.0654 121.177 40.4972 121.156 39.6311C121.114 37.8845 121.528 36.8421 121.797 35.2828C121.821 35.1448 121.87 34.9658 121.87 34.8341C121.87 34.5585 121.832 34.6851 121.721 34.4866C121.754 34.2447 121.824 34.2794 121.883 33.9964C122.076 33.0809 121.791 32.2097 121.079 31.6372C120.735 31.36 120.694 31.3469 120.261 31.1775C120.01 31.1063 120.018 31.1516 119.812 31.0198C119.92 30.9018 119.823 30.9618 120.047 30.9176C120.203 30.8866 120.262 30.8646 120.416 30.8312C120.545 30.7329 121.053 30.5321 121.245 30.4116C121.773 30.0802 122.235 29.6946 122.614 29.1895C123.092 28.5523 122.714 28.582 122.817 28.2551C122.806 28.2437 122.794 28.2273 122.787 28.2167L122.709 28.103C122.706 28.0964 122.648 27.9652 122.646 27.9609C122.352 27.2577 121.815 26.5968 121.834 26.2078C122.16 26.1361 122.141 26.2374 122.173 26.267C122.519 26.2341 122.998 26.689 123.33 26.6982L123.33 26.6983ZM28.7031 37.3351L28.834 37.9258C29.1645 37.7707 29.5476 37.6433 29.8681 37.4818C30.2546 37.2869 30.6623 37.208 30.8169 37.1291C30.9047 37.0843 30.86 37.1135 30.917 37.061C31.2961 37.0703 32.0522 36.7553 32.5078 36.689C33.6331 36.5253 33.4024 36.7788 33.5483 35.7213C33.6676 34.8568 34.1773 32.7603 34.1916 32.4161L34.8852 29.1566C35.1992 28.1059 35.5709 25.7449 35.9887 24.6405C36.245 23.9629 36.6979 23.4762 37.4673 23.3131C37.9024 23.2209 38.3349 23.3335 38.6243 23.5134C39.0132 23.7553 39.0295 23.9802 39.2464 24.2992C39.3893 25.4271 38.8963 27.3752 38.6187 28.5135C38.5341 28.8601 37.7543 32.2727 37.7961 32.5663C37.7051 32.6839 37.6845 32.7958 37.6537 32.947L37.3934 34.1359C37.0686 35.5071 36.8705 37.5483 35.4874 37.8946C34.2789 38.1975 34.3297 37.7227 33.8079 37.7782C33.5523 38.1205 32.7525 41.5314 33.015 41.7739C33.2793 42.0181 36.3313 41.8646 37.2451 41.5734C38.0878 41.305 39.8539 40.5109 40.1552 39.7121C40.1829 39.6967 40.1775 39.7116 40.251 39.6418C40.6822 39.2325 41.8434 36.6467 41.9311 36.0529C42.055 35.8835 42.8544 32.5794 42.9642 32.0645C43.1132 31.3655 43.2764 30.6997 43.3975 29.947C43.5138 29.2244 43.7265 28.54 43.7859 27.7646C43.844 27.6443 44.0361 25.9436 44.0681 25.6475C44.2793 23.6959 43.6112 21.3782 41.8807 20.3504C40.1416 19.3174 37.7898 19.0872 35.6875 19.7334C34.6724 20.0455 34.2404 20.3513 33.881 20.4623C33.7856 20.5716 33.3384 20.8211 32.8862 21.278C32.7238 21.4421 32.5852 21.5665 32.4292 21.7696C32.3228 21.9082 32.1813 22.1968 32.0704 22.2517C31.9862 22.4897 31.8694 22.5576 31.8385 22.7559C31.7021 22.8717 31.6914 22.9395 31.599 23.1335C31.5396 23.2584 31.4636 23.4133 31.4089 23.5436C31.0428 24.4154 30.7043 25.3131 30.4408 26.2218C30.2757 26.791 29.49 29.7535 29.5678 30.1576L29.4017 30.6713C29.2572 31.4274 28.794 33.8516 28.8493 34.3003C28.6812 34.3561 28.7357 34.8059 28.7265 34.9866C28.7132 35.25 28.6911 35.4773 28.6845 35.7331C28.6708 36.2677 28.6885 36.8011 28.7031 37.3351V37.3351ZM53.7962 40.5656C54.0827 40.4362 54.7104 39.955 54.8887 39.78C55.1862 39.4882 55.5548 39.0863 55.7495 38.7424L56.0422 38.2324C56.319 38.0158 57.2226 35.4167 57.3068 34.8736C57.4657 34.4922 57.7164 33.3692 57.8016 32.9012C57.9247 32.225 58.1377 31.4554 58.2291 30.7914C58.4208 30.1871 58.5445 29.1357 58.6415 28.4575C58.7625 27.6113 58.9171 26.829 58.9458 25.8972C58.9858 24.5952 58.9397 23.3769 58.2745 22.308C58.0627 21.9675 57.8476 21.7358 57.6839 21.4548C57.5285 21.3238 57.3402 21.0668 57.1583 20.9251C57.058 20.8469 56.9417 20.7848 56.8483 20.7344C56.6913 20.6496 56.6075 20.6843 56.5538 20.5384C56.2893 20.5567 55.838 20.3262 55.5508 20.2378C55.2251 20.1376 54.8736 20.0629 54.4925 20.0287C52.9606 19.8912 51.0899 19.9501 49.5067 19.9535C46.737 19.9596 47.073 19.6651 46.8663 20.4925L45.9993 24.3064C45.8728 25.0388 45.7119 25.869 45.5458 26.5785C45.4647 26.9248 45.0812 28.5725 45.0941 28.7957C45.0864 28.8062 45.0781 28.8215 45.0742 28.8292L44.8368 29.8594C44.7628 30.2152 44.6893 30.5263 44.6148 30.8736C44.4127 31.8154 43.275 36.9593 43.3266 37.1812C43.252 37.2596 43.2825 37.2107 43.2341 37.325L43.1567 37.7008C43.1197 37.8908 43.0961 38.0217 43.0652 38.2268C43.0188 38.5345 42.9292 38.9276 42.8538 39.2583C42.7854 39.558 42.3634 41.1881 42.5294 41.3418C42.7714 41.4671 48.9485 41.4132 49.7058 41.3684L49.7889 40.7917C49.8146 40.459 49.8596 40.254 50.0064 39.9876C50.0794 39.9826 50.1228 39.9671 50.1971 39.9843C50.3849 40.0277 50.3195 40.045 50.3675 40.0987C50.84 40.1586 51.5166 41.0985 51.8683 41.211C52.3307 41.3589 53.5288 40.7883 53.7961 40.5656L53.7962 40.5656ZM115.249 26.3622C115.181 26.5019 115.315 26.1746 115.249 26.3622V26.3622ZM114.859 28.6856C114.73 28.585 114.957 27.8641 115.034 27.4661L115.203 26.5457C115.214 26.4908 115.222 26.4386 115.241 26.3866C115.244 26.3777 115.247 26.3696 115.249 26.3622C115.255 26.3502 115.263 26.3347 115.272 26.3152L115.311 26.2484C115.281 25.9598 115.57 24.5432 115.711 24.3656C115.705 24.141 115.811 23.7405 115.911 23.573C116.588 23.423 117.677 23.5559 118.131 23.9024C119.172 24.6972 118.69 27.08 118.014 27.8757C117.727 28.2134 116.84 28.8174 116.196 28.6769C116.141 28.7114 116.182 28.6993 116.081 28.7209C115.903 28.7593 114.96 28.764 114.859 28.6855V28.6856ZM96.0864 27.8698C95.5689 28.962 94.8167 30.8077 94.3254 31.9576L92.5872 36.059C92.4584 36.354 92.0436 37.1278 92.0366 37.4246C91.8552 37.6116 90.8081 40.2154 90.5534 40.7637C90.5174 40.8412 90.4763 40.9164 90.4483 41.0124C90.4104 41.1424 90.3968 41.2492 90.452 41.3055C90.805 41.4662 94.7315 41.3965 95.4378 41.3679C95.6611 41.1867 95.8224 40.6053 95.8799 40.23C96.0977 40.067 96.6619 37.6244 97.0516 37.2426L100.341 37.2333C100.834 37.2347 101.051 37.1104 100.99 37.6331C100.953 38.2679 100.949 38.9582 100.911 39.5899C100.884 40.036 100.743 41.0165 100.889 41.3532C101.575 41.4969 105.219 41.295 105.52 41.3781C105.759 40.9211 105.611 39.9026 105.665 39.2927C105.657 37.6836 105.682 36.053 105.68 34.4367C105.677 32.8131 105.622 31.2362 105.609 29.6425L105.545 22.3514C105.543 21.929 105.617 20.1839 105.477 19.9542C105.199 19.8479 102.232 19.9159 101.686 19.9202C101.127 19.9246 100.245 19.8451 99.7404 19.8954C99.3493 19.9344 99.2621 20.5283 98.9974 21.1036C98.5738 22.0245 98.2139 22.9265 97.8126 23.8056C97.2785 24.9757 96.5705 26.8482 96.0864 27.8697L96.0864 27.8698ZM100.181 28.1702C100.283 27.6371 101.329 24.9814 101.607 24.1639C101.681 23.9456 101.657 23.7425 101.836 23.6506C101.914 23.7842 101.72 25.5344 101.701 25.8968C101.656 26.5319 101.656 27.1704 101.614 27.8247L101.28 33.5576L98.3065 33.5265C98.2928 33.3735 98.5332 32.6429 98.6699 32.5003C98.6678 32.301 99.288 30.6615 99.4138 30.3085C99.5293 29.9844 100.084 28.3022 100.181 28.1702V28.1702ZM75.3397 19.9405C75.098 19.958 74.9511 19.984 74.9512 20.0213L74.9514 20.1194C75.0434 20.6749 75.0283 20.8915 75.0211 21.5111C74.9513 26.3176 75.0202 31.5724 75.0471 36.4341C75.0513 37.2009 74.9692 40.9653 75.1038 41.3945C75.5023 41.4605 76.3715 41.4124 76.8176 41.4096C77.5297 41.4051 77.8563 41.5405 78.2218 41.0856L79.2245 39.4949C79.3314 39.3265 79.4151 39.059 79.6531 39.181C79.7978 39.4155 79.654 39.7037 79.5885 39.9736C79.4881 40.2555 79.2 41.1151 79.221 41.3671C79.4476 41.404 79.6304 41.4035 79.8581 41.405C80.2136 41.4072 80.2252 41.4214 80.403 41.2644C80.4092 41.2589 80.4202 41.2456 80.4301 41.2377C80.4424 40.8837 80.7986 40.123 80.8607 39.6307L81.2258 38.6508L82.6488 33.9031C82.7482 33.776 84.1856 28.9877 84.1798 28.7606C84.3236 28.569 84.2972 28.3976 84.3867 28.2002L84.366 28.754C84.3682 29.0549 84.2596 29.618 84.2226 29.9079C84.1695 30.323 84.1596 30.8154 84.1343 31.2426C84.1061 31.7173 83.9094 33.5309 84.0078 33.8747C83.8827 34.0522 83.9218 34.2514 83.8898 34.7354C83.8706 35.0248 83.8411 35.3476 83.8255 35.6408C83.7748 36.5949 83.477 41.0347 83.5804 41.3418C83.9878 41.4394 87.281 41.3811 88.1806 41.3915C88.8582 41.3993 88.967 41.2934 89.079 40.6794L89.2908 40.1795L89.6491 39.1696L91.0694 35.3359C91.194 35.16 91.6642 33.7963 91.7756 33.4493C91.9843 32.7994 92.2569 32.1574 92.5018 31.5327C93.0114 30.2327 93.4371 28.9673 93.9253 27.6648C94.4172 26.3525 94.8633 25.1109 95.3457 23.7853C95.5714 23.1651 96.7632 20.2686 96.7239 19.9341L92.0679 19.9134C91.8065 20.2527 91.6563 20.9593 91.4956 21.4334C91.3166 21.9615 91.1257 22.4781 90.9702 23.0495L88.991 29.5455C88.8222 30.1789 88.0205 32.2844 88.053 32.8483C87.9796 32.9343 88.022 32.8474 87.9648 33.0086C87.9437 33.0681 87.9169 33.1949 87.902 33.2579L87.5838 34.6904C87.5255 34.7715 87.5656 34.6027 87.4828 34.843C87.4464 34.7917 87.4508 34.8461 87.4288 34.7375C87.4231 34.7093 87.4249 34.6771 87.4233 34.6421C87.4202 34.577 87.4296 34.482 87.4275 34.3978L87.6033 30.8673C87.6535 30.2585 87.6151 29.6351 87.6881 29.0296C87.8124 27.9973 88.1098 20.7335 88.0626 19.9701L83.5052 19.9248C83.1883 20.3958 81.5782 25.9582 81.177 27.1668C81.0017 27.6948 79.7853 31.413 79.8211 31.6257C79.717 31.7407 79.7348 31.7524 79.6823 31.9647L78.98 34.5779C78.9287 34.631 78.9461 34.594 78.902 34.6801C78.8129 34.8541 78.9078 34.8247 78.7508 34.9002L78.7823 34.5822L78.8924 33.6828C78.8701 33.2174 78.9908 32.5574 79.0299 32.0896C79.1079 31.1554 79.1211 29.6818 79.2144 28.6877C79.2677 28.1201 79.3073 27.5908 79.334 27.0331C79.3758 25.8694 79.4719 24.7002 79.5188 23.4984C79.5361 23.0536 79.7173 20.5675 79.6657 20.1513C79.6337 19.8932 79.6945 20.0692 79.5943 19.9509C79.463 19.9565 76.5158 19.9951 75.3397 19.9405H75.3397ZM65.2783 39.0278C65.3459 38.9896 65.3786 38.9752 65.4544 38.9273L65.6044 38.683C65.7758 38.6115 65.7992 38.5755 65.8066 38.38C65.6459 38.3162 65.5574 38.3443 65.3715 38.2966C65.2431 38.2635 65.1417 38.2034 64.9808 38.1627L64.4237 37.799C64.4143 37.7934 64.39 37.7976 64.383 37.7783C64.3758 37.7585 64.3551 37.764 64.3406 37.7579C64.3217 37.6955 64.365 37.7645 64.2833 37.6554C64.2369 37.5936 64.2293 37.5966 64.1904 37.5497C64.1436 37.4932 64.0945 37.421 64.059 37.3324C63.8902 37.2192 63.9073 37.2353 63.8186 37.0265C63.7632 36.8958 63.7327 36.8285 63.6726 36.6674C63.4122 35.97 63.4848 34.703 63.5107 33.9311C63.1715 33.8425 59.2345 33.8159 58.9758 33.916L58.8866 34.2842C58.862 35.3905 58.9035 36.1126 59.0419 37.2284C59.0995 37.3765 59.1749 37.783 59.2355 37.9798C59.3171 38.2447 59.3922 38.4024 59.4929 38.6625C59.687 39.1644 59.9607 39.4705 60.1963 39.8689C61.2717 41.0194 62.1355 41.4495 63.6713 41.8105C64.7523 42.0647 64.262 41.5666 64.4227 40.7007C64.4732 40.428 64.6043 39.9407 64.7714 39.8166C64.8799 39.5471 65.1375 39.2811 65.2229 39.1497C65.3034 39.0259 65.2532 39.1198 65.2782 39.0278L65.2783 39.0278ZM69.3281 24.7917L69.3533 24.898C69.3412 24.9456 69.4578 25.6897 69.466 25.852C69.4944 26.4144 69.4066 26.4475 69.9899 26.4892L73.0821 26.4943C73.306 26.5079 73.366 26.5511 73.4676 26.3967C73.5364 26.3716 73.5193 26.3849 73.5728 26.3468C73.7129 25.5444 73.628 24.8011 73.5845 23.9996C73.5342 23.7117 73.4021 23.1774 73.4448 22.9084L73.2842 22.636C73.0992 22.2374 72.6381 21.2988 72.3453 21.1613C72.2237 20.9208 72.1329 20.8974 71.9601 20.7281C71.9287 20.6974 71.9126 20.6794 71.8815 20.6455L71.8291 20.5824C71.649 20.5734 71.6302 20.5005 71.4334 20.4809L71.2547 20.4817L71.2417 20.6411C71.3262 20.6842 71.2799 20.6674 71.3286 20.753C71.4084 20.8198 71.353 20.7464 71.4041 20.8817L71.1919 20.8391C71.129 20.7859 71.1878 20.8131 71.0877 20.8236L70.8939 20.6453C70.6986 20.4956 70.3385 20.2447 70.2317 20.0544C70.1253 20.0402 70.2267 20.0758 70.111 20.0071C70.1757 20.0377 70.1726 20.0324 70.2194 20.0686L70.1006 20.2684C70.0122 20.3737 70.0499 20.3211 69.9947 20.3619C69.9691 20.4982 70.0321 20.3925 69.94 20.4713C69.5538 20.4224 69.2294 20.411 68.9265 20.2375C68.6675 20.1602 68.6906 20.0934 68.5536 20.0268L68.5192 19.687C68.4806 19.6511 68.4911 19.6783 68.4945 19.6165L68.4038 19.5628C68.3919 19.5543 68.3793 19.5451 68.3671 19.5358C68.0037 19.2577 68.1071 19.4224 68.0296 19.2192C67.9893 19.3497 67.9683 19.4087 67.8044 19.3831C67.3773 19.3162 67.9196 19.3194 67.5465 19.2272L67.4935 19.2406L67.4366 19.3502L67.3029 19.3587C67.3459 19.506 67.199 19.4837 67.0569 19.4667C66.9315 19.4517 66.8352 19.4002 66.7607 19.3477C66.5362 19.3878 66.2389 19.4277 66.0246 19.4731L65.4095 19.6088C65.2886 19.6608 65.3659 19.6159 65.2961 19.6702C65.0812 19.6601 64.5929 19.8494 64.3918 19.9428C62.4356 20.6474 61.4724 22.4038 61.081 24.3351C60.9173 25.1429 61.0682 25.9767 61.1398 26.6776L61.3318 27.5487C61.4505 27.7559 61.5562 28.1256 61.6925 28.3678C61.8293 28.6113 62.0365 28.9234 62.132 29.1928C62.1551 29.2016 62.6699 29.9037 62.7274 29.9772C62.9752 30.2943 63.1533 30.4826 63.411 30.7416C63.6669 30.9988 63.8779 31.2087 64.1413 31.4579C64.2468 31.5577 64.3812 31.6572 64.4948 31.7777L65.9625 25.7431C65.6779 25.2539 65.6805 24.5265 65.8863 23.9761C66.1321 23.6344 66.1974 23.4 66.5014 23.2276L66.5681 23.191C66.6802 23.1189 66.8621 23.0565 67.0114 23.0063C67.0062 22.9454 66.9873 22.9913 67.038 22.9105C67.1726 22.4668 67.1049 21.9061 67.1897 21.4411C67.2296 21.2224 67.2823 20.9826 67.3057 20.753C67.3363 20.4537 67.4158 20.2996 67.4448 20.0885L67.4365 19.8265C67.5018 19.7762 67.4716 19.8037 67.5316 19.7405C67.7444 19.5163 67.5613 19.6096 67.8279 19.5647L67.7276 20.1793C67.6771 20.3172 67.6807 20.2736 67.6397 20.3256C67.6267 21.0442 67.2011 22.2427 67.3628 22.9532L67.8165 22.9708C67.9587 23.0408 68.1679 23.1044 68.3733 23.2217C68.5784 23.3388 68.6953 23.4257 68.824 23.6247C68.9725 23.8546 69.2994 24.5032 69.3281 24.7917V24.7917ZM67.1322 36.845C67.14 37.168 66.7716 37.4425 66.7502 37.6831C66.5719 37.7987 66.4777 37.9377 66.314 38.0921C66.3069 38.0989 66.2333 38.1674 66.2295 38.171L66.1695 38.2322C66.2457 38.4847 66.3634 38.5 66.4744 39.0617L66.4596 39.0918L66.6046 39.407C66.6083 39.5499 66.5935 39.447 66.6707 39.4857C66.6908 39.688 66.8327 39.6094 67.3226 39.695C67.7179 39.7641 67.7717 39.719 68.1139 39.8603C68.3491 39.9574 69.3349 40.2305 69.5922 40.2363C70.9116 40.2659 71.3786 38.609 71.5569 38.4309L71.6007 38.1325C71.759 38.0103 71.9798 36.8847 72.036 36.5776C72.1603 35.8998 72.1575 35.3599 72.13 34.6215C71.9707 34.2608 72.0502 32.8486 70.3608 30.8183C70.2175 30.6461 70.1163 30.516 69.943 30.2861C69.8188 30.1214 69.6886 29.8904 69.5411 29.778L69.3363 29.4788C69.212 29.4086 69.278 29.3876 69.1637 29.3926C69.1219 29.2755 69.2108 29.258 69.0935 29.2927C69.0407 29.191 69.1213 29.188 68.9953 29.1928C68.9076 28.9937 68.941 29.0491 68.7663 28.9153C68.6631 28.8362 68.6275 28.8398 68.5942 28.6927C68.5316 28.6782 68.4579 28.6525 68.3871 28.6306L66.7796 34.1861C66.8384 34.2409 66.9175 34.2548 67.0173 34.4202C67.2733 34.8448 67.2949 35.5461 67.2358 36.0396C67.2117 36.241 67.2202 36.1854 67.216 36.394C67.209 36.7333 67.1144 36.5016 67.1322 36.845ZM52.698 32.7684C52.6062 33.0267 52.5328 33.4857 52.4715 33.7644C52.3955 34.1102 51.9199 35.8046 51.7522 36.1361C51.6646 36.3093 51.6106 36.4378 51.4793 36.5383C51.4639 36.7206 51.3655 36.7666 51.2393 36.9007C50.8743 37.1991 50.5194 37.3745 49.9569 37.4317C49.539 37.4742 48.6733 37.6126 48.2795 37.5036C48.2752 37.4774 48.4454 36.1471 48.6233 35.9208C48.5518 35.6012 49.1941 33.3435 49.2526 32.739C49.4539 31.9338 51.1159 23.8038 51.2011 23.748C51.4811 23.6951 52.94 23.7944 53.1581 23.8826C53.6373 24.0763 53.8958 24.5469 54.016 25.1445C54.0793 25.9174 53.9009 26.732 53.7995 27.4506C53.6951 28.1914 53.466 28.8543 53.378 29.5437L52.7983 32.2924L52.8367 32.3653L52.7962 32.2882C52.7516 32.433 52.6939 32.5753 52.6979 32.7684L52.698 32.7684Z" fill="white"/>
<path fill-rule="evenodd" clip-rule="evenodd" d="M69.0848 8.52942L67.8015 17.7583L65.9814 13.3989L67.7181 18.2107L62.0001 14.0272L67.1615 18.1742L56.7495 16.1686L59.0437 16.7918L66.8101 18.6314L57.8877 20.5655L58.4543 20.8403L67.1825 19.197L65.014 21.8326L67.4666 19.297L64.9685 32.4397L68.0858 19.0683L69.5056 21.5695L68.6114 19.379L73.7069 23.7299L69.0043 19.1344L74.5361 20.3647L74.55 20.1293L69.4103 18.7159L85.3767 14.9612L68.4554 18.2803L72.555 14.1195L68.2141 18.0116L69.0848 8.52942Z" fill="white"/>
<path d="M57.5474 55.3948C57.5474 54.8602 57.6278 54.4109 57.7874 54.0472C57.9055 53.7798 58.0688 53.5393 58.2746 53.3269C58.4805 53.1145 58.7059 52.9571 58.9508 52.8533C59.2772 52.7154 59.6537 52.6458 60.0801 52.6458C60.8524 52.6458 61.4688 52.8862 61.933 53.366C62.3959 53.8469 62.6273 54.5147 62.6273 55.3704C62.6273 56.2188 62.3971 56.8829 61.9378 57.3614C61.4785 57.8411 60.8633 58.0804 60.0947 58.0804C59.3162 58.0804 58.6961 57.8424 58.2369 57.3651C57.7776 56.889 57.5474 56.2322 57.5474 55.3948H57.5474ZM58.6365 55.3594C58.6365 55.9539 58.7741 56.4044 59.0482 56.712C59.3223 57.0184 59.6707 57.1722 60.0922 57.1722C60.5149 57.1722 60.8609 57.0196 61.1326 56.7156C61.403 56.4105 61.5383 55.9539 61.5383 55.3448C61.5383 54.743 61.4067 54.2937 61.1423 53.9983C60.8792 53.7017 60.5296 53.554 60.0922 53.554C59.6561 53.554 59.304 53.7041 59.0373 54.0032C58.7705 54.3035 58.6365 54.7552 58.6365 55.3594H58.6365ZM67.3466 57.9852V52.741H68.3723L70.5261 56.2554V52.741H71.5056V57.9852H70.4469L68.326 54.5379V57.9852H67.3466H67.3466ZM76.5489 57.9852V52.7849H77.6087V57.0989H80.2327V57.9852H76.5489ZM84.8424 57.9852V52.741H85.9022V57.9852H84.8424ZM90.8042 57.9852V52.741H91.8299L93.9837 56.2554V52.741H94.9632V57.9852H93.9046L91.7837 54.5379V57.9852H90.8042H90.8042ZM99.9772 57.9852V52.741H103.851V53.6272H101.037V54.7918H103.654V55.678H101.037V57.0989H103.953V57.9852H99.9772Z" fill="white"/>
</svg>
