<svg width="12" height="12" viewBox="0 0 12 12" fill="none" xmlns="http://www.w3.org/2000/svg">
<path d="M4.98975 8.3584V6.34131H3.22754V5.55908H4.98975V3.7002H5.85547V5.55908H7.61328V6.34131H5.85547V8.3584H4.98975Z" fill="#531010"/>
<path fill-rule="evenodd" clip-rule="evenodd" d="M5.52687 10.5269C8.02699 10.5269 10.0537 8.50014 10.0537 6.00002C10.0537 3.49989 8.02699 1.47314 5.52687 1.47314C3.02675 1.47314 1 3.49989 1 6.00002C1 8.50014 3.02675 10.5269 5.52687 10.5269ZM5.52687 11.5269C8.57928 11.5269 11.0537 9.05242 11.0537 6.00002C11.0537 2.94761 8.57928 0.473145 5.52687 0.473145C2.47446 0.473145 0 2.94761 0 6.00002C0 9.05242 2.47446 11.5269 5.52687 11.5269Z" fill="#531010"/>
</svg>
