<svg width="140" height="13" viewBox="0 0 140 13" fill="none" xmlns="http://www.w3.org/2000/svg">
<path d="M5.03155 4.8171L47.0498 4.81709" stroke="url(#paint0_linear_574_10189)" stroke-width="0.730716"/>
<path d="M47.1523 1.60575L12.7698 1.60575C12.7698 7.65294 7.86756 12.5552 1.82037 12.5552" stroke="url(#paint1_linear_574_10189)" stroke-width="0.730716"/>
<g filter="url(#filter0_d_574_10189)">
<path d="M5.29122 8.61617C5.14795 8.75944 4.91565 8.75944 4.77238 8.61617L1.23269 5.07648C1.08941 4.93321 1.08941 4.70091 1.23269 4.55764L4.77238 1.01795C4.91565 0.874673 5.14795 0.874674 5.29122 1.01795L8.83091 4.55764C8.97418 4.70091 8.97418 4.93321 8.83091 5.07648L5.29122 8.61617Z" fill="url(#paint2_linear_574_10189)"/>
<path d="M5.29122 8.61617C5.14795 8.75944 4.91565 8.75944 4.77238 8.61617L1.23269 5.07648C1.08941 4.93321 1.08941 4.70091 1.23269 4.55764L4.77238 1.01795C4.91565 0.874673 5.14795 0.874674 5.29122 1.01795L8.83091 4.55764C8.97418 4.70091 8.97418 4.93321 8.83091 5.07648L5.29122 8.61617Z" fill="url(#paint3_radial_574_10189)"/>
</g>
<g filter="url(#filter1_i_574_10189)">
<path d="M5.29091 7.51248C5.14763 7.65576 4.91534 7.65576 4.77206 7.51248L2.33606 5.07648C2.19279 4.93321 2.19279 4.70091 2.33606 4.55764L4.77206 2.12164C4.91534 1.97837 5.14763 1.97837 5.29091 2.12164L7.72691 4.55764C7.87018 4.70092 7.87018 4.93321 7.72691 5.07649L5.29091 7.51248Z" fill="url(#paint4_linear_574_10189)"/>
<path d="M5.29091 7.51248C5.14763 7.65576 4.91534 7.65576 4.77206 7.51248L2.33606 5.07648C2.19279 4.93321 2.19279 4.70091 2.33606 4.55764L4.77206 2.12164C4.91534 1.97837 5.14763 1.97837 5.29091 2.12164L7.72691 4.55764C7.87018 4.70092 7.87018 4.93321 7.72691 5.07649L5.29091 7.51248Z" fill="url(#paint5_radial_574_10189)"/>
<path d="M5.29091 7.51248C5.14763 7.65576 4.91534 7.65576 4.77206 7.51248L2.33606 5.07648C2.19279 4.93321 2.19279 4.70091 2.33606 4.55764L4.77206 2.12164C4.91534 1.97837 5.14763 1.97837 5.29091 2.12164L7.72691 4.55764C7.87018 4.70092 7.87018 4.93321 7.72691 5.07649L5.29091 7.51248Z" fill="black" fill-opacity="0.5"/>
</g>
<path d="M5.29154 6.74721C5.14826 6.89048 4.91597 6.89048 4.77269 6.74721L3.10198 5.07649C2.9587 4.93322 2.9587 4.70092 3.10198 4.55765L4.77269 2.88693C4.91597 2.74365 5.14826 2.74365 5.29154 2.88693L6.96226 4.55765C7.10553 4.70092 7.10553 4.93322 6.96226 5.07649L5.29154 6.74721Z" fill="url(#paint6_linear_574_10189)"/>
<path d="M5.29154 6.74721C5.14826 6.89048 4.91597 6.89048 4.77269 6.74721L3.10198 5.07649C2.9587 4.93322 2.9587 4.70092 3.10198 4.55765L4.77269 2.88693C4.91597 2.74365 5.14826 2.74365 5.29154 2.88693L6.96226 4.55765C7.10553 4.70092 7.10553 4.93322 6.96226 5.07649L5.29154 6.74721Z" fill="url(#paint7_linear_574_10189)" fill-opacity="0.5"/>
<path d="M5.29154 6.74721C5.14826 6.89048 4.91597 6.89048 4.77269 6.74721L3.10198 5.07649C2.9587 4.93322 2.9587 4.70092 3.10198 4.55765L4.77269 2.88693C4.91597 2.74365 5.14826 2.74365 5.29154 2.88693L6.96226 4.55765C7.10553 4.70092 7.10553 4.93322 6.96226 5.07649L5.29154 6.74721Z" fill="url(#paint8_radial_574_10189)"/>
<path d="M135.556 4.8171L93.5381 4.81709" stroke="url(#paint9_linear_574_10189)" stroke-width="0.730716"/>
<path d="M93.4355 1.60575L127.818 1.60575C127.818 7.65294 132.72 12.5552 138.768 12.5552" stroke="url(#paint10_linear_574_10189)" stroke-width="0.730716"/>
<g filter="url(#filter2_d_574_10189)">
<path d="M135.297 8.61617C135.44 8.75944 135.672 8.75944 135.816 8.61617L139.355 5.07648C139.498 4.93321 139.498 4.70091 139.355 4.55764L135.816 1.01795C135.672 0.874673 135.44 0.874674 135.297 1.01795L131.757 4.55764C131.614 4.70091 131.614 4.93321 131.757 5.07648L135.297 8.61617Z" fill="url(#paint11_linear_574_10189)"/>
<path d="M135.297 8.61617C135.44 8.75944 135.672 8.75944 135.816 8.61617L139.355 5.07648C139.498 4.93321 139.498 4.70091 139.355 4.55764L135.816 1.01795C135.672 0.874673 135.44 0.874674 135.297 1.01795L131.757 4.55764C131.614 4.70091 131.614 4.93321 131.757 5.07648L135.297 8.61617Z" fill="url(#paint12_radial_574_10189)"/>
</g>
<g filter="url(#filter3_i_574_10189)">
<path d="M135.297 7.51248C135.44 7.65576 135.673 7.65576 135.816 7.51248L138.252 5.07648C138.395 4.93321 138.395 4.70091 138.252 4.55764L135.816 2.12164C135.673 1.97837 135.44 1.97837 135.297 2.12164L132.861 4.55764C132.718 4.70092 132.718 4.93321 132.861 5.07649L135.297 7.51248Z" fill="url(#paint13_linear_574_10189)"/>
<path d="M135.297 7.51248C135.44 7.65576 135.673 7.65576 135.816 7.51248L138.252 5.07648C138.395 4.93321 138.395 4.70091 138.252 4.55764L135.816 2.12164C135.673 1.97837 135.44 1.97837 135.297 2.12164L132.861 4.55764C132.718 4.70092 132.718 4.93321 132.861 5.07649L135.297 7.51248Z" fill="url(#paint14_radial_574_10189)"/>
<path d="M135.297 7.51248C135.44 7.65576 135.673 7.65576 135.816 7.51248L138.252 5.07648C138.395 4.93321 138.395 4.70091 138.252 4.55764L135.816 2.12164C135.673 1.97837 135.44 1.97837 135.297 2.12164L132.861 4.55764C132.718 4.70092 132.718 4.93321 132.861 5.07649L135.297 7.51248Z" fill="black" fill-opacity="0.5"/>
</g>
<path d="M135.296 6.74721C135.44 6.89048 135.672 6.89048 135.815 6.74721L137.486 5.07649C137.629 4.93322 137.629 4.70092 137.486 4.55765L135.815 2.88693C135.672 2.74365 135.44 2.74365 135.296 2.88693L133.626 4.55765C133.482 4.70092 133.482 4.93322 133.626 5.07649L135.296 6.74721Z" fill="url(#paint15_linear_574_10189)"/>
<path d="M135.296 6.74721C135.44 6.89048 135.672 6.89048 135.815 6.74721L137.486 5.07649C137.629 4.93322 137.629 4.70092 137.486 4.55765L135.815 2.88693C135.672 2.74365 135.44 2.74365 135.296 2.88693L133.626 4.55765C133.482 4.70092 133.482 4.93322 133.626 5.07649L135.296 6.74721Z" fill="url(#paint16_linear_574_10189)" fill-opacity="0.5"/>
<path d="M135.296 6.74721C135.44 6.89048 135.672 6.89048 135.815 6.74721L137.486 5.07649C137.629 4.93322 137.629 4.70092 137.486 4.55765L135.815 2.88693C135.672 2.74365 135.44 2.74365 135.296 2.88693L133.626 4.55765C133.482 4.70092 133.482 4.93322 133.626 5.07649L135.296 6.74721Z" fill="url(#paint17_radial_574_10189)"/>
<path d="M47.104 1.60573H83.322" stroke="#926619" stroke-width="0.730716"/>
<path d="M36.9897 4.81708H93.4358" stroke="#E2CF7A" stroke-width="0.730716"/>
<path d="M36.9897 1.60573H93.4358" stroke="#DECB78" stroke-width="0.730716"/>
<g filter="url(#filter4_d_574_10189)">
<path d="M64.7395 8.61614C64.8828 8.75942 65.1151 8.75942 65.2584 8.61614L68.7981 5.07645C68.9413 4.93318 68.9413 4.70088 68.7981 4.55761L65.2584 1.01792C65.1151 0.874646 64.8828 0.874647 64.7395 1.01792L61.1999 4.55761C61.0566 4.70088 61.0566 4.93318 61.1999 5.07645L64.7395 8.61614Z" fill="url(#paint18_linear_574_10189)"/>
<path d="M64.7395 8.61614C64.8828 8.75942 65.1151 8.75942 65.2584 8.61614L68.7981 5.07645C68.9413 4.93318 68.9413 4.70088 68.7981 4.55761L65.2584 1.01792C65.1151 0.874646 64.8828 0.874647 64.7395 1.01792L61.1999 4.55761C61.0566 4.70088 61.0566 4.93318 61.1999 5.07645L64.7395 8.61614Z" fill="url(#paint19_radial_574_10189)"/>
</g>
<g filter="url(#filter5_i_574_10189)">
<path d="M64.7394 7.51246C64.8826 7.65573 65.1149 7.65573 65.2582 7.51246L67.6942 5.07646C67.8375 4.93318 67.8375 4.70089 67.6942 4.55761L65.2582 2.12162C65.1149 1.97834 64.8826 1.97834 64.7394 2.12162L62.3034 4.55761C62.1601 4.70089 62.1601 4.93319 62.3034 5.07646L64.7394 7.51246Z" fill="url(#paint20_linear_574_10189)"/>
<path d="M64.7394 7.51246C64.8826 7.65573 65.1149 7.65573 65.2582 7.51246L67.6942 5.07646C67.8375 4.93318 67.8375 4.70089 67.6942 4.55761L65.2582 2.12162C65.1149 1.97834 64.8826 1.97834 64.7394 2.12162L62.3034 4.55761C62.1601 4.70089 62.1601 4.93319 62.3034 5.07646L64.7394 7.51246Z" fill="url(#paint21_radial_574_10189)"/>
<path d="M64.7394 7.51246C64.8826 7.65573 65.1149 7.65573 65.2582 7.51246L67.6942 5.07646C67.8375 4.93318 67.8375 4.70089 67.6942 4.55761L65.2582 2.12162C65.1149 1.97834 64.8826 1.97834 64.7394 2.12162L62.3034 4.55761C62.1601 4.70089 62.1601 4.93319 62.3034 5.07646L64.7394 7.51246Z" fill="black" fill-opacity="0.5"/>
</g>
<path d="M64.7397 6.74718C64.883 6.89046 65.1153 6.89046 65.2586 6.74718L66.9293 5.07647C67.0725 4.93319 67.0725 4.7009 66.9293 4.55762L65.2586 2.8869C65.1153 2.74363 64.883 2.74363 64.7397 2.8869L63.069 4.55762C62.9257 4.7009 62.9257 4.93319 63.069 5.07647L64.7397 6.74718Z" fill="url(#paint22_linear_574_10189)"/>
<path d="M64.7397 6.74718C64.883 6.89046 65.1153 6.89046 65.2586 6.74718L66.9293 5.07647C67.0725 4.93319 67.0725 4.7009 66.9293 4.55762L65.2586 2.8869C65.1153 2.74363 64.883 2.74363 64.7397 2.8869L63.069 4.55762C62.9257 4.7009 62.9257 4.93319 63.069 5.07647L64.7397 6.74718Z" fill="url(#paint23_linear_574_10189)" fill-opacity="0.5"/>
<path d="M64.7397 6.74718C64.883 6.89046 65.1153 6.89046 65.2586 6.74718L66.9293 5.07647C67.0725 4.93319 67.0725 4.7009 66.9293 4.55762L65.2586 2.8869C65.1153 2.74363 64.883 2.74363 64.7397 2.8869L63.069 4.55762C62.9257 4.7009 62.9257 4.93319 63.069 5.07647L64.7397 6.74718Z" fill="url(#paint24_radial_574_10189)"/>
<defs>
<filter id="filter0_d_574_10189" x="0.625" y="0.610492" width="8.81348" height="8.81313" filterUnits="userSpaceOnUse" color-interpolation-filters="sRGB">
<feFlood flood-opacity="0" result="BackgroundImageFix"/>
<feColorMatrix in="SourceAlpha" type="matrix" values="0 0 0 0 0 0 0 0 0 0 0 0 0 0 0 0 0 0 127 0" result="hardAlpha"/>
<feOffset dy="0.2"/>
<feGaussianBlur stdDeviation="0.25"/>
<feComposite in2="hardAlpha" operator="out"/>
<feColorMatrix type="matrix" values="0 0 0 0 0 0 0 0 0 0 0 0 0 0 0 0 0 0 0.8 0"/>
<feBlend mode="normal" in2="BackgroundImageFix" result="effect1_dropShadow_574_10189"/>
<feBlend mode="normal" in="SourceGraphic" in2="effect1_dropShadow_574_10189" result="shape"/>
</filter>
<filter id="filter1_i_574_10189" x="2.22852" y="2.01418" width="5.60596" height="6.33951" filterUnits="userSpaceOnUse" color-interpolation-filters="sRGB">
<feFlood flood-opacity="0" result="BackgroundImageFix"/>
<feBlend mode="normal" in="SourceGraphic" in2="BackgroundImageFix" result="shape"/>
<feColorMatrix in="SourceAlpha" type="matrix" values="0 0 0 0 0 0 0 0 0 0 0 0 0 0 0 0 0 0 127 0" result="hardAlpha"/>
<feOffset dy="0.733759"/>
<feGaussianBlur stdDeviation="0.678727"/>
<feComposite in2="hardAlpha" operator="arithmetic" k2="-1" k3="1"/>
<feColorMatrix type="matrix" values="0 0 0 0 0 0 0 0 0 0 0 0 0 0 0 0 0 0 0.8 0"/>
<feBlend mode="normal" in2="shape" result="effect1_innerShadow_574_10189"/>
</filter>
<filter id="filter2_d_574_10189" x="131.149" y="0.610492" width="8.81348" height="8.81313" filterUnits="userSpaceOnUse" color-interpolation-filters="sRGB">
<feFlood flood-opacity="0" result="BackgroundImageFix"/>
<feColorMatrix in="SourceAlpha" type="matrix" values="0 0 0 0 0 0 0 0 0 0 0 0 0 0 0 0 0 0 127 0" result="hardAlpha"/>
<feOffset dy="0.2"/>
<feGaussianBlur stdDeviation="0.25"/>
<feComposite in2="hardAlpha" operator="out"/>
<feColorMatrix type="matrix" values="0 0 0 0 0 0 0 0 0 0 0 0 0 0 0 0 0 0 0.8 0"/>
<feBlend mode="normal" in2="BackgroundImageFix" result="effect1_dropShadow_574_10189"/>
<feBlend mode="normal" in="SourceGraphic" in2="effect1_dropShadow_574_10189" result="shape"/>
</filter>
<filter id="filter3_i_574_10189" x="132.753" y="2.01418" width="5.60596" height="6.33951" filterUnits="userSpaceOnUse" color-interpolation-filters="sRGB">
<feFlood flood-opacity="0" result="BackgroundImageFix"/>
<feBlend mode="normal" in="SourceGraphic" in2="BackgroundImageFix" result="shape"/>
<feColorMatrix in="SourceAlpha" type="matrix" values="0 0 0 0 0 0 0 0 0 0 0 0 0 0 0 0 0 0 127 0" result="hardAlpha"/>
<feOffset dy="0.733759"/>
<feGaussianBlur stdDeviation="0.678727"/>
<feComposite in2="hardAlpha" operator="arithmetic" k2="-1" k3="1"/>
<feColorMatrix type="matrix" values="0 0 0 0 0 0 0 0 0 0 0 0 0 0 0 0 0 0 0.8 0"/>
<feBlend mode="normal" in2="shape" result="effect1_innerShadow_574_10189"/>
</filter>
<filter id="filter4_d_574_10189" x="60.5923" y="0.610465" width="8.81348" height="8.81313" filterUnits="userSpaceOnUse" color-interpolation-filters="sRGB">
<feFlood flood-opacity="0" result="BackgroundImageFix"/>
<feColorMatrix in="SourceAlpha" type="matrix" values="0 0 0 0 0 0 0 0 0 0 0 0 0 0 0 0 0 0 127 0" result="hardAlpha"/>
<feOffset dy="0.2"/>
<feGaussianBlur stdDeviation="0.25"/>
<feComposite in2="hardAlpha" operator="out"/>
<feColorMatrix type="matrix" values="0 0 0 0 0 0 0 0 0 0 0 0 0 0 0 0 0 0 0.8 0"/>
<feBlend mode="normal" in2="BackgroundImageFix" result="effect1_dropShadow_574_10189"/>
<feBlend mode="normal" in="SourceGraphic" in2="effect1_dropShadow_574_10189" result="shape"/>
</filter>
<filter id="filter5_i_574_10189" x="62.1958" y="2.01416" width="5.60596" height="6.33951" filterUnits="userSpaceOnUse" color-interpolation-filters="sRGB">
<feFlood flood-opacity="0" result="BackgroundImageFix"/>
<feBlend mode="normal" in="SourceGraphic" in2="BackgroundImageFix" result="shape"/>
<feColorMatrix in="SourceAlpha" type="matrix" values="0 0 0 0 0 0 0 0 0 0 0 0 0 0 0 0 0 0 127 0" result="hardAlpha"/>
<feOffset dy="0.733759"/>
<feGaussianBlur stdDeviation="0.678727"/>
<feComposite in2="hardAlpha" operator="arithmetic" k2="-1" k3="1"/>
<feColorMatrix type="matrix" values="0 0 0 0 0 0 0 0 0 0 0 0 0 0 0 0 0 0 0.8 0"/>
<feBlend mode="normal" in2="shape" result="effect1_innerShadow_574_10189"/>
</filter>
<linearGradient id="paint0_linear_574_10189" x1="4.7777" y1="4.8171" x2="37.11" y2="4.8171" gradientUnits="userSpaceOnUse">
<stop stop-color="#372506"/>
<stop offset="1" stop-color="#EAD780"/>
</linearGradient>
<linearGradient id="paint1_linear_574_10189" x1="36.9115" y1="1.60575" x2="2.98418" y2="1.60575" gradientUnits="userSpaceOnUse">
<stop stop-color="#E8D57F"/>
<stop offset="1" stop-color="#4D380B"/>
</linearGradient>
<linearGradient id="paint2_linear_574_10189" x1="5.0318" y1="8.87559" x2="5.0318" y2="0.758526" gradientUnits="userSpaceOnUse">
<stop stop-color="#FFFFF6"/>
<stop offset="0.489524" stop-color="#E6D375"/>
<stop offset="0.507857" stop-color="#261600"/>
<stop offset="1" stop-color="#5B4905"/>
</linearGradient>
<radialGradient id="paint3_radial_574_10189" cx="0" cy="0" r="1" gradientUnits="userSpaceOnUse" gradientTransform="translate(1.86437 6.77279) rotate(-36.1309) scale(6.92214)">
<stop stop-color="#916619"/>
<stop offset="1" stop-color="#FFC55D" stop-opacity="0"/>
</radialGradient>
<linearGradient id="paint4_linear_574_10189" x1="5.03148" y1="7.77191" x2="5.03148" y2="1.86222" gradientUnits="userSpaceOnUse">
<stop stop-color="#FFFFF6"/>
<stop offset="0.489524" stop-color="#E6D375"/>
<stop offset="0.507857" stop-color="#261600"/>
<stop offset="1" stop-color="#5B4905"/>
</linearGradient>
<radialGradient id="paint5_radial_574_10189" cx="0" cy="0" r="1" gradientUnits="userSpaceOnUse" gradientTransform="translate(2.72542 6.24094) rotate(-36.1309) scale(5.03972)">
<stop stop-color="#916619"/>
<stop offset="1" stop-color="#FFC55D" stop-opacity="0"/>
</radialGradient>
<linearGradient id="paint6_linear_574_10189" x1="5.03212" y1="7.00663" x2="5.03212" y2="2.62751" gradientUnits="userSpaceOnUse">
<stop stop-color="#C1F0FF"/>
<stop offset="0.489524" stop-color="#00EFFF"/>
<stop offset="0.516666" stop-color="#0085FF"/>
<stop offset="1" stop-color="#00E0FF"/>
</linearGradient>
<linearGradient id="paint7_linear_574_10189" x1="7.22168" y1="4.81707" x2="2.84255" y2="4.81707" gradientUnits="userSpaceOnUse">
<stop stop-color="#149DF2"/>
<stop offset="0.48744" stop-color="#C8EBFF"/>
<stop offset="0.508881" stop-color="#0377FF"/>
<stop offset="1" stop-color="#23B9FA"/>
</linearGradient>
<radialGradient id="paint8_radial_574_10189" cx="0" cy="0" r="1" gradientUnits="userSpaceOnUse" gradientTransform="translate(3.67873 3.95832) rotate(35.875) scale(2.59559)">
<stop stop-color="#0066FF"/>
<stop offset="1" stop-color="#0066FF" stop-opacity="0"/>
</radialGradient>
<linearGradient id="paint9_linear_574_10189" x1="135.81" y1="4.8171" x2="103.478" y2="4.8171" gradientUnits="userSpaceOnUse">
<stop stop-color="#372506"/>
<stop offset="1" stop-color="#EAD780"/>
</linearGradient>
<linearGradient id="paint10_linear_574_10189" x1="103.676" y1="1.60575" x2="137.604" y2="1.60575" gradientUnits="userSpaceOnUse">
<stop stop-color="#E8D57F"/>
<stop offset="1" stop-color="#4D380B"/>
</linearGradient>
<linearGradient id="paint11_linear_574_10189" x1="135.556" y1="8.87559" x2="135.556" y2="0.758526" gradientUnits="userSpaceOnUse">
<stop stop-color="#FFFFF6"/>
<stop offset="0.489524" stop-color="#E6D375"/>
<stop offset="0.507857" stop-color="#261600"/>
<stop offset="1" stop-color="#5B4905"/>
</linearGradient>
<radialGradient id="paint12_radial_574_10189" cx="0" cy="0" r="1" gradientUnits="userSpaceOnUse" gradientTransform="translate(138.724 6.77279) rotate(-143.869) scale(6.92214)">
<stop stop-color="#916619"/>
<stop offset="1" stop-color="#FFC55D" stop-opacity="0"/>
</radialGradient>
<linearGradient id="paint13_linear_574_10189" x1="135.556" y1="7.77191" x2="135.556" y2="1.86222" gradientUnits="userSpaceOnUse">
<stop stop-color="#FFFFF6"/>
<stop offset="0.489524" stop-color="#E6D375"/>
<stop offset="0.507857" stop-color="#261600"/>
<stop offset="1" stop-color="#5B4905"/>
</linearGradient>
<radialGradient id="paint14_radial_574_10189" cx="0" cy="0" r="1" gradientUnits="userSpaceOnUse" gradientTransform="translate(137.862 6.24094) rotate(-143.869) scale(5.03972)">
<stop stop-color="#916619"/>
<stop offset="1" stop-color="#FFC55D" stop-opacity="0"/>
</radialGradient>
<linearGradient id="paint15_linear_574_10189" x1="135.556" y1="7.00663" x2="135.556" y2="2.62751" gradientUnits="userSpaceOnUse">
<stop stop-color="#C1F0FF"/>
<stop offset="0.489524" stop-color="#00EFFF"/>
<stop offset="0.516666" stop-color="#0085FF"/>
<stop offset="1" stop-color="#00E0FF"/>
</linearGradient>
<linearGradient id="paint16_linear_574_10189" x1="133.366" y1="4.81707" x2="137.745" y2="4.81707" gradientUnits="userSpaceOnUse">
<stop stop-color="#149DF2"/>
<stop offset="0.48744" stop-color="#C8EBFF"/>
<stop offset="0.508881" stop-color="#0377FF"/>
<stop offset="1" stop-color="#23B9FA"/>
</linearGradient>
<radialGradient id="paint17_radial_574_10189" cx="0" cy="0" r="1" gradientUnits="userSpaceOnUse" gradientTransform="translate(136.909 3.95832) rotate(144.125) scale(2.59559)">
<stop stop-color="#0066FF"/>
<stop offset="1" stop-color="#0066FF" stop-opacity="0"/>
</radialGradient>
<linearGradient id="paint18_linear_574_10189" x1="64.999" y1="8.87556" x2="64.999" y2="0.758499" gradientUnits="userSpaceOnUse">
<stop stop-color="#FFFFF6"/>
<stop offset="0.489524" stop-color="#E6D375"/>
<stop offset="0.507857" stop-color="#261600"/>
<stop offset="1" stop-color="#5B4905"/>
</linearGradient>
<radialGradient id="paint19_radial_574_10189" cx="0" cy="0" r="1" gradientUnits="userSpaceOnUse" gradientTransform="translate(68.1664 6.77276) rotate(-143.869) scale(6.92214)">
<stop stop-color="#916619"/>
<stop offset="1" stop-color="#FFC55D" stop-opacity="0"/>
</radialGradient>
<linearGradient id="paint20_linear_574_10189" x1="64.9988" y1="7.77188" x2="64.9988" y2="1.86219" gradientUnits="userSpaceOnUse">
<stop stop-color="#FFFFF6"/>
<stop offset="0.489524" stop-color="#E6D375"/>
<stop offset="0.507857" stop-color="#261600"/>
<stop offset="1" stop-color="#5B4905"/>
</linearGradient>
<radialGradient id="paint21_radial_574_10189" cx="0" cy="0" r="1" gradientUnits="userSpaceOnUse" gradientTransform="translate(67.3049 6.24092) rotate(-143.869) scale(5.03972)">
<stop stop-color="#916619"/>
<stop offset="1" stop-color="#FFC55D" stop-opacity="0"/>
</radialGradient>
<linearGradient id="paint22_linear_574_10189" x1="64.9991" y1="7.00661" x2="64.9991" y2="2.62748" gradientUnits="userSpaceOnUse">
<stop stop-color="#C1F0FF"/>
<stop offset="0.489524" stop-color="#00EFFF"/>
<stop offset="0.516666" stop-color="#0085FF"/>
<stop offset="1" stop-color="#00E0FF"/>
</linearGradient>
<linearGradient id="paint23_linear_574_10189" x1="62.8096" y1="4.81704" x2="67.1887" y2="4.81704" gradientUnits="userSpaceOnUse">
<stop stop-color="#149DF2"/>
<stop offset="0.48744" stop-color="#C8EBFF"/>
<stop offset="0.508881" stop-color="#0377FF"/>
<stop offset="1" stop-color="#23B9FA"/>
</linearGradient>
<radialGradient id="paint24_radial_574_10189" cx="0" cy="0" r="1" gradientUnits="userSpaceOnUse" gradientTransform="translate(66.3525 3.9583) rotate(144.125) scale(2.59559)">
<stop stop-color="#0066FF"/>
<stop offset="1" stop-color="#0066FF" stop-opacity="0"/>
</radialGradient>
</defs>
</svg>
